<?xml version="1.0" encoding="utf-8" standalone="no"?>
<!DOCTYPE svg PUBLIC "-//W3C//DTD SVG 1.1//EN"
  "http://www.w3.org/Graphics/SVG/1.1/DTD/svg11.dtd">
<svg xmlns:xlink="http://www.w3.org/1999/xlink" width="608.98125pt" height="392.514375pt" viewBox="0 0 608.98125 392.514375" xmlns="http://www.w3.org/2000/svg" version="1.1">
 <metadata>
  <rdf:RDF xmlns:dc="http://purl.org/dc/elements/1.1/" xmlns:cc="http://creativecommons.org/ns#" xmlns:rdf="http://www.w3.org/1999/02/22-rdf-syntax-ns#">
   <cc:Work>
    <dc:type rdf:resource="http://purl.org/dc/dcmitype/StillImage"/>
    <dc:date>2024-07-08T09:40:15.038509</dc:date>
    <dc:format>image/svg+xml</dc:format>
    <dc:creator>
     <cc:Agent>
      <dc:title>Matplotlib v3.9.0, https://matplotlib.org/</dc:title>
     </cc:Agent>
    </dc:creator>
   </cc:Work>
  </rdf:RDF>
 </metadata>
 <defs>
  <style type="text/css">*{stroke-linejoin: round; stroke-linecap: butt}</style>
 </defs>
 <g id="figure_1">
  <g id="patch_1">
   <path d="M 0 392.514375 
L 608.98125 392.514375 
L 608.98125 0 
L 0 0 
z
" style="fill: #ffffff"/>
  </g>
  <g id="axes_1">
   <g id="patch_2">
    <path d="M 43.78125 354.958125 
L 601.78125 354.958125 
L 601.78125 22.318125 
L 43.78125 22.318125 
z
" style="fill: #ffffff"/>
   </g>
   <g id="matplotlib.axis_1">
    <g id="xtick_1">
     <g id="line2d_1">
      <defs>
       <path id="m33e41e38c2" d="M 0 0 
L 0 3.5 
" style="stroke: #000000; stroke-width: 0.8"/>
      </defs>
      <g>
       <use xlink:href="#m33e41e38c2" x="68.220892" y="354.958125" style="stroke: #000000; stroke-width: 0.8"/>
      </g>
     </g>
     <g id="text_1">
      <!-- 0 -->
      <g transform="translate(65.039642 369.556562) scale(0.1 -0.1)">
       <defs>
        <path id="DejaVuSans-30" d="M 2034 4250 
Q 1547 4250 1301 3770 
Q 1056 3291 1056 2328 
Q 1056 1369 1301 889 
Q 1547 409 2034 409 
Q 2525 409 2770 889 
Q 3016 1369 3016 2328 
Q 3016 3291 2770 3770 
Q 2525 4250 2034 4250 
z
M 2034 4750 
Q 2819 4750 3233 4129 
Q 3647 3509 3647 2328 
Q 3647 1150 3233 529 
Q 2819 -91 2034 -91 
Q 1250 -91 836 529 
Q 422 1150 422 2328 
Q 422 3509 836 4129 
Q 1250 4750 2034 4750 
z
" transform="scale(0.015625)"/>
       </defs>
       <use xlink:href="#DejaVuSans-30"/>
      </g>
     </g>
    </g>
    <g id="xtick_2">
     <g id="line2d_2">
      <g>
       <use xlink:href="#m33e41e38c2" x="145.220396" y="354.958125" style="stroke: #000000; stroke-width: 0.8"/>
      </g>
     </g>
     <g id="text_2">
      <!-- 1000 -->
      <g transform="translate(132.495396 369.556562) scale(0.1 -0.1)">
       <defs>
        <path id="DejaVuSans-31" d="M 794 531 
L 1825 531 
L 1825 4091 
L 703 3866 
L 703 4441 
L 1819 4666 
L 2450 4666 
L 2450 531 
L 3481 531 
L 3481 0 
L 794 0 
L 794 531 
z
" transform="scale(0.015625)"/>
       </defs>
       <use xlink:href="#DejaVuSans-31"/>
       <use xlink:href="#DejaVuSans-30" x="63.623047"/>
       <use xlink:href="#DejaVuSans-30" x="127.246094"/>
       <use xlink:href="#DejaVuSans-30" x="190.869141"/>
      </g>
     </g>
    </g>
    <g id="xtick_3">
     <g id="line2d_3">
      <g>
       <use xlink:href="#m33e41e38c2" x="222.219899" y="354.958125" style="stroke: #000000; stroke-width: 0.8"/>
      </g>
     </g>
     <g id="text_3">
      <!-- 2000 -->
      <g transform="translate(209.494899 369.556562) scale(0.1 -0.1)">
       <defs>
        <path id="DejaVuSans-32" d="M 1228 531 
L 3431 531 
L 3431 0 
L 469 0 
L 469 531 
Q 828 903 1448 1529 
Q 2069 2156 2228 2338 
Q 2531 2678 2651 2914 
Q 2772 3150 2772 3378 
Q 2772 3750 2511 3984 
Q 2250 4219 1831 4219 
Q 1534 4219 1204 4116 
Q 875 4013 500 3803 
L 500 4441 
Q 881 4594 1212 4672 
Q 1544 4750 1819 4750 
Q 2544 4750 2975 4387 
Q 3406 4025 3406 3419 
Q 3406 3131 3298 2873 
Q 3191 2616 2906 2266 
Q 2828 2175 2409 1742 
Q 1991 1309 1228 531 
z
" transform="scale(0.015625)"/>
       </defs>
       <use xlink:href="#DejaVuSans-32"/>
       <use xlink:href="#DejaVuSans-30" x="63.623047"/>
       <use xlink:href="#DejaVuSans-30" x="127.246094"/>
       <use xlink:href="#DejaVuSans-30" x="190.869141"/>
      </g>
     </g>
    </g>
    <g id="xtick_4">
     <g id="line2d_4">
      <g>
       <use xlink:href="#m33e41e38c2" x="299.219402" y="354.958125" style="stroke: #000000; stroke-width: 0.8"/>
      </g>
     </g>
     <g id="text_4">
      <!-- 3000 -->
      <g transform="translate(286.494402 369.556562) scale(0.1 -0.1)">
       <defs>
        <path id="DejaVuSans-33" d="M 2597 2516 
Q 3050 2419 3304 2112 
Q 3559 1806 3559 1356 
Q 3559 666 3084 287 
Q 2609 -91 1734 -91 
Q 1441 -91 1130 -33 
Q 819 25 488 141 
L 488 750 
Q 750 597 1062 519 
Q 1375 441 1716 441 
Q 2309 441 2620 675 
Q 2931 909 2931 1356 
Q 2931 1769 2642 2001 
Q 2353 2234 1838 2234 
L 1294 2234 
L 1294 2753 
L 1863 2753 
Q 2328 2753 2575 2939 
Q 2822 3125 2822 3475 
Q 2822 3834 2567 4026 
Q 2313 4219 1838 4219 
Q 1578 4219 1281 4162 
Q 984 4106 628 3988 
L 628 4550 
Q 988 4650 1302 4700 
Q 1616 4750 1894 4750 
Q 2613 4750 3031 4423 
Q 3450 4097 3450 3541 
Q 3450 3153 3228 2886 
Q 3006 2619 2597 2516 
z
" transform="scale(0.015625)"/>
       </defs>
       <use xlink:href="#DejaVuSans-33"/>
       <use xlink:href="#DejaVuSans-30" x="63.623047"/>
       <use xlink:href="#DejaVuSans-30" x="127.246094"/>
       <use xlink:href="#DejaVuSans-30" x="190.869141"/>
      </g>
     </g>
    </g>
    <g id="xtick_5">
     <g id="line2d_5">
      <g>
       <use xlink:href="#m33e41e38c2" x="376.218905" y="354.958125" style="stroke: #000000; stroke-width: 0.8"/>
      </g>
     </g>
     <g id="text_5">
      <!-- 4000 -->
      <g transform="translate(363.493905 369.556562) scale(0.1 -0.1)">
       <defs>
        <path id="DejaVuSans-34" d="M 2419 4116 
L 825 1625 
L 2419 1625 
L 2419 4116 
z
M 2253 4666 
L 3047 4666 
L 3047 1625 
L 3713 1625 
L 3713 1100 
L 3047 1100 
L 3047 0 
L 2419 0 
L 2419 1100 
L 313 1100 
L 313 1709 
L 2253 4666 
z
" transform="scale(0.015625)"/>
       </defs>
       <use xlink:href="#DejaVuSans-34"/>
       <use xlink:href="#DejaVuSans-30" x="63.623047"/>
       <use xlink:href="#DejaVuSans-30" x="127.246094"/>
       <use xlink:href="#DejaVuSans-30" x="190.869141"/>
      </g>
     </g>
    </g>
    <g id="xtick_6">
     <g id="line2d_6">
      <g>
       <use xlink:href="#m33e41e38c2" x="453.218408" y="354.958125" style="stroke: #000000; stroke-width: 0.8"/>
      </g>
     </g>
     <g id="text_6">
      <!-- 5000 -->
      <g transform="translate(440.493408 369.556562) scale(0.1 -0.1)">
       <defs>
        <path id="DejaVuSans-35" d="M 691 4666 
L 3169 4666 
L 3169 4134 
L 1269 4134 
L 1269 2991 
Q 1406 3038 1543 3061 
Q 1681 3084 1819 3084 
Q 2600 3084 3056 2656 
Q 3513 2228 3513 1497 
Q 3513 744 3044 326 
Q 2575 -91 1722 -91 
Q 1428 -91 1123 -41 
Q 819 9 494 109 
L 494 744 
Q 775 591 1075 516 
Q 1375 441 1709 441 
Q 2250 441 2565 725 
Q 2881 1009 2881 1497 
Q 2881 1984 2565 2268 
Q 2250 2553 1709 2553 
Q 1456 2553 1204 2497 
Q 953 2441 691 2322 
L 691 4666 
z
" transform="scale(0.015625)"/>
       </defs>
       <use xlink:href="#DejaVuSans-35"/>
       <use xlink:href="#DejaVuSans-30" x="63.623047"/>
       <use xlink:href="#DejaVuSans-30" x="127.246094"/>
       <use xlink:href="#DejaVuSans-30" x="190.869141"/>
      </g>
     </g>
    </g>
    <g id="xtick_7">
     <g id="line2d_7">
      <g>
       <use xlink:href="#m33e41e38c2" x="530.217912" y="354.958125" style="stroke: #000000; stroke-width: 0.8"/>
      </g>
     </g>
     <g id="text_7">
      <!-- 6000 -->
      <g transform="translate(517.492912 369.556562) scale(0.1 -0.1)">
       <defs>
        <path id="DejaVuSans-36" d="M 2113 2584 
Q 1688 2584 1439 2293 
Q 1191 2003 1191 1497 
Q 1191 994 1439 701 
Q 1688 409 2113 409 
Q 2538 409 2786 701 
Q 3034 994 3034 1497 
Q 3034 2003 2786 2293 
Q 2538 2584 2113 2584 
z
M 3366 4563 
L 3366 3988 
Q 3128 4100 2886 4159 
Q 2644 4219 2406 4219 
Q 1781 4219 1451 3797 
Q 1122 3375 1075 2522 
Q 1259 2794 1537 2939 
Q 1816 3084 2150 3084 
Q 2853 3084 3261 2657 
Q 3669 2231 3669 1497 
Q 3669 778 3244 343 
Q 2819 -91 2113 -91 
Q 1303 -91 875 529 
Q 447 1150 447 2328 
Q 447 3434 972 4092 
Q 1497 4750 2381 4750 
Q 2619 4750 2861 4703 
Q 3103 4656 3366 4563 
z
" transform="scale(0.015625)"/>
       </defs>
       <use xlink:href="#DejaVuSans-36"/>
       <use xlink:href="#DejaVuSans-30" x="63.623047"/>
       <use xlink:href="#DejaVuSans-30" x="127.246094"/>
       <use xlink:href="#DejaVuSans-30" x="190.869141"/>
      </g>
     </g>
    </g>
    <g id="text_8">
     <!-- Time in Days -->
     <g transform="translate(290.333594 383.234687) scale(0.1 -0.1)">
      <defs>
       <path id="DejaVuSans-54" d="M -19 4666 
L 3928 4666 
L 3928 4134 
L 2272 4134 
L 2272 0 
L 1638 0 
L 1638 4134 
L -19 4134 
L -19 4666 
z
" transform="scale(0.015625)"/>
       <path id="DejaVuSans-69" d="M 603 3500 
L 1178 3500 
L 1178 0 
L 603 0 
L 603 3500 
z
M 603 4863 
L 1178 4863 
L 1178 4134 
L 603 4134 
L 603 4863 
z
" transform="scale(0.015625)"/>
       <path id="DejaVuSans-6d" d="M 3328 2828 
Q 3544 3216 3844 3400 
Q 4144 3584 4550 3584 
Q 5097 3584 5394 3201 
Q 5691 2819 5691 2113 
L 5691 0 
L 5113 0 
L 5113 2094 
Q 5113 2597 4934 2840 
Q 4756 3084 4391 3084 
Q 3944 3084 3684 2787 
Q 3425 2491 3425 1978 
L 3425 0 
L 2847 0 
L 2847 2094 
Q 2847 2600 2669 2842 
Q 2491 3084 2119 3084 
Q 1678 3084 1418 2786 
Q 1159 2488 1159 1978 
L 1159 0 
L 581 0 
L 581 3500 
L 1159 3500 
L 1159 2956 
Q 1356 3278 1631 3431 
Q 1906 3584 2284 3584 
Q 2666 3584 2933 3390 
Q 3200 3197 3328 2828 
z
" transform="scale(0.015625)"/>
       <path id="DejaVuSans-65" d="M 3597 1894 
L 3597 1613 
L 953 1613 
Q 991 1019 1311 708 
Q 1631 397 2203 397 
Q 2534 397 2845 478 
Q 3156 559 3463 722 
L 3463 178 
Q 3153 47 2828 -22 
Q 2503 -91 2169 -91 
Q 1331 -91 842 396 
Q 353 884 353 1716 
Q 353 2575 817 3079 
Q 1281 3584 2069 3584 
Q 2775 3584 3186 3129 
Q 3597 2675 3597 1894 
z
M 3022 2063 
Q 3016 2534 2758 2815 
Q 2500 3097 2075 3097 
Q 1594 3097 1305 2825 
Q 1016 2553 972 2059 
L 3022 2063 
z
" transform="scale(0.015625)"/>
       <path id="DejaVuSans-20" transform="scale(0.015625)"/>
       <path id="DejaVuSans-6e" d="M 3513 2113 
L 3513 0 
L 2938 0 
L 2938 2094 
Q 2938 2591 2744 2837 
Q 2550 3084 2163 3084 
Q 1697 3084 1428 2787 
Q 1159 2491 1159 1978 
L 1159 0 
L 581 0 
L 581 3500 
L 1159 3500 
L 1159 2956 
Q 1366 3272 1645 3428 
Q 1925 3584 2291 3584 
Q 2894 3584 3203 3211 
Q 3513 2838 3513 2113 
z
" transform="scale(0.015625)"/>
       <path id="DejaVuSans-44" d="M 1259 4147 
L 1259 519 
L 2022 519 
Q 2988 519 3436 956 
Q 3884 1394 3884 2338 
Q 3884 3275 3436 3711 
Q 2988 4147 2022 4147 
L 1259 4147 
z
M 628 4666 
L 1925 4666 
Q 3281 4666 3915 4102 
Q 4550 3538 4550 2338 
Q 4550 1131 3912 565 
Q 3275 0 1925 0 
L 628 0 
L 628 4666 
z
" transform="scale(0.015625)"/>
       <path id="DejaVuSans-61" d="M 2194 1759 
Q 1497 1759 1228 1600 
Q 959 1441 959 1056 
Q 959 750 1161 570 
Q 1363 391 1709 391 
Q 2188 391 2477 730 
Q 2766 1069 2766 1631 
L 2766 1759 
L 2194 1759 
z
M 3341 1997 
L 3341 0 
L 2766 0 
L 2766 531 
Q 2569 213 2275 61 
Q 1981 -91 1556 -91 
Q 1019 -91 701 211 
Q 384 513 384 1019 
Q 384 1609 779 1909 
Q 1175 2209 1959 2209 
L 2766 2209 
L 2766 2266 
Q 2766 2663 2505 2880 
Q 2244 3097 1772 3097 
Q 1472 3097 1187 3025 
Q 903 2953 641 2809 
L 641 3341 
Q 956 3463 1253 3523 
Q 1550 3584 1831 3584 
Q 2591 3584 2966 3190 
Q 3341 2797 3341 1997 
z
" transform="scale(0.015625)"/>
       <path id="DejaVuSans-79" d="M 2059 -325 
Q 1816 -950 1584 -1140 
Q 1353 -1331 966 -1331 
L 506 -1331 
L 506 -850 
L 844 -850 
Q 1081 -850 1212 -737 
Q 1344 -625 1503 -206 
L 1606 56 
L 191 3500 
L 800 3500 
L 1894 763 
L 2988 3500 
L 3597 3500 
L 2059 -325 
z
" transform="scale(0.015625)"/>
       <path id="DejaVuSans-73" d="M 2834 3397 
L 2834 2853 
Q 2591 2978 2328 3040 
Q 2066 3103 1784 3103 
Q 1356 3103 1142 2972 
Q 928 2841 928 2578 
Q 928 2378 1081 2264 
Q 1234 2150 1697 2047 
L 1894 2003 
Q 2506 1872 2764 1633 
Q 3022 1394 3022 966 
Q 3022 478 2636 193 
Q 2250 -91 1575 -91 
Q 1294 -91 989 -36 
Q 684 19 347 128 
L 347 722 
Q 666 556 975 473 
Q 1284 391 1588 391 
Q 1994 391 2212 530 
Q 2431 669 2431 922 
Q 2431 1156 2273 1281 
Q 2116 1406 1581 1522 
L 1381 1569 
Q 847 1681 609 1914 
Q 372 2147 372 2553 
Q 372 3047 722 3315 
Q 1072 3584 1716 3584 
Q 2034 3584 2315 3537 
Q 2597 3491 2834 3397 
z
" transform="scale(0.015625)"/>
      </defs>
      <use xlink:href="#DejaVuSans-54"/>
      <use xlink:href="#DejaVuSans-69" x="57.958984"/>
      <use xlink:href="#DejaVuSans-6d" x="85.742188"/>
      <use xlink:href="#DejaVuSans-65" x="183.154297"/>
      <use xlink:href="#DejaVuSans-20" x="244.677734"/>
      <use xlink:href="#DejaVuSans-69" x="276.464844"/>
      <use xlink:href="#DejaVuSans-6e" x="304.248047"/>
      <use xlink:href="#DejaVuSans-20" x="367.626953"/>
      <use xlink:href="#DejaVuSans-44" x="399.414062"/>
      <use xlink:href="#DejaVuSans-61" x="476.416016"/>
      <use xlink:href="#DejaVuSans-79" x="537.695312"/>
      <use xlink:href="#DejaVuSans-73" x="596.875"/>
     </g>
    </g>
   </g>
   <g id="matplotlib.axis_2">
    <g id="ytick_1">
     <g id="line2d_8">
      <defs>
       <path id="m853dbcb817" d="M 0 0 
L -3.5 0 
" style="stroke: #000000; stroke-width: 0.8"/>
      </defs>
      <g>
       <use xlink:href="#m853dbcb817" x="43.78125" y="349.592964" style="stroke: #000000; stroke-width: 0.8"/>
      </g>
     </g>
     <g id="text_9">
      <!-- 0.4 -->
      <g transform="translate(20.878125 353.392182) scale(0.1 -0.1)">
       <defs>
        <path id="DejaVuSans-2e" d="M 684 794 
L 1344 794 
L 1344 0 
L 684 0 
L 684 794 
z
" transform="scale(0.015625)"/>
       </defs>
       <use xlink:href="#DejaVuSans-30"/>
       <use xlink:href="#DejaVuSans-2e" x="63.623047"/>
       <use xlink:href="#DejaVuSans-34" x="95.410156"/>
      </g>
     </g>
    </g>
    <g id="ytick_2">
     <g id="line2d_9">
      <g>
       <use xlink:href="#m853dbcb817" x="43.78125" y="295.941351" style="stroke: #000000; stroke-width: 0.8"/>
      </g>
     </g>
     <g id="text_10">
      <!-- 0.5 -->
      <g transform="translate(20.878125 299.74057) scale(0.1 -0.1)">
       <use xlink:href="#DejaVuSans-30"/>
       <use xlink:href="#DejaVuSans-2e" x="63.623047"/>
       <use xlink:href="#DejaVuSans-35" x="95.410156"/>
      </g>
     </g>
    </g>
    <g id="ytick_3">
     <g id="line2d_10">
      <g>
       <use xlink:href="#m853dbcb817" x="43.78125" y="242.289738" style="stroke: #000000; stroke-width: 0.8"/>
      </g>
     </g>
     <g id="text_11">
      <!-- 0.6 -->
      <g transform="translate(20.878125 246.088957) scale(0.1 -0.1)">
       <use xlink:href="#DejaVuSans-30"/>
       <use xlink:href="#DejaVuSans-2e" x="63.623047"/>
       <use xlink:href="#DejaVuSans-36" x="95.410156"/>
      </g>
     </g>
    </g>
    <g id="ytick_4">
     <g id="line2d_11">
      <g>
       <use xlink:href="#m853dbcb817" x="43.78125" y="188.638125" style="stroke: #000000; stroke-width: 0.8"/>
      </g>
     </g>
     <g id="text_12">
      <!-- 0.7 -->
      <g transform="translate(20.878125 192.437344) scale(0.1 -0.1)">
       <defs>
        <path id="DejaVuSans-37" d="M 525 4666 
L 3525 4666 
L 3525 4397 
L 1831 0 
L 1172 0 
L 2766 4134 
L 525 4134 
L 525 4666 
z
" transform="scale(0.015625)"/>
       </defs>
       <use xlink:href="#DejaVuSans-30"/>
       <use xlink:href="#DejaVuSans-2e" x="63.623047"/>
       <use xlink:href="#DejaVuSans-37" x="95.410156"/>
      </g>
     </g>
    </g>
    <g id="ytick_5">
     <g id="line2d_12">
      <g>
       <use xlink:href="#m853dbcb817" x="43.78125" y="134.986512" style="stroke: #000000; stroke-width: 0.8"/>
      </g>
     </g>
     <g id="text_13">
      <!-- 0.8 -->
      <g transform="translate(20.878125 138.785731) scale(0.1 -0.1)">
       <defs>
        <path id="DejaVuSans-38" d="M 2034 2216 
Q 1584 2216 1326 1975 
Q 1069 1734 1069 1313 
Q 1069 891 1326 650 
Q 1584 409 2034 409 
Q 2484 409 2743 651 
Q 3003 894 3003 1313 
Q 3003 1734 2745 1975 
Q 2488 2216 2034 2216 
z
M 1403 2484 
Q 997 2584 770 2862 
Q 544 3141 544 3541 
Q 544 4100 942 4425 
Q 1341 4750 2034 4750 
Q 2731 4750 3128 4425 
Q 3525 4100 3525 3541 
Q 3525 3141 3298 2862 
Q 3072 2584 2669 2484 
Q 3125 2378 3379 2068 
Q 3634 1759 3634 1313 
Q 3634 634 3220 271 
Q 2806 -91 2034 -91 
Q 1263 -91 848 271 
Q 434 634 434 1313 
Q 434 1759 690 2068 
Q 947 2378 1403 2484 
z
M 1172 3481 
Q 1172 3119 1398 2916 
Q 1625 2713 2034 2713 
Q 2441 2713 2670 2916 
Q 2900 3119 2900 3481 
Q 2900 3844 2670 4047 
Q 2441 4250 2034 4250 
Q 1625 4250 1398 4047 
Q 1172 3844 1172 3481 
z
" transform="scale(0.015625)"/>
       </defs>
       <use xlink:href="#DejaVuSans-30"/>
       <use xlink:href="#DejaVuSans-2e" x="63.623047"/>
       <use xlink:href="#DejaVuSans-38" x="95.410156"/>
      </g>
     </g>
    </g>
    <g id="ytick_6">
     <g id="line2d_13">
      <g>
       <use xlink:href="#m853dbcb817" x="43.78125" y="81.334899" style="stroke: #000000; stroke-width: 0.8"/>
      </g>
     </g>
     <g id="text_14">
      <!-- 0.9 -->
      <g transform="translate(20.878125 85.134118) scale(0.1 -0.1)">
       <defs>
        <path id="DejaVuSans-39" d="M 703 97 
L 703 672 
Q 941 559 1184 500 
Q 1428 441 1663 441 
Q 2288 441 2617 861 
Q 2947 1281 2994 2138 
Q 2813 1869 2534 1725 
Q 2256 1581 1919 1581 
Q 1219 1581 811 2004 
Q 403 2428 403 3163 
Q 403 3881 828 4315 
Q 1253 4750 1959 4750 
Q 2769 4750 3195 4129 
Q 3622 3509 3622 2328 
Q 3622 1225 3098 567 
Q 2575 -91 1691 -91 
Q 1453 -91 1209 -44 
Q 966 3 703 97 
z
M 1959 2075 
Q 2384 2075 2632 2365 
Q 2881 2656 2881 3163 
Q 2881 3666 2632 3958 
Q 2384 4250 1959 4250 
Q 1534 4250 1286 3958 
Q 1038 3666 1038 3163 
Q 1038 2656 1286 2365 
Q 1534 2075 1959 2075 
z
" transform="scale(0.015625)"/>
       </defs>
       <use xlink:href="#DejaVuSans-30"/>
       <use xlink:href="#DejaVuSans-2e" x="63.623047"/>
       <use xlink:href="#DejaVuSans-39" x="95.410156"/>
      </g>
     </g>
    </g>
    <g id="ytick_7">
     <g id="line2d_14">
      <g>
       <use xlink:href="#m853dbcb817" x="43.78125" y="27.683286" style="stroke: #000000; stroke-width: 0.8"/>
      </g>
     </g>
     <g id="text_15">
      <!-- 1.0 -->
      <g transform="translate(20.878125 31.482505) scale(0.1 -0.1)">
       <use xlink:href="#DejaVuSans-31"/>
       <use xlink:href="#DejaVuSans-2e" x="63.623047"/>
       <use xlink:href="#DejaVuSans-30" x="95.410156"/>
      </g>
     </g>
    </g>
    <g id="text_16">
     <!-- Survival Probability -->
     <g transform="translate(14.798438 236.815469) rotate(-90) scale(0.1 -0.1)">
      <defs>
       <path id="DejaVuSans-53" d="M 3425 4513 
L 3425 3897 
Q 3066 4069 2747 4153 
Q 2428 4238 2131 4238 
Q 1616 4238 1336 4038 
Q 1056 3838 1056 3469 
Q 1056 3159 1242 3001 
Q 1428 2844 1947 2747 
L 2328 2669 
Q 3034 2534 3370 2195 
Q 3706 1856 3706 1288 
Q 3706 609 3251 259 
Q 2797 -91 1919 -91 
Q 1588 -91 1214 -16 
Q 841 59 441 206 
L 441 856 
Q 825 641 1194 531 
Q 1563 422 1919 422 
Q 2459 422 2753 634 
Q 3047 847 3047 1241 
Q 3047 1584 2836 1778 
Q 2625 1972 2144 2069 
L 1759 2144 
Q 1053 2284 737 2584 
Q 422 2884 422 3419 
Q 422 4038 858 4394 
Q 1294 4750 2059 4750 
Q 2388 4750 2728 4690 
Q 3069 4631 3425 4513 
z
" transform="scale(0.015625)"/>
       <path id="DejaVuSans-75" d="M 544 1381 
L 544 3500 
L 1119 3500 
L 1119 1403 
Q 1119 906 1312 657 
Q 1506 409 1894 409 
Q 2359 409 2629 706 
Q 2900 1003 2900 1516 
L 2900 3500 
L 3475 3500 
L 3475 0 
L 2900 0 
L 2900 538 
Q 2691 219 2414 64 
Q 2138 -91 1772 -91 
Q 1169 -91 856 284 
Q 544 659 544 1381 
z
M 1991 3584 
L 1991 3584 
z
" transform="scale(0.015625)"/>
       <path id="DejaVuSans-72" d="M 2631 2963 
Q 2534 3019 2420 3045 
Q 2306 3072 2169 3072 
Q 1681 3072 1420 2755 
Q 1159 2438 1159 1844 
L 1159 0 
L 581 0 
L 581 3500 
L 1159 3500 
L 1159 2956 
Q 1341 3275 1631 3429 
Q 1922 3584 2338 3584 
Q 2397 3584 2469 3576 
Q 2541 3569 2628 3553 
L 2631 2963 
z
" transform="scale(0.015625)"/>
       <path id="DejaVuSans-76" d="M 191 3500 
L 800 3500 
L 1894 563 
L 2988 3500 
L 3597 3500 
L 2284 0 
L 1503 0 
L 191 3500 
z
" transform="scale(0.015625)"/>
       <path id="DejaVuSans-6c" d="M 603 4863 
L 1178 4863 
L 1178 0 
L 603 0 
L 603 4863 
z
" transform="scale(0.015625)"/>
       <path id="DejaVuSans-50" d="M 1259 4147 
L 1259 2394 
L 2053 2394 
Q 2494 2394 2734 2622 
Q 2975 2850 2975 3272 
Q 2975 3691 2734 3919 
Q 2494 4147 2053 4147 
L 1259 4147 
z
M 628 4666 
L 2053 4666 
Q 2838 4666 3239 4311 
Q 3641 3956 3641 3272 
Q 3641 2581 3239 2228 
Q 2838 1875 2053 1875 
L 1259 1875 
L 1259 0 
L 628 0 
L 628 4666 
z
" transform="scale(0.015625)"/>
       <path id="DejaVuSans-6f" d="M 1959 3097 
Q 1497 3097 1228 2736 
Q 959 2375 959 1747 
Q 959 1119 1226 758 
Q 1494 397 1959 397 
Q 2419 397 2687 759 
Q 2956 1122 2956 1747 
Q 2956 2369 2687 2733 
Q 2419 3097 1959 3097 
z
M 1959 3584 
Q 2709 3584 3137 3096 
Q 3566 2609 3566 1747 
Q 3566 888 3137 398 
Q 2709 -91 1959 -91 
Q 1206 -91 779 398 
Q 353 888 353 1747 
Q 353 2609 779 3096 
Q 1206 3584 1959 3584 
z
" transform="scale(0.015625)"/>
       <path id="DejaVuSans-62" d="M 3116 1747 
Q 3116 2381 2855 2742 
Q 2594 3103 2138 3103 
Q 1681 3103 1420 2742 
Q 1159 2381 1159 1747 
Q 1159 1113 1420 752 
Q 1681 391 2138 391 
Q 2594 391 2855 752 
Q 3116 1113 3116 1747 
z
M 1159 2969 
Q 1341 3281 1617 3432 
Q 1894 3584 2278 3584 
Q 2916 3584 3314 3078 
Q 3713 2572 3713 1747 
Q 3713 922 3314 415 
Q 2916 -91 2278 -91 
Q 1894 -91 1617 61 
Q 1341 213 1159 525 
L 1159 0 
L 581 0 
L 581 4863 
L 1159 4863 
L 1159 2969 
z
" transform="scale(0.015625)"/>
       <path id="DejaVuSans-74" d="M 1172 4494 
L 1172 3500 
L 2356 3500 
L 2356 3053 
L 1172 3053 
L 1172 1153 
Q 1172 725 1289 603 
Q 1406 481 1766 481 
L 2356 481 
L 2356 0 
L 1766 0 
Q 1100 0 847 248 
Q 594 497 594 1153 
L 594 3053 
L 172 3053 
L 172 3500 
L 594 3500 
L 594 4494 
L 1172 4494 
z
" transform="scale(0.015625)"/>
      </defs>
      <use xlink:href="#DejaVuSans-53"/>
      <use xlink:href="#DejaVuSans-75" x="63.476562"/>
      <use xlink:href="#DejaVuSans-72" x="126.855469"/>
      <use xlink:href="#DejaVuSans-76" x="167.96875"/>
      <use xlink:href="#DejaVuSans-69" x="227.148438"/>
      <use xlink:href="#DejaVuSans-76" x="254.931641"/>
      <use xlink:href="#DejaVuSans-61" x="314.111328"/>
      <use xlink:href="#DejaVuSans-6c" x="375.390625"/>
      <use xlink:href="#DejaVuSans-20" x="403.173828"/>
      <use xlink:href="#DejaVuSans-50" x="434.960938"/>
      <use xlink:href="#DejaVuSans-72" x="493.513672"/>
      <use xlink:href="#DejaVuSans-6f" x="532.376953"/>
      <use xlink:href="#DejaVuSans-62" x="593.558594"/>
      <use xlink:href="#DejaVuSans-61" x="657.035156"/>
      <use xlink:href="#DejaVuSans-62" x="718.314453"/>
      <use xlink:href="#DejaVuSans-69" x="781.791016"/>
      <use xlink:href="#DejaVuSans-6c" x="809.574219"/>
      <use xlink:href="#DejaVuSans-69" x="837.357422"/>
      <use xlink:href="#DejaVuSans-74" x="865.140625"/>
      <use xlink:href="#DejaVuSans-79" x="904.349609"/>
     </g>
    </g>
   </g>
   <g id="line2d_15">
    <path d="M 69.144886 28.771052 
L 73.30286 28.771052 
L 73.30286 29.858792 
L 75.150848 29.858792 
L 75.150848 30.946526 
L 76.151841 30.946526 
L 76.151841 32.036414 
L 81.079809 32.036414 
L 81.079809 33.130725 
L 83.620793 33.130725 
L 83.620793 34.22945 
L 83.851791 34.22945 
L 83.851791 35.328136 
L 84.159789 35.328136 
L 84.159789 36.426816 
L 84.313788 36.426816 
L 84.313788 38.621862 
L 85.006784 38.621862 
L 85.006784 39.720487 
L 85.160783 39.720487 
L 85.160783 40.81908 
L 86.623774 40.81908 
L 86.623774 41.92224 
L 88.394762 41.92224 
L 88.394762 43.027678 
L 88.933759 43.027678 
L 88.933759 44.13773 
L 93.630728 44.13773 
L 93.630728 45.250119 
L 94.785721 45.250119 
L 94.785721 46.362509 
L 95.940713 46.362509 
L 95.940713 48.584885 
L 96.248712 48.584885 
L 96.248712 50.807208 
L 97.095706 50.807208 
L 97.095706 51.919505 
L 97.480704 51.919505 
L 97.480704 53.031777 
L 98.327698 53.031777 
L 98.327698 54.148811 
L 99.328692 54.148811 
L 99.328692 55.26582 
L 99.944688 55.26582 
L 99.944688 56.385295 
L 100.021687 56.385295 
L 100.175686 56.385295 
L 100.252686 58.629003 
L 100.483684 58.629003 
L 100.483684 59.750852 
L 100.945681 59.750852 
L 100.945681 60.872682 
L 102.177673 60.872682 
L 102.177673 61.994486 
L 103.178667 61.994486 
L 103.178667 64.235553 
L 103.871662 64.235553 
L 103.871662 65.357315 
L 104.17966 65.357315 
L 104.17966 66.479057 
L 104.872656 66.479057 
L 104.872656 67.600793 
L 105.026655 67.600793 
L 105.103654 69.844208 
L 105.71965 69.844208 
L 105.71965 70.96588 
L 106.335646 70.96588 
L 106.335646 72.087537 
L 106.566645 72.087537 
L 106.643644 74.330739 
L 107.490639 74.330739 
L 107.490639 75.452291 
L 108.414633 75.452291 
L 108.414633 76.573807 
L 108.722631 76.573807 
L 108.722631 77.695321 
L 109.723625 77.695321 
L 109.723625 78.816824 
L 109.877624 78.816824 
L 109.877624 79.938301 
L 110.955617 79.938301 
L 110.955617 81.059736 
L 113.804598 81.059736 
L 113.881598 83.312911 
L 114.497594 83.312911 
L 114.574593 85.571124 
L 116.422581 85.571124 
L 116.422581 86.702849 
L 119.271563 86.702849 
L 119.271563 87.84523 
L 122.967539 87.84523 
L 122.967539 88.990326 
L 123.660535 88.990326 
L 123.660535 90.135449 
L 124.199531 90.135449 
L 124.199531 91.283254 
L 124.815527 91.283254 
L 124.815527 92.430966 
L 126.971513 92.430966 
L 126.971513 93.57867 
L 127.202512 93.57867 
L 127.202512 94.726365 
L 128.588503 94.726365 
L 128.588503 95.876794 
L 128.665502 95.876794 
L 129.666496 95.876794 
L 129.666496 97.029965 
L 133.131474 97.029965 
L 133.131474 98.188718 
L 133.362472 98.188718 
L 133.362472 100.503329 
L 135.21046 100.503329 
L 135.21046 101.662066 
L 136.673451 101.662066 
L 136.673451 102.826582 
L 136.904449 102.826582 
L 136.904449 103.9911 
L 137.443446 103.9911 
L 137.443446 105.155581 
L 139.676431 105.155581 
L 139.676431 106.320046 
L 146.298389 106.320046 
L 146.298389 107.511351 
L 148.993371 107.511351 
L 148.993371 108.71188 
L 149.686367 108.71188 
L 149.686367 109.915502 
L 149.763366 109.915502 
L 150.071364 109.915502 
L 150.071364 111.122241 
L 150.841359 111.122241 
L 150.841359 112.332118 
L 151.457355 112.332118 
L 151.457355 113.545127 
L 154.306337 113.545127 
L 154.306337 114.771078 
L 154.460336 114.771078 
L 154.460336 115.997013 
L 154.691334 115.997013 
L 154.691334 117.222919 
L 156.92432 117.222919 
L 156.92432 118.45211 
L 158.618309 118.45211 
L 158.618309 119.681223 
L 159.619303 119.681223 
L 159.619303 120.91694 
L 159.927301 120.91694 
L 159.927301 122.152586 
L 162.853282 122.152586 
L 162.853282 123.398597 
L 163.315279 123.398597 
L 163.315279 124.644514 
L 167.78125 124.644514 
L 167.85825 125.915285 
L 167.85825 125.915285 
L 171.477226 125.915285 
L 171.477226 127.208291 
L 173.094216 127.208291 
L 173.094216 128.501244 
L 174.095209 128.501244 
L 174.095209 129.797914 
L 175.789198 129.797914 
L 175.789198 131.109941 
L 176.097196 131.109941 
L 176.097196 132.421893 
L 179.485174 132.421893 
L 179.485174 133.766124 
L 180.17817 133.766124 
L 180.17817 135.114453 
L 186.800127 135.114453 
L 186.800127 136.501581 
L 195.65507 136.501581 
L 195.65507 137.968693 
L 198.73505 137.968693 
L 198.73505 139.466376 
L 204.741012 139.466376 
L 204.741012 141.00157 
L 208.359988 141.00157 
L 208.359988 142.582206 
L 222.989894 142.582206 
L 222.989894 144.29616 
L 232.383833 144.29616 
L 232.383833 146.136238 
L 232.460833 146.136238 
L 247.167738 146.136238 
L 247.167738 148.200627 
L 253.789695 148.200627 
L 253.789695 150.327751 
L 284.435497 150.327751 
L 284.435497 153.051665 
L 286.591483 153.051665 
L 286.591483 155.886678 
L 361.512 155.886678 
L 361.512 161.997743 
L 576.417614 161.997743 
L 576.417614 161.997743 
" clip-path="url(#p83af7fec3a)" style="fill: none; stroke: #2a5acb; stroke-width: 1.5; stroke-linecap: square"/>
   </g>
   <g id="line2d_16">
    <path d="M 69.144886 28.764895 
L 73.30286 28.764895 
L 73.30286 29.846492 
L 75.150848 29.846492 
L 75.150848 30.928094 
L 76.151841 30.928094 
L 76.151841 32.011852 
L 81.079809 32.011852 
L 81.079809 33.100019 
L 83.620793 33.100019 
L 83.620793 34.19259 
L 83.851791 34.19259 
L 83.851791 35.285134 
L 84.159789 35.285134 
L 84.159789 36.377684 
L 84.313788 36.377684 
L 84.313788 38.560523 
L 85.006784 38.560523 
L 85.006784 39.653058 
L 85.160783 39.653058 
L 85.160783 40.745575 
L 86.623774 40.745575 
L 86.623774 41.842645 
L 88.394762 41.842645 
L 88.394762 42.941995 
L 88.933759 42.941995 
L 88.933759 44.045946 
L 93.630728 44.045946 
L 93.630728 45.152235 
L 94.785721 45.152235 
L 94.785721 46.258538 
L 95.940713 46.258538 
L 95.940713 48.468794 
L 96.248712 48.468794 
L 96.248712 50.679052 
L 97.095706 50.679052 
L 97.095706 51.785329 
L 97.480704 51.785329 
L 97.480704 52.891596 
L 98.327698 52.891596 
L 98.327698 54.002613 
L 99.328692 54.002613 
L 99.328692 55.11362 
L 99.944688 55.11362 
L 99.944688 56.227092 
L 100.021687 56.227092 
L 100.175686 56.227092 
L 100.252686 58.458811 
L 100.483684 58.458811 
L 100.483684 59.574687 
L 100.945681 59.574687 
L 100.945681 60.690559 
L 102.177673 60.690559 
L 102.177673 61.806418 
L 103.178667 61.806418 
L 103.178667 64.035651 
L 103.871662 64.035651 
L 103.871662 65.151511 
L 104.17966 65.151511 
L 104.17966 66.267365 
L 104.872656 66.267365 
L 104.872656 67.383227 
L 105.026655 67.383227 
L 105.103654 69.614938 
L 105.71965 69.614938 
L 105.71965 70.73078 
L 106.335646 70.73078 
L 106.335646 71.846622 
L 106.566645 71.846622 
L 106.643644 74.078236 
L 107.490639 74.078236 
L 107.490639 75.194016 
L 108.414633 75.194016 
L 108.414633 76.309775 
L 108.722631 76.309775 
L 108.722631 77.425546 
L 109.723625 77.425546 
L 109.723625 78.541321 
L 109.877624 78.541321 
L 109.877624 79.657084 
L 110.955617 79.657084 
L 110.955617 80.772821 
L 113.804598 80.772821 
L 113.881598 83.014591 
L 114.497594 83.014591 
L 114.574593 85.261434 
L 116.422581 85.261434 
L 116.422581 86.387483 
L 119.271563 86.387483 
L 119.271563 87.524149 
L 122.967539 87.524149 
L 122.967539 88.663533 
L 123.660535 88.663533 
L 123.660535 89.80296 
L 124.199531 89.80296 
L 124.199531 90.94507 
L 124.815527 90.94507 
L 124.815527 92.087104 
L 126.971513 92.087104 
L 126.971513 93.229145 
L 127.202512 93.229145 
L 127.202512 94.371194 
L 128.588503 94.371194 
L 128.588503 95.515978 
L 128.665502 95.515978 
L 129.666496 95.515978 
L 129.666496 96.663508 
L 133.131474 96.663508 
L 133.131474 97.816608 
L 133.362472 97.816608 
L 133.362472 100.119976 
L 135.21046 100.119976 
L 135.21046 101.273109 
L 136.673451 101.273109 
L 136.673451 102.432009 
L 136.904449 102.432009 
L 136.904449 103.590929 
L 137.443446 103.590929 
L 137.443446 104.749828 
L 139.676431 104.749828 
L 139.676431 105.908727 
L 146.298389 105.908727 
L 146.298389 107.094356 
L 148.993371 107.094356 
L 148.993371 108.289182 
L 149.686367 108.289182 
L 149.686367 109.487105 
L 149.763366 109.487105 
L 150.071364 109.487105 
L 150.071364 110.688148 
L 150.841359 110.688148 
L 150.841359 111.892332 
L 151.457355 111.892332 
L 151.457355 113.099652 
L 154.306337 113.099652 
L 154.306337 114.319872 
L 154.460336 114.319872 
L 154.460336 115.540096 
L 154.691334 115.540096 
L 154.691334 116.760308 
L 156.92432 116.760308 
L 156.92432 117.98381 
L 158.618309 117.98381 
L 158.618309 119.207253 
L 159.619303 119.207253 
L 159.619303 120.437289 
L 159.927301 120.437289 
L 159.927301 121.667273 
L 162.853282 121.667273 
L 162.853282 122.907596 
L 163.315279 122.907596 
L 163.315279 124.147844 
L 167.78125 124.147844 
L 167.78125 125.412854 
L 167.85825 125.412854 
L 171.477226 125.412854 
L 171.477226 126.70002 
L 173.094216 126.70002 
L 173.094216 127.987153 
L 174.095209 127.987153 
L 174.095209 129.278009 
L 175.789198 129.278009 
L 175.789198 130.584176 
L 176.097196 130.584176 
L 176.097196 131.89029 
L 179.485174 131.89029 
L 179.485174 133.228563 
L 180.17817 133.228563 
L 180.17817 134.570939 
L 186.800127 134.570939 
L 186.800127 135.951969 
L 195.65507 135.951969 
L 195.65507 137.412657 
L 198.73505 137.412657 
L 198.73505 138.903814 
L 204.741012 138.903814 
L 204.741012 140.432347 
L 208.359988 140.432347 
L 208.359988 142.00616 
L 222.989894 142.00616 
L 222.989894 143.712751 
L 232.383833 143.712751 
L 232.383833 145.544969 
L 232.460833 145.544969 
L 247.167738 145.544969 
L 247.167738 147.600594 
L 253.789695 147.600594 
L 253.789695 149.718749 
L 284.435497 149.718749 
L 284.435497 152.431267 
L 286.591483 152.431267 
L 286.591483 155.254528 
L 361.512 155.254528 
L 361.512 161.340639 
L 576.417614 161.340639 
L 576.417614 161.340639 
" clip-path="url(#p83af7fec3a)" style="fill: none; stroke: #3256aa; stroke-width: 1.5; stroke-linecap: square"/>
   </g>
   <g id="line2d_17">
    <path d="M 69.144886 28.760008 
L 73.30286 28.760008 
L 73.30286 29.836726 
L 75.150848 29.836726 
L 75.150848 30.913461 
L 76.151841 30.913461 
L 76.151841 31.992351 
L 81.079809 31.992351 
L 81.079809 33.075641 
L 83.620793 33.075641 
L 83.620793 34.163324 
L 83.851791 34.163324 
L 83.851791 35.250991 
L 84.159789 35.250991 
L 84.159789 36.338675 
L 84.313788 36.338675 
L 84.313788 38.511821 
L 85.006784 38.511821 
L 85.006784 39.59952 
L 85.160783 39.59952 
L 85.160783 40.687211 
L 86.623774 40.687211 
L 86.623774 41.779446 
L 88.394762 41.779446 
L 88.394762 42.87396 
L 88.933759 42.87396 
L 88.933759 43.973066 
L 93.630728 43.973066 
L 93.630728 45.074511 
L 94.785721 45.074511 
L 94.785721 46.17598 
L 95.940713 46.17598 
L 95.940713 48.37661 
L 96.248712 48.37661 
L 96.248712 50.577284 
L 97.095706 50.577284 
L 97.095706 51.678781 
L 97.480704 51.678781 
L 97.480704 52.780279 
L 98.327698 52.780279 
L 98.327698 53.886516 
L 99.328692 53.886516 
L 99.328692 54.992755 
L 99.944688 54.992755 
L 99.944688 56.101459 
L 100.021687 56.101459 
L 100.175686 56.101459 
L 100.252686 58.323655 
L 100.483684 58.323655 
L 100.483684 59.434786 
L 100.945681 59.434786 
L 100.945681 60.545923 
L 102.177673 60.545923 
L 102.177673 61.65706 
L 103.178667 61.65706 
L 103.178667 63.876891 
L 103.871662 63.876891 
L 103.871662 64.988061 
L 104.17966 64.988061 
L 104.17966 66.099237 
L 104.872656 66.099237 
L 104.872656 67.210433 
L 105.026655 67.210433 
L 105.103654 69.432844 
L 105.71965 69.432844 
L 105.71965 70.544054 
L 106.335646 70.544054 
L 106.335646 71.655274 
L 106.566645 71.655274 
L 106.643644 73.87768 
L 107.490639 73.87768 
L 107.490639 74.988873 
L 108.414633 74.988873 
L 108.414633 76.100057 
L 108.722631 76.100057 
L 108.722631 77.211264 
L 109.723625 77.211264 
L 109.723625 78.322486 
L 109.877624 78.322486 
L 109.877624 79.433709 
L 110.955617 79.433709 
L 110.955617 80.544917 
L 113.804598 80.544917 
L 113.881598 82.777622 
L 114.497594 82.777622 
L 114.574593 85.015426 
L 116.422581 85.015426 
L 116.422581 86.136963 
L 119.271563 86.136963 
L 119.271563 87.269088 
L 122.967539 87.269088 
L 122.967539 88.403931 
L 123.660535 88.403931 
L 123.660535 89.538828 
L 124.199531 89.538828 
L 124.199531 90.676412 
L 124.815527 90.676412 
L 124.815527 91.813931 
L 126.971513 91.813931 
L 126.971513 92.951471 
L 127.202512 92.951471 
L 127.202512 94.08903 
L 128.588503 94.08903 
L 128.588503 95.229327 
L 128.665502 95.229327 
L 129.666496 95.229327 
L 129.666496 96.372371 
L 133.131474 96.372371 
L 133.131474 97.520977 
L 133.362472 97.520977 
L 133.362472 99.815404 
L 135.21046 99.815404 
L 135.21046 100.964081 
L 136.673451 100.964081 
L 136.673451 102.118516 
L 136.904449 102.118516 
L 136.904449 103.272983 
L 137.443446 103.272983 
L 137.443446 104.427443 
L 139.676431 104.427443 
L 139.676431 105.581916 
L 146.298389 105.581916 
L 146.298389 106.763031 
L 148.993371 106.763031 
L 148.993371 107.953321 
L 149.686367 107.953321 
L 149.686367 109.146711 
L 149.763366 109.146711 
L 150.071364 109.146711 
L 150.071364 110.343223 
L 150.841359 110.343223 
L 150.841359 111.54288 
L 151.457355 111.54288 
L 151.457355 112.745674 
L 154.306337 112.745674 
L 154.306337 113.961335 
L 154.460336 113.961335 
L 154.460336 115.177014 
L 154.691334 115.177014 
L 154.691334 116.392698 
L 156.92432 116.392698 
L 156.92432 117.611673 
L 158.618309 117.611673 
L 158.618309 118.830605 
L 159.619303 118.830605 
L 159.619303 120.056122 
L 159.927301 120.056122 
L 159.927301 121.281602 
L 162.853282 121.281602 
L 162.853282 122.517398 
L 163.315279 122.517398 
L 163.315279 123.753136 
L 167.78125 123.753136 
L 167.78125 125.013561 
L 167.85825 125.013561 
L 171.477226 125.013561 
L 171.477226 126.296079 
L 173.094216 126.296079 
L 173.094216 127.578582 
L 174.095209 127.578582 
L 174.095209 128.864811 
L 175.789198 128.864811 
L 175.789198 130.166314 
L 176.097196 130.166314 
L 176.097196 131.467781 
L 179.485174 131.467781 
L 179.485174 132.801312 
L 180.17817 132.801312 
L 180.17817 134.13895 
L 186.800127 134.13895 
L 186.800127 135.515125 
L 195.65507 135.515125 
L 195.65507 136.970701 
L 198.73505 136.970701 
L 198.73505 138.456662 
L 204.741012 138.456662 
L 204.741012 139.979893 
L 208.359988 139.979893 
L 208.359988 141.548272 
L 222.989894 141.548272 
L 222.989894 143.249002 
L 232.383833 143.249002 
L 232.383833 145.074962 
L 232.460833 145.074962 
L 247.167738 145.074962 
L 247.167738 147.123609 
L 253.789695 147.123609 
L 253.789695 149.234621 
L 284.435497 149.234621 
L 284.435497 151.938063 
L 286.591483 151.938063 
L 286.591483 154.751963 
L 361.512 154.751963 
L 361.512 160.818195 
L 576.417614 160.818195 
L 576.417614 160.818195 
" clip-path="url(#p83af7fec3a)" style="fill: none; stroke: #3a528a; stroke-width: 1.5; stroke-linecap: square"/>
   </g>
   <g id="line2d_18">
    <path d="M 69.144886 28.754811 
L 73.30286 28.754811 
L 73.30286 29.826343 
L 75.150848 29.826343 
L 75.150848 30.897902 
L 76.151841 30.897902 
L 76.151841 31.971616 
L 81.079809 31.971616 
L 81.079809 33.049719 
L 83.620793 33.049719 
L 83.620793 34.132206 
L 83.851791 34.132206 
L 83.851791 35.214687 
L 84.159789 35.214687 
L 84.159789 36.297195 
L 84.313788 36.297195 
L 84.313788 38.460034 
L 85.006784 38.460034 
L 85.006784 39.542589 
L 85.160783 39.542589 
L 85.160783 40.625148 
L 86.623774 40.625148 
L 86.623774 41.71224 
L 88.394762 41.71224 
L 88.394762 42.801612 
L 88.933759 42.801612 
L 88.933759 43.895565 
L 93.630728 43.895565 
L 93.630728 44.991858 
L 94.785721 44.991858 
L 94.785721 46.088185 
L 95.940713 46.088185 
L 95.940713 48.278577 
L 96.248712 48.278577 
L 96.248712 50.469058 
L 97.095706 50.469058 
L 97.095706 51.56547 
L 97.480704 51.56547 
L 97.480704 52.661894 
L 98.327698 52.661894 
L 98.327698 53.763047 
L 99.328692 53.763047 
L 99.328692 54.864213 
L 99.944688 54.864213 
L 99.944688 55.967845 
L 100.021687 55.967845 
L 100.175686 55.967845 
L 100.252686 58.179909 
L 100.483684 58.179909 
L 100.483684 59.285992 
L 100.945681 59.285992 
L 100.945681 60.392093 
L 102.177673 60.392093 
L 102.177673 61.498205 
L 103.178667 61.498205 
L 103.178667 63.708033 
L 103.871662 63.708033 
L 103.871662 64.814214 
L 104.17966 64.814214 
L 104.17966 65.920413 
L 104.872656 65.920413 
L 104.872656 67.026643 
L 105.026655 67.026643 
L 105.103654 69.239159 
L 105.71965 69.239159 
L 105.71965 70.345438 
L 106.335646 70.345438 
L 106.335646 71.451741 
L 106.566645 71.451741 
L 106.643644 73.664347 
L 107.490639 73.664347 
L 107.490639 74.770659 
L 108.414633 74.770659 
L 108.414633 75.876974 
L 108.722631 75.876974 
L 108.722631 76.983324 
L 109.723625 76.983324 
L 109.723625 78.089701 
L 109.877624 78.089701 
L 109.877624 79.196091 
L 110.955617 79.196091 
L 110.955617 80.302478 
L 113.804598 80.302478 
L 113.881598 82.525535 
L 114.497594 82.525535 
L 114.574593 84.753719 
L 116.422581 84.753719 
L 116.422581 85.870454 
L 119.271563 85.870454 
L 119.271563 86.997743 
L 122.967539 86.997743 
L 122.967539 88.127752 
L 123.660535 88.127752 
L 123.660535 89.257829 
L 124.199531 89.257829 
L 124.199531 90.390592 
L 124.815527 90.390592 
L 124.815527 91.523306 
L 126.971513 91.523306 
L 126.971513 92.656053 
L 127.202512 92.656053 
L 127.202512 93.788832 
L 128.588503 93.788832 
L 128.588503 94.924352 
L 128.665502 94.924352 
L 129.666496 94.924352 
L 129.666496 96.062619 
L 133.131474 96.062619 
L 133.131474 97.20644 
L 133.362472 97.20644 
L 133.362472 99.491348 
L 135.21046 99.491348 
L 135.21046 100.63528 
L 136.673451 100.63528 
L 136.673451 101.784959 
L 136.904449 101.784959 
L 136.904449 102.934685 
L 137.443446 102.934685 
L 137.443446 104.084417 
L 139.676431 104.084417 
L 139.676431 105.234177 
L 146.298389 105.234177 
L 146.298389 106.410484 
L 148.993371 106.410484 
L 148.993371 107.595944 
L 149.686367 107.595944 
L 149.686367 108.784506 
L 149.763366 108.784506 
L 150.071364 108.784506 
L 150.071364 109.976193 
L 150.841359 109.976193 
L 150.841359 111.171026 
L 151.457355 111.171026 
L 151.457355 112.369 
L 154.306337 112.369 
L 154.306337 113.579805 
L 154.460336 113.579805 
L 154.460336 114.790645 
L 154.691334 114.790645 
L 154.691334 116.001503 
L 156.92432 116.001503 
L 156.92432 117.215657 
L 158.618309 117.215657 
L 158.618309 118.429784 
L 159.619303 118.429784 
L 159.619303 119.650486 
L 159.927301 119.650486 
L 159.927301 120.871167 
L 162.853282 120.871167 
L 162.853282 122.10214 
L 163.315279 122.10214 
L 163.315279 123.333072 
L 167.78125 123.333072 
L 167.78125 124.588612 
L 167.85825 124.588612 
L 171.477226 124.588612 
L 171.477226 125.866178 
L 173.094216 125.866178 
L 173.094216 127.143747 
L 174.095209 127.143747 
L 174.095209 128.425046 
L 175.789198 128.425046 
L 175.789198 129.721578 
L 176.097196 129.721578 
L 176.097196 131.018095 
L 179.485174 131.018095 
L 179.485174 132.346572 
L 180.17817 132.346572 
L 180.17817 133.67916 
L 186.800127 133.67916 
L 186.800127 135.050161 
L 195.65507 135.050161 
L 195.65507 136.500288 
L 198.73505 136.500288 
L 198.73505 137.98071 
L 204.741012 137.98071 
L 204.741012 139.498289 
L 208.359988 139.498289 
L 208.359988 141.060877 
L 222.989894 141.060877 
L 222.989894 142.755359 
L 232.383833 142.755359 
L 232.383833 144.574647 
L 232.460833 144.574647 
L 247.167738 144.574647 
L 247.167738 146.615854 
L 253.789695 146.615854 
L 253.789695 148.71925 
L 284.435497 148.71925 
L 284.435497 151.413015 
L 286.591483 151.413015 
L 286.591483 154.216932 
L 361.512 154.216932 
L 361.512 160.261962 
L 576.417614 160.261962 
L 576.417614 160.261962 
" clip-path="url(#p83af7fec3a)" style="fill: none; stroke: #424e69; stroke-width: 1.5; stroke-linecap: square"/>
   </g>
   <g id="line2d_19">
    <path d="M 69.144886 28.746444 
L 73.30286 28.746444 
L 73.30286 29.809627 
L 75.150848 29.809627 
L 75.150848 30.872853 
L 76.151841 30.872853 
L 76.151841 31.938233 
L 81.079809 31.938233 
L 81.079809 33.007986 
L 83.620793 33.007986 
L 83.620793 34.082106 
L 83.851791 34.082106 
L 83.851791 35.156237 
L 84.159789 35.156237 
L 84.159789 36.230412 
L 84.313788 36.230412 
L 84.313788 38.376652 
L 85.006784 38.376652 
L 85.006784 39.450926 
L 85.160783 39.450926 
L 85.160783 40.525221 
L 86.623774 40.525221 
L 86.623774 41.604031 
L 88.394762 41.604031 
L 88.394762 42.685122 
L 88.933759 42.685122 
L 88.933759 43.770777 
L 93.630728 43.770777 
L 93.630728 44.858771 
L 94.785721 44.858771 
L 94.785721 45.946817 
L 95.940713 45.946817 
L 95.940713 48.120719 
L 96.248712 48.120719 
L 96.248712 50.294781 
L 97.095706 50.294781 
L 97.095706 51.383002 
L 97.480704 51.383002 
L 97.480704 52.471253 
L 98.327698 52.471253 
L 98.327698 53.564217 
L 99.328692 53.564217 
L 99.328692 54.657211 
L 99.944688 54.657211 
L 99.944688 55.752672 
L 100.021687 55.752672 
L 100.175686 55.752672 
L 100.252686 57.948415 
L 100.483684 57.948415 
L 100.483684 59.046364 
L 100.945681 59.046364 
L 100.945681 60.14435 
L 102.177673 60.14435 
L 102.177673 61.242367 
L 103.178667 61.242367 
L 103.178667 63.436078 
L 103.871662 63.436078 
L 103.871662 64.534219 
L 104.17966 64.534219 
L 104.17966 65.632397 
L 104.872656 65.632397 
L 104.872656 66.730625 
L 105.026655 66.730625 
L 105.103654 68.927195 
L 105.71965 68.927195 
L 105.71965 70.025529 
L 106.335646 70.025529 
L 106.335646 71.123906 
L 106.566645 71.123906 
L 106.643644 73.320719 
L 107.490639 73.320719 
L 107.490639 74.419163 
L 108.414633 74.419163 
L 108.414633 75.517629 
L 108.722631 75.517629 
L 108.722631 76.61615 
L 109.723625 76.61615 
L 109.723625 77.714718 
L 109.877624 77.714718 
L 109.877624 78.813317 
L 110.955617 78.813317 
L 110.955617 79.911933 
L 113.804598 79.911933 
L 113.881598 82.119435 
L 114.497594 82.119435 
L 114.574593 84.332109 
L 116.422581 84.332109 
L 116.422581 85.4411 
L 119.271563 85.4411 
L 119.271563 86.560593 
L 122.967539 86.560593 
L 122.967539 87.682808 
L 123.660535 87.682808 
L 123.660535 88.805111 
L 124.199531 88.805111 
L 124.199531 89.930103 
L 124.815527 89.930103 
L 124.815527 91.055067 
L 126.971513 91.055067 
L 126.971513 92.180085 
L 127.202512 92.180085 
L 127.202512 93.305156 
L 128.588503 93.305156 
L 128.588503 94.432969 
L 128.665502 94.432969 
L 129.666496 94.432969 
L 129.666496 95.563534 
L 133.131474 95.563534 
L 133.131474 96.699636 
L 133.362472 96.699636 
L 133.362472 98.96919 
L 135.21046 98.96919 
L 135.21046 100.105468 
L 136.673451 100.105468 
L 136.673451 101.247477 
L 136.904449 101.247477 
L 136.904449 102.389554 
L 137.443446 102.389554 
L 137.443446 103.531659 
L 139.676431 103.531659 
L 139.676431 104.673815 
L 146.298389 104.673815 
L 146.298389 105.842365 
L 148.993371 105.842365 
L 148.993371 107.020032 
L 149.686367 107.020032 
L 149.686367 108.200804 
L 149.763366 108.200804 
L 150.071364 108.200804 
L 150.071364 109.384704 
L 150.841359 109.384704 
L 150.841359 110.571755 
L 151.457355 110.571755 
L 151.457355 111.761951 
L 154.306337 111.761951 
L 154.306337 112.96492 
L 154.460336 112.96492 
L 154.460336 114.167948 
L 154.691334 114.167948 
L 154.691334 115.37102 
L 156.92432 115.37102 
L 156.92432 116.577392 
L 158.618309 116.577392 
L 158.618309 117.783763 
L 159.619303 117.783763 
L 159.619303 118.996692 
L 159.927301 118.996692 
L 159.927301 120.209627 
L 162.853282 120.209627 
L 162.853282 121.432816 
L 163.315279 121.432816 
L 163.315279 122.65599 
L 167.78125 122.65599 
L 167.78125 123.903644 
L 167.85825 123.903644 
L 171.477226 123.903644 
L 171.477226 125.173215 
L 173.094216 125.173215 
L 173.094216 126.442817 
L 174.095209 126.442817 
L 174.095209 127.716155 
L 175.789198 127.716155 
L 175.789198 129.004662 
L 176.097196 129.004662 
L 176.097196 130.293183 
L 179.485174 130.293183 
L 179.485174 131.613499 
L 180.17817 131.613499 
L 180.17817 132.937933 
L 186.800127 132.937933 
L 186.800127 134.300578 
L 195.65507 134.300578 
L 195.65507 135.741903 
L 198.73505 135.741903 
L 198.73505 137.213379 
L 204.741012 137.213379 
L 204.741012 138.72183 
L 208.359988 138.72183 
L 208.359988 140.275062 
L 222.989894 140.275062 
L 222.989894 141.959449 
L 232.383833 141.959449 
L 232.383833 143.767958 
L 232.460833 143.767958 
L 247.167738 143.767958 
L 247.167738 145.797144 
L 253.789695 145.797144 
L 253.789695 147.888234 
L 284.435497 147.888234 
L 284.435497 150.566359 
L 286.591483 150.566359 
L 286.591483 153.354143 
L 361.512 153.354143 
L 361.512 159.364897 
L 576.417614 159.364897 
L 576.417614 159.364897 
" clip-path="url(#p83af7fec3a)" style="fill: none; stroke: #4a4a4a; stroke-width: 1.5; stroke-linecap: square"/>
   </g>
   <g id="patch_3">
    <path d="M 43.78125 354.958125 
L 43.78125 22.318125 
" style="fill: none; stroke: #000000; stroke-width: 0.8; stroke-linejoin: miter; stroke-linecap: square"/>
   </g>
   <g id="patch_4">
    <path d="M 601.78125 354.958125 
L 601.78125 22.318125 
" style="fill: none; stroke: #000000; stroke-width: 0.8; stroke-linejoin: miter; stroke-linecap: square"/>
   </g>
   <g id="patch_5">
    <path d="M 43.78125 354.958125 
L 601.78125 354.958125 
" style="fill: none; stroke: #000000; stroke-width: 0.8; stroke-linejoin: miter; stroke-linecap: square"/>
   </g>
   <g id="patch_6">
    <path d="M 43.78125 22.318125 
L 601.78125 22.318125 
" style="fill: none; stroke: #000000; stroke-width: 0.8; stroke-linejoin: miter; stroke-linecap: square"/>
   </g>
   <g id="text_17">
    <!-- p-value: 9.45e-01 -->
    <g transform="translate(502.313438 36.569362) scale(0.1 -0.1)">
     <defs>
      <path id="DejaVuSans-70" d="M 1159 525 
L 1159 -1331 
L 581 -1331 
L 581 3500 
L 1159 3500 
L 1159 2969 
Q 1341 3281 1617 3432 
Q 1894 3584 2278 3584 
Q 2916 3584 3314 3078 
Q 3713 2572 3713 1747 
Q 3713 922 3314 415 
Q 2916 -91 2278 -91 
Q 1894 -91 1617 61 
Q 1341 213 1159 525 
z
M 3116 1747 
Q 3116 2381 2855 2742 
Q 2594 3103 2138 3103 
Q 1681 3103 1420 2742 
Q 1159 2381 1159 1747 
Q 1159 1113 1420 752 
Q 1681 391 2138 391 
Q 2594 391 2855 752 
Q 3116 1113 3116 1747 
z
" transform="scale(0.015625)"/>
      <path id="DejaVuSans-2d" d="M 313 2009 
L 1997 2009 
L 1997 1497 
L 313 1497 
L 313 2009 
z
" transform="scale(0.015625)"/>
      <path id="DejaVuSans-3a" d="M 750 794 
L 1409 794 
L 1409 0 
L 750 0 
L 750 794 
z
M 750 3309 
L 1409 3309 
L 1409 2516 
L 750 2516 
L 750 3309 
z
" transform="scale(0.015625)"/>
     </defs>
     <use xlink:href="#DejaVuSans-70"/>
     <use xlink:href="#DejaVuSans-2d" x="63.476562"/>
     <use xlink:href="#DejaVuSans-76" x="96.935547"/>
     <use xlink:href="#DejaVuSans-61" x="156.115234"/>
     <use xlink:href="#DejaVuSans-6c" x="217.394531"/>
     <use xlink:href="#DejaVuSans-75" x="245.177734"/>
     <use xlink:href="#DejaVuSans-65" x="308.556641"/>
     <use xlink:href="#DejaVuSans-3a" x="370.080078"/>
     <use xlink:href="#DejaVuSans-20" x="403.771484"/>
     <use xlink:href="#DejaVuSans-39" x="435.558594"/>
     <use xlink:href="#DejaVuSans-2e" x="499.181641"/>
     <use xlink:href="#DejaVuSans-34" x="530.96875"/>
     <use xlink:href="#DejaVuSans-35" x="594.591797"/>
     <use xlink:href="#DejaVuSans-65" x="658.214844"/>
     <use xlink:href="#DejaVuSans-2d" x="719.738281"/>
     <use xlink:href="#DejaVuSans-30" x="755.822266"/>
     <use xlink:href="#DejaVuSans-31" x="819.445312"/>
    </g>
   </g>
   <g id="text_18">
    <!-- Adjusted Partial Effects of Continuous TCR Scores on Survival -->
    <g transform="translate(138.996563 16.318125) scale(0.12 -0.12)">
     <defs>
      <path id="DejaVuSans-41" d="M 2188 4044 
L 1331 1722 
L 3047 1722 
L 2188 4044 
z
M 1831 4666 
L 2547 4666 
L 4325 0 
L 3669 0 
L 3244 1197 
L 1141 1197 
L 716 0 
L 50 0 
L 1831 4666 
z
" transform="scale(0.015625)"/>
      <path id="DejaVuSans-64" d="M 2906 2969 
L 2906 4863 
L 3481 4863 
L 3481 0 
L 2906 0 
L 2906 525 
Q 2725 213 2448 61 
Q 2172 -91 1784 -91 
Q 1150 -91 751 415 
Q 353 922 353 1747 
Q 353 2572 751 3078 
Q 1150 3584 1784 3584 
Q 2172 3584 2448 3432 
Q 2725 3281 2906 2969 
z
M 947 1747 
Q 947 1113 1208 752 
Q 1469 391 1925 391 
Q 2381 391 2643 752 
Q 2906 1113 2906 1747 
Q 2906 2381 2643 2742 
Q 2381 3103 1925 3103 
Q 1469 3103 1208 2742 
Q 947 2381 947 1747 
z
" transform="scale(0.015625)"/>
      <path id="DejaVuSans-6a" d="M 603 3500 
L 1178 3500 
L 1178 -63 
Q 1178 -731 923 -1031 
Q 669 -1331 103 -1331 
L -116 -1331 
L -116 -844 
L 38 -844 
Q 366 -844 484 -692 
Q 603 -541 603 -63 
L 603 3500 
z
M 603 4863 
L 1178 4863 
L 1178 4134 
L 603 4134 
L 603 4863 
z
" transform="scale(0.015625)"/>
      <path id="DejaVuSans-45" d="M 628 4666 
L 3578 4666 
L 3578 4134 
L 1259 4134 
L 1259 2753 
L 3481 2753 
L 3481 2222 
L 1259 2222 
L 1259 531 
L 3634 531 
L 3634 0 
L 628 0 
L 628 4666 
z
" transform="scale(0.015625)"/>
      <path id="DejaVuSans-66" d="M 2375 4863 
L 2375 4384 
L 1825 4384 
Q 1516 4384 1395 4259 
Q 1275 4134 1275 3809 
L 1275 3500 
L 2222 3500 
L 2222 3053 
L 1275 3053 
L 1275 0 
L 697 0 
L 697 3053 
L 147 3053 
L 147 3500 
L 697 3500 
L 697 3744 
Q 697 4328 969 4595 
Q 1241 4863 1831 4863 
L 2375 4863 
z
" transform="scale(0.015625)"/>
      <path id="DejaVuSans-63" d="M 3122 3366 
L 3122 2828 
Q 2878 2963 2633 3030 
Q 2388 3097 2138 3097 
Q 1578 3097 1268 2742 
Q 959 2388 959 1747 
Q 959 1106 1268 751 
Q 1578 397 2138 397 
Q 2388 397 2633 464 
Q 2878 531 3122 666 
L 3122 134 
Q 2881 22 2623 -34 
Q 2366 -91 2075 -91 
Q 1284 -91 818 406 
Q 353 903 353 1747 
Q 353 2603 823 3093 
Q 1294 3584 2113 3584 
Q 2378 3584 2631 3529 
Q 2884 3475 3122 3366 
z
" transform="scale(0.015625)"/>
      <path id="DejaVuSans-43" d="M 4122 4306 
L 4122 3641 
Q 3803 3938 3442 4084 
Q 3081 4231 2675 4231 
Q 1875 4231 1450 3742 
Q 1025 3253 1025 2328 
Q 1025 1406 1450 917 
Q 1875 428 2675 428 
Q 3081 428 3442 575 
Q 3803 722 4122 1019 
L 4122 359 
Q 3791 134 3420 21 
Q 3050 -91 2638 -91 
Q 1578 -91 968 557 
Q 359 1206 359 2328 
Q 359 3453 968 4101 
Q 1578 4750 2638 4750 
Q 3056 4750 3426 4639 
Q 3797 4528 4122 4306 
z
" transform="scale(0.015625)"/>
      <path id="DejaVuSans-52" d="M 2841 2188 
Q 3044 2119 3236 1894 
Q 3428 1669 3622 1275 
L 4263 0 
L 3584 0 
L 2988 1197 
Q 2756 1666 2539 1819 
Q 2322 1972 1947 1972 
L 1259 1972 
L 1259 0 
L 628 0 
L 628 4666 
L 2053 4666 
Q 2853 4666 3247 4331 
Q 3641 3997 3641 3322 
Q 3641 2881 3436 2590 
Q 3231 2300 2841 2188 
z
M 1259 4147 
L 1259 2491 
L 2053 2491 
Q 2509 2491 2742 2702 
Q 2975 2913 2975 3322 
Q 2975 3731 2742 3939 
Q 2509 4147 2053 4147 
L 1259 4147 
z
" transform="scale(0.015625)"/>
     </defs>
     <use xlink:href="#DejaVuSans-41"/>
     <use xlink:href="#DejaVuSans-64" x="66.658203"/>
     <use xlink:href="#DejaVuSans-6a" x="130.134766"/>
     <use xlink:href="#DejaVuSans-75" x="157.917969"/>
     <use xlink:href="#DejaVuSans-73" x="221.296875"/>
     <use xlink:href="#DejaVuSans-74" x="273.396484"/>
     <use xlink:href="#DejaVuSans-65" x="312.605469"/>
     <use xlink:href="#DejaVuSans-64" x="374.128906"/>
     <use xlink:href="#DejaVuSans-20" x="437.605469"/>
     <use xlink:href="#DejaVuSans-50" x="469.392578"/>
     <use xlink:href="#DejaVuSans-61" x="525.195312"/>
     <use xlink:href="#DejaVuSans-72" x="586.474609"/>
     <use xlink:href="#DejaVuSans-74" x="627.587891"/>
     <use xlink:href="#DejaVuSans-69" x="666.796875"/>
     <use xlink:href="#DejaVuSans-61" x="694.580078"/>
     <use xlink:href="#DejaVuSans-6c" x="755.859375"/>
     <use xlink:href="#DejaVuSans-20" x="783.642578"/>
     <use xlink:href="#DejaVuSans-45" x="815.429688"/>
     <use xlink:href="#DejaVuSans-66" x="878.613281"/>
     <use xlink:href="#DejaVuSans-66" x="913.818359"/>
     <use xlink:href="#DejaVuSans-65" x="949.023438"/>
     <use xlink:href="#DejaVuSans-63" x="1010.546875"/>
     <use xlink:href="#DejaVuSans-74" x="1065.527344"/>
     <use xlink:href="#DejaVuSans-73" x="1104.736328"/>
     <use xlink:href="#DejaVuSans-20" x="1156.835938"/>
     <use xlink:href="#DejaVuSans-6f" x="1188.623047"/>
     <use xlink:href="#DejaVuSans-66" x="1249.804688"/>
     <use xlink:href="#DejaVuSans-20" x="1285.009766"/>
     <use xlink:href="#DejaVuSans-43" x="1316.796875"/>
     <use xlink:href="#DejaVuSans-6f" x="1386.621094"/>
     <use xlink:href="#DejaVuSans-6e" x="1447.802734"/>
     <use xlink:href="#DejaVuSans-74" x="1511.181641"/>
     <use xlink:href="#DejaVuSans-69" x="1550.390625"/>
     <use xlink:href="#DejaVuSans-6e" x="1578.173828"/>
     <use xlink:href="#DejaVuSans-75" x="1641.552734"/>
     <use xlink:href="#DejaVuSans-6f" x="1704.931641"/>
     <use xlink:href="#DejaVuSans-75" x="1766.113281"/>
     <use xlink:href="#DejaVuSans-73" x="1829.492188"/>
     <use xlink:href="#DejaVuSans-20" x="1881.591797"/>
     <use xlink:href="#DejaVuSans-54" x="1913.378906"/>
     <use xlink:href="#DejaVuSans-43" x="1968.587891"/>
     <use xlink:href="#DejaVuSans-52" x="2038.412109"/>
     <use xlink:href="#DejaVuSans-20" x="2107.894531"/>
     <use xlink:href="#DejaVuSans-53" x="2139.681641"/>
     <use xlink:href="#DejaVuSans-63" x="2203.158203"/>
     <use xlink:href="#DejaVuSans-6f" x="2258.138672"/>
     <use xlink:href="#DejaVuSans-72" x="2319.320312"/>
     <use xlink:href="#DejaVuSans-65" x="2358.183594"/>
     <use xlink:href="#DejaVuSans-73" x="2419.707031"/>
     <use xlink:href="#DejaVuSans-20" x="2471.806641"/>
     <use xlink:href="#DejaVuSans-6f" x="2503.59375"/>
     <use xlink:href="#DejaVuSans-6e" x="2564.775391"/>
     <use xlink:href="#DejaVuSans-20" x="2628.154297"/>
     <use xlink:href="#DejaVuSans-53" x="2659.941406"/>
     <use xlink:href="#DejaVuSans-75" x="2723.417969"/>
     <use xlink:href="#DejaVuSans-72" x="2786.796875"/>
     <use xlink:href="#DejaVuSans-76" x="2827.910156"/>
     <use xlink:href="#DejaVuSans-69" x="2887.089844"/>
     <use xlink:href="#DejaVuSans-76" x="2914.873047"/>
     <use xlink:href="#DejaVuSans-61" x="2974.052734"/>
     <use xlink:href="#DejaVuSans-6c" x="3035.332031"/>
    </g>
   </g>
  </g>
 </g>
 <defs>
  <clipPath id="p83af7fec3a">
   <rect x="43.78125" y="22.318125" width="558" height="332.64"/>
  </clipPath>
 </defs>
</svg>
