<?xml version="1.0" encoding="utf-8" standalone="no"?>
<!DOCTYPE svg PUBLIC "-//W3C//DTD SVG 1.1//EN"
  "http://www.w3.org/Graphics/SVG/1.1/DTD/svg11.dtd">
<svg xmlns:xlink="http://www.w3.org/1999/xlink" width="608.98125pt" height="392.514375pt" viewBox="0 0 608.98125 392.514375" xmlns="http://www.w3.org/2000/svg" version="1.1">
 <metadata>
  <rdf:RDF xmlns:dc="http://purl.org/dc/elements/1.1/" xmlns:cc="http://creativecommons.org/ns#" xmlns:rdf="http://www.w3.org/1999/02/22-rdf-syntax-ns#">
   <cc:Work>
    <dc:type rdf:resource="http://purl.org/dc/dcmitype/StillImage"/>
    <dc:date>2024-07-08T09:39:35.338214</dc:date>
    <dc:format>image/svg+xml</dc:format>
    <dc:creator>
     <cc:Agent>
      <dc:title>Matplotlib v3.9.0, https://matplotlib.org/</dc:title>
     </cc:Agent>
    </dc:creator>
   </cc:Work>
  </rdf:RDF>
 </metadata>
 <defs>
  <style type="text/css">*{stroke-linejoin: round; stroke-linecap: butt}</style>
 </defs>
 <g id="figure_1">
  <g id="patch_1">
   <path d="M 0 392.514375 
L 608.98125 392.514375 
L 608.98125 0 
L 0 0 
z
" style="fill: #ffffff"/>
  </g>
  <g id="axes_1">
   <g id="patch_2">
    <path d="M 43.78125 354.958125 
L 601.78125 354.958125 
L 601.78125 22.318125 
L 43.78125 22.318125 
z
" style="fill: #ffffff"/>
   </g>
   <g id="matplotlib.axis_1">
    <g id="xtick_1">
     <g id="line2d_1">
      <defs>
       <path id="mea47efa59e" d="M 0 0 
L 0 3.5 
" style="stroke: #000000; stroke-width: 0.8"/>
      </defs>
      <g>
       <use xlink:href="#mea47efa59e" x="68.220892" y="354.958125" style="stroke: #000000; stroke-width: 0.8"/>
      </g>
     </g>
     <g id="text_1">
      <!-- 0 -->
      <g transform="translate(65.039642 369.556562) scale(0.1 -0.1)">
       <defs>
        <path id="DejaVuSans-30" d="M 2034 4250 
Q 1547 4250 1301 3770 
Q 1056 3291 1056 2328 
Q 1056 1369 1301 889 
Q 1547 409 2034 409 
Q 2525 409 2770 889 
Q 3016 1369 3016 2328 
Q 3016 3291 2770 3770 
Q 2525 4250 2034 4250 
z
M 2034 4750 
Q 2819 4750 3233 4129 
Q 3647 3509 3647 2328 
Q 3647 1150 3233 529 
Q 2819 -91 2034 -91 
Q 1250 -91 836 529 
Q 422 1150 422 2328 
Q 422 3509 836 4129 
Q 1250 4750 2034 4750 
z
" transform="scale(0.015625)"/>
       </defs>
       <use xlink:href="#DejaVuSans-30"/>
      </g>
     </g>
    </g>
    <g id="xtick_2">
     <g id="line2d_2">
      <g>
       <use xlink:href="#mea47efa59e" x="145.220396" y="354.958125" style="stroke: #000000; stroke-width: 0.8"/>
      </g>
     </g>
     <g id="text_2">
      <!-- 1000 -->
      <g transform="translate(132.495396 369.556562) scale(0.1 -0.1)">
       <defs>
        <path id="DejaVuSans-31" d="M 794 531 
L 1825 531 
L 1825 4091 
L 703 3866 
L 703 4441 
L 1819 4666 
L 2450 4666 
L 2450 531 
L 3481 531 
L 3481 0 
L 794 0 
L 794 531 
z
" transform="scale(0.015625)"/>
       </defs>
       <use xlink:href="#DejaVuSans-31"/>
       <use xlink:href="#DejaVuSans-30" x="63.623047"/>
       <use xlink:href="#DejaVuSans-30" x="127.246094"/>
       <use xlink:href="#DejaVuSans-30" x="190.869141"/>
      </g>
     </g>
    </g>
    <g id="xtick_3">
     <g id="line2d_3">
      <g>
       <use xlink:href="#mea47efa59e" x="222.219899" y="354.958125" style="stroke: #000000; stroke-width: 0.8"/>
      </g>
     </g>
     <g id="text_3">
      <!-- 2000 -->
      <g transform="translate(209.494899 369.556562) scale(0.1 -0.1)">
       <defs>
        <path id="DejaVuSans-32" d="M 1228 531 
L 3431 531 
L 3431 0 
L 469 0 
L 469 531 
Q 828 903 1448 1529 
Q 2069 2156 2228 2338 
Q 2531 2678 2651 2914 
Q 2772 3150 2772 3378 
Q 2772 3750 2511 3984 
Q 2250 4219 1831 4219 
Q 1534 4219 1204 4116 
Q 875 4013 500 3803 
L 500 4441 
Q 881 4594 1212 4672 
Q 1544 4750 1819 4750 
Q 2544 4750 2975 4387 
Q 3406 4025 3406 3419 
Q 3406 3131 3298 2873 
Q 3191 2616 2906 2266 
Q 2828 2175 2409 1742 
Q 1991 1309 1228 531 
z
" transform="scale(0.015625)"/>
       </defs>
       <use xlink:href="#DejaVuSans-32"/>
       <use xlink:href="#DejaVuSans-30" x="63.623047"/>
       <use xlink:href="#DejaVuSans-30" x="127.246094"/>
       <use xlink:href="#DejaVuSans-30" x="190.869141"/>
      </g>
     </g>
    </g>
    <g id="xtick_4">
     <g id="line2d_4">
      <g>
       <use xlink:href="#mea47efa59e" x="299.219402" y="354.958125" style="stroke: #000000; stroke-width: 0.8"/>
      </g>
     </g>
     <g id="text_4">
      <!-- 3000 -->
      <g transform="translate(286.494402 369.556562) scale(0.1 -0.1)">
       <defs>
        <path id="DejaVuSans-33" d="M 2597 2516 
Q 3050 2419 3304 2112 
Q 3559 1806 3559 1356 
Q 3559 666 3084 287 
Q 2609 -91 1734 -91 
Q 1441 -91 1130 -33 
Q 819 25 488 141 
L 488 750 
Q 750 597 1062 519 
Q 1375 441 1716 441 
Q 2309 441 2620 675 
Q 2931 909 2931 1356 
Q 2931 1769 2642 2001 
Q 2353 2234 1838 2234 
L 1294 2234 
L 1294 2753 
L 1863 2753 
Q 2328 2753 2575 2939 
Q 2822 3125 2822 3475 
Q 2822 3834 2567 4026 
Q 2313 4219 1838 4219 
Q 1578 4219 1281 4162 
Q 984 4106 628 3988 
L 628 4550 
Q 988 4650 1302 4700 
Q 1616 4750 1894 4750 
Q 2613 4750 3031 4423 
Q 3450 4097 3450 3541 
Q 3450 3153 3228 2886 
Q 3006 2619 2597 2516 
z
" transform="scale(0.015625)"/>
       </defs>
       <use xlink:href="#DejaVuSans-33"/>
       <use xlink:href="#DejaVuSans-30" x="63.623047"/>
       <use xlink:href="#DejaVuSans-30" x="127.246094"/>
       <use xlink:href="#DejaVuSans-30" x="190.869141"/>
      </g>
     </g>
    </g>
    <g id="xtick_5">
     <g id="line2d_5">
      <g>
       <use xlink:href="#mea47efa59e" x="376.218905" y="354.958125" style="stroke: #000000; stroke-width: 0.8"/>
      </g>
     </g>
     <g id="text_5">
      <!-- 4000 -->
      <g transform="translate(363.493905 369.556562) scale(0.1 -0.1)">
       <defs>
        <path id="DejaVuSans-34" d="M 2419 4116 
L 825 1625 
L 2419 1625 
L 2419 4116 
z
M 2253 4666 
L 3047 4666 
L 3047 1625 
L 3713 1625 
L 3713 1100 
L 3047 1100 
L 3047 0 
L 2419 0 
L 2419 1100 
L 313 1100 
L 313 1709 
L 2253 4666 
z
" transform="scale(0.015625)"/>
       </defs>
       <use xlink:href="#DejaVuSans-34"/>
       <use xlink:href="#DejaVuSans-30" x="63.623047"/>
       <use xlink:href="#DejaVuSans-30" x="127.246094"/>
       <use xlink:href="#DejaVuSans-30" x="190.869141"/>
      </g>
     </g>
    </g>
    <g id="xtick_6">
     <g id="line2d_6">
      <g>
       <use xlink:href="#mea47efa59e" x="453.218408" y="354.958125" style="stroke: #000000; stroke-width: 0.8"/>
      </g>
     </g>
     <g id="text_6">
      <!-- 5000 -->
      <g transform="translate(440.493408 369.556562) scale(0.1 -0.1)">
       <defs>
        <path id="DejaVuSans-35" d="M 691 4666 
L 3169 4666 
L 3169 4134 
L 1269 4134 
L 1269 2991 
Q 1406 3038 1543 3061 
Q 1681 3084 1819 3084 
Q 2600 3084 3056 2656 
Q 3513 2228 3513 1497 
Q 3513 744 3044 326 
Q 2575 -91 1722 -91 
Q 1428 -91 1123 -41 
Q 819 9 494 109 
L 494 744 
Q 775 591 1075 516 
Q 1375 441 1709 441 
Q 2250 441 2565 725 
Q 2881 1009 2881 1497 
Q 2881 1984 2565 2268 
Q 2250 2553 1709 2553 
Q 1456 2553 1204 2497 
Q 953 2441 691 2322 
L 691 4666 
z
" transform="scale(0.015625)"/>
       </defs>
       <use xlink:href="#DejaVuSans-35"/>
       <use xlink:href="#DejaVuSans-30" x="63.623047"/>
       <use xlink:href="#DejaVuSans-30" x="127.246094"/>
       <use xlink:href="#DejaVuSans-30" x="190.869141"/>
      </g>
     </g>
    </g>
    <g id="xtick_7">
     <g id="line2d_7">
      <g>
       <use xlink:href="#mea47efa59e" x="530.217912" y="354.958125" style="stroke: #000000; stroke-width: 0.8"/>
      </g>
     </g>
     <g id="text_7">
      <!-- 6000 -->
      <g transform="translate(517.492912 369.556562) scale(0.1 -0.1)">
       <defs>
        <path id="DejaVuSans-36" d="M 2113 2584 
Q 1688 2584 1439 2293 
Q 1191 2003 1191 1497 
Q 1191 994 1439 701 
Q 1688 409 2113 409 
Q 2538 409 2786 701 
Q 3034 994 3034 1497 
Q 3034 2003 2786 2293 
Q 2538 2584 2113 2584 
z
M 3366 4563 
L 3366 3988 
Q 3128 4100 2886 4159 
Q 2644 4219 2406 4219 
Q 1781 4219 1451 3797 
Q 1122 3375 1075 2522 
Q 1259 2794 1537 2939 
Q 1816 3084 2150 3084 
Q 2853 3084 3261 2657 
Q 3669 2231 3669 1497 
Q 3669 778 3244 343 
Q 2819 -91 2113 -91 
Q 1303 -91 875 529 
Q 447 1150 447 2328 
Q 447 3434 972 4092 
Q 1497 4750 2381 4750 
Q 2619 4750 2861 4703 
Q 3103 4656 3366 4563 
z
" transform="scale(0.015625)"/>
       </defs>
       <use xlink:href="#DejaVuSans-36"/>
       <use xlink:href="#DejaVuSans-30" x="63.623047"/>
       <use xlink:href="#DejaVuSans-30" x="127.246094"/>
       <use xlink:href="#DejaVuSans-30" x="190.869141"/>
      </g>
     </g>
    </g>
    <g id="text_8">
     <!-- Time in Days -->
     <g transform="translate(290.333594 383.234687) scale(0.1 -0.1)">
      <defs>
       <path id="DejaVuSans-54" d="M -19 4666 
L 3928 4666 
L 3928 4134 
L 2272 4134 
L 2272 0 
L 1638 0 
L 1638 4134 
L -19 4134 
L -19 4666 
z
" transform="scale(0.015625)"/>
       <path id="DejaVuSans-69" d="M 603 3500 
L 1178 3500 
L 1178 0 
L 603 0 
L 603 3500 
z
M 603 4863 
L 1178 4863 
L 1178 4134 
L 603 4134 
L 603 4863 
z
" transform="scale(0.015625)"/>
       <path id="DejaVuSans-6d" d="M 3328 2828 
Q 3544 3216 3844 3400 
Q 4144 3584 4550 3584 
Q 5097 3584 5394 3201 
Q 5691 2819 5691 2113 
L 5691 0 
L 5113 0 
L 5113 2094 
Q 5113 2597 4934 2840 
Q 4756 3084 4391 3084 
Q 3944 3084 3684 2787 
Q 3425 2491 3425 1978 
L 3425 0 
L 2847 0 
L 2847 2094 
Q 2847 2600 2669 2842 
Q 2491 3084 2119 3084 
Q 1678 3084 1418 2786 
Q 1159 2488 1159 1978 
L 1159 0 
L 581 0 
L 581 3500 
L 1159 3500 
L 1159 2956 
Q 1356 3278 1631 3431 
Q 1906 3584 2284 3584 
Q 2666 3584 2933 3390 
Q 3200 3197 3328 2828 
z
" transform="scale(0.015625)"/>
       <path id="DejaVuSans-65" d="M 3597 1894 
L 3597 1613 
L 953 1613 
Q 991 1019 1311 708 
Q 1631 397 2203 397 
Q 2534 397 2845 478 
Q 3156 559 3463 722 
L 3463 178 
Q 3153 47 2828 -22 
Q 2503 -91 2169 -91 
Q 1331 -91 842 396 
Q 353 884 353 1716 
Q 353 2575 817 3079 
Q 1281 3584 2069 3584 
Q 2775 3584 3186 3129 
Q 3597 2675 3597 1894 
z
M 3022 2063 
Q 3016 2534 2758 2815 
Q 2500 3097 2075 3097 
Q 1594 3097 1305 2825 
Q 1016 2553 972 2059 
L 3022 2063 
z
" transform="scale(0.015625)"/>
       <path id="DejaVuSans-20" transform="scale(0.015625)"/>
       <path id="DejaVuSans-6e" d="M 3513 2113 
L 3513 0 
L 2938 0 
L 2938 2094 
Q 2938 2591 2744 2837 
Q 2550 3084 2163 3084 
Q 1697 3084 1428 2787 
Q 1159 2491 1159 1978 
L 1159 0 
L 581 0 
L 581 3500 
L 1159 3500 
L 1159 2956 
Q 1366 3272 1645 3428 
Q 1925 3584 2291 3584 
Q 2894 3584 3203 3211 
Q 3513 2838 3513 2113 
z
" transform="scale(0.015625)"/>
       <path id="DejaVuSans-44" d="M 1259 4147 
L 1259 519 
L 2022 519 
Q 2988 519 3436 956 
Q 3884 1394 3884 2338 
Q 3884 3275 3436 3711 
Q 2988 4147 2022 4147 
L 1259 4147 
z
M 628 4666 
L 1925 4666 
Q 3281 4666 3915 4102 
Q 4550 3538 4550 2338 
Q 4550 1131 3912 565 
Q 3275 0 1925 0 
L 628 0 
L 628 4666 
z
" transform="scale(0.015625)"/>
       <path id="DejaVuSans-61" d="M 2194 1759 
Q 1497 1759 1228 1600 
Q 959 1441 959 1056 
Q 959 750 1161 570 
Q 1363 391 1709 391 
Q 2188 391 2477 730 
Q 2766 1069 2766 1631 
L 2766 1759 
L 2194 1759 
z
M 3341 1997 
L 3341 0 
L 2766 0 
L 2766 531 
Q 2569 213 2275 61 
Q 1981 -91 1556 -91 
Q 1019 -91 701 211 
Q 384 513 384 1019 
Q 384 1609 779 1909 
Q 1175 2209 1959 2209 
L 2766 2209 
L 2766 2266 
Q 2766 2663 2505 2880 
Q 2244 3097 1772 3097 
Q 1472 3097 1187 3025 
Q 903 2953 641 2809 
L 641 3341 
Q 956 3463 1253 3523 
Q 1550 3584 1831 3584 
Q 2591 3584 2966 3190 
Q 3341 2797 3341 1997 
z
" transform="scale(0.015625)"/>
       <path id="DejaVuSans-79" d="M 2059 -325 
Q 1816 -950 1584 -1140 
Q 1353 -1331 966 -1331 
L 506 -1331 
L 506 -850 
L 844 -850 
Q 1081 -850 1212 -737 
Q 1344 -625 1503 -206 
L 1606 56 
L 191 3500 
L 800 3500 
L 1894 763 
L 2988 3500 
L 3597 3500 
L 2059 -325 
z
" transform="scale(0.015625)"/>
       <path id="DejaVuSans-73" d="M 2834 3397 
L 2834 2853 
Q 2591 2978 2328 3040 
Q 2066 3103 1784 3103 
Q 1356 3103 1142 2972 
Q 928 2841 928 2578 
Q 928 2378 1081 2264 
Q 1234 2150 1697 2047 
L 1894 2003 
Q 2506 1872 2764 1633 
Q 3022 1394 3022 966 
Q 3022 478 2636 193 
Q 2250 -91 1575 -91 
Q 1294 -91 989 -36 
Q 684 19 347 128 
L 347 722 
Q 666 556 975 473 
Q 1284 391 1588 391 
Q 1994 391 2212 530 
Q 2431 669 2431 922 
Q 2431 1156 2273 1281 
Q 2116 1406 1581 1522 
L 1381 1569 
Q 847 1681 609 1914 
Q 372 2147 372 2553 
Q 372 3047 722 3315 
Q 1072 3584 1716 3584 
Q 2034 3584 2315 3537 
Q 2597 3491 2834 3397 
z
" transform="scale(0.015625)"/>
      </defs>
      <use xlink:href="#DejaVuSans-54"/>
      <use xlink:href="#DejaVuSans-69" x="57.958984"/>
      <use xlink:href="#DejaVuSans-6d" x="85.742188"/>
      <use xlink:href="#DejaVuSans-65" x="183.154297"/>
      <use xlink:href="#DejaVuSans-20" x="244.677734"/>
      <use xlink:href="#DejaVuSans-69" x="276.464844"/>
      <use xlink:href="#DejaVuSans-6e" x="304.248047"/>
      <use xlink:href="#DejaVuSans-20" x="367.626953"/>
      <use xlink:href="#DejaVuSans-44" x="399.414062"/>
      <use xlink:href="#DejaVuSans-61" x="476.416016"/>
      <use xlink:href="#DejaVuSans-79" x="537.695312"/>
      <use xlink:href="#DejaVuSans-73" x="596.875"/>
     </g>
    </g>
   </g>
   <g id="matplotlib.axis_2">
    <g id="ytick_1">
     <g id="line2d_8">
      <defs>
       <path id="me4046dcee5" d="M 0 0 
L -3.5 0 
" style="stroke: #000000; stroke-width: 0.8"/>
      </defs>
      <g>
       <use xlink:href="#me4046dcee5" x="43.78125" y="348.561202" style="stroke: #000000; stroke-width: 0.8"/>
      </g>
     </g>
     <g id="text_9">
      <!-- 0.5 -->
      <g transform="translate(20.878125 352.360421) scale(0.1 -0.1)">
       <defs>
        <path id="DejaVuSans-2e" d="M 684 794 
L 1344 794 
L 1344 0 
L 684 0 
L 684 794 
z
" transform="scale(0.015625)"/>
       </defs>
       <use xlink:href="#DejaVuSans-30"/>
       <use xlink:href="#DejaVuSans-2e" x="63.623047"/>
       <use xlink:href="#DejaVuSans-35" x="95.410156"/>
      </g>
     </g>
    </g>
    <g id="ytick_2">
     <g id="line2d_9">
      <g>
       <use xlink:href="#me4046dcee5" x="43.78125" y="284.591971" style="stroke: #000000; stroke-width: 0.8"/>
      </g>
     </g>
     <g id="text_10">
      <!-- 0.6 -->
      <g transform="translate(20.878125 288.39119) scale(0.1 -0.1)">
       <use xlink:href="#DejaVuSans-30"/>
       <use xlink:href="#DejaVuSans-2e" x="63.623047"/>
       <use xlink:href="#DejaVuSans-36" x="95.410156"/>
      </g>
     </g>
    </g>
    <g id="ytick_3">
     <g id="line2d_10">
      <g>
       <use xlink:href="#me4046dcee5" x="43.78125" y="220.62274" style="stroke: #000000; stroke-width: 0.8"/>
      </g>
     </g>
     <g id="text_11">
      <!-- 0.7 -->
      <g transform="translate(20.878125 224.421959) scale(0.1 -0.1)">
       <defs>
        <path id="DejaVuSans-37" d="M 525 4666 
L 3525 4666 
L 3525 4397 
L 1831 0 
L 1172 0 
L 2766 4134 
L 525 4134 
L 525 4666 
z
" transform="scale(0.015625)"/>
       </defs>
       <use xlink:href="#DejaVuSans-30"/>
       <use xlink:href="#DejaVuSans-2e" x="63.623047"/>
       <use xlink:href="#DejaVuSans-37" x="95.410156"/>
      </g>
     </g>
    </g>
    <g id="ytick_4">
     <g id="line2d_11">
      <g>
       <use xlink:href="#me4046dcee5" x="43.78125" y="156.65351" style="stroke: #000000; stroke-width: 0.8"/>
      </g>
     </g>
     <g id="text_12">
      <!-- 0.8 -->
      <g transform="translate(20.878125 160.452728) scale(0.1 -0.1)">
       <defs>
        <path id="DejaVuSans-38" d="M 2034 2216 
Q 1584 2216 1326 1975 
Q 1069 1734 1069 1313 
Q 1069 891 1326 650 
Q 1584 409 2034 409 
Q 2484 409 2743 651 
Q 3003 894 3003 1313 
Q 3003 1734 2745 1975 
Q 2488 2216 2034 2216 
z
M 1403 2484 
Q 997 2584 770 2862 
Q 544 3141 544 3541 
Q 544 4100 942 4425 
Q 1341 4750 2034 4750 
Q 2731 4750 3128 4425 
Q 3525 4100 3525 3541 
Q 3525 3141 3298 2862 
Q 3072 2584 2669 2484 
Q 3125 2378 3379 2068 
Q 3634 1759 3634 1313 
Q 3634 634 3220 271 
Q 2806 -91 2034 -91 
Q 1263 -91 848 271 
Q 434 634 434 1313 
Q 434 1759 690 2068 
Q 947 2378 1403 2484 
z
M 1172 3481 
Q 1172 3119 1398 2916 
Q 1625 2713 2034 2713 
Q 2441 2713 2670 2916 
Q 2900 3119 2900 3481 
Q 2900 3844 2670 4047 
Q 2441 4250 2034 4250 
Q 1625 4250 1398 4047 
Q 1172 3844 1172 3481 
z
" transform="scale(0.015625)"/>
       </defs>
       <use xlink:href="#DejaVuSans-30"/>
       <use xlink:href="#DejaVuSans-2e" x="63.623047"/>
       <use xlink:href="#DejaVuSans-38" x="95.410156"/>
      </g>
     </g>
    </g>
    <g id="ytick_5">
     <g id="line2d_12">
      <g>
       <use xlink:href="#me4046dcee5" x="43.78125" y="92.684279" style="stroke: #000000; stroke-width: 0.8"/>
      </g>
     </g>
     <g id="text_13">
      <!-- 0.9 -->
      <g transform="translate(20.878125 96.483498) scale(0.1 -0.1)">
       <defs>
        <path id="DejaVuSans-39" d="M 703 97 
L 703 672 
Q 941 559 1184 500 
Q 1428 441 1663 441 
Q 2288 441 2617 861 
Q 2947 1281 2994 2138 
Q 2813 1869 2534 1725 
Q 2256 1581 1919 1581 
Q 1219 1581 811 2004 
Q 403 2428 403 3163 
Q 403 3881 828 4315 
Q 1253 4750 1959 4750 
Q 2769 4750 3195 4129 
Q 3622 3509 3622 2328 
Q 3622 1225 3098 567 
Q 2575 -91 1691 -91 
Q 1453 -91 1209 -44 
Q 966 3 703 97 
z
M 1959 2075 
Q 2384 2075 2632 2365 
Q 2881 2656 2881 3163 
Q 2881 3666 2632 3958 
Q 2384 4250 1959 4250 
Q 1534 4250 1286 3958 
Q 1038 3666 1038 3163 
Q 1038 2656 1286 2365 
Q 1534 2075 1959 2075 
z
" transform="scale(0.015625)"/>
       </defs>
       <use xlink:href="#DejaVuSans-30"/>
       <use xlink:href="#DejaVuSans-2e" x="63.623047"/>
       <use xlink:href="#DejaVuSans-39" x="95.410156"/>
      </g>
     </g>
    </g>
    <g id="ytick_6">
     <g id="line2d_13">
      <g>
       <use xlink:href="#me4046dcee5" x="43.78125" y="28.715048" style="stroke: #000000; stroke-width: 0.8"/>
      </g>
     </g>
     <g id="text_14">
      <!-- 1.0 -->
      <g transform="translate(20.878125 32.514267) scale(0.1 -0.1)">
       <use xlink:href="#DejaVuSans-31"/>
       <use xlink:href="#DejaVuSans-2e" x="63.623047"/>
       <use xlink:href="#DejaVuSans-30" x="95.410156"/>
      </g>
     </g>
    </g>
    <g id="text_15">
     <!-- Survival Probability -->
     <g transform="translate(14.798438 236.815469) rotate(-90) scale(0.1 -0.1)">
      <defs>
       <path id="DejaVuSans-53" d="M 3425 4513 
L 3425 3897 
Q 3066 4069 2747 4153 
Q 2428 4238 2131 4238 
Q 1616 4238 1336 4038 
Q 1056 3838 1056 3469 
Q 1056 3159 1242 3001 
Q 1428 2844 1947 2747 
L 2328 2669 
Q 3034 2534 3370 2195 
Q 3706 1856 3706 1288 
Q 3706 609 3251 259 
Q 2797 -91 1919 -91 
Q 1588 -91 1214 -16 
Q 841 59 441 206 
L 441 856 
Q 825 641 1194 531 
Q 1563 422 1919 422 
Q 2459 422 2753 634 
Q 3047 847 3047 1241 
Q 3047 1584 2836 1778 
Q 2625 1972 2144 2069 
L 1759 2144 
Q 1053 2284 737 2584 
Q 422 2884 422 3419 
Q 422 4038 858 4394 
Q 1294 4750 2059 4750 
Q 2388 4750 2728 4690 
Q 3069 4631 3425 4513 
z
" transform="scale(0.015625)"/>
       <path id="DejaVuSans-75" d="M 544 1381 
L 544 3500 
L 1119 3500 
L 1119 1403 
Q 1119 906 1312 657 
Q 1506 409 1894 409 
Q 2359 409 2629 706 
Q 2900 1003 2900 1516 
L 2900 3500 
L 3475 3500 
L 3475 0 
L 2900 0 
L 2900 538 
Q 2691 219 2414 64 
Q 2138 -91 1772 -91 
Q 1169 -91 856 284 
Q 544 659 544 1381 
z
M 1991 3584 
L 1991 3584 
z
" transform="scale(0.015625)"/>
       <path id="DejaVuSans-72" d="M 2631 2963 
Q 2534 3019 2420 3045 
Q 2306 3072 2169 3072 
Q 1681 3072 1420 2755 
Q 1159 2438 1159 1844 
L 1159 0 
L 581 0 
L 581 3500 
L 1159 3500 
L 1159 2956 
Q 1341 3275 1631 3429 
Q 1922 3584 2338 3584 
Q 2397 3584 2469 3576 
Q 2541 3569 2628 3553 
L 2631 2963 
z
" transform="scale(0.015625)"/>
       <path id="DejaVuSans-76" d="M 191 3500 
L 800 3500 
L 1894 563 
L 2988 3500 
L 3597 3500 
L 2284 0 
L 1503 0 
L 191 3500 
z
" transform="scale(0.015625)"/>
       <path id="DejaVuSans-6c" d="M 603 4863 
L 1178 4863 
L 1178 0 
L 603 0 
L 603 4863 
z
" transform="scale(0.015625)"/>
       <path id="DejaVuSans-50" d="M 1259 4147 
L 1259 2394 
L 2053 2394 
Q 2494 2394 2734 2622 
Q 2975 2850 2975 3272 
Q 2975 3691 2734 3919 
Q 2494 4147 2053 4147 
L 1259 4147 
z
M 628 4666 
L 2053 4666 
Q 2838 4666 3239 4311 
Q 3641 3956 3641 3272 
Q 3641 2581 3239 2228 
Q 2838 1875 2053 1875 
L 1259 1875 
L 1259 0 
L 628 0 
L 628 4666 
z
" transform="scale(0.015625)"/>
       <path id="DejaVuSans-6f" d="M 1959 3097 
Q 1497 3097 1228 2736 
Q 959 2375 959 1747 
Q 959 1119 1226 758 
Q 1494 397 1959 397 
Q 2419 397 2687 759 
Q 2956 1122 2956 1747 
Q 2956 2369 2687 2733 
Q 2419 3097 1959 3097 
z
M 1959 3584 
Q 2709 3584 3137 3096 
Q 3566 2609 3566 1747 
Q 3566 888 3137 398 
Q 2709 -91 1959 -91 
Q 1206 -91 779 398 
Q 353 888 353 1747 
Q 353 2609 779 3096 
Q 1206 3584 1959 3584 
z
" transform="scale(0.015625)"/>
       <path id="DejaVuSans-62" d="M 3116 1747 
Q 3116 2381 2855 2742 
Q 2594 3103 2138 3103 
Q 1681 3103 1420 2742 
Q 1159 2381 1159 1747 
Q 1159 1113 1420 752 
Q 1681 391 2138 391 
Q 2594 391 2855 752 
Q 3116 1113 3116 1747 
z
M 1159 2969 
Q 1341 3281 1617 3432 
Q 1894 3584 2278 3584 
Q 2916 3584 3314 3078 
Q 3713 2572 3713 1747 
Q 3713 922 3314 415 
Q 2916 -91 2278 -91 
Q 1894 -91 1617 61 
Q 1341 213 1159 525 
L 1159 0 
L 581 0 
L 581 4863 
L 1159 4863 
L 1159 2969 
z
" transform="scale(0.015625)"/>
       <path id="DejaVuSans-74" d="M 1172 4494 
L 1172 3500 
L 2356 3500 
L 2356 3053 
L 1172 3053 
L 1172 1153 
Q 1172 725 1289 603 
Q 1406 481 1766 481 
L 2356 481 
L 2356 0 
L 1766 0 
Q 1100 0 847 248 
Q 594 497 594 1153 
L 594 3053 
L 172 3053 
L 172 3500 
L 594 3500 
L 594 4494 
L 1172 4494 
z
" transform="scale(0.015625)"/>
      </defs>
      <use xlink:href="#DejaVuSans-53"/>
      <use xlink:href="#DejaVuSans-75" x="63.476562"/>
      <use xlink:href="#DejaVuSans-72" x="126.855469"/>
      <use xlink:href="#DejaVuSans-76" x="167.96875"/>
      <use xlink:href="#DejaVuSans-69" x="227.148438"/>
      <use xlink:href="#DejaVuSans-76" x="254.931641"/>
      <use xlink:href="#DejaVuSans-61" x="314.111328"/>
      <use xlink:href="#DejaVuSans-6c" x="375.390625"/>
      <use xlink:href="#DejaVuSans-20" x="403.173828"/>
      <use xlink:href="#DejaVuSans-50" x="434.960938"/>
      <use xlink:href="#DejaVuSans-72" x="493.513672"/>
      <use xlink:href="#DejaVuSans-6f" x="532.376953"/>
      <use xlink:href="#DejaVuSans-62" x="593.558594"/>
      <use xlink:href="#DejaVuSans-61" x="657.035156"/>
      <use xlink:href="#DejaVuSans-62" x="718.314453"/>
      <use xlink:href="#DejaVuSans-69" x="781.791016"/>
      <use xlink:href="#DejaVuSans-6c" x="809.574219"/>
      <use xlink:href="#DejaVuSans-69" x="837.357422"/>
      <use xlink:href="#DejaVuSans-74" x="865.140625"/>
      <use xlink:href="#DejaVuSans-79" x="904.349609"/>
     </g>
    </g>
   </g>
   <g id="line2d_14">
    <path d="M 69.144886 30.611471 
L 73.30286 30.611471 
L 73.30286 32.508341 
L 75.150848 32.508341 
L 75.150848 34.403807 
L 76.151841 34.403807 
L 76.151841 36.301217 
L 81.079809 36.301217 
L 81.079809 38.203903 
L 83.620793 38.203903 
L 83.620793 40.115167 
L 83.851791 40.115167 
L 83.851791 42.024142 
L 84.159789 42.024142 
L 84.159789 43.931805 
L 84.313788 43.931805 
L 84.313788 47.738389 
L 85.006784 47.738389 
L 85.006784 49.641387 
L 85.160783 49.641387 
L 85.160783 51.543513 
L 86.623774 51.543513 
L 86.623774 53.45508 
L 88.394762 53.45508 
L 88.394762 55.367182 
L 88.933759 55.367182 
L 88.933759 57.284536 
L 93.630728 57.284536 
L 93.630728 59.205799 
L 94.785721 59.205799 
L 94.785721 61.127693 
L 95.940713 61.127693 
L 95.940713 64.964656 
L 96.248712 64.964656 
L 96.248712 68.799988 
L 97.095706 68.799988 
L 97.095706 70.718469 
L 97.480704 70.718469 
L 97.480704 72.634558 
L 98.327698 72.634558 
L 98.327698 74.554671 
L 99.328692 74.554671 
L 99.328692 76.474088 
L 99.944688 76.474088 
L 99.944688 78.398814 
L 100.021687 78.398814 
L 100.175686 78.398814 
L 100.252686 82.251263 
L 100.483684 82.251263 
L 100.483684 84.176302 
L 100.945681 84.176302 
L 100.945681 86.100371 
L 102.177673 86.100371 
L 102.177673 88.022797 
L 103.178667 88.022797 
L 103.178667 91.859805 
L 103.871662 91.859805 
L 103.871662 93.777677 
L 104.17966 93.777677 
L 104.17966 95.69454 
L 104.872656 95.69454 
L 104.872656 97.611133 
L 105.026655 97.611133 
L 105.103654 101.442153 
L 105.71965 101.442153 
L 105.71965 103.355899 
L 106.335646 103.355899 
L 106.335646 105.270329 
L 106.566645 105.270329 
L 106.643644 109.093768 
L 107.490639 109.093768 
L 107.490639 111.002617 
L 108.414633 111.002617 
L 108.414633 112.910083 
L 108.722631 112.910083 
L 108.722631 114.816858 
L 109.723625 114.816858 
L 109.723625 116.722166 
L 109.877624 116.722166 
L 109.877624 118.626997 
L 110.955617 118.626997 
L 110.955617 120.527957 
L 113.804598 120.527957 
L 113.881598 124.341482 
L 114.497594 124.341482 
L 114.574593 128.149736 
L 116.422581 128.149736 
L 116.422581 130.056813 
L 119.271563 130.056813 
L 119.271563 131.979883 
L 122.967539 131.979883 
L 122.967539 133.904936 
L 123.660535 133.904936 
L 123.660535 135.829455 
L 124.199531 135.829455 
L 124.199531 137.757899 
L 124.815527 137.757899 
L 124.815527 139.681275 
L 126.971513 139.681275 
L 126.971513 141.604651 
L 127.202512 141.604651 
L 127.202512 143.526417 
L 128.588503 143.526417 
L 128.588503 145.450375 
L 128.665502 145.450375 
L 129.666496 145.450375 
L 129.666496 147.37716 
L 133.131474 147.37716 
L 133.131474 149.315329 
L 133.362472 149.315329 
L 133.362472 153.18184 
L 135.21046 153.18184 
L 135.21046 155.115376 
L 136.673451 155.115376 
L 136.673451 157.054283 
L 136.904449 157.054283 
L 136.904449 158.992718 
L 137.443446 158.992718 
L 137.443446 160.927782 
L 139.676431 160.927782 
L 139.676431 162.86129 
L 146.298389 162.86129 
L 146.298389 164.833992 
L 148.993371 164.833992 
L 148.993371 166.818457 
L 149.686367 166.818457 
L 149.686367 168.80766 
L 149.763366 168.80766 
L 150.071364 168.80766 
L 150.071364 170.799263 
L 150.841359 170.799263 
L 150.841359 172.794029 
L 151.457355 172.794029 
L 151.457355 174.788678 
L 154.306337 174.788678 
L 154.306337 176.802364 
L 154.460336 176.802364 
L 154.460336 178.814533 
L 154.691334 178.814533 
L 154.691334 180.822167 
L 156.92432 180.822167 
L 156.92432 182.834532 
L 158.618309 182.834532 
L 158.618309 184.842259 
L 159.619303 184.842259 
L 159.619303 186.853551 
L 159.927301 186.853551 
L 159.927301 188.860307 
L 162.853282 188.860307 
L 162.853282 190.883052 
L 163.315279 190.883052 
L 163.315279 192.902581 
L 167.78125 192.902581 
L 167.78125 194.954811 
L 167.85825 194.954811 
L 171.477226 194.954811 
L 171.477226 197.035246 
L 173.094216 197.035246 
L 173.094216 199.110888 
L 174.095209 199.110888 
L 174.095209 201.189233 
L 175.789198 201.189233 
L 175.789198 203.284412 
L 176.097196 203.284412 
L 176.097196 205.373985 
L 179.485174 205.373985 
L 179.485174 207.514304 
L 180.17817 207.514304 
L 180.17817 209.65331 
L 186.800127 209.65331 
L 186.800127 211.849863 
L 195.65507 211.849863 
L 195.65507 214.162925 
L 198.73505 214.162925 
L 198.73505 216.50931 
L 204.741012 216.50931 
L 204.741012 218.917433 
L 208.359988 218.917433 
L 208.359988 221.397813 
L 222.989894 221.397813 
L 222.989894 224.086626 
L 232.383833 224.086626 
L 232.383833 226.964309 
L 232.460833 226.964309 
L 247.167738 226.964309 
L 247.167738 230.168833 
L 253.789695 230.168833 
L 253.789695 233.466226 
L 284.435497 233.466226 
L 284.435497 237.704811 
L 286.591483 237.704811 
L 286.591483 242.086829 
L 361.512 242.086829 
L 361.512 251.64132 
L 576.417614 251.64132 
L 576.417614 251.64132 
" clip-path="url(#pd1d9f184e2)" style="fill: none; stroke: #2a5acb; stroke-width: 1.5; stroke-linecap: square"/>
   </g>
   <g id="line2d_15">
    <path d="M 69.144886 30.23178 
L 73.30286 30.23178 
L 73.30286 31.749775 
L 75.150848 31.749775 
L 75.150848 33.267552 
L 76.151841 33.267552 
L 76.151841 34.787797 
L 81.079809 34.787797 
L 81.079809 36.313189 
L 83.620793 36.313189 
L 83.620793 37.846387 
L 83.851791 37.846387 
L 83.851791 39.378683 
L 84.159789 39.378683 
L 84.159789 40.910861 
L 84.313788 40.910861 
L 84.313788 43.971003 
L 85.006784 43.971003 
L 85.006784 45.502248 
L 85.160783 45.502248 
L 85.160783 47.033735 
L 86.623774 47.033735 
L 86.623774 48.573777 
L 88.394762 48.573777 
L 88.394762 50.11521 
L 88.933759 50.11521 
L 88.933759 51.661845 
L 93.630728 51.661845 
L 93.630728 53.21261 
L 94.785721 53.21261 
L 94.785721 54.764865 
L 95.940713 54.764865 
L 95.940713 57.866811 
L 96.248712 57.866811 
L 96.248712 60.971395 
L 97.095706 60.971395 
L 97.095706 62.525838 
L 97.480704 62.525838 
L 97.480704 64.079342 
L 98.327698 64.079342 
L 98.327698 65.637113 
L 99.328692 65.637113 
L 99.328692 67.19533 
L 99.944688 67.19533 
L 99.944688 68.758874 
L 100.021687 68.758874 
L 100.175686 68.758874 
L 100.252686 71.891472 
L 100.483684 71.891472 
L 100.483684 73.458352 
L 100.945681 73.458352 
L 100.945681 75.025477 
L 102.177673 75.025477 
L 102.177673 76.592302 
L 103.178667 76.592302 
L 103.178667 79.722673 
L 103.871662 79.722673 
L 103.871662 81.288907 
L 104.17966 81.288907 
L 104.17966 82.855365 
L 104.872656 82.855365 
L 104.872656 84.422652 
L 105.026655 84.422652 
L 105.103654 87.558624 
L 105.71965 87.558624 
L 105.71965 89.126756 
L 106.335646 89.126756 
L 106.335646 90.696513 
L 106.566645 90.696513 
L 106.643644 93.834791 
L 107.490639 93.834791 
L 107.490639 95.403182 
L 108.414633 95.403182 
L 108.414633 96.971512 
L 108.722631 96.971512 
L 108.722631 98.540353 
L 109.723625 98.540353 
L 109.723625 100.109071 
L 109.877624 100.109071 
L 109.877624 101.678481 
L 110.955617 101.678481 
L 110.955617 103.245789 
L 113.804598 103.245789 
L 113.881598 106.393264 
L 114.497594 106.393264 
L 114.574593 109.540807 
L 116.422581 109.540807 
L 116.422581 111.118686 
L 119.271563 111.118686 
L 119.271563 112.710933 
L 122.967539 112.710933 
L 122.967539 114.305968 
L 123.660535 114.305968 
L 123.660535 115.901712 
L 124.199531 115.901712 
L 124.199531 117.50187 
L 124.815527 117.50187 
L 124.815527 119.098984 
L 126.971513 119.098984 
L 126.971513 120.697263 
L 127.202512 120.697263 
L 127.202512 122.295374 
L 128.588503 122.295374 
L 128.665502 123.896482 
L 128.665502 123.896482 
L 129.666496 123.896482 
L 129.666496 125.501127 
L 133.131474 125.501127 
L 133.131474 127.116454 
L 133.362472 127.116454 
L 133.362472 130.342534 
L 135.21046 130.342534 
L 135.21046 131.957627 
L 136.673451 131.957627 
L 136.673451 133.578432 
L 136.904449 133.578432 
L 136.904449 135.200074 
L 137.443446 135.200074 
L 137.443446 136.82013 
L 139.676431 136.82013 
L 139.676431 138.44012 
L 146.298389 138.44012 
L 146.298389 140.09423 
L 148.993371 140.09423 
L 148.993371 141.759514 
L 149.686367 141.759514 
L 149.686367 143.430101 
L 149.763366 143.430101 
L 150.071364 143.430101 
L 150.071364 145.104039 
L 150.841359 145.104039 
L 150.841359 146.781981 
L 151.457355 146.781981 
L 151.457355 148.461181 
L 154.306337 148.461181 
L 154.306337 150.157786 
L 154.460336 150.157786 
L 154.460336 151.854505 
L 154.691334 151.854505 
L 154.691334 153.548794 
L 156.92432 153.548794 
L 156.92432 155.24848 
L 158.618309 155.24848 
L 158.618309 156.945656 
L 159.619303 156.945656 
L 159.619303 158.647262 
L 159.927301 158.647262 
L 159.927301 160.346451 
L 162.853282 160.346451 
L 162.853282 162.060622 
L 163.315279 162.060622 
L 163.315279 163.77352 
L 167.78125 163.77352 
L 167.78125 165.515648 
L 167.85825 165.515648 
L 171.477226 165.515648 
L 171.477226 167.283266 
L 173.094216 167.283266 
L 173.094216 169.04837 
L 174.095209 169.04837 
L 174.095209 170.817341 
L 175.789198 170.817341 
L 175.789198 172.602238 
L 176.097196 172.602238 
L 176.097196 174.383965 
L 179.485174 174.383965 
L 179.485174 176.210633 
L 180.17817 176.210633 
L 180.17817 178.037881 
L 186.800127 178.037881 
L 186.800127 179.916066 
L 195.65507 179.916066 
L 195.65507 181.895833 
L 198.73505 181.895833 
L 198.73505 183.906187 
L 204.741012 183.906187 
L 204.741012 185.971614 
L 208.359988 185.971614 
L 208.359988 188.101336 
L 222.989894 188.101336 
L 222.989894 190.412702 
L 232.383833 190.412702 
L 232.383833 192.889534 
L 232.460833 192.889534 
L 247.167738 192.889534 
L 247.167738 195.65149 
L 253.789695 195.65149 
L 253.789695 198.49772 
L 284.435497 198.49772 
L 284.435497 202.162728 
L 286.591483 202.162728 
L 286.591483 205.959369 
L 361.512 205.959369 
L 361.512 214.264796 
L 576.417614 214.264796 
L 576.417614 214.264796 
" clip-path="url(#pd1d9f184e2)" style="fill: none; stroke: #3256aa; stroke-width: 1.5; stroke-linecap: square"/>
   </g>
   <g id="line2d_16">
    <path d="M 69.144886 29.955166 
L 73.30286 29.955166 
L 73.30286 31.196856 
L 75.150848 31.196856 
L 75.150848 32.438908 
L 76.151841 32.438908 
L 76.151841 33.683523 
L 81.079809 33.683523 
L 81.079809 34.9329 
L 83.620793 34.9329 
L 83.620793 36.189225 
L 83.851791 36.189225 
L 83.851791 37.445368 
L 84.159789 37.445368 
L 84.159789 38.701973 
L 84.313788 38.701973 
L 84.313788 41.213406 
L 85.006784 41.213406 
L 85.006784 42.470929 
L 85.160783 42.470929 
L 85.160783 43.729214 
L 86.623774 43.729214 
L 86.623774 44.995101 
L 88.394762 44.995101 
L 88.394762 46.262705 
L 88.933759 46.262705 
L 88.933759 47.535168 
L 93.630728 47.535168 
L 93.630728 48.811612 
L 94.785721 48.811612 
L 94.785721 50.089872 
L 95.940713 50.089872 
L 95.940713 52.646052 
L 96.248712 52.646052 
L 96.248712 55.206779 
L 97.095706 55.206779 
L 97.095706 56.489815 
L 97.480704 56.489815 
L 97.480704 57.772676 
L 98.327698 57.772676 
L 98.327698 59.059665 
L 99.328692 59.059665 
L 99.328692 60.34763 
L 99.944688 60.34763 
L 100.021687 61.640611 
L 100.021687 61.640611 
L 100.175686 61.640611 
L 100.252686 64.232983 
L 100.483684 64.232983 
L 100.483684 65.530582 
L 100.945681 65.530582 
L 100.945681 66.829008 
L 102.177673 66.829008 
L 102.177673 68.127811 
L 103.178667 68.127811 
L 103.178667 70.724582 
L 103.871662 70.724582 
L 103.871662 72.024783 
L 104.17966 72.024783 
L 104.17966 73.325803 
L 104.872656 73.325803 
L 104.872656 74.628148 
L 105.026655 74.628148 
L 105.103654 77.235917 
L 105.71965 77.235917 
L 105.71965 78.540887 
L 106.335646 78.540887 
L 106.335646 79.847855 
L 106.566645 79.847855 
L 106.643644 82.462707 
L 107.490639 82.462707 
L 107.490639 83.770487 
L 108.414633 83.770487 
L 108.414633 85.078869 
L 108.722631 85.078869 
L 108.722631 86.388334 
L 109.723625 86.388334 
L 109.723625 87.698354 
L 109.877624 87.698354 
L 109.877624 89.009612 
L 110.955617 89.009612 
L 110.955617 90.319777 
L 113.804598 90.319777 
L 113.881598 92.952861 
L 114.497594 92.952861 
L 114.574593 95.588695 
L 116.422581 95.588695 
L 116.422581 96.911071 
L 119.271563 96.911071 
L 119.271563 98.246182 
L 122.967539 98.246182 
L 122.967539 99.58433 
L 123.660535 99.58433 
L 123.660535 100.923778 
L 124.199531 100.923778 
L 124.199531 102.267639 
L 124.815527 102.267639 
L 124.815527 103.609656 
L 126.971513 103.609656 
L 126.971513 104.953364 
L 127.202512 104.953364 
L 127.202512 106.297646 
L 128.588503 106.297646 
L 128.588503 107.645171 
L 128.665502 107.645171 
L 129.666496 107.645171 
L 129.666496 108.996398 
L 133.131474 108.996398 
L 133.131474 110.357356 
L 133.362472 110.357356 
L 133.362472 113.077641 
L 135.21046 113.077641 
L 135.21046 114.440633 
L 136.673451 114.440633 
L 136.673451 115.809198 
L 136.904449 115.809198 
L 136.904449 117.179228 
L 137.443446 117.179228 
L 137.443446 118.548678 
L 139.676431 118.548678 
L 139.676431 119.918834 
L 146.298389 119.918834 
L 146.298389 121.318637 
L 148.993371 121.318637 
L 148.993371 122.728705 
L 149.686367 122.728705 
L 149.686367 124.144081 
L 149.763366 124.144081 
L 150.071364 124.144081 
L 150.071364 125.563121 
L 150.841359 125.563121 
L 150.841359 126.986388 
L 151.457355 126.986388 
L 151.457355 128.411557 
L 154.306337 128.411557 
L 154.306337 129.852353 
L 154.460336 129.852353 
L 154.460336 131.294107 
L 154.691334 131.294107 
L 154.691334 132.73466 
L 156.92432 132.73466 
L 156.92432 134.18067 
L 158.618309 134.18067 
L 158.618309 135.625418 
L 159.619303 135.625418 
L 159.619303 137.074816 
L 159.927301 137.074816 
L 159.927301 138.523037 
L 162.853282 138.523037 
L 162.853282 139.984923 
L 163.315279 139.984923 
L 163.315279 141.446626 
L 167.78125 141.446626 
L 167.78125 142.934202 
L 167.85825 142.934202 
L 171.477226 142.934202 
L 171.477226 144.444505 
L 173.094216 144.444505 
L 173.094216 145.953631 
L 174.095209 145.953631 
L 174.095209 147.467041 
L 175.789198 147.467041 
L 175.789198 148.995072 
L 176.097196 148.995072 
L 176.097196 150.52139 
L 179.485174 150.52139 
L 179.485174 152.087252 
L 180.17817 152.087252 
L 180.17817 153.654672 
L 186.800127 153.654672 
L 186.800127 155.266897 
L 195.65507 155.266897 
L 195.65507 156.967546 
L 198.73505 156.967546 
L 198.73505 158.695763 
L 204.741012 158.695763 
L 204.741012 160.472687 
L 208.359988 160.472687 
L 208.359988 162.306381 
L 222.989894 162.306381 
L 222.989894 164.29815 
L 232.383833 164.29815 
L 232.383833 166.43446 
L 232.460833 166.43446 
L 247.167738 166.43446 
L 247.167738 168.819091 
L 253.789695 168.819091 
L 253.789695 171.279145 
L 284.435497 171.279145 
L 284.435497 174.450897 
L 286.591483 174.450897 
L 286.591483 177.741369 
L 361.512 177.741369 
L 361.512 184.956791 
L 576.417614 184.956791 
L 576.417614 184.956791 
" clip-path="url(#pd1d9f184e2)" style="fill: none; stroke: #3a528a; stroke-width: 1.5; stroke-linecap: square"/>
   </g>
   <g id="line2d_17">
    <path d="M 69.144886 29.726141 
L 73.30286 29.726141 
L 73.30286 30.73888 
L 75.150848 30.73888 
L 75.150848 31.752279 
L 76.151841 31.752279 
L 76.151841 32.768136 
L 81.079809 32.768136 
L 81.079809 33.78825 
L 83.620793 33.78825 
L 83.620793 34.814412 
L 83.851791 34.814412 
L 83.851791 35.840803 
L 84.159789 35.840803 
L 84.159789 36.867948 
L 84.313788 36.867948 
L 84.313788 38.921924 
L 85.006784 38.921924 
L 85.006784 39.95096 
L 85.160783 39.95096 
L 85.160783 40.981002 
L 86.623774 40.981002 
L 86.623774 42.017654 
L 88.394762 42.017654 
L 88.394762 43.056103 
L 88.933759 43.056103 
L 88.933759 44.098925 
L 93.630728 44.098925 
L 93.630728 45.145407 
L 94.785721 45.145407 
L 94.785721 46.193777 
L 95.940713 46.193777 
L 95.940713 48.29144 
L 96.248712 48.29144 
L 96.248712 50.39445 
L 97.095706 50.39445 
L 97.095706 51.448759 
L 97.480704 51.448759 
L 97.480704 52.503334 
L 98.327698 52.503334 
L 98.327698 53.561713 
L 99.328692 53.561713 
L 99.328692 54.621309 
L 99.944688 54.621309 
L 99.944688 55.685448 
L 100.021687 55.685448 
L 100.175686 55.685448 
L 100.252686 57.820267 
L 100.483684 57.820267 
L 100.483684 58.889476 
L 100.945681 58.889476 
L 100.945681 59.959792 
L 102.177673 59.959792 
L 102.177673 61.030846 
L 103.178667 61.030846 
L 103.178667 63.17355 
L 103.871662 63.17355 
L 103.871662 64.247046 
L 104.17966 64.247046 
L 104.17966 65.321652 
L 104.872656 65.321652 
L 104.872656 66.397787 
L 105.026655 66.397787 
L 105.103654 68.553915 
L 105.71965 68.553915 
L 105.71965 69.633535 
L 106.335646 69.633535 
L 106.335646 70.715251 
L 106.566645 70.715251 
L 106.643644 72.880776 
L 107.490639 72.880776 
L 107.490639 73.964501 
L 108.414633 73.964501 
L 108.414633 75.049175 
L 108.722631 75.049175 
L 108.722631 76.135195 
L 109.723625 76.135195 
L 109.723625 77.222128 
L 109.877624 77.222128 
L 109.877624 78.310543 
L 110.955617 78.310543 
L 110.955617 79.398504 
L 113.804598 79.398504 
L 113.881598 81.586398 
L 114.497594 81.586398 
L 114.574593 83.778432 
L 116.422581 83.778432 
L 116.422581 84.878859 
L 119.271563 84.878859 
L 119.271563 85.99036 
L 122.967539 85.99036 
L 122.967539 87.104873 
L 123.660535 87.104873 
L 123.660535 88.220954 
L 124.199531 88.220954 
L 124.199531 89.341202 
L 124.815527 89.341202 
L 124.815527 90.460403 
L 126.971513 90.460403 
L 126.971513 91.581507 
L 127.202512 91.581507 
L 127.202512 92.703584 
L 128.588503 92.703584 
L 128.588503 93.828866 
L 128.665502 93.828866 
L 129.666496 93.828866 
L 129.666496 94.957742 
L 133.131474 94.957742 
L 133.131474 96.095256 
L 133.362472 96.095256 
L 133.362472 98.370462 
L 135.21046 98.370462 
L 135.21046 99.511221 
L 136.673451 99.511221 
L 136.673451 100.657168 
L 136.904449 100.657168 
L 136.904449 101.804866 
L 137.443446 101.804866 
L 137.443446 102.952606 
L 139.676431 102.952606 
L 139.676431 104.101467 
L 146.298389 104.101467 
L 146.298389 105.275733 
L 148.993371 105.275733 
L 148.993371 106.459173 
L 149.686367 106.459173 
L 149.686367 107.647635 
L 149.763366 107.647635 
L 150.071364 107.647635 
L 150.071364 108.839749 
L 150.841359 108.839749 
L 150.841359 110.035991 
L 151.457355 110.035991 
L 151.457355 111.234416 
L 154.306337 111.234416 
L 154.306337 112.446575 
L 154.460336 112.446575 
L 154.460336 113.66014 
L 154.691334 113.66014 
L 154.691334 114.873296 
L 156.92432 114.873296 
L 156.92432 116.091654 
L 158.618309 116.091654 
L 158.618309 117.309557 
L 159.619303 117.309557 
L 159.619303 118.531994 
L 159.927301 118.531994 
L 159.927301 119.754054 
L 162.853282 119.754054 
L 162.853282 120.988271 
L 163.315279 120.988271 
L 163.315279 122.222965 
L 167.78125 122.222965 
L 167.78125 123.480164 
L 167.85825 123.480164 
L 171.477226 123.480164 
L 171.477226 124.757243 
L 173.094216 124.757243 
L 173.094216 126.034007 
L 174.095209 126.034007 
L 174.095209 127.31508 
L 175.789198 127.31508 
L 175.789198 128.609226 
L 176.097196 128.609226 
L 176.097196 129.902626 
L 179.485174 129.902626 
L 179.485174 131.230267 
L 180.17817 131.230267 
L 180.17817 132.559974 
L 186.800127 132.559974 
L 186.800127 133.928473 
L 195.65507 133.928473 
L 195.65507 135.37289 
L 198.73505 135.37289 
L 198.73505 136.84163 
L 204.741012 136.84163 
L 204.741012 138.352725 
L 208.359988 138.352725 
L 208.359988 139.913121 
L 222.989894 139.913121 
L 222.989894 141.609218 
L 232.383833 141.609218 
L 232.383833 143.429776 
L 232.460833 143.429776 
L 247.167738 143.429776 
L 247.167738 145.463645 
L 253.789695 145.463645 
L 253.789695 147.563724 
L 284.435497 147.563724 
L 284.435497 150.274197 
L 286.591483 150.274197 
L 286.591483 153.089527 
L 361.512 153.089527 
L 361.512 159.275307 
L 576.417614 159.275307 
L 576.417614 159.275307 
" clip-path="url(#pd1d9f184e2)" style="fill: none; stroke: #424e69; stroke-width: 1.5; stroke-linecap: square"/>
   </g>
   <g id="line2d_18">
    <path d="M 69.144886 29.479891 
L 73.30286 29.479891 
L 73.30286 30.246274 
L 75.150848 30.246274 
L 75.150848 31.013453 
L 76.151841 31.013453 
L 76.151841 31.782793 
L 81.079809 31.782793 
L 81.079809 32.555657 
L 83.620793 32.555657 
L 83.620793 33.33341 
L 83.851791 33.33341 
L 83.851791 34.111643 
L 84.159789 34.111643 
L 84.159789 34.890756 
L 84.313788 34.890756 
L 84.313788 36.449671 
L 85.006784 36.449671 
L 85.006784 37.231148 
L 85.160783 37.231148 
L 85.160783 38.013703 
L 86.623774 38.013703 
L 86.623774 38.801595 
L 88.394762 38.801595 
L 88.394762 39.591171 
L 88.933759 39.591171 
L 88.933759 40.384394 
L 93.630728 40.384394 
L 93.630728 41.180726 
L 94.785721 41.180726 
L 94.785721 41.978821 
L 95.940713 41.978821 
L 95.940713 43.576699 
L 96.248712 43.576699 
L 96.248712 45.179972 
L 97.095706 45.179972 
L 97.095706 45.984247 
L 97.480704 45.984247 
L 97.480704 46.78906 
L 98.327698 46.78906 
L 98.327698 47.597114 
L 99.328692 47.597114 
L 99.328692 48.406435 
L 99.944688 48.406435 
L 99.944688 49.219571 
L 100.021687 49.219571 
L 100.175686 49.219571 
L 100.252686 50.851878 
L 100.483684 50.851878 
L 100.483684 51.669929 
L 100.945681 51.669929 
L 100.945681 52.489178 
L 102.177673 52.489178 
L 102.177673 53.309344 
L 103.178667 53.309344 
L 103.178667 54.951191 
L 103.871662 54.951191 
L 103.871662 55.774289 
L 104.17966 55.774289 
L 104.17966 56.598596 
L 104.872656 56.598596 
L 104.872656 57.424435 
L 105.026655 57.424435 
L 105.103654 59.080155 
L 105.71965 59.080155 
L 105.71965 59.909756 
L 106.335646 59.909756 
L 106.335646 60.741332 
L 106.566645 60.741332 
L 106.643644 62.407197 
L 107.490639 62.407197 
L 107.490639 63.241424 
L 108.414633 63.241424 
L 108.414633 64.076752 
L 108.722631 64.076752 
L 108.722631 64.913491 
L 109.723625 64.913491 
L 109.723625 65.751306 
L 109.877624 65.751306 
L 109.877624 66.590641 
L 110.955617 66.590641 
L 110.955617 67.430002 
L 113.804598 67.430002 
L 113.881598 69.119107 
L 114.497594 69.119107 
L 114.574593 70.812948 
L 116.422581 70.812948 
L 116.422581 71.663859 
L 119.271563 71.663859 
L 119.271563 72.52373 
L 122.967539 72.52373 
L 122.967539 73.386334 
L 123.660535 73.386334 
L 123.660535 74.250554 
L 124.199531 74.250554 
L 124.199531 75.118409 
L 124.815527 75.118409 
L 124.815527 75.985861 
L 126.971513 75.985861 
L 126.971513 76.855199 
L 127.202512 76.855199 
L 127.202512 77.725705 
L 128.588503 77.725705 
L 128.588503 78.599111 
L 128.665502 78.599111 
L 129.666496 78.599111 
L 129.666496 79.475726 
L 133.131474 79.475726 
L 133.131474 80.359474 
L 133.362472 80.359474 
L 133.362472 82.128394 
L 135.21046 82.128394 
L 135.21046 83.015956 
L 136.673451 83.015956 
L 136.673451 83.90799 
L 136.904449 83.90799 
L 136.904449 84.801829 
L 137.443446 84.801829 
L 137.443446 85.69614 
L 139.676431 85.69614 
L 139.676431 86.591768 
L 146.298389 86.591768 
L 146.298389 87.507661 
L 148.993371 87.507661 
L 148.993371 88.43118 
L 149.686367 88.43118 
L 149.686367 89.359095 
L 149.763366 89.359095 
L 150.071364 89.359095 
L 150.071364 90.290343 
L 150.841359 90.290343 
L 150.841359 91.225303 
L 151.457355 91.225303 
L 151.457355 92.162457 
L 154.306337 92.162457 
L 154.306337 93.110852 
L 154.460336 93.110852 
L 154.460336 94.060852 
L 154.691334 94.060852 
L 154.691334 95.011037 
L 156.92432 95.011037 
L 156.92432 95.965808 
L 158.618309 95.965808 
L 158.618309 96.920736 
L 159.619303 96.920736 
L 159.619303 97.879736 
L 159.927301 97.879736 
L 159.927301 98.838959 
L 162.853282 98.838959 
L 162.853282 99.808254 
L 163.315279 99.808254 
L 163.315279 100.778455 
L 167.78125 100.778455 
L 167.78125 101.766891 
L 167.85825 101.766891 
L 171.477226 101.766891 
L 171.477226 102.771525 
L 173.094216 102.771525 
L 173.094216 103.776487 
L 174.095209 103.776487 
L 174.095209 104.78542 
L 175.789198 104.78542 
L 175.789198 105.805241 
L 176.097196 105.805241 
L 176.097196 106.825069 
L 179.485174 106.825069 
L 179.485174 107.872516 
L 180.17817 107.872516 
L 180.17817 108.922226 
L 186.800127 108.922226 
L 186.800127 110.003223 
L 195.65507 110.003223 
L 195.65507 111.14492 
L 198.73505 111.14492 
L 198.73505 112.306616 
L 204.741012 112.306616 
L 204.741012 113.50263 
L 208.359988 113.50263 
L 208.359988 114.738537 
L 222.989894 114.738537 
L 222.989894 116.082934 
L 232.383833 116.082934 
L 232.383833 117.527158 
L 232.460833 117.527158 
L 247.167738 117.527158 
L 247.167738 119.142044 
L 253.789695 119.142044 
L 253.789695 120.811108 
L 284.435497 120.811108 
L 284.435497 122.967716 
L 286.591483 122.967716 
L 286.591483 125.210667 
L 361.512 125.210667 
L 361.512 130.149354 
L 576.417614 130.149354 
L 576.417614 130.149354 
" clip-path="url(#pd1d9f184e2)" style="fill: none; stroke: #4a4a4a; stroke-width: 1.5; stroke-linecap: square"/>
   </g>
   <g id="patch_3">
    <path d="M 43.78125 354.958125 
L 43.78125 22.318125 
" style="fill: none; stroke: #000000; stroke-width: 0.8; stroke-linejoin: miter; stroke-linecap: square"/>
   </g>
   <g id="patch_4">
    <path d="M 601.78125 354.958125 
L 601.78125 22.318125 
" style="fill: none; stroke: #000000; stroke-width: 0.8; stroke-linejoin: miter; stroke-linecap: square"/>
   </g>
   <g id="patch_5">
    <path d="M 43.78125 354.958125 
L 601.78125 354.958125 
" style="fill: none; stroke: #000000; stroke-width: 0.8; stroke-linejoin: miter; stroke-linecap: square"/>
   </g>
   <g id="patch_6">
    <path d="M 43.78125 22.318125 
L 601.78125 22.318125 
" style="fill: none; stroke: #000000; stroke-width: 0.8; stroke-linejoin: miter; stroke-linecap: square"/>
   </g>
   <g id="text_16">
    <!-- p-value: 0.001594 -->
    <g transform="translate(499.349375 36.569362) scale(0.1 -0.1)">
     <defs>
      <path id="DejaVuSans-70" d="M 1159 525 
L 1159 -1331 
L 581 -1331 
L 581 3500 
L 1159 3500 
L 1159 2969 
Q 1341 3281 1617 3432 
Q 1894 3584 2278 3584 
Q 2916 3584 3314 3078 
Q 3713 2572 3713 1747 
Q 3713 922 3314 415 
Q 2916 -91 2278 -91 
Q 1894 -91 1617 61 
Q 1341 213 1159 525 
z
M 3116 1747 
Q 3116 2381 2855 2742 
Q 2594 3103 2138 3103 
Q 1681 3103 1420 2742 
Q 1159 2381 1159 1747 
Q 1159 1113 1420 752 
Q 1681 391 2138 391 
Q 2594 391 2855 752 
Q 3116 1113 3116 1747 
z
" transform="scale(0.015625)"/>
      <path id="DejaVuSans-2d" d="M 313 2009 
L 1997 2009 
L 1997 1497 
L 313 1497 
L 313 2009 
z
" transform="scale(0.015625)"/>
      <path id="DejaVuSans-3a" d="M 750 794 
L 1409 794 
L 1409 0 
L 750 0 
L 750 794 
z
M 750 3309 
L 1409 3309 
L 1409 2516 
L 750 2516 
L 750 3309 
z
" transform="scale(0.015625)"/>
     </defs>
     <use xlink:href="#DejaVuSans-70"/>
     <use xlink:href="#DejaVuSans-2d" x="63.476562"/>
     <use xlink:href="#DejaVuSans-76" x="96.935547"/>
     <use xlink:href="#DejaVuSans-61" x="156.115234"/>
     <use xlink:href="#DejaVuSans-6c" x="217.394531"/>
     <use xlink:href="#DejaVuSans-75" x="245.177734"/>
     <use xlink:href="#DejaVuSans-65" x="308.556641"/>
     <use xlink:href="#DejaVuSans-3a" x="370.080078"/>
     <use xlink:href="#DejaVuSans-20" x="403.771484"/>
     <use xlink:href="#DejaVuSans-30" x="435.558594"/>
     <use xlink:href="#DejaVuSans-2e" x="499.181641"/>
     <use xlink:href="#DejaVuSans-30" x="530.96875"/>
     <use xlink:href="#DejaVuSans-30" x="594.591797"/>
     <use xlink:href="#DejaVuSans-31" x="658.214844"/>
     <use xlink:href="#DejaVuSans-35" x="721.837891"/>
     <use xlink:href="#DejaVuSans-39" x="785.460938"/>
     <use xlink:href="#DejaVuSans-34" x="849.083984"/>
    </g>
   </g>
   <g id="text_17">
    <!-- Adjusted Partial Effects of Continuous CD8B Expression on Survival -->
    <g transform="translate(121.285313 16.318125) scale(0.12 -0.12)">
     <defs>
      <path id="DejaVuSans-41" d="M 2188 4044 
L 1331 1722 
L 3047 1722 
L 2188 4044 
z
M 1831 4666 
L 2547 4666 
L 4325 0 
L 3669 0 
L 3244 1197 
L 1141 1197 
L 716 0 
L 50 0 
L 1831 4666 
z
" transform="scale(0.015625)"/>
      <path id="DejaVuSans-64" d="M 2906 2969 
L 2906 4863 
L 3481 4863 
L 3481 0 
L 2906 0 
L 2906 525 
Q 2725 213 2448 61 
Q 2172 -91 1784 -91 
Q 1150 -91 751 415 
Q 353 922 353 1747 
Q 353 2572 751 3078 
Q 1150 3584 1784 3584 
Q 2172 3584 2448 3432 
Q 2725 3281 2906 2969 
z
M 947 1747 
Q 947 1113 1208 752 
Q 1469 391 1925 391 
Q 2381 391 2643 752 
Q 2906 1113 2906 1747 
Q 2906 2381 2643 2742 
Q 2381 3103 1925 3103 
Q 1469 3103 1208 2742 
Q 947 2381 947 1747 
z
" transform="scale(0.015625)"/>
      <path id="DejaVuSans-6a" d="M 603 3500 
L 1178 3500 
L 1178 -63 
Q 1178 -731 923 -1031 
Q 669 -1331 103 -1331 
L -116 -1331 
L -116 -844 
L 38 -844 
Q 366 -844 484 -692 
Q 603 -541 603 -63 
L 603 3500 
z
M 603 4863 
L 1178 4863 
L 1178 4134 
L 603 4134 
L 603 4863 
z
" transform="scale(0.015625)"/>
      <path id="DejaVuSans-45" d="M 628 4666 
L 3578 4666 
L 3578 4134 
L 1259 4134 
L 1259 2753 
L 3481 2753 
L 3481 2222 
L 1259 2222 
L 1259 531 
L 3634 531 
L 3634 0 
L 628 0 
L 628 4666 
z
" transform="scale(0.015625)"/>
      <path id="DejaVuSans-66" d="M 2375 4863 
L 2375 4384 
L 1825 4384 
Q 1516 4384 1395 4259 
Q 1275 4134 1275 3809 
L 1275 3500 
L 2222 3500 
L 2222 3053 
L 1275 3053 
L 1275 0 
L 697 0 
L 697 3053 
L 147 3053 
L 147 3500 
L 697 3500 
L 697 3744 
Q 697 4328 969 4595 
Q 1241 4863 1831 4863 
L 2375 4863 
z
" transform="scale(0.015625)"/>
      <path id="DejaVuSans-63" d="M 3122 3366 
L 3122 2828 
Q 2878 2963 2633 3030 
Q 2388 3097 2138 3097 
Q 1578 3097 1268 2742 
Q 959 2388 959 1747 
Q 959 1106 1268 751 
Q 1578 397 2138 397 
Q 2388 397 2633 464 
Q 2878 531 3122 666 
L 3122 134 
Q 2881 22 2623 -34 
Q 2366 -91 2075 -91 
Q 1284 -91 818 406 
Q 353 903 353 1747 
Q 353 2603 823 3093 
Q 1294 3584 2113 3584 
Q 2378 3584 2631 3529 
Q 2884 3475 3122 3366 
z
" transform="scale(0.015625)"/>
      <path id="DejaVuSans-43" d="M 4122 4306 
L 4122 3641 
Q 3803 3938 3442 4084 
Q 3081 4231 2675 4231 
Q 1875 4231 1450 3742 
Q 1025 3253 1025 2328 
Q 1025 1406 1450 917 
Q 1875 428 2675 428 
Q 3081 428 3442 575 
Q 3803 722 4122 1019 
L 4122 359 
Q 3791 134 3420 21 
Q 3050 -91 2638 -91 
Q 1578 -91 968 557 
Q 359 1206 359 2328 
Q 359 3453 968 4101 
Q 1578 4750 2638 4750 
Q 3056 4750 3426 4639 
Q 3797 4528 4122 4306 
z
" transform="scale(0.015625)"/>
      <path id="DejaVuSans-42" d="M 1259 2228 
L 1259 519 
L 2272 519 
Q 2781 519 3026 730 
Q 3272 941 3272 1375 
Q 3272 1813 3026 2020 
Q 2781 2228 2272 2228 
L 1259 2228 
z
M 1259 4147 
L 1259 2741 
L 2194 2741 
Q 2656 2741 2882 2914 
Q 3109 3088 3109 3444 
Q 3109 3797 2882 3972 
Q 2656 4147 2194 4147 
L 1259 4147 
z
M 628 4666 
L 2241 4666 
Q 2963 4666 3353 4366 
Q 3744 4066 3744 3513 
Q 3744 3084 3544 2831 
Q 3344 2578 2956 2516 
Q 3422 2416 3680 2098 
Q 3938 1781 3938 1306 
Q 3938 681 3513 340 
Q 3088 0 2303 0 
L 628 0 
L 628 4666 
z
" transform="scale(0.015625)"/>
      <path id="DejaVuSans-78" d="M 3513 3500 
L 2247 1797 
L 3578 0 
L 2900 0 
L 1881 1375 
L 863 0 
L 184 0 
L 1544 1831 
L 300 3500 
L 978 3500 
L 1906 2253 
L 2834 3500 
L 3513 3500 
z
" transform="scale(0.015625)"/>
     </defs>
     <use xlink:href="#DejaVuSans-41"/>
     <use xlink:href="#DejaVuSans-64" x="66.658203"/>
     <use xlink:href="#DejaVuSans-6a" x="130.134766"/>
     <use xlink:href="#DejaVuSans-75" x="157.917969"/>
     <use xlink:href="#DejaVuSans-73" x="221.296875"/>
     <use xlink:href="#DejaVuSans-74" x="273.396484"/>
     <use xlink:href="#DejaVuSans-65" x="312.605469"/>
     <use xlink:href="#DejaVuSans-64" x="374.128906"/>
     <use xlink:href="#DejaVuSans-20" x="437.605469"/>
     <use xlink:href="#DejaVuSans-50" x="469.392578"/>
     <use xlink:href="#DejaVuSans-61" x="525.195312"/>
     <use xlink:href="#DejaVuSans-72" x="586.474609"/>
     <use xlink:href="#DejaVuSans-74" x="627.587891"/>
     <use xlink:href="#DejaVuSans-69" x="666.796875"/>
     <use xlink:href="#DejaVuSans-61" x="694.580078"/>
     <use xlink:href="#DejaVuSans-6c" x="755.859375"/>
     <use xlink:href="#DejaVuSans-20" x="783.642578"/>
     <use xlink:href="#DejaVuSans-45" x="815.429688"/>
     <use xlink:href="#DejaVuSans-66" x="878.613281"/>
     <use xlink:href="#DejaVuSans-66" x="913.818359"/>
     <use xlink:href="#DejaVuSans-65" x="949.023438"/>
     <use xlink:href="#DejaVuSans-63" x="1010.546875"/>
     <use xlink:href="#DejaVuSans-74" x="1065.527344"/>
     <use xlink:href="#DejaVuSans-73" x="1104.736328"/>
     <use xlink:href="#DejaVuSans-20" x="1156.835938"/>
     <use xlink:href="#DejaVuSans-6f" x="1188.623047"/>
     <use xlink:href="#DejaVuSans-66" x="1249.804688"/>
     <use xlink:href="#DejaVuSans-20" x="1285.009766"/>
     <use xlink:href="#DejaVuSans-43" x="1316.796875"/>
     <use xlink:href="#DejaVuSans-6f" x="1386.621094"/>
     <use xlink:href="#DejaVuSans-6e" x="1447.802734"/>
     <use xlink:href="#DejaVuSans-74" x="1511.181641"/>
     <use xlink:href="#DejaVuSans-69" x="1550.390625"/>
     <use xlink:href="#DejaVuSans-6e" x="1578.173828"/>
     <use xlink:href="#DejaVuSans-75" x="1641.552734"/>
     <use xlink:href="#DejaVuSans-6f" x="1704.931641"/>
     <use xlink:href="#DejaVuSans-75" x="1766.113281"/>
     <use xlink:href="#DejaVuSans-73" x="1829.492188"/>
     <use xlink:href="#DejaVuSans-20" x="1881.591797"/>
     <use xlink:href="#DejaVuSans-43" x="1913.378906"/>
     <use xlink:href="#DejaVuSans-44" x="1983.203125"/>
     <use xlink:href="#DejaVuSans-38" x="2060.205078"/>
     <use xlink:href="#DejaVuSans-42" x="2123.828125"/>
     <use xlink:href="#DejaVuSans-20" x="2192.431641"/>
     <use xlink:href="#DejaVuSans-45" x="2224.21875"/>
     <use xlink:href="#DejaVuSans-78" x="2287.402344"/>
     <use xlink:href="#DejaVuSans-70" x="2346.582031"/>
     <use xlink:href="#DejaVuSans-72" x="2410.058594"/>
     <use xlink:href="#DejaVuSans-65" x="2448.921875"/>
     <use xlink:href="#DejaVuSans-73" x="2510.445312"/>
     <use xlink:href="#DejaVuSans-73" x="2562.544922"/>
     <use xlink:href="#DejaVuSans-69" x="2614.644531"/>
     <use xlink:href="#DejaVuSans-6f" x="2642.427734"/>
     <use xlink:href="#DejaVuSans-6e" x="2703.609375"/>
     <use xlink:href="#DejaVuSans-20" x="2766.988281"/>
     <use xlink:href="#DejaVuSans-6f" x="2798.775391"/>
     <use xlink:href="#DejaVuSans-6e" x="2859.957031"/>
     <use xlink:href="#DejaVuSans-20" x="2923.335938"/>
     <use xlink:href="#DejaVuSans-53" x="2955.123047"/>
     <use xlink:href="#DejaVuSans-75" x="3018.599609"/>
     <use xlink:href="#DejaVuSans-72" x="3081.978516"/>
     <use xlink:href="#DejaVuSans-76" x="3123.091797"/>
     <use xlink:href="#DejaVuSans-69" x="3182.271484"/>
     <use xlink:href="#DejaVuSans-76" x="3210.054688"/>
     <use xlink:href="#DejaVuSans-61" x="3269.234375"/>
     <use xlink:href="#DejaVuSans-6c" x="3330.513672"/>
    </g>
   </g>
  </g>
 </g>
 <defs>
  <clipPath id="pd1d9f184e2">
   <rect x="43.78125" y="22.318125" width="558" height="332.64"/>
  </clipPath>
 </defs>
</svg>
