<?xml version="1.0" encoding="utf-8" standalone="no"?>
<!DOCTYPE svg PUBLIC "-//W3C//DTD SVG 1.1//EN"
  "http://www.w3.org/Graphics/SVG/1.1/DTD/svg11.dtd">
<svg xmlns:xlink="http://www.w3.org/1999/xlink" width="608.98125pt" height="392.514375pt" viewBox="0 0 608.98125 392.514375" xmlns="http://www.w3.org/2000/svg" version="1.1">
 <metadata>
  <rdf:RDF xmlns:dc="http://purl.org/dc/elements/1.1/" xmlns:cc="http://creativecommons.org/ns#" xmlns:rdf="http://www.w3.org/1999/02/22-rdf-syntax-ns#">
   <cc:Work>
    <dc:type rdf:resource="http://purl.org/dc/dcmitype/StillImage"/>
    <dc:date>2024-07-08T09:40:10.774622</dc:date>
    <dc:format>image/svg+xml</dc:format>
    <dc:creator>
     <cc:Agent>
      <dc:title>Matplotlib v3.9.0, https://matplotlib.org/</dc:title>
     </cc:Agent>
    </dc:creator>
   </cc:Work>
  </rdf:RDF>
 </metadata>
 <defs>
  <style type="text/css">*{stroke-linejoin: round; stroke-linecap: butt}</style>
 </defs>
 <g id="figure_1">
  <g id="patch_1">
   <path d="M 0 392.514375 
L 608.98125 392.514375 
L 608.98125 0 
L 0 0 
z
" style="fill: #ffffff"/>
  </g>
  <g id="axes_1">
   <g id="patch_2">
    <path d="M 43.78125 354.958125 
L 601.78125 354.958125 
L 601.78125 22.318125 
L 43.78125 22.318125 
z
" style="fill: #ffffff"/>
   </g>
   <g id="matplotlib.axis_1">
    <g id="xtick_1">
     <g id="line2d_1">
      <defs>
       <path id="m49bfde3ff6" d="M 0 0 
L 0 3.5 
" style="stroke: #000000; stroke-width: 0.8"/>
      </defs>
      <g>
       <use xlink:href="#m49bfde3ff6" x="68.220892" y="354.958125" style="stroke: #000000; stroke-width: 0.8"/>
      </g>
     </g>
     <g id="text_1">
      <!-- 0 -->
      <g transform="translate(65.039642 369.556562) scale(0.1 -0.1)">
       <defs>
        <path id="DejaVuSans-30" d="M 2034 4250 
Q 1547 4250 1301 3770 
Q 1056 3291 1056 2328 
Q 1056 1369 1301 889 
Q 1547 409 2034 409 
Q 2525 409 2770 889 
Q 3016 1369 3016 2328 
Q 3016 3291 2770 3770 
Q 2525 4250 2034 4250 
z
M 2034 4750 
Q 2819 4750 3233 4129 
Q 3647 3509 3647 2328 
Q 3647 1150 3233 529 
Q 2819 -91 2034 -91 
Q 1250 -91 836 529 
Q 422 1150 422 2328 
Q 422 3509 836 4129 
Q 1250 4750 2034 4750 
z
" transform="scale(0.015625)"/>
       </defs>
       <use xlink:href="#DejaVuSans-30"/>
      </g>
     </g>
    </g>
    <g id="xtick_2">
     <g id="line2d_2">
      <g>
       <use xlink:href="#m49bfde3ff6" x="145.220396" y="354.958125" style="stroke: #000000; stroke-width: 0.8"/>
      </g>
     </g>
     <g id="text_2">
      <!-- 1000 -->
      <g transform="translate(132.495396 369.556562) scale(0.1 -0.1)">
       <defs>
        <path id="DejaVuSans-31" d="M 794 531 
L 1825 531 
L 1825 4091 
L 703 3866 
L 703 4441 
L 1819 4666 
L 2450 4666 
L 2450 531 
L 3481 531 
L 3481 0 
L 794 0 
L 794 531 
z
" transform="scale(0.015625)"/>
       </defs>
       <use xlink:href="#DejaVuSans-31"/>
       <use xlink:href="#DejaVuSans-30" x="63.623047"/>
       <use xlink:href="#DejaVuSans-30" x="127.246094"/>
       <use xlink:href="#DejaVuSans-30" x="190.869141"/>
      </g>
     </g>
    </g>
    <g id="xtick_3">
     <g id="line2d_3">
      <g>
       <use xlink:href="#m49bfde3ff6" x="222.219899" y="354.958125" style="stroke: #000000; stroke-width: 0.8"/>
      </g>
     </g>
     <g id="text_3">
      <!-- 2000 -->
      <g transform="translate(209.494899 369.556562) scale(0.1 -0.1)">
       <defs>
        <path id="DejaVuSans-32" d="M 1228 531 
L 3431 531 
L 3431 0 
L 469 0 
L 469 531 
Q 828 903 1448 1529 
Q 2069 2156 2228 2338 
Q 2531 2678 2651 2914 
Q 2772 3150 2772 3378 
Q 2772 3750 2511 3984 
Q 2250 4219 1831 4219 
Q 1534 4219 1204 4116 
Q 875 4013 500 3803 
L 500 4441 
Q 881 4594 1212 4672 
Q 1544 4750 1819 4750 
Q 2544 4750 2975 4387 
Q 3406 4025 3406 3419 
Q 3406 3131 3298 2873 
Q 3191 2616 2906 2266 
Q 2828 2175 2409 1742 
Q 1991 1309 1228 531 
z
" transform="scale(0.015625)"/>
       </defs>
       <use xlink:href="#DejaVuSans-32"/>
       <use xlink:href="#DejaVuSans-30" x="63.623047"/>
       <use xlink:href="#DejaVuSans-30" x="127.246094"/>
       <use xlink:href="#DejaVuSans-30" x="190.869141"/>
      </g>
     </g>
    </g>
    <g id="xtick_4">
     <g id="line2d_4">
      <g>
       <use xlink:href="#m49bfde3ff6" x="299.219402" y="354.958125" style="stroke: #000000; stroke-width: 0.8"/>
      </g>
     </g>
     <g id="text_4">
      <!-- 3000 -->
      <g transform="translate(286.494402 369.556562) scale(0.1 -0.1)">
       <defs>
        <path id="DejaVuSans-33" d="M 2597 2516 
Q 3050 2419 3304 2112 
Q 3559 1806 3559 1356 
Q 3559 666 3084 287 
Q 2609 -91 1734 -91 
Q 1441 -91 1130 -33 
Q 819 25 488 141 
L 488 750 
Q 750 597 1062 519 
Q 1375 441 1716 441 
Q 2309 441 2620 675 
Q 2931 909 2931 1356 
Q 2931 1769 2642 2001 
Q 2353 2234 1838 2234 
L 1294 2234 
L 1294 2753 
L 1863 2753 
Q 2328 2753 2575 2939 
Q 2822 3125 2822 3475 
Q 2822 3834 2567 4026 
Q 2313 4219 1838 4219 
Q 1578 4219 1281 4162 
Q 984 4106 628 3988 
L 628 4550 
Q 988 4650 1302 4700 
Q 1616 4750 1894 4750 
Q 2613 4750 3031 4423 
Q 3450 4097 3450 3541 
Q 3450 3153 3228 2886 
Q 3006 2619 2597 2516 
z
" transform="scale(0.015625)"/>
       </defs>
       <use xlink:href="#DejaVuSans-33"/>
       <use xlink:href="#DejaVuSans-30" x="63.623047"/>
       <use xlink:href="#DejaVuSans-30" x="127.246094"/>
       <use xlink:href="#DejaVuSans-30" x="190.869141"/>
      </g>
     </g>
    </g>
    <g id="xtick_5">
     <g id="line2d_5">
      <g>
       <use xlink:href="#m49bfde3ff6" x="376.218905" y="354.958125" style="stroke: #000000; stroke-width: 0.8"/>
      </g>
     </g>
     <g id="text_5">
      <!-- 4000 -->
      <g transform="translate(363.493905 369.556562) scale(0.1 -0.1)">
       <defs>
        <path id="DejaVuSans-34" d="M 2419 4116 
L 825 1625 
L 2419 1625 
L 2419 4116 
z
M 2253 4666 
L 3047 4666 
L 3047 1625 
L 3713 1625 
L 3713 1100 
L 3047 1100 
L 3047 0 
L 2419 0 
L 2419 1100 
L 313 1100 
L 313 1709 
L 2253 4666 
z
" transform="scale(0.015625)"/>
       </defs>
       <use xlink:href="#DejaVuSans-34"/>
       <use xlink:href="#DejaVuSans-30" x="63.623047"/>
       <use xlink:href="#DejaVuSans-30" x="127.246094"/>
       <use xlink:href="#DejaVuSans-30" x="190.869141"/>
      </g>
     </g>
    </g>
    <g id="xtick_6">
     <g id="line2d_6">
      <g>
       <use xlink:href="#m49bfde3ff6" x="453.218408" y="354.958125" style="stroke: #000000; stroke-width: 0.8"/>
      </g>
     </g>
     <g id="text_6">
      <!-- 5000 -->
      <g transform="translate(440.493408 369.556562) scale(0.1 -0.1)">
       <defs>
        <path id="DejaVuSans-35" d="M 691 4666 
L 3169 4666 
L 3169 4134 
L 1269 4134 
L 1269 2991 
Q 1406 3038 1543 3061 
Q 1681 3084 1819 3084 
Q 2600 3084 3056 2656 
Q 3513 2228 3513 1497 
Q 3513 744 3044 326 
Q 2575 -91 1722 -91 
Q 1428 -91 1123 -41 
Q 819 9 494 109 
L 494 744 
Q 775 591 1075 516 
Q 1375 441 1709 441 
Q 2250 441 2565 725 
Q 2881 1009 2881 1497 
Q 2881 1984 2565 2268 
Q 2250 2553 1709 2553 
Q 1456 2553 1204 2497 
Q 953 2441 691 2322 
L 691 4666 
z
" transform="scale(0.015625)"/>
       </defs>
       <use xlink:href="#DejaVuSans-35"/>
       <use xlink:href="#DejaVuSans-30" x="63.623047"/>
       <use xlink:href="#DejaVuSans-30" x="127.246094"/>
       <use xlink:href="#DejaVuSans-30" x="190.869141"/>
      </g>
     </g>
    </g>
    <g id="xtick_7">
     <g id="line2d_7">
      <g>
       <use xlink:href="#m49bfde3ff6" x="530.217912" y="354.958125" style="stroke: #000000; stroke-width: 0.8"/>
      </g>
     </g>
     <g id="text_7">
      <!-- 6000 -->
      <g transform="translate(517.492912 369.556562) scale(0.1 -0.1)">
       <defs>
        <path id="DejaVuSans-36" d="M 2113 2584 
Q 1688 2584 1439 2293 
Q 1191 2003 1191 1497 
Q 1191 994 1439 701 
Q 1688 409 2113 409 
Q 2538 409 2786 701 
Q 3034 994 3034 1497 
Q 3034 2003 2786 2293 
Q 2538 2584 2113 2584 
z
M 3366 4563 
L 3366 3988 
Q 3128 4100 2886 4159 
Q 2644 4219 2406 4219 
Q 1781 4219 1451 3797 
Q 1122 3375 1075 2522 
Q 1259 2794 1537 2939 
Q 1816 3084 2150 3084 
Q 2853 3084 3261 2657 
Q 3669 2231 3669 1497 
Q 3669 778 3244 343 
Q 2819 -91 2113 -91 
Q 1303 -91 875 529 
Q 447 1150 447 2328 
Q 447 3434 972 4092 
Q 1497 4750 2381 4750 
Q 2619 4750 2861 4703 
Q 3103 4656 3366 4563 
z
" transform="scale(0.015625)"/>
       </defs>
       <use xlink:href="#DejaVuSans-36"/>
       <use xlink:href="#DejaVuSans-30" x="63.623047"/>
       <use xlink:href="#DejaVuSans-30" x="127.246094"/>
       <use xlink:href="#DejaVuSans-30" x="190.869141"/>
      </g>
     </g>
    </g>
    <g id="text_8">
     <!-- Time in Days -->
     <g transform="translate(290.333594 383.234687) scale(0.1 -0.1)">
      <defs>
       <path id="DejaVuSans-54" d="M -19 4666 
L 3928 4666 
L 3928 4134 
L 2272 4134 
L 2272 0 
L 1638 0 
L 1638 4134 
L -19 4134 
L -19 4666 
z
" transform="scale(0.015625)"/>
       <path id="DejaVuSans-69" d="M 603 3500 
L 1178 3500 
L 1178 0 
L 603 0 
L 603 3500 
z
M 603 4863 
L 1178 4863 
L 1178 4134 
L 603 4134 
L 603 4863 
z
" transform="scale(0.015625)"/>
       <path id="DejaVuSans-6d" d="M 3328 2828 
Q 3544 3216 3844 3400 
Q 4144 3584 4550 3584 
Q 5097 3584 5394 3201 
Q 5691 2819 5691 2113 
L 5691 0 
L 5113 0 
L 5113 2094 
Q 5113 2597 4934 2840 
Q 4756 3084 4391 3084 
Q 3944 3084 3684 2787 
Q 3425 2491 3425 1978 
L 3425 0 
L 2847 0 
L 2847 2094 
Q 2847 2600 2669 2842 
Q 2491 3084 2119 3084 
Q 1678 3084 1418 2786 
Q 1159 2488 1159 1978 
L 1159 0 
L 581 0 
L 581 3500 
L 1159 3500 
L 1159 2956 
Q 1356 3278 1631 3431 
Q 1906 3584 2284 3584 
Q 2666 3584 2933 3390 
Q 3200 3197 3328 2828 
z
" transform="scale(0.015625)"/>
       <path id="DejaVuSans-65" d="M 3597 1894 
L 3597 1613 
L 953 1613 
Q 991 1019 1311 708 
Q 1631 397 2203 397 
Q 2534 397 2845 478 
Q 3156 559 3463 722 
L 3463 178 
Q 3153 47 2828 -22 
Q 2503 -91 2169 -91 
Q 1331 -91 842 396 
Q 353 884 353 1716 
Q 353 2575 817 3079 
Q 1281 3584 2069 3584 
Q 2775 3584 3186 3129 
Q 3597 2675 3597 1894 
z
M 3022 2063 
Q 3016 2534 2758 2815 
Q 2500 3097 2075 3097 
Q 1594 3097 1305 2825 
Q 1016 2553 972 2059 
L 3022 2063 
z
" transform="scale(0.015625)"/>
       <path id="DejaVuSans-20" transform="scale(0.015625)"/>
       <path id="DejaVuSans-6e" d="M 3513 2113 
L 3513 0 
L 2938 0 
L 2938 2094 
Q 2938 2591 2744 2837 
Q 2550 3084 2163 3084 
Q 1697 3084 1428 2787 
Q 1159 2491 1159 1978 
L 1159 0 
L 581 0 
L 581 3500 
L 1159 3500 
L 1159 2956 
Q 1366 3272 1645 3428 
Q 1925 3584 2291 3584 
Q 2894 3584 3203 3211 
Q 3513 2838 3513 2113 
z
" transform="scale(0.015625)"/>
       <path id="DejaVuSans-44" d="M 1259 4147 
L 1259 519 
L 2022 519 
Q 2988 519 3436 956 
Q 3884 1394 3884 2338 
Q 3884 3275 3436 3711 
Q 2988 4147 2022 4147 
L 1259 4147 
z
M 628 4666 
L 1925 4666 
Q 3281 4666 3915 4102 
Q 4550 3538 4550 2338 
Q 4550 1131 3912 565 
Q 3275 0 1925 0 
L 628 0 
L 628 4666 
z
" transform="scale(0.015625)"/>
       <path id="DejaVuSans-61" d="M 2194 1759 
Q 1497 1759 1228 1600 
Q 959 1441 959 1056 
Q 959 750 1161 570 
Q 1363 391 1709 391 
Q 2188 391 2477 730 
Q 2766 1069 2766 1631 
L 2766 1759 
L 2194 1759 
z
M 3341 1997 
L 3341 0 
L 2766 0 
L 2766 531 
Q 2569 213 2275 61 
Q 1981 -91 1556 -91 
Q 1019 -91 701 211 
Q 384 513 384 1019 
Q 384 1609 779 1909 
Q 1175 2209 1959 2209 
L 2766 2209 
L 2766 2266 
Q 2766 2663 2505 2880 
Q 2244 3097 1772 3097 
Q 1472 3097 1187 3025 
Q 903 2953 641 2809 
L 641 3341 
Q 956 3463 1253 3523 
Q 1550 3584 1831 3584 
Q 2591 3584 2966 3190 
Q 3341 2797 3341 1997 
z
" transform="scale(0.015625)"/>
       <path id="DejaVuSans-79" d="M 2059 -325 
Q 1816 -950 1584 -1140 
Q 1353 -1331 966 -1331 
L 506 -1331 
L 506 -850 
L 844 -850 
Q 1081 -850 1212 -737 
Q 1344 -625 1503 -206 
L 1606 56 
L 191 3500 
L 800 3500 
L 1894 763 
L 2988 3500 
L 3597 3500 
L 2059 -325 
z
" transform="scale(0.015625)"/>
       <path id="DejaVuSans-73" d="M 2834 3397 
L 2834 2853 
Q 2591 2978 2328 3040 
Q 2066 3103 1784 3103 
Q 1356 3103 1142 2972 
Q 928 2841 928 2578 
Q 928 2378 1081 2264 
Q 1234 2150 1697 2047 
L 1894 2003 
Q 2506 1872 2764 1633 
Q 3022 1394 3022 966 
Q 3022 478 2636 193 
Q 2250 -91 1575 -91 
Q 1294 -91 989 -36 
Q 684 19 347 128 
L 347 722 
Q 666 556 975 473 
Q 1284 391 1588 391 
Q 1994 391 2212 530 
Q 2431 669 2431 922 
Q 2431 1156 2273 1281 
Q 2116 1406 1581 1522 
L 1381 1569 
Q 847 1681 609 1914 
Q 372 2147 372 2553 
Q 372 3047 722 3315 
Q 1072 3584 1716 3584 
Q 2034 3584 2315 3537 
Q 2597 3491 2834 3397 
z
" transform="scale(0.015625)"/>
      </defs>
      <use xlink:href="#DejaVuSans-54"/>
      <use xlink:href="#DejaVuSans-69" x="57.958984"/>
      <use xlink:href="#DejaVuSans-6d" x="85.742188"/>
      <use xlink:href="#DejaVuSans-65" x="183.154297"/>
      <use xlink:href="#DejaVuSans-20" x="244.677734"/>
      <use xlink:href="#DejaVuSans-69" x="276.464844"/>
      <use xlink:href="#DejaVuSans-6e" x="304.248047"/>
      <use xlink:href="#DejaVuSans-20" x="367.626953"/>
      <use xlink:href="#DejaVuSans-44" x="399.414062"/>
      <use xlink:href="#DejaVuSans-61" x="476.416016"/>
      <use xlink:href="#DejaVuSans-79" x="537.695312"/>
      <use xlink:href="#DejaVuSans-73" x="596.875"/>
     </g>
    </g>
   </g>
   <g id="matplotlib.axis_2">
    <g id="ytick_1">
     <g id="line2d_8">
      <defs>
       <path id="mfe6a53b1a9" d="M 0 0 
L -3.5 0 
" style="stroke: #000000; stroke-width: 0.8"/>
      </defs>
      <g>
       <use xlink:href="#mfe6a53b1a9" x="43.78125" y="349.592964" style="stroke: #000000; stroke-width: 0.8"/>
      </g>
     </g>
     <g id="text_9">
      <!-- 0.4 -->
      <g transform="translate(20.878125 353.392182) scale(0.1 -0.1)">
       <defs>
        <path id="DejaVuSans-2e" d="M 684 794 
L 1344 794 
L 1344 0 
L 684 0 
L 684 794 
z
" transform="scale(0.015625)"/>
       </defs>
       <use xlink:href="#DejaVuSans-30"/>
       <use xlink:href="#DejaVuSans-2e" x="63.623047"/>
       <use xlink:href="#DejaVuSans-34" x="95.410156"/>
      </g>
     </g>
    </g>
    <g id="ytick_2">
     <g id="line2d_9">
      <g>
       <use xlink:href="#mfe6a53b1a9" x="43.78125" y="295.941351" style="stroke: #000000; stroke-width: 0.8"/>
      </g>
     </g>
     <g id="text_10">
      <!-- 0.5 -->
      <g transform="translate(20.878125 299.74057) scale(0.1 -0.1)">
       <use xlink:href="#DejaVuSans-30"/>
       <use xlink:href="#DejaVuSans-2e" x="63.623047"/>
       <use xlink:href="#DejaVuSans-35" x="95.410156"/>
      </g>
     </g>
    </g>
    <g id="ytick_3">
     <g id="line2d_10">
      <g>
       <use xlink:href="#mfe6a53b1a9" x="43.78125" y="242.289738" style="stroke: #000000; stroke-width: 0.8"/>
      </g>
     </g>
     <g id="text_11">
      <!-- 0.6 -->
      <g transform="translate(20.878125 246.088957) scale(0.1 -0.1)">
       <use xlink:href="#DejaVuSans-30"/>
       <use xlink:href="#DejaVuSans-2e" x="63.623047"/>
       <use xlink:href="#DejaVuSans-36" x="95.410156"/>
      </g>
     </g>
    </g>
    <g id="ytick_4">
     <g id="line2d_11">
      <g>
       <use xlink:href="#mfe6a53b1a9" x="43.78125" y="188.638125" style="stroke: #000000; stroke-width: 0.8"/>
      </g>
     </g>
     <g id="text_12">
      <!-- 0.7 -->
      <g transform="translate(20.878125 192.437344) scale(0.1 -0.1)">
       <defs>
        <path id="DejaVuSans-37" d="M 525 4666 
L 3525 4666 
L 3525 4397 
L 1831 0 
L 1172 0 
L 2766 4134 
L 525 4134 
L 525 4666 
z
" transform="scale(0.015625)"/>
       </defs>
       <use xlink:href="#DejaVuSans-30"/>
       <use xlink:href="#DejaVuSans-2e" x="63.623047"/>
       <use xlink:href="#DejaVuSans-37" x="95.410156"/>
      </g>
     </g>
    </g>
    <g id="ytick_5">
     <g id="line2d_12">
      <g>
       <use xlink:href="#mfe6a53b1a9" x="43.78125" y="134.986512" style="stroke: #000000; stroke-width: 0.8"/>
      </g>
     </g>
     <g id="text_13">
      <!-- 0.8 -->
      <g transform="translate(20.878125 138.785731) scale(0.1 -0.1)">
       <defs>
        <path id="DejaVuSans-38" d="M 2034 2216 
Q 1584 2216 1326 1975 
Q 1069 1734 1069 1313 
Q 1069 891 1326 650 
Q 1584 409 2034 409 
Q 2484 409 2743 651 
Q 3003 894 3003 1313 
Q 3003 1734 2745 1975 
Q 2488 2216 2034 2216 
z
M 1403 2484 
Q 997 2584 770 2862 
Q 544 3141 544 3541 
Q 544 4100 942 4425 
Q 1341 4750 2034 4750 
Q 2731 4750 3128 4425 
Q 3525 4100 3525 3541 
Q 3525 3141 3298 2862 
Q 3072 2584 2669 2484 
Q 3125 2378 3379 2068 
Q 3634 1759 3634 1313 
Q 3634 634 3220 271 
Q 2806 -91 2034 -91 
Q 1263 -91 848 271 
Q 434 634 434 1313 
Q 434 1759 690 2068 
Q 947 2378 1403 2484 
z
M 1172 3481 
Q 1172 3119 1398 2916 
Q 1625 2713 2034 2713 
Q 2441 2713 2670 2916 
Q 2900 3119 2900 3481 
Q 2900 3844 2670 4047 
Q 2441 4250 2034 4250 
Q 1625 4250 1398 4047 
Q 1172 3844 1172 3481 
z
" transform="scale(0.015625)"/>
       </defs>
       <use xlink:href="#DejaVuSans-30"/>
       <use xlink:href="#DejaVuSans-2e" x="63.623047"/>
       <use xlink:href="#DejaVuSans-38" x="95.410156"/>
      </g>
     </g>
    </g>
    <g id="ytick_6">
     <g id="line2d_13">
      <g>
       <use xlink:href="#mfe6a53b1a9" x="43.78125" y="81.334899" style="stroke: #000000; stroke-width: 0.8"/>
      </g>
     </g>
     <g id="text_14">
      <!-- 0.9 -->
      <g transform="translate(20.878125 85.134118) scale(0.1 -0.1)">
       <defs>
        <path id="DejaVuSans-39" d="M 703 97 
L 703 672 
Q 941 559 1184 500 
Q 1428 441 1663 441 
Q 2288 441 2617 861 
Q 2947 1281 2994 2138 
Q 2813 1869 2534 1725 
Q 2256 1581 1919 1581 
Q 1219 1581 811 2004 
Q 403 2428 403 3163 
Q 403 3881 828 4315 
Q 1253 4750 1959 4750 
Q 2769 4750 3195 4129 
Q 3622 3509 3622 2328 
Q 3622 1225 3098 567 
Q 2575 -91 1691 -91 
Q 1453 -91 1209 -44 
Q 966 3 703 97 
z
M 1959 2075 
Q 2384 2075 2632 2365 
Q 2881 2656 2881 3163 
Q 2881 3666 2632 3958 
Q 2384 4250 1959 4250 
Q 1534 4250 1286 3958 
Q 1038 3666 1038 3163 
Q 1038 2656 1286 2365 
Q 1534 2075 1959 2075 
z
" transform="scale(0.015625)"/>
       </defs>
       <use xlink:href="#DejaVuSans-30"/>
       <use xlink:href="#DejaVuSans-2e" x="63.623047"/>
       <use xlink:href="#DejaVuSans-39" x="95.410156"/>
      </g>
     </g>
    </g>
    <g id="ytick_7">
     <g id="line2d_14">
      <g>
       <use xlink:href="#mfe6a53b1a9" x="43.78125" y="27.683286" style="stroke: #000000; stroke-width: 0.8"/>
      </g>
     </g>
     <g id="text_15">
      <!-- 1.0 -->
      <g transform="translate(20.878125 31.482505) scale(0.1 -0.1)">
       <use xlink:href="#DejaVuSans-31"/>
       <use xlink:href="#DejaVuSans-2e" x="63.623047"/>
       <use xlink:href="#DejaVuSans-30" x="95.410156"/>
      </g>
     </g>
    </g>
    <g id="text_16">
     <!-- Survival Probability -->
     <g transform="translate(14.798438 236.815469) rotate(-90) scale(0.1 -0.1)">
      <defs>
       <path id="DejaVuSans-53" d="M 3425 4513 
L 3425 3897 
Q 3066 4069 2747 4153 
Q 2428 4238 2131 4238 
Q 1616 4238 1336 4038 
Q 1056 3838 1056 3469 
Q 1056 3159 1242 3001 
Q 1428 2844 1947 2747 
L 2328 2669 
Q 3034 2534 3370 2195 
Q 3706 1856 3706 1288 
Q 3706 609 3251 259 
Q 2797 -91 1919 -91 
Q 1588 -91 1214 -16 
Q 841 59 441 206 
L 441 856 
Q 825 641 1194 531 
Q 1563 422 1919 422 
Q 2459 422 2753 634 
Q 3047 847 3047 1241 
Q 3047 1584 2836 1778 
Q 2625 1972 2144 2069 
L 1759 2144 
Q 1053 2284 737 2584 
Q 422 2884 422 3419 
Q 422 4038 858 4394 
Q 1294 4750 2059 4750 
Q 2388 4750 2728 4690 
Q 3069 4631 3425 4513 
z
" transform="scale(0.015625)"/>
       <path id="DejaVuSans-75" d="M 544 1381 
L 544 3500 
L 1119 3500 
L 1119 1403 
Q 1119 906 1312 657 
Q 1506 409 1894 409 
Q 2359 409 2629 706 
Q 2900 1003 2900 1516 
L 2900 3500 
L 3475 3500 
L 3475 0 
L 2900 0 
L 2900 538 
Q 2691 219 2414 64 
Q 2138 -91 1772 -91 
Q 1169 -91 856 284 
Q 544 659 544 1381 
z
M 1991 3584 
L 1991 3584 
z
" transform="scale(0.015625)"/>
       <path id="DejaVuSans-72" d="M 2631 2963 
Q 2534 3019 2420 3045 
Q 2306 3072 2169 3072 
Q 1681 3072 1420 2755 
Q 1159 2438 1159 1844 
L 1159 0 
L 581 0 
L 581 3500 
L 1159 3500 
L 1159 2956 
Q 1341 3275 1631 3429 
Q 1922 3584 2338 3584 
Q 2397 3584 2469 3576 
Q 2541 3569 2628 3553 
L 2631 2963 
z
" transform="scale(0.015625)"/>
       <path id="DejaVuSans-76" d="M 191 3500 
L 800 3500 
L 1894 563 
L 2988 3500 
L 3597 3500 
L 2284 0 
L 1503 0 
L 191 3500 
z
" transform="scale(0.015625)"/>
       <path id="DejaVuSans-6c" d="M 603 4863 
L 1178 4863 
L 1178 0 
L 603 0 
L 603 4863 
z
" transform="scale(0.015625)"/>
       <path id="DejaVuSans-50" d="M 1259 4147 
L 1259 2394 
L 2053 2394 
Q 2494 2394 2734 2622 
Q 2975 2850 2975 3272 
Q 2975 3691 2734 3919 
Q 2494 4147 2053 4147 
L 1259 4147 
z
M 628 4666 
L 2053 4666 
Q 2838 4666 3239 4311 
Q 3641 3956 3641 3272 
Q 3641 2581 3239 2228 
Q 2838 1875 2053 1875 
L 1259 1875 
L 1259 0 
L 628 0 
L 628 4666 
z
" transform="scale(0.015625)"/>
       <path id="DejaVuSans-6f" d="M 1959 3097 
Q 1497 3097 1228 2736 
Q 959 2375 959 1747 
Q 959 1119 1226 758 
Q 1494 397 1959 397 
Q 2419 397 2687 759 
Q 2956 1122 2956 1747 
Q 2956 2369 2687 2733 
Q 2419 3097 1959 3097 
z
M 1959 3584 
Q 2709 3584 3137 3096 
Q 3566 2609 3566 1747 
Q 3566 888 3137 398 
Q 2709 -91 1959 -91 
Q 1206 -91 779 398 
Q 353 888 353 1747 
Q 353 2609 779 3096 
Q 1206 3584 1959 3584 
z
" transform="scale(0.015625)"/>
       <path id="DejaVuSans-62" d="M 3116 1747 
Q 3116 2381 2855 2742 
Q 2594 3103 2138 3103 
Q 1681 3103 1420 2742 
Q 1159 2381 1159 1747 
Q 1159 1113 1420 752 
Q 1681 391 2138 391 
Q 2594 391 2855 752 
Q 3116 1113 3116 1747 
z
M 1159 2969 
Q 1341 3281 1617 3432 
Q 1894 3584 2278 3584 
Q 2916 3584 3314 3078 
Q 3713 2572 3713 1747 
Q 3713 922 3314 415 
Q 2916 -91 2278 -91 
Q 1894 -91 1617 61 
Q 1341 213 1159 525 
L 1159 0 
L 581 0 
L 581 4863 
L 1159 4863 
L 1159 2969 
z
" transform="scale(0.015625)"/>
       <path id="DejaVuSans-74" d="M 1172 4494 
L 1172 3500 
L 2356 3500 
L 2356 3053 
L 1172 3053 
L 1172 1153 
Q 1172 725 1289 603 
Q 1406 481 1766 481 
L 2356 481 
L 2356 0 
L 1766 0 
Q 1100 0 847 248 
Q 594 497 594 1153 
L 594 3053 
L 172 3053 
L 172 3500 
L 594 3500 
L 594 4494 
L 1172 4494 
z
" transform="scale(0.015625)"/>
      </defs>
      <use xlink:href="#DejaVuSans-53"/>
      <use xlink:href="#DejaVuSans-75" x="63.476562"/>
      <use xlink:href="#DejaVuSans-72" x="126.855469"/>
      <use xlink:href="#DejaVuSans-76" x="167.96875"/>
      <use xlink:href="#DejaVuSans-69" x="227.148438"/>
      <use xlink:href="#DejaVuSans-76" x="254.931641"/>
      <use xlink:href="#DejaVuSans-61" x="314.111328"/>
      <use xlink:href="#DejaVuSans-6c" x="375.390625"/>
      <use xlink:href="#DejaVuSans-20" x="403.173828"/>
      <use xlink:href="#DejaVuSans-50" x="434.960938"/>
      <use xlink:href="#DejaVuSans-72" x="493.513672"/>
      <use xlink:href="#DejaVuSans-6f" x="532.376953"/>
      <use xlink:href="#DejaVuSans-62" x="593.558594"/>
      <use xlink:href="#DejaVuSans-61" x="657.035156"/>
      <use xlink:href="#DejaVuSans-62" x="718.314453"/>
      <use xlink:href="#DejaVuSans-69" x="781.791016"/>
      <use xlink:href="#DejaVuSans-6c" x="809.574219"/>
      <use xlink:href="#DejaVuSans-69" x="837.357422"/>
      <use xlink:href="#DejaVuSans-74" x="865.140625"/>
      <use xlink:href="#DejaVuSans-79" x="904.349609"/>
     </g>
    </g>
   </g>
   <g id="line2d_15">
    <path d="M 69.144886 28.018261 
L 73.30286 28.018261 
L 73.30286 28.355311 
L 75.150848 28.355311 
L 75.150848 28.692607 
L 76.151841 28.692607 
L 76.151841 29.033914 
L 81.079809 29.033914 
L 81.079809 29.376988 
L 83.620793 29.376988 
L 83.620793 29.724548 
L 83.851791 29.724548 
L 83.851791 30.073024 
L 84.159789 30.073024 
L 84.159789 30.422903 
L 84.313788 30.422903 
L 84.313788 31.123625 
L 85.006784 31.123625 
L 85.006784 31.47562 
L 85.160783 31.47562 
L 85.160783 31.828507 
L 86.623774 31.828507 
L 86.623774 32.185975 
L 88.394762 32.185975 
L 88.394762 32.543835 
L 88.933759 32.543835 
L 88.933759 32.909431 
L 93.630728 32.909431 
L 93.630728 33.278794 
L 94.785721 33.278794 
L 94.785721 33.648661 
L 95.940713 33.648661 
L 95.940713 34.390744 
L 96.248712 34.390744 
L 96.248712 35.135663 
L 97.095706 35.135663 
L 97.095706 35.509182 
L 97.480704 35.509182 
L 97.480704 35.883387 
L 98.327698 35.883387 
L 98.327698 36.2623 
L 99.328692 36.2623 
L 99.328692 36.643041 
L 99.944688 36.643041 
L 99.944688 37.025659 
L 100.021687 37.025659 
L 100.175686 37.025659 
L 100.252686 37.798684 
L 100.483684 37.798684 
L 100.483684 38.186286 
L 100.945681 38.186286 
L 100.945681 38.574534 
L 102.177673 38.574534 
L 102.177673 38.963984 
L 103.178667 38.963984 
L 103.178667 39.745141 
L 103.871662 39.745141 
L 103.871662 40.138424 
L 104.17966 40.138424 
L 104.17966 40.534236 
L 104.872656 40.534236 
L 104.872656 40.931281 
L 105.026655 40.931281 
L 105.103654 41.738833 
L 105.71965 41.738833 
L 105.71965 42.142875 
L 106.335646 42.142875 
L 106.335646 42.548537 
L 106.566645 42.548537 
L 106.643644 43.369035 
L 107.490639 43.369035 
L 107.490639 43.782534 
L 108.414633 43.782534 
L 108.414633 44.19647 
L 108.722631 44.19647 
L 108.722631 44.610607 
L 109.723625 44.610607 
L 109.723625 45.02593 
L 109.877624 45.02593 
L 109.877624 45.442179 
L 110.955617 45.442179 
L 110.955617 45.859116 
L 113.804598 45.859116 
L 113.881598 46.700845 
L 114.497594 46.700845 
L 114.574593 47.55517 
L 116.422581 47.55517 
L 116.422581 47.986556 
L 119.271563 47.986556 
L 119.271563 48.426504 
L 122.967539 48.426504 
L 122.967539 48.867906 
L 123.660535 48.867906 
L 123.660535 49.310601 
L 124.199531 49.310601 
L 124.199531 49.755179 
L 124.815527 49.755179 
L 124.815527 50.20178 
L 126.971513 50.20178 
L 126.971513 50.649124 
L 127.202512 50.649124 
L 127.202512 51.097458 
L 128.588503 51.097458 
L 128.588503 51.546253 
L 128.665502 51.546253 
L 129.666496 51.546253 
L 129.666496 52.000534 
L 133.131474 52.000534 
L 133.131474 52.46928 
L 133.362472 52.46928 
L 133.362472 53.407231 
L 135.21046 53.407231 
L 135.21046 53.878016 
L 136.673451 53.878016 
L 136.673451 54.353309 
L 136.904449 54.353309 
L 136.904449 54.83019 
L 137.443446 54.83019 
L 137.443446 55.309115 
L 139.676431 55.309115 
L 139.676431 55.788202 
L 146.298389 55.788202 
L 146.298389 56.283138 
L 148.993371 56.283138 
L 148.993371 56.783635 
L 149.686367 56.783635 
L 149.686367 57.292591 
L 149.763366 57.292591 
L 150.071364 57.292591 
L 150.071364 57.8044 
L 150.841359 57.8044 
L 150.841359 58.318149 
L 151.457355 58.318149 
L 151.457355 58.835611 
L 154.306337 58.835611 
L 154.306337 59.369108 
L 154.460336 59.369108 
L 154.460336 59.902692 
L 154.691334 59.902692 
L 154.691334 60.436617 
L 156.92432 60.436617 
L 156.92432 60.973404 
L 158.618309 60.973404 
L 158.618309 61.510972 
L 159.619303 61.510972 
L 159.619303 62.054937 
L 159.927301 62.054937 
L 159.927301 62.601206 
L 162.853282 62.601206 
L 162.853282 63.153705 
L 163.315279 63.153705 
L 163.315279 63.709218 
L 167.78125 63.709218 
L 167.78125 64.28306 
L 167.85825 64.28306 
L 171.477226 64.28306 
L 171.477226 64.868195 
L 173.094216 64.868195 
L 173.094216 65.454468 
L 174.095209 65.454468 
L 174.095209 66.042714 
L 175.789198 66.042714 
L 175.789198 66.64663 
L 176.097196 66.64663 
L 176.097196 67.252572 
L 179.485174 67.252572 
L 179.485174 67.880477 
L 180.17817 67.880477 
L 180.17817 68.511329 
L 186.800127 68.511329 
L 186.800127 69.158526 
L 195.65507 69.158526 
L 195.65507 69.845216 
L 198.73505 69.845216 
L 198.73505 70.546243 
L 204.741012 70.546243 
L 204.741012 71.269326 
L 208.359988 71.269326 
L 208.359988 72.016778 
L 222.989894 72.016778 
L 222.989894 72.841206 
L 232.383833 72.841206 
L 232.383833 73.767411 
L 232.460833 73.767411 
L 247.167738 73.767411 
L 247.167738 74.822786 
L 253.789695 74.822786 
L 253.789695 75.908381 
L 284.435497 75.908381 
L 284.435497 77.424913 
L 286.591483 77.424913 
L 286.591483 78.988514 
L 361.512 78.988514 
L 361.512 82.479431 
L 576.417614 82.479431 
L 576.417614 82.479431 
" clip-path="url(#p257ab9ef19)" style="fill: none; stroke: #2a5acb; stroke-width: 1.5; stroke-linecap: square"/>
   </g>
   <g id="line2d_16">
    <path d="M 69.144886 28.164922 
L 73.30286 28.164922 
L 73.30286 28.64941 
L 75.150848 28.64941 
L 75.150848 29.134117 
L 76.151841 29.134117 
L 76.151841 29.624453 
L 81.079809 29.624453 
L 81.079809 30.117189 
L 83.620793 30.117189 
L 83.620793 30.616227 
L 83.851791 30.616227 
L 83.851791 31.116437 
L 84.159789 31.116437 
L 84.159789 31.618518 
L 84.313788 31.618518 
L 84.313788 32.623628 
L 85.006784 32.623628 
L 85.006784 33.128308 
L 85.160783 33.128308 
L 85.160783 33.634121 
L 86.623774 33.634121 
L 86.623774 34.146351 
L 88.394762 34.146351 
L 88.394762 34.658992 
L 88.933759 34.658992 
L 88.933759 35.182558 
L 93.630728 35.182558 
L 93.630728 35.711358 
L 94.785721 35.711358 
L 94.785721 36.240719 
L 95.940713 36.240719 
L 95.940713 37.302315 
L 96.248712 37.302315 
L 96.248712 38.367313 
L 97.095706 38.367313 
L 97.095706 38.90108 
L 97.480704 38.90108 
L 97.480704 39.435661 
L 98.327698 39.435661 
L 98.327698 39.976799 
L 99.328692 39.976799 
L 99.328692 40.520376 
L 99.944688 40.520376 
L 99.944688 41.066461 
L 100.021687 41.066461 
L 100.175686 41.066461 
L 100.252686 42.169216 
L 100.483684 42.169216 
L 100.483684 42.721881 
L 100.945681 42.721881 
L 100.945681 43.275288 
L 102.177673 43.275288 
L 102.177673 43.83023 
L 103.178667 43.83023 
L 103.178667 44.942784 
L 103.871662 44.942784 
L 103.871662 45.502638 
L 104.17966 45.502638 
L 104.17966 46.065907 
L 104.872656 46.065907 
L 104.872656 46.630743 
L 105.026655 46.630743 
L 105.103654 47.778986 
L 105.71965 47.778986 
L 105.71965 48.353196 
L 106.335646 48.353196 
L 106.335646 48.92951 
L 106.566645 48.92951 
L 106.643644 50.094574 
L 107.490639 50.094574 
L 107.490639 50.681416 
L 108.414633 50.681416 
L 108.414633 51.268674 
L 108.722631 51.268674 
L 108.722631 51.856012 
L 109.723625 51.856012 
L 109.723625 52.444825 
L 109.877624 52.444825 
L 109.877624 53.034745 
L 110.955617 53.034745 
L 110.955617 53.625432 
L 113.804598 53.625432 
L 113.881598 54.817301 
L 114.497594 54.817301 
L 114.574593 56.026136 
L 116.422581 56.026136 
L 116.422581 56.636198 
L 119.271563 56.636198 
L 119.271563 57.258138 
L 122.967539 57.258138 
L 122.967539 57.8819 
L 123.660535 57.8819 
L 123.660535 58.507254 
L 124.199531 58.507254 
L 124.199531 59.135032 
L 124.815527 59.135032 
L 124.815527 59.765426 
L 126.971513 59.765426 
L 126.971513 60.396629 
L 127.202512 60.396629 
L 127.202512 61.028986 
L 128.588503 61.028986 
L 128.665502 61.661752 
L 128.665502 61.661752 
L 129.666496 61.661752 
L 129.666496 62.302006 
L 133.131474 62.302006 
L 133.131474 62.962386 
L 133.362472 62.962386 
L 133.362472 64.282996 
L 135.21046 64.282996 
L 135.21046 64.945449 
L 136.673451 64.945449 
L 136.673451 65.613974 
L 136.904449 65.613974 
L 136.904449 66.284458 
L 137.443446 66.284458 
L 137.443446 66.957538 
L 139.676431 66.957538 
L 139.676431 67.63057 
L 146.298389 67.63057 
L 146.298389 68.325575 
L 148.993371 68.325575 
L 148.993371 69.028086 
L 149.686367 69.028086 
L 149.686367 69.742159 
L 149.763366 69.742159 
L 150.071364 69.742159 
L 150.071364 70.45992 
L 150.841359 70.45992 
L 150.841359 71.180081 
L 151.457355 71.180081 
L 151.457355 71.905124 
L 154.306337 71.905124 
L 154.306337 72.652294 
L 154.460336 72.652294 
L 154.460336 73.399238 
L 154.691334 73.399238 
L 154.691334 74.146315 
L 156.92432 74.146315 
L 156.92432 74.897046 
L 158.618309 74.897046 
L 158.618309 75.648517 
L 159.619303 75.648517 
L 159.619303 76.408574 
L 159.927301 76.408574 
L 159.927301 77.171487 
L 162.853282 77.171487 
L 162.853282 77.94273 
L 163.315279 77.94273 
L 163.315279 78.717806 
L 167.78125 78.717806 
L 167.78125 79.518059 
L 167.85825 79.518059 
L 171.477226 79.518059 
L 171.477226 80.333646 
L 173.094216 80.333646 
L 173.094216 81.1504 
L 174.095209 81.1504 
L 174.095209 81.969479 
L 175.789198 81.969479 
L 175.789198 82.809938 
L 176.097196 82.809938 
L 176.097196 83.652766 
L 179.485174 83.652766 
L 179.485174 84.525671 
L 180.17817 84.525671 
L 180.17817 85.402184 
L 186.800127 85.402184 
L 186.800127 86.300899 
L 195.65507 86.300899 
L 195.65507 87.253894 
L 198.73505 87.253894 
L 198.73505 88.226187 
L 204.741012 88.226187 
L 204.741012 89.228437 
L 208.359988 89.228437 
L 208.359988 90.263788 
L 222.989894 90.263788 
L 222.989894 91.404965 
L 232.383833 91.404965 
L 232.383833 92.686023 
L 232.460833 92.686023 
L 247.167738 92.686023 
L 247.167738 94.144448 
L 253.789695 94.144448 
L 253.789695 95.643197 
L 284.435497 95.643197 
L 284.435497 97.734446 
L 286.591483 97.734446 
L 286.591483 99.887616 
L 361.512 99.887616 
L 361.512 104.683842 
L 576.417614 104.683842 
L 576.417614 104.683842 
" clip-path="url(#p257ab9ef19)" style="fill: none; stroke: #3256aa; stroke-width: 1.5; stroke-linecap: square"/>
   </g>
   <g id="line2d_17">
    <path d="M 69.144886 28.391187 
L 73.30286 28.391187 
L 73.30286 29.102977 
L 75.150848 29.102977 
L 75.150848 29.814787 
L 76.151841 29.814787 
L 76.151841 30.534555 
L 81.079809 30.534555 
L 81.079809 31.257532 
L 83.620793 31.257532 
L 83.620793 31.989437 
L 83.851791 31.989437 
L 83.851791 32.722738 
L 84.159789 32.722738 
L 84.159789 33.458457 
L 84.313788 33.458457 
L 84.313788 34.930306 
L 85.006784 34.930306 
L 85.006784 35.668848 
L 85.160783 35.668848 
L 85.160783 36.408717 
L 86.623774 36.408717 
L 86.623774 37.157635 
L 88.394762 37.157635 
L 88.394762 37.906813 
L 88.933759 37.906813 
L 88.933759 38.671605 
L 93.630728 38.671605 
L 93.630728 39.443683 
L 94.785721 39.443683 
L 94.785721 40.216214 
L 95.940713 40.216214 
L 95.940713 41.764377 
L 96.248712 41.764377 
L 96.248712 43.316026 
L 97.095706 43.316026 
L 97.095706 44.093144 
L 97.480704 44.093144 
L 97.480704 44.871073 
L 98.327698 44.871073 
L 98.327698 45.658166 
L 99.328692 45.658166 
L 99.328692 46.448422 
L 99.944688 46.448422 
L 99.944688 47.241935 
L 100.021687 47.241935 
L 100.175686 47.241935 
L 100.252686 48.843157 
L 100.483684 48.843157 
L 100.483684 49.645039 
L 100.945681 49.645039 
L 100.945681 50.447598 
L 102.177673 50.447598 
L 102.177673 51.25198 
L 103.178667 51.25198 
L 103.178667 52.863402 
L 103.871662 52.863402 
L 103.871662 53.673679 
L 104.17966 53.673679 
L 104.17966 54.488484 
L 104.872656 54.488484 
L 104.872656 55.305139 
L 105.026655 55.305139 
L 105.103654 56.964007 
L 105.71965 56.964007 
L 105.71965 57.792918 
L 106.335646 57.792918 
L 106.335646 58.624431 
L 106.566645 58.624431 
L 106.643644 60.304065 
L 107.490639 60.304065 
L 107.490639 61.149418 
L 108.414633 61.149418 
L 108.414633 61.994916 
L 108.722631 61.994916 
L 108.722631 62.840074 
L 109.723625 62.840074 
L 109.723625 63.686898 
L 109.877624 63.686898 
L 109.877624 64.534854 
L 110.955617 64.534854 
L 110.955617 65.383452 
L 113.804598 65.383452 
L 113.881598 67.09432 
L 114.497594 67.09432 
L 114.574593 68.827622 
L 116.422581 68.827622 
L 116.422581 69.701631 
L 119.271563 69.701631 
L 119.271563 70.592149 
L 122.967539 70.592149 
L 122.967539 71.484759 
L 123.660535 71.484759 
L 123.660535 72.37913 
L 124.199531 72.37913 
L 124.199531 73.276443 
L 124.815527 73.276443 
L 124.815527 74.17697 
L 126.971513 74.17697 
L 126.971513 75.078121 
L 127.202512 75.078121 
L 127.202512 75.980388 
L 128.588503 75.980388 
L 128.588503 76.882705 
L 128.665502 76.882705 
L 129.666496 76.882705 
L 129.666496 77.795156 
L 133.131474 77.795156 
L 133.131474 78.735717 
L 133.362472 78.735717 
L 133.362472 80.614878 
L 135.21046 80.614878 
L 135.21046 81.556637 
L 136.673451 81.556637 
L 136.673451 82.506432 
L 136.904449 82.506432 
L 136.904449 83.458409 
L 137.443446 83.458409 
L 137.443446 84.413468 
L 139.676431 84.413468 
L 139.676431 85.36785 
L 146.298389 85.36785 
L 146.298389 86.352752 
L 148.993371 86.352752 
L 148.993371 87.347633 
L 149.686367 87.347633 
L 149.686367 88.358207 
L 149.763366 88.358207 
L 150.071364 88.358207 
L 150.071364 89.373309 
L 150.841359 89.373309 
L 150.841359 90.391108 
L 151.457355 90.391108 
L 151.457355 91.415102 
L 154.306337 91.415102 
L 154.306337 92.469604 
L 154.460336 92.469604 
L 154.460336 93.523035 
L 154.691334 93.523035 
L 154.691334 94.575899 
L 156.92432 94.575899 
L 156.92432 95.633154 
L 158.618309 95.633154 
L 158.618309 96.690688 
L 159.619303 96.690688 
L 159.619303 97.759526 
L 159.927301 97.759526 
L 159.927301 98.831594 
L 162.853282 98.831594 
L 162.853282 99.914565 
L 163.315279 99.914565 
L 163.315279 101.002105 
L 167.78125 101.002105 
L 167.78125 102.124116 
L 167.85825 102.124116 
L 171.477226 102.124116 
L 171.477226 103.266732 
L 173.094216 103.266732 
L 173.094216 104.410074 
L 174.095209 104.410074 
L 174.095209 105.555759 
L 175.789198 105.555759 
L 175.789198 106.730399 
L 176.097196 106.730399 
L 176.097196 107.907382 
L 179.485174 107.907382 
L 179.485174 109.125343 
L 180.17817 109.125343 
L 180.17817 110.347291 
L 186.800127 110.347291 
L 186.800127 111.5991 
L 195.65507 111.5991 
L 195.65507 112.925306 
L 198.73505 112.925306 
L 198.73505 114.277084 
L 204.741012 114.277084 
L 204.741012 115.669154 
L 208.359988 115.669154 
L 208.359988 117.10575 
L 222.989894 117.10575 
L 222.989894 118.687475 
L 232.383833 118.687475 
L 232.383833 120.460946 
L 232.460833 120.460946 
L 247.167738 120.460946 
L 247.167738 122.477203 
L 253.789695 122.477203 
L 253.789695 124.546147 
L 284.435497 124.546147 
L 284.435497 127.42781 
L 286.591483 127.42781 
L 286.591483 130.388457 
L 361.512 130.388457 
L 361.512 136.960157 
L 576.417614 136.960157 
L 576.417614 136.960157 
" clip-path="url(#p257ab9ef19)" style="fill: none; stroke: #3a528a; stroke-width: 1.5; stroke-linecap: square"/>
   </g>
   <g id="line2d_18">
    <path d="M 69.144886 28.892082 
L 73.30286 28.892082 
L 73.30286 30.106379 
L 75.150848 30.106379 
L 75.150848 31.319566 
L 76.151841 31.319566 
L 76.151841 32.545153 
L 81.079809 32.545153 
L 81.079809 33.775026 
L 83.620793 33.775026 
L 83.620793 35.018884 
L 83.851791 35.018884 
L 83.851791 36.263899 
L 84.159789 36.263899 
L 84.159789 37.511798 
L 84.313788 37.511798 
L 84.313788 40.004614 
L 85.006784 40.004614 
L 85.006784 41.253608 
L 85.160783 41.253608 
L 85.160783 42.503607 
L 86.623774 42.503607 
L 86.623774 43.76763 
L 88.394762 43.76763 
L 88.394762 45.030819 
L 88.933759 45.030819 
L 88.933759 46.319023 
L 93.630728 46.319023 
L 93.630728 47.618152 
L 94.785721 47.618152 
L 94.785721 48.91669 
L 95.940713 48.91669 
L 95.940713 51.514895 
L 96.248712 51.514895 
L 96.248712 54.113485 
L 97.095706 54.113485 
L 97.095706 55.412887 
L 97.480704 55.412887 
L 97.480704 56.712271 
L 98.327698 56.712271 
L 98.327698 58.025556 
L 99.328692 58.025556 
L 99.328692 59.3427 
L 99.944688 59.3427 
L 99.944688 60.663841 
L 100.021687 60.663841 
L 100.175686 60.663841 
L 100.252686 63.325385 
L 100.483684 63.325385 
L 100.483684 64.65607 
L 100.945681 64.65607 
L 100.945681 65.98641 
L 102.177673 65.98641 
L 102.177673 67.318295 
L 103.178667 67.318295 
L 103.178667 69.982015 
L 103.871662 69.982015 
L 103.871662 71.319181 
L 104.17966 71.319181 
L 104.17966 72.662303 
L 104.872656 72.662303 
L 104.872656 74.006949 
L 105.026655 74.006949 
L 105.103654 76.733618 
L 105.71965 76.733618 
L 105.71965 78.09373 
L 106.335646 78.09373 
L 106.335646 79.456528 
L 106.566645 79.456528 
L 106.643644 82.204501 
L 107.490639 82.204501 
L 107.490639 83.585094 
L 108.414633 83.585094 
L 108.414633 84.96428 
L 108.722631 84.96428 
L 108.722631 86.34127 
L 109.723625 86.34127 
L 109.723625 87.719325 
L 109.877624 87.719325 
L 109.877624 89.097569 
L 110.955617 89.097569 
L 110.955617 90.475198 
L 113.804598 90.475198 
L 113.881598 93.247607 
L 114.497594 93.247607 
L 114.574593 96.049485 
L 116.422581 96.049485 
L 116.422581 97.459688 
L 119.271563 97.459688 
L 119.271563 98.894713 
L 122.967539 98.894713 
L 122.967539 100.331269 
L 123.660535 100.331269 
L 123.660535 101.768813 
L 124.199531 101.768813 
L 124.199531 103.209226 
L 124.815527 103.209226 
L 124.815527 104.652923 
L 126.971513 104.652923 
L 126.971513 106.095741 
L 127.202512 106.095741 
L 127.202512 107.538461 
L 128.588503 107.538461 
L 128.588503 108.979373 
L 128.665502 108.979373 
L 129.666496 108.979373 
L 129.666496 110.434548 
L 133.131474 110.434548 
L 133.131474 111.932529 
L 133.362472 111.932529 
L 133.362472 114.919215 
L 135.21046 114.919215 
L 135.21046 116.412933 
L 136.673451 116.412933 
L 136.673451 117.917307 
L 136.904449 117.917307 
L 136.904449 119.42303 
L 137.443446 119.42303 
L 137.443446 120.931506 
L 139.676431 120.931506 
L 139.676431 122.436789 
L 146.298389 122.436789 
L 146.298389 123.987984 
L 148.993371 123.987984 
L 148.993371 125.552597 
L 149.686367 125.552597 
L 149.686367 127.139525 
L 149.763366 127.139525 
L 150.071364 127.139525 
L 150.071364 128.73116 
L 150.841359 128.73116 
L 150.841359 130.324608 
L 151.457355 130.324608 
L 151.457355 131.925309 
L 154.306337 131.925309 
L 154.306337 133.571134 
L 154.460336 133.571134 
L 154.460336 135.212688 
L 154.691334 135.212688 
L 154.691334 136.850761 
L 156.92432 136.850761 
L 156.92432 138.493048 
L 158.618309 138.493048 
L 158.618309 140.133145 
L 159.619303 140.133145 
L 159.619303 141.788106 
L 159.927301 141.788106 
L 159.927301 143.44537 
L 162.853282 143.44537 
L 162.853282 145.116747 
L 163.315279 145.116747 
L 163.315279 146.792397 
L 167.78125 146.792397 
L 167.78125 148.518241 
L 167.85825 148.518241 
L 171.477226 148.518241 
L 171.477226 150.27273 
L 173.094216 150.27273 
L 173.094216 152.025254 
L 174.095209 152.025254 
L 174.095209 153.778276 
L 175.789198 153.778276 
L 175.789198 155.572382 
L 176.097196 155.572382 
L 176.097196 157.366799 
L 179.485174 157.366799 
L 179.485174 159.220241 
L 180.17817 159.220241 
L 180.17817 161.076221 
L 186.800127 161.076221 
L 186.800127 162.973891 
L 195.65507 162.973891 
L 195.65507 164.980288 
L 198.73505 164.980288 
L 198.73505 167.021081 
L 204.741012 167.021081 
L 204.741012 169.118167 
L 208.359988 169.118167 
L 208.359988 171.2775 
L 222.989894 171.2775 
L 222.989894 173.649298 
L 232.383833 173.649298 
L 232.383833 176.301534 
L 232.460833 176.301534 
L 247.167738 176.301534 
L 247.167738 179.307748 
L 253.789695 179.307748 
L 253.789695 182.38243 
L 284.435497 182.38243 
L 284.435497 186.647848 
L 286.591483 186.647848 
L 286.591483 191.009465 
L 361.512 191.009465 
L 361.512 200.615646 
L 576.417614 200.615646 
L 576.417614 200.615646 
" clip-path="url(#p257ab9ef19)" style="fill: none; stroke: #424e69; stroke-width: 1.5; stroke-linecap: square"/>
   </g>
   <g id="line2d_19">
    <path d="M 69.144886 30.388752 
L 73.30286 30.388752 
L 73.30286 33.098907 
L 75.150848 33.098907 
L 75.150848 35.798958 
L 76.151841 35.798958 
L 76.151841 38.518868 
L 81.079809 38.518868 
L 81.079809 41.24048 
L 83.620793 41.24048 
L 83.620793 43.98508 
L 83.851791 43.98508 
L 83.851791 46.72423 
L 84.159789 46.72423 
L 84.159789 49.461686 
L 84.313788 49.461686 
L 84.313788 54.905997 
L 85.006784 54.905997 
L 85.006784 57.621748 
L 85.160783 57.621748 
L 85.160783 60.331636 
L 86.623774 60.331636 
L 86.623774 63.063744 
L 88.394762 63.063744 
L 88.394762 65.78583 
L 88.933759 65.78583 
L 88.933759 68.55337 
L 93.630728 68.55337 
L 93.630728 71.335739 
L 94.785721 71.335739 
L 94.785721 74.108177 
L 95.940713 74.108177 
L 95.940713 79.629473 
L 96.248712 79.629473 
L 96.248712 85.116955 
L 97.095706 85.116955 
L 97.095706 87.847947 
L 97.480704 87.847947 
L 97.480704 90.570255 
L 98.327698 90.570255 
L 98.327698 93.312911 
L 99.328692 93.312911 
L 99.328692 96.05477 
L 99.944688 96.05477 
L 99.944688 98.796041 
L 100.021687 98.796041 
L 100.175686 98.796041 
L 100.252686 104.291493 
L 100.483684 104.291493 
L 100.483684 107.02549 
L 100.945681 107.02549 
L 100.945681 109.749757 
L 102.177673 109.749757 
L 102.177673 112.468157 
L 103.178667 112.468157 
L 103.178667 117.877773 
L 103.871662 117.877773 
L 103.871662 120.579753 
L 104.17966 120.579753 
L 104.17966 123.284625 
L 104.872656 123.284625 
L 104.872656 125.983392 
L 105.026655 125.983392 
L 105.103654 131.427789 
L 105.71965 131.427789 
L 105.71965 134.129467 
L 106.335646 134.129467 
L 106.335646 136.827086 
L 106.566645 136.827086 
L 106.643644 142.238046 
L 107.490639 142.238046 
L 107.490639 144.942129 
L 108.414633 144.942129 
L 108.414633 147.633849 
L 108.722631 147.633849 
L 108.722631 150.311705 
L 109.723625 150.311705 
L 109.723625 152.982062 
L 109.877624 152.982062 
L 109.877624 155.643213 
L 110.955617 155.643213 
L 110.955617 158.293617 
L 113.804598 158.293617 
L 113.881598 163.598482 
L 114.497594 163.598482 
L 114.574593 168.920493 
L 116.422581 168.920493 
L 116.422581 171.584188 
L 119.271563 171.584188 
L 119.271563 174.284535 
L 122.967539 174.284535 
L 122.967539 176.977428 
L 123.660535 176.977428 
L 123.660535 179.66183 
L 124.199531 179.66183 
L 124.199531 182.34122 
L 124.815527 182.34122 
L 124.815527 185.016312 
L 126.971513 185.016312 
L 126.971513 187.679373 
L 127.202512 187.679373 
L 127.202512 190.331863 
L 128.588503 190.331863 
L 128.588503 192.970667 
L 128.665502 192.970667 
L 129.666496 192.970667 
L 129.666496 195.62509 
L 133.131474 195.62509 
L 133.131474 198.34658 
L 133.362472 198.34658 
L 133.362472 203.739394 
L 135.21046 203.739394 
L 135.21046 206.419849 
L 136.673451 206.419849 
L 136.673451 209.10823 
L 136.904449 209.10823 
L 136.904449 211.787783 
L 137.443446 211.787783 
L 137.443446 214.460968 
L 139.676431 214.460968 
L 139.676431 217.117262 
L 146.298389 217.117262 
L 146.298389 219.842844 
L 148.993371 219.842844 
L 148.993371 222.579953 
L 149.686367 222.579953 
L 149.686367 225.343747 
L 149.763366 225.343747 
L 150.071364 225.343747 
L 150.071364 228.103257 
L 150.841359 228.103257 
L 150.841359 230.853395 
L 151.457355 230.853395 
L 151.457355 233.603459 
L 154.306337 233.603459 
L 154.306337 236.417897 
L 154.460336 236.417897 
L 154.460336 239.211763 
L 154.691334 239.211763 
L 154.691334 241.986507 
L 156.92432 241.986507 
L 156.92432 244.755169 
L 158.618309 244.755169 
L 158.618309 247.506939 
L 159.619303 247.506939 
L 159.619303 250.270287 
L 159.927301 250.270287 
L 159.927301 253.024048 
L 162.853282 253.024048 
L 162.853282 255.787656 
L 163.315279 255.787656 
L 163.315279 258.544632 
L 167.78125 258.544632 
L 167.78125 261.369864 
L 167.85825 261.369864 
L 171.477226 261.369864 
L 171.477226 264.227105 
L 173.094216 264.227105 
L 173.094216 267.066175 
L 174.095209 267.066175 
L 174.095209 269.891102 
L 175.789198 269.891102 
L 175.789198 272.766768 
L 176.097196 272.766768 
L 176.097196 275.627297 
L 179.485174 275.627297 
L 179.485174 278.565523 
L 180.17817 278.565523 
L 180.17817 281.491096 
L 186.800127 281.491096 
L 186.800127 284.465144 
L 195.65507 284.465144 
L 195.65507 287.590659 
L 198.73505 287.590659 
L 198.73505 290.749813 
L 204.741012 290.749813 
L 204.741012 293.975187 
L 208.359988 293.975187 
L 208.359988 297.274164 
L 222.989894 297.274164 
L 222.989894 300.871895 
L 232.383833 300.871895 
L 232.383833 304.863019 
L 232.460833 304.863019 
L 247.167738 304.863019 
L 247.167738 309.346034 
L 253.789695 309.346034 
L 253.789695 313.886409 
L 284.435497 313.886409 
L 284.435497 320.110383 
L 286.591483 320.110383 
L 286.591483 326.385102 
L 361.512 326.385102 
L 361.512 339.886419 
L 576.417614 339.886419 
L 576.417614 339.886419 
" clip-path="url(#p257ab9ef19)" style="fill: none; stroke: #4a4a4a; stroke-width: 1.5; stroke-linecap: square"/>
   </g>
   <g id="patch_3">
    <path d="M 43.78125 354.958125 
L 43.78125 22.318125 
" style="fill: none; stroke: #000000; stroke-width: 0.8; stroke-linejoin: miter; stroke-linecap: square"/>
   </g>
   <g id="patch_4">
    <path d="M 601.78125 354.958125 
L 601.78125 22.318125 
" style="fill: none; stroke: #000000; stroke-width: 0.8; stroke-linejoin: miter; stroke-linecap: square"/>
   </g>
   <g id="patch_5">
    <path d="M 43.78125 354.958125 
L 601.78125 354.958125 
" style="fill: none; stroke: #000000; stroke-width: 0.8; stroke-linejoin: miter; stroke-linecap: square"/>
   </g>
   <g id="patch_6">
    <path d="M 43.78125 22.318125 
L 601.78125 22.318125 
" style="fill: none; stroke: #000000; stroke-width: 0.8; stroke-linejoin: miter; stroke-linecap: square"/>
   </g>
   <g id="text_17">
    <!-- p-value: 1.17e-17 -->
    <g transform="translate(502.313438 36.569362) scale(0.1 -0.1)">
     <defs>
      <path id="DejaVuSans-70" d="M 1159 525 
L 1159 -1331 
L 581 -1331 
L 581 3500 
L 1159 3500 
L 1159 2969 
Q 1341 3281 1617 3432 
Q 1894 3584 2278 3584 
Q 2916 3584 3314 3078 
Q 3713 2572 3713 1747 
Q 3713 922 3314 415 
Q 2916 -91 2278 -91 
Q 1894 -91 1617 61 
Q 1341 213 1159 525 
z
M 3116 1747 
Q 3116 2381 2855 2742 
Q 2594 3103 2138 3103 
Q 1681 3103 1420 2742 
Q 1159 2381 1159 1747 
Q 1159 1113 1420 752 
Q 1681 391 2138 391 
Q 2594 391 2855 752 
Q 3116 1113 3116 1747 
z
" transform="scale(0.015625)"/>
      <path id="DejaVuSans-2d" d="M 313 2009 
L 1997 2009 
L 1997 1497 
L 313 1497 
L 313 2009 
z
" transform="scale(0.015625)"/>
      <path id="DejaVuSans-3a" d="M 750 794 
L 1409 794 
L 1409 0 
L 750 0 
L 750 794 
z
M 750 3309 
L 1409 3309 
L 1409 2516 
L 750 2516 
L 750 3309 
z
" transform="scale(0.015625)"/>
     </defs>
     <use xlink:href="#DejaVuSans-70"/>
     <use xlink:href="#DejaVuSans-2d" x="63.476562"/>
     <use xlink:href="#DejaVuSans-76" x="96.935547"/>
     <use xlink:href="#DejaVuSans-61" x="156.115234"/>
     <use xlink:href="#DejaVuSans-6c" x="217.394531"/>
     <use xlink:href="#DejaVuSans-75" x="245.177734"/>
     <use xlink:href="#DejaVuSans-65" x="308.556641"/>
     <use xlink:href="#DejaVuSans-3a" x="370.080078"/>
     <use xlink:href="#DejaVuSans-20" x="403.771484"/>
     <use xlink:href="#DejaVuSans-31" x="435.558594"/>
     <use xlink:href="#DejaVuSans-2e" x="499.181641"/>
     <use xlink:href="#DejaVuSans-31" x="530.96875"/>
     <use xlink:href="#DejaVuSans-37" x="594.591797"/>
     <use xlink:href="#DejaVuSans-65" x="658.214844"/>
     <use xlink:href="#DejaVuSans-2d" x="719.738281"/>
     <use xlink:href="#DejaVuSans-31" x="755.822266"/>
     <use xlink:href="#DejaVuSans-37" x="819.445312"/>
    </g>
   </g>
   <g id="text_18">
    <!-- Adjusted Partial Effects of Continuous TCR Scores on Survival -->
    <g transform="translate(138.996563 16.318125) scale(0.12 -0.12)">
     <defs>
      <path id="DejaVuSans-41" d="M 2188 4044 
L 1331 1722 
L 3047 1722 
L 2188 4044 
z
M 1831 4666 
L 2547 4666 
L 4325 0 
L 3669 0 
L 3244 1197 
L 1141 1197 
L 716 0 
L 50 0 
L 1831 4666 
z
" transform="scale(0.015625)"/>
      <path id="DejaVuSans-64" d="M 2906 2969 
L 2906 4863 
L 3481 4863 
L 3481 0 
L 2906 0 
L 2906 525 
Q 2725 213 2448 61 
Q 2172 -91 1784 -91 
Q 1150 -91 751 415 
Q 353 922 353 1747 
Q 353 2572 751 3078 
Q 1150 3584 1784 3584 
Q 2172 3584 2448 3432 
Q 2725 3281 2906 2969 
z
M 947 1747 
Q 947 1113 1208 752 
Q 1469 391 1925 391 
Q 2381 391 2643 752 
Q 2906 1113 2906 1747 
Q 2906 2381 2643 2742 
Q 2381 3103 1925 3103 
Q 1469 3103 1208 2742 
Q 947 2381 947 1747 
z
" transform="scale(0.015625)"/>
      <path id="DejaVuSans-6a" d="M 603 3500 
L 1178 3500 
L 1178 -63 
Q 1178 -731 923 -1031 
Q 669 -1331 103 -1331 
L -116 -1331 
L -116 -844 
L 38 -844 
Q 366 -844 484 -692 
Q 603 -541 603 -63 
L 603 3500 
z
M 603 4863 
L 1178 4863 
L 1178 4134 
L 603 4134 
L 603 4863 
z
" transform="scale(0.015625)"/>
      <path id="DejaVuSans-45" d="M 628 4666 
L 3578 4666 
L 3578 4134 
L 1259 4134 
L 1259 2753 
L 3481 2753 
L 3481 2222 
L 1259 2222 
L 1259 531 
L 3634 531 
L 3634 0 
L 628 0 
L 628 4666 
z
" transform="scale(0.015625)"/>
      <path id="DejaVuSans-66" d="M 2375 4863 
L 2375 4384 
L 1825 4384 
Q 1516 4384 1395 4259 
Q 1275 4134 1275 3809 
L 1275 3500 
L 2222 3500 
L 2222 3053 
L 1275 3053 
L 1275 0 
L 697 0 
L 697 3053 
L 147 3053 
L 147 3500 
L 697 3500 
L 697 3744 
Q 697 4328 969 4595 
Q 1241 4863 1831 4863 
L 2375 4863 
z
" transform="scale(0.015625)"/>
      <path id="DejaVuSans-63" d="M 3122 3366 
L 3122 2828 
Q 2878 2963 2633 3030 
Q 2388 3097 2138 3097 
Q 1578 3097 1268 2742 
Q 959 2388 959 1747 
Q 959 1106 1268 751 
Q 1578 397 2138 397 
Q 2388 397 2633 464 
Q 2878 531 3122 666 
L 3122 134 
Q 2881 22 2623 -34 
Q 2366 -91 2075 -91 
Q 1284 -91 818 406 
Q 353 903 353 1747 
Q 353 2603 823 3093 
Q 1294 3584 2113 3584 
Q 2378 3584 2631 3529 
Q 2884 3475 3122 3366 
z
" transform="scale(0.015625)"/>
      <path id="DejaVuSans-43" d="M 4122 4306 
L 4122 3641 
Q 3803 3938 3442 4084 
Q 3081 4231 2675 4231 
Q 1875 4231 1450 3742 
Q 1025 3253 1025 2328 
Q 1025 1406 1450 917 
Q 1875 428 2675 428 
Q 3081 428 3442 575 
Q 3803 722 4122 1019 
L 4122 359 
Q 3791 134 3420 21 
Q 3050 -91 2638 -91 
Q 1578 -91 968 557 
Q 359 1206 359 2328 
Q 359 3453 968 4101 
Q 1578 4750 2638 4750 
Q 3056 4750 3426 4639 
Q 3797 4528 4122 4306 
z
" transform="scale(0.015625)"/>
      <path id="DejaVuSans-52" d="M 2841 2188 
Q 3044 2119 3236 1894 
Q 3428 1669 3622 1275 
L 4263 0 
L 3584 0 
L 2988 1197 
Q 2756 1666 2539 1819 
Q 2322 1972 1947 1972 
L 1259 1972 
L 1259 0 
L 628 0 
L 628 4666 
L 2053 4666 
Q 2853 4666 3247 4331 
Q 3641 3997 3641 3322 
Q 3641 2881 3436 2590 
Q 3231 2300 2841 2188 
z
M 1259 4147 
L 1259 2491 
L 2053 2491 
Q 2509 2491 2742 2702 
Q 2975 2913 2975 3322 
Q 2975 3731 2742 3939 
Q 2509 4147 2053 4147 
L 1259 4147 
z
" transform="scale(0.015625)"/>
     </defs>
     <use xlink:href="#DejaVuSans-41"/>
     <use xlink:href="#DejaVuSans-64" x="66.658203"/>
     <use xlink:href="#DejaVuSans-6a" x="130.134766"/>
     <use xlink:href="#DejaVuSans-75" x="157.917969"/>
     <use xlink:href="#DejaVuSans-73" x="221.296875"/>
     <use xlink:href="#DejaVuSans-74" x="273.396484"/>
     <use xlink:href="#DejaVuSans-65" x="312.605469"/>
     <use xlink:href="#DejaVuSans-64" x="374.128906"/>
     <use xlink:href="#DejaVuSans-20" x="437.605469"/>
     <use xlink:href="#DejaVuSans-50" x="469.392578"/>
     <use xlink:href="#DejaVuSans-61" x="525.195312"/>
     <use xlink:href="#DejaVuSans-72" x="586.474609"/>
     <use xlink:href="#DejaVuSans-74" x="627.587891"/>
     <use xlink:href="#DejaVuSans-69" x="666.796875"/>
     <use xlink:href="#DejaVuSans-61" x="694.580078"/>
     <use xlink:href="#DejaVuSans-6c" x="755.859375"/>
     <use xlink:href="#DejaVuSans-20" x="783.642578"/>
     <use xlink:href="#DejaVuSans-45" x="815.429688"/>
     <use xlink:href="#DejaVuSans-66" x="878.613281"/>
     <use xlink:href="#DejaVuSans-66" x="913.818359"/>
     <use xlink:href="#DejaVuSans-65" x="949.023438"/>
     <use xlink:href="#DejaVuSans-63" x="1010.546875"/>
     <use xlink:href="#DejaVuSans-74" x="1065.527344"/>
     <use xlink:href="#DejaVuSans-73" x="1104.736328"/>
     <use xlink:href="#DejaVuSans-20" x="1156.835938"/>
     <use xlink:href="#DejaVuSans-6f" x="1188.623047"/>
     <use xlink:href="#DejaVuSans-66" x="1249.804688"/>
     <use xlink:href="#DejaVuSans-20" x="1285.009766"/>
     <use xlink:href="#DejaVuSans-43" x="1316.796875"/>
     <use xlink:href="#DejaVuSans-6f" x="1386.621094"/>
     <use xlink:href="#DejaVuSans-6e" x="1447.802734"/>
     <use xlink:href="#DejaVuSans-74" x="1511.181641"/>
     <use xlink:href="#DejaVuSans-69" x="1550.390625"/>
     <use xlink:href="#DejaVuSans-6e" x="1578.173828"/>
     <use xlink:href="#DejaVuSans-75" x="1641.552734"/>
     <use xlink:href="#DejaVuSans-6f" x="1704.931641"/>
     <use xlink:href="#DejaVuSans-75" x="1766.113281"/>
     <use xlink:href="#DejaVuSans-73" x="1829.492188"/>
     <use xlink:href="#DejaVuSans-20" x="1881.591797"/>
     <use xlink:href="#DejaVuSans-54" x="1913.378906"/>
     <use xlink:href="#DejaVuSans-43" x="1968.587891"/>
     <use xlink:href="#DejaVuSans-52" x="2038.412109"/>
     <use xlink:href="#DejaVuSans-20" x="2107.894531"/>
     <use xlink:href="#DejaVuSans-53" x="2139.681641"/>
     <use xlink:href="#DejaVuSans-63" x="2203.158203"/>
     <use xlink:href="#DejaVuSans-6f" x="2258.138672"/>
     <use xlink:href="#DejaVuSans-72" x="2319.320312"/>
     <use xlink:href="#DejaVuSans-65" x="2358.183594"/>
     <use xlink:href="#DejaVuSans-73" x="2419.707031"/>
     <use xlink:href="#DejaVuSans-20" x="2471.806641"/>
     <use xlink:href="#DejaVuSans-6f" x="2503.59375"/>
     <use xlink:href="#DejaVuSans-6e" x="2564.775391"/>
     <use xlink:href="#DejaVuSans-20" x="2628.154297"/>
     <use xlink:href="#DejaVuSans-53" x="2659.941406"/>
     <use xlink:href="#DejaVuSans-75" x="2723.417969"/>
     <use xlink:href="#DejaVuSans-72" x="2786.796875"/>
     <use xlink:href="#DejaVuSans-76" x="2827.910156"/>
     <use xlink:href="#DejaVuSans-69" x="2887.089844"/>
     <use xlink:href="#DejaVuSans-76" x="2914.873047"/>
     <use xlink:href="#DejaVuSans-61" x="2974.052734"/>
     <use xlink:href="#DejaVuSans-6c" x="3035.332031"/>
    </g>
   </g>
  </g>
 </g>
 <defs>
  <clipPath id="p257ab9ef19">
   <rect x="43.78125" y="22.318125" width="558" height="332.64"/>
  </clipPath>
 </defs>
</svg>
