<?xml version="1.0" encoding="utf-8" standalone="no"?>
<!DOCTYPE svg PUBLIC "-//W3C//DTD SVG 1.1//EN"
  "http://www.w3.org/Graphics/SVG/1.1/DTD/svg11.dtd">
<svg xmlns:xlink="http://www.w3.org/1999/xlink" width="608.98125pt" height="392.514375pt" viewBox="0 0 608.98125 392.514375" xmlns="http://www.w3.org/2000/svg" version="1.1">
 <metadata>
  <rdf:RDF xmlns:dc="http://purl.org/dc/elements/1.1/" xmlns:cc="http://creativecommons.org/ns#" xmlns:rdf="http://www.w3.org/1999/02/22-rdf-syntax-ns#">
   <cc:Work>
    <dc:type rdf:resource="http://purl.org/dc/dcmitype/StillImage"/>
    <dc:date>2024-07-08T11:59:44.339537</dc:date>
    <dc:format>image/svg+xml</dc:format>
    <dc:creator>
     <cc:Agent>
      <dc:title>Matplotlib v3.9.0, https://matplotlib.org/</dc:title>
     </cc:Agent>
    </dc:creator>
   </cc:Work>
  </rdf:RDF>
 </metadata>
 <defs>
  <style type="text/css">*{stroke-linejoin: round; stroke-linecap: butt}</style>
 </defs>
 <g id="figure_1">
  <g id="patch_1">
   <path d="M 0 392.514375 
L 608.98125 392.514375 
L 608.98125 0 
L 0 0 
z
" style="fill: #ffffff"/>
  </g>
  <g id="axes_1">
   <g id="patch_2">
    <path d="M 43.78125 354.958125 
L 601.78125 354.958125 
L 601.78125 22.318125 
L 43.78125 22.318125 
z
" style="fill: #ffffff"/>
   </g>
   <g id="matplotlib.axis_1">
    <g id="xtick_1">
     <g id="line2d_1">
      <defs>
       <path id="mfc6d845fc8" d="M 0 0 
L 0 3.5 
" style="stroke: #000000; stroke-width: 0.8"/>
      </defs>
      <g>
       <use xlink:href="#mfc6d845fc8" x="68.220892" y="354.958125" style="stroke: #000000; stroke-width: 0.8"/>
      </g>
     </g>
     <g id="text_1">
      <!-- 0 -->
      <g transform="translate(65.039642 369.556562) scale(0.1 -0.1)">
       <defs>
        <path id="DejaVuSans-30" d="M 2034 4250 
Q 1547 4250 1301 3770 
Q 1056 3291 1056 2328 
Q 1056 1369 1301 889 
Q 1547 409 2034 409 
Q 2525 409 2770 889 
Q 3016 1369 3016 2328 
Q 3016 3291 2770 3770 
Q 2525 4250 2034 4250 
z
M 2034 4750 
Q 2819 4750 3233 4129 
Q 3647 3509 3647 2328 
Q 3647 1150 3233 529 
Q 2819 -91 2034 -91 
Q 1250 -91 836 529 
Q 422 1150 422 2328 
Q 422 3509 836 4129 
Q 1250 4750 2034 4750 
z
" transform="scale(0.015625)"/>
       </defs>
       <use xlink:href="#DejaVuSans-30"/>
      </g>
     </g>
    </g>
    <g id="xtick_2">
     <g id="line2d_2">
      <g>
       <use xlink:href="#mfc6d845fc8" x="145.220396" y="354.958125" style="stroke: #000000; stroke-width: 0.8"/>
      </g>
     </g>
     <g id="text_2">
      <!-- 1000 -->
      <g transform="translate(132.495396 369.556562) scale(0.1 -0.1)">
       <defs>
        <path id="DejaVuSans-31" d="M 794 531 
L 1825 531 
L 1825 4091 
L 703 3866 
L 703 4441 
L 1819 4666 
L 2450 4666 
L 2450 531 
L 3481 531 
L 3481 0 
L 794 0 
L 794 531 
z
" transform="scale(0.015625)"/>
       </defs>
       <use xlink:href="#DejaVuSans-31"/>
       <use xlink:href="#DejaVuSans-30" x="63.623047"/>
       <use xlink:href="#DejaVuSans-30" x="127.246094"/>
       <use xlink:href="#DejaVuSans-30" x="190.869141"/>
      </g>
     </g>
    </g>
    <g id="xtick_3">
     <g id="line2d_3">
      <g>
       <use xlink:href="#mfc6d845fc8" x="222.219899" y="354.958125" style="stroke: #000000; stroke-width: 0.8"/>
      </g>
     </g>
     <g id="text_3">
      <!-- 2000 -->
      <g transform="translate(209.494899 369.556562) scale(0.1 -0.1)">
       <defs>
        <path id="DejaVuSans-32" d="M 1228 531 
L 3431 531 
L 3431 0 
L 469 0 
L 469 531 
Q 828 903 1448 1529 
Q 2069 2156 2228 2338 
Q 2531 2678 2651 2914 
Q 2772 3150 2772 3378 
Q 2772 3750 2511 3984 
Q 2250 4219 1831 4219 
Q 1534 4219 1204 4116 
Q 875 4013 500 3803 
L 500 4441 
Q 881 4594 1212 4672 
Q 1544 4750 1819 4750 
Q 2544 4750 2975 4387 
Q 3406 4025 3406 3419 
Q 3406 3131 3298 2873 
Q 3191 2616 2906 2266 
Q 2828 2175 2409 1742 
Q 1991 1309 1228 531 
z
" transform="scale(0.015625)"/>
       </defs>
       <use xlink:href="#DejaVuSans-32"/>
       <use xlink:href="#DejaVuSans-30" x="63.623047"/>
       <use xlink:href="#DejaVuSans-30" x="127.246094"/>
       <use xlink:href="#DejaVuSans-30" x="190.869141"/>
      </g>
     </g>
    </g>
    <g id="xtick_4">
     <g id="line2d_4">
      <g>
       <use xlink:href="#mfc6d845fc8" x="299.219402" y="354.958125" style="stroke: #000000; stroke-width: 0.8"/>
      </g>
     </g>
     <g id="text_4">
      <!-- 3000 -->
      <g transform="translate(286.494402 369.556562) scale(0.1 -0.1)">
       <defs>
        <path id="DejaVuSans-33" d="M 2597 2516 
Q 3050 2419 3304 2112 
Q 3559 1806 3559 1356 
Q 3559 666 3084 287 
Q 2609 -91 1734 -91 
Q 1441 -91 1130 -33 
Q 819 25 488 141 
L 488 750 
Q 750 597 1062 519 
Q 1375 441 1716 441 
Q 2309 441 2620 675 
Q 2931 909 2931 1356 
Q 2931 1769 2642 2001 
Q 2353 2234 1838 2234 
L 1294 2234 
L 1294 2753 
L 1863 2753 
Q 2328 2753 2575 2939 
Q 2822 3125 2822 3475 
Q 2822 3834 2567 4026 
Q 2313 4219 1838 4219 
Q 1578 4219 1281 4162 
Q 984 4106 628 3988 
L 628 4550 
Q 988 4650 1302 4700 
Q 1616 4750 1894 4750 
Q 2613 4750 3031 4423 
Q 3450 4097 3450 3541 
Q 3450 3153 3228 2886 
Q 3006 2619 2597 2516 
z
" transform="scale(0.015625)"/>
       </defs>
       <use xlink:href="#DejaVuSans-33"/>
       <use xlink:href="#DejaVuSans-30" x="63.623047"/>
       <use xlink:href="#DejaVuSans-30" x="127.246094"/>
       <use xlink:href="#DejaVuSans-30" x="190.869141"/>
      </g>
     </g>
    </g>
    <g id="xtick_5">
     <g id="line2d_5">
      <g>
       <use xlink:href="#mfc6d845fc8" x="376.218905" y="354.958125" style="stroke: #000000; stroke-width: 0.8"/>
      </g>
     </g>
     <g id="text_5">
      <!-- 4000 -->
      <g transform="translate(363.493905 369.556562) scale(0.1 -0.1)">
       <defs>
        <path id="DejaVuSans-34" d="M 2419 4116 
L 825 1625 
L 2419 1625 
L 2419 4116 
z
M 2253 4666 
L 3047 4666 
L 3047 1625 
L 3713 1625 
L 3713 1100 
L 3047 1100 
L 3047 0 
L 2419 0 
L 2419 1100 
L 313 1100 
L 313 1709 
L 2253 4666 
z
" transform="scale(0.015625)"/>
       </defs>
       <use xlink:href="#DejaVuSans-34"/>
       <use xlink:href="#DejaVuSans-30" x="63.623047"/>
       <use xlink:href="#DejaVuSans-30" x="127.246094"/>
       <use xlink:href="#DejaVuSans-30" x="190.869141"/>
      </g>
     </g>
    </g>
    <g id="xtick_6">
     <g id="line2d_6">
      <g>
       <use xlink:href="#mfc6d845fc8" x="453.218408" y="354.958125" style="stroke: #000000; stroke-width: 0.8"/>
      </g>
     </g>
     <g id="text_6">
      <!-- 5000 -->
      <g transform="translate(440.493408 369.556562) scale(0.1 -0.1)">
       <defs>
        <path id="DejaVuSans-35" d="M 691 4666 
L 3169 4666 
L 3169 4134 
L 1269 4134 
L 1269 2991 
Q 1406 3038 1543 3061 
Q 1681 3084 1819 3084 
Q 2600 3084 3056 2656 
Q 3513 2228 3513 1497 
Q 3513 744 3044 326 
Q 2575 -91 1722 -91 
Q 1428 -91 1123 -41 
Q 819 9 494 109 
L 494 744 
Q 775 591 1075 516 
Q 1375 441 1709 441 
Q 2250 441 2565 725 
Q 2881 1009 2881 1497 
Q 2881 1984 2565 2268 
Q 2250 2553 1709 2553 
Q 1456 2553 1204 2497 
Q 953 2441 691 2322 
L 691 4666 
z
" transform="scale(0.015625)"/>
       </defs>
       <use xlink:href="#DejaVuSans-35"/>
       <use xlink:href="#DejaVuSans-30" x="63.623047"/>
       <use xlink:href="#DejaVuSans-30" x="127.246094"/>
       <use xlink:href="#DejaVuSans-30" x="190.869141"/>
      </g>
     </g>
    </g>
    <g id="xtick_7">
     <g id="line2d_7">
      <g>
       <use xlink:href="#mfc6d845fc8" x="530.217912" y="354.958125" style="stroke: #000000; stroke-width: 0.8"/>
      </g>
     </g>
     <g id="text_7">
      <!-- 6000 -->
      <g transform="translate(517.492912 369.556562) scale(0.1 -0.1)">
       <defs>
        <path id="DejaVuSans-36" d="M 2113 2584 
Q 1688 2584 1439 2293 
Q 1191 2003 1191 1497 
Q 1191 994 1439 701 
Q 1688 409 2113 409 
Q 2538 409 2786 701 
Q 3034 994 3034 1497 
Q 3034 2003 2786 2293 
Q 2538 2584 2113 2584 
z
M 3366 4563 
L 3366 3988 
Q 3128 4100 2886 4159 
Q 2644 4219 2406 4219 
Q 1781 4219 1451 3797 
Q 1122 3375 1075 2522 
Q 1259 2794 1537 2939 
Q 1816 3084 2150 3084 
Q 2853 3084 3261 2657 
Q 3669 2231 3669 1497 
Q 3669 778 3244 343 
Q 2819 -91 2113 -91 
Q 1303 -91 875 529 
Q 447 1150 447 2328 
Q 447 3434 972 4092 
Q 1497 4750 2381 4750 
Q 2619 4750 2861 4703 
Q 3103 4656 3366 4563 
z
" transform="scale(0.015625)"/>
       </defs>
       <use xlink:href="#DejaVuSans-36"/>
       <use xlink:href="#DejaVuSans-30" x="63.623047"/>
       <use xlink:href="#DejaVuSans-30" x="127.246094"/>
       <use xlink:href="#DejaVuSans-30" x="190.869141"/>
      </g>
     </g>
    </g>
    <g id="text_8">
     <!-- Time in Days -->
     <g transform="translate(290.333594 383.234687) scale(0.1 -0.1)">
      <defs>
       <path id="DejaVuSans-54" d="M -19 4666 
L 3928 4666 
L 3928 4134 
L 2272 4134 
L 2272 0 
L 1638 0 
L 1638 4134 
L -19 4134 
L -19 4666 
z
" transform="scale(0.015625)"/>
       <path id="DejaVuSans-69" d="M 603 3500 
L 1178 3500 
L 1178 0 
L 603 0 
L 603 3500 
z
M 603 4863 
L 1178 4863 
L 1178 4134 
L 603 4134 
L 603 4863 
z
" transform="scale(0.015625)"/>
       <path id="DejaVuSans-6d" d="M 3328 2828 
Q 3544 3216 3844 3400 
Q 4144 3584 4550 3584 
Q 5097 3584 5394 3201 
Q 5691 2819 5691 2113 
L 5691 0 
L 5113 0 
L 5113 2094 
Q 5113 2597 4934 2840 
Q 4756 3084 4391 3084 
Q 3944 3084 3684 2787 
Q 3425 2491 3425 1978 
L 3425 0 
L 2847 0 
L 2847 2094 
Q 2847 2600 2669 2842 
Q 2491 3084 2119 3084 
Q 1678 3084 1418 2786 
Q 1159 2488 1159 1978 
L 1159 0 
L 581 0 
L 581 3500 
L 1159 3500 
L 1159 2956 
Q 1356 3278 1631 3431 
Q 1906 3584 2284 3584 
Q 2666 3584 2933 3390 
Q 3200 3197 3328 2828 
z
" transform="scale(0.015625)"/>
       <path id="DejaVuSans-65" d="M 3597 1894 
L 3597 1613 
L 953 1613 
Q 991 1019 1311 708 
Q 1631 397 2203 397 
Q 2534 397 2845 478 
Q 3156 559 3463 722 
L 3463 178 
Q 3153 47 2828 -22 
Q 2503 -91 2169 -91 
Q 1331 -91 842 396 
Q 353 884 353 1716 
Q 353 2575 817 3079 
Q 1281 3584 2069 3584 
Q 2775 3584 3186 3129 
Q 3597 2675 3597 1894 
z
M 3022 2063 
Q 3016 2534 2758 2815 
Q 2500 3097 2075 3097 
Q 1594 3097 1305 2825 
Q 1016 2553 972 2059 
L 3022 2063 
z
" transform="scale(0.015625)"/>
       <path id="DejaVuSans-20" transform="scale(0.015625)"/>
       <path id="DejaVuSans-6e" d="M 3513 2113 
L 3513 0 
L 2938 0 
L 2938 2094 
Q 2938 2591 2744 2837 
Q 2550 3084 2163 3084 
Q 1697 3084 1428 2787 
Q 1159 2491 1159 1978 
L 1159 0 
L 581 0 
L 581 3500 
L 1159 3500 
L 1159 2956 
Q 1366 3272 1645 3428 
Q 1925 3584 2291 3584 
Q 2894 3584 3203 3211 
Q 3513 2838 3513 2113 
z
" transform="scale(0.015625)"/>
       <path id="DejaVuSans-44" d="M 1259 4147 
L 1259 519 
L 2022 519 
Q 2988 519 3436 956 
Q 3884 1394 3884 2338 
Q 3884 3275 3436 3711 
Q 2988 4147 2022 4147 
L 1259 4147 
z
M 628 4666 
L 1925 4666 
Q 3281 4666 3915 4102 
Q 4550 3538 4550 2338 
Q 4550 1131 3912 565 
Q 3275 0 1925 0 
L 628 0 
L 628 4666 
z
" transform="scale(0.015625)"/>
       <path id="DejaVuSans-61" d="M 2194 1759 
Q 1497 1759 1228 1600 
Q 959 1441 959 1056 
Q 959 750 1161 570 
Q 1363 391 1709 391 
Q 2188 391 2477 730 
Q 2766 1069 2766 1631 
L 2766 1759 
L 2194 1759 
z
M 3341 1997 
L 3341 0 
L 2766 0 
L 2766 531 
Q 2569 213 2275 61 
Q 1981 -91 1556 -91 
Q 1019 -91 701 211 
Q 384 513 384 1019 
Q 384 1609 779 1909 
Q 1175 2209 1959 2209 
L 2766 2209 
L 2766 2266 
Q 2766 2663 2505 2880 
Q 2244 3097 1772 3097 
Q 1472 3097 1187 3025 
Q 903 2953 641 2809 
L 641 3341 
Q 956 3463 1253 3523 
Q 1550 3584 1831 3584 
Q 2591 3584 2966 3190 
Q 3341 2797 3341 1997 
z
" transform="scale(0.015625)"/>
       <path id="DejaVuSans-79" d="M 2059 -325 
Q 1816 -950 1584 -1140 
Q 1353 -1331 966 -1331 
L 506 -1331 
L 506 -850 
L 844 -850 
Q 1081 -850 1212 -737 
Q 1344 -625 1503 -206 
L 1606 56 
L 191 3500 
L 800 3500 
L 1894 763 
L 2988 3500 
L 3597 3500 
L 2059 -325 
z
" transform="scale(0.015625)"/>
       <path id="DejaVuSans-73" d="M 2834 3397 
L 2834 2853 
Q 2591 2978 2328 3040 
Q 2066 3103 1784 3103 
Q 1356 3103 1142 2972 
Q 928 2841 928 2578 
Q 928 2378 1081 2264 
Q 1234 2150 1697 2047 
L 1894 2003 
Q 2506 1872 2764 1633 
Q 3022 1394 3022 966 
Q 3022 478 2636 193 
Q 2250 -91 1575 -91 
Q 1294 -91 989 -36 
Q 684 19 347 128 
L 347 722 
Q 666 556 975 473 
Q 1284 391 1588 391 
Q 1994 391 2212 530 
Q 2431 669 2431 922 
Q 2431 1156 2273 1281 
Q 2116 1406 1581 1522 
L 1381 1569 
Q 847 1681 609 1914 
Q 372 2147 372 2553 
Q 372 3047 722 3315 
Q 1072 3584 1716 3584 
Q 2034 3584 2315 3537 
Q 2597 3491 2834 3397 
z
" transform="scale(0.015625)"/>
      </defs>
      <use xlink:href="#DejaVuSans-54"/>
      <use xlink:href="#DejaVuSans-69" x="57.958984"/>
      <use xlink:href="#DejaVuSans-6d" x="85.742188"/>
      <use xlink:href="#DejaVuSans-65" x="183.154297"/>
      <use xlink:href="#DejaVuSans-20" x="244.677734"/>
      <use xlink:href="#DejaVuSans-69" x="276.464844"/>
      <use xlink:href="#DejaVuSans-6e" x="304.248047"/>
      <use xlink:href="#DejaVuSans-20" x="367.626953"/>
      <use xlink:href="#DejaVuSans-44" x="399.414062"/>
      <use xlink:href="#DejaVuSans-61" x="476.416016"/>
      <use xlink:href="#DejaVuSans-79" x="537.695312"/>
      <use xlink:href="#DejaVuSans-73" x="596.875"/>
     </g>
    </g>
   </g>
   <g id="matplotlib.axis_2">
    <g id="ytick_1">
     <g id="line2d_8">
      <defs>
       <path id="ma7a931b7a6" d="M 0 0 
L -3.5 0 
" style="stroke: #000000; stroke-width: 0.8"/>
      </defs>
      <g>
       <use xlink:href="#ma7a931b7a6" x="43.78125" y="354.958125" style="stroke: #000000; stroke-width: 0.8"/>
      </g>
     </g>
     <g id="text_9">
      <!-- 0.0 -->
      <g transform="translate(20.878125 358.757344) scale(0.1 -0.1)">
       <defs>
        <path id="DejaVuSans-2e" d="M 684 794 
L 1344 794 
L 1344 0 
L 684 0 
L 684 794 
z
" transform="scale(0.015625)"/>
       </defs>
       <use xlink:href="#DejaVuSans-30"/>
       <use xlink:href="#DejaVuSans-2e" x="63.623047"/>
       <use xlink:href="#DejaVuSans-30" x="95.410156"/>
      </g>
     </g>
    </g>
    <g id="ytick_2">
     <g id="line2d_9">
      <g>
       <use xlink:href="#ma7a931b7a6" x="43.78125" y="289.088818" style="stroke: #000000; stroke-width: 0.8"/>
      </g>
     </g>
     <g id="text_10">
      <!-- 0.2 -->
      <g transform="translate(20.878125 292.888037) scale(0.1 -0.1)">
       <use xlink:href="#DejaVuSans-30"/>
       <use xlink:href="#DejaVuSans-2e" x="63.623047"/>
       <use xlink:href="#DejaVuSans-32" x="95.410156"/>
      </g>
     </g>
    </g>
    <g id="ytick_3">
     <g id="line2d_10">
      <g>
       <use xlink:href="#ma7a931b7a6" x="43.78125" y="223.219511" style="stroke: #000000; stroke-width: 0.8"/>
      </g>
     </g>
     <g id="text_11">
      <!-- 0.4 -->
      <g transform="translate(20.878125 227.01873) scale(0.1 -0.1)">
       <use xlink:href="#DejaVuSans-30"/>
       <use xlink:href="#DejaVuSans-2e" x="63.623047"/>
       <use xlink:href="#DejaVuSans-34" x="95.410156"/>
      </g>
     </g>
    </g>
    <g id="ytick_4">
     <g id="line2d_11">
      <g>
       <use xlink:href="#ma7a931b7a6" x="43.78125" y="157.350204" style="stroke: #000000; stroke-width: 0.8"/>
      </g>
     </g>
     <g id="text_12">
      <!-- 0.6 -->
      <g transform="translate(20.878125 161.149423) scale(0.1 -0.1)">
       <use xlink:href="#DejaVuSans-30"/>
       <use xlink:href="#DejaVuSans-2e" x="63.623047"/>
       <use xlink:href="#DejaVuSans-36" x="95.410156"/>
      </g>
     </g>
    </g>
    <g id="ytick_5">
     <g id="line2d_12">
      <g>
       <use xlink:href="#ma7a931b7a6" x="43.78125" y="91.480897" style="stroke: #000000; stroke-width: 0.8"/>
      </g>
     </g>
     <g id="text_13">
      <!-- 0.8 -->
      <g transform="translate(20.878125 95.280116) scale(0.1 -0.1)">
       <defs>
        <path id="DejaVuSans-38" d="M 2034 2216 
Q 1584 2216 1326 1975 
Q 1069 1734 1069 1313 
Q 1069 891 1326 650 
Q 1584 409 2034 409 
Q 2484 409 2743 651 
Q 3003 894 3003 1313 
Q 3003 1734 2745 1975 
Q 2488 2216 2034 2216 
z
M 1403 2484 
Q 997 2584 770 2862 
Q 544 3141 544 3541 
Q 544 4100 942 4425 
Q 1341 4750 2034 4750 
Q 2731 4750 3128 4425 
Q 3525 4100 3525 3541 
Q 3525 3141 3298 2862 
Q 3072 2584 2669 2484 
Q 3125 2378 3379 2068 
Q 3634 1759 3634 1313 
Q 3634 634 3220 271 
Q 2806 -91 2034 -91 
Q 1263 -91 848 271 
Q 434 634 434 1313 
Q 434 1759 690 2068 
Q 947 2378 1403 2484 
z
M 1172 3481 
Q 1172 3119 1398 2916 
Q 1625 2713 2034 2713 
Q 2441 2713 2670 2916 
Q 2900 3119 2900 3481 
Q 2900 3844 2670 4047 
Q 2441 4250 2034 4250 
Q 1625 4250 1398 4047 
Q 1172 3844 1172 3481 
z
" transform="scale(0.015625)"/>
       </defs>
       <use xlink:href="#DejaVuSans-30"/>
       <use xlink:href="#DejaVuSans-2e" x="63.623047"/>
       <use xlink:href="#DejaVuSans-38" x="95.410156"/>
      </g>
     </g>
    </g>
    <g id="ytick_6">
     <g id="line2d_13">
      <g>
       <use xlink:href="#ma7a931b7a6" x="43.78125" y="25.61159" style="stroke: #000000; stroke-width: 0.8"/>
      </g>
     </g>
     <g id="text_14">
      <!-- 1.0 -->
      <g transform="translate(20.878125 29.410809) scale(0.1 -0.1)">
       <use xlink:href="#DejaVuSans-31"/>
       <use xlink:href="#DejaVuSans-2e" x="63.623047"/>
       <use xlink:href="#DejaVuSans-30" x="95.410156"/>
      </g>
     </g>
    </g>
    <g id="text_15">
     <!-- Survival Probability -->
     <g transform="translate(14.798438 236.815469) rotate(-90) scale(0.1 -0.1)">
      <defs>
       <path id="DejaVuSans-53" d="M 3425 4513 
L 3425 3897 
Q 3066 4069 2747 4153 
Q 2428 4238 2131 4238 
Q 1616 4238 1336 4038 
Q 1056 3838 1056 3469 
Q 1056 3159 1242 3001 
Q 1428 2844 1947 2747 
L 2328 2669 
Q 3034 2534 3370 2195 
Q 3706 1856 3706 1288 
Q 3706 609 3251 259 
Q 2797 -91 1919 -91 
Q 1588 -91 1214 -16 
Q 841 59 441 206 
L 441 856 
Q 825 641 1194 531 
Q 1563 422 1919 422 
Q 2459 422 2753 634 
Q 3047 847 3047 1241 
Q 3047 1584 2836 1778 
Q 2625 1972 2144 2069 
L 1759 2144 
Q 1053 2284 737 2584 
Q 422 2884 422 3419 
Q 422 4038 858 4394 
Q 1294 4750 2059 4750 
Q 2388 4750 2728 4690 
Q 3069 4631 3425 4513 
z
" transform="scale(0.015625)"/>
       <path id="DejaVuSans-75" d="M 544 1381 
L 544 3500 
L 1119 3500 
L 1119 1403 
Q 1119 906 1312 657 
Q 1506 409 1894 409 
Q 2359 409 2629 706 
Q 2900 1003 2900 1516 
L 2900 3500 
L 3475 3500 
L 3475 0 
L 2900 0 
L 2900 538 
Q 2691 219 2414 64 
Q 2138 -91 1772 -91 
Q 1169 -91 856 284 
Q 544 659 544 1381 
z
M 1991 3584 
L 1991 3584 
z
" transform="scale(0.015625)"/>
       <path id="DejaVuSans-72" d="M 2631 2963 
Q 2534 3019 2420 3045 
Q 2306 3072 2169 3072 
Q 1681 3072 1420 2755 
Q 1159 2438 1159 1844 
L 1159 0 
L 581 0 
L 581 3500 
L 1159 3500 
L 1159 2956 
Q 1341 3275 1631 3429 
Q 1922 3584 2338 3584 
Q 2397 3584 2469 3576 
Q 2541 3569 2628 3553 
L 2631 2963 
z
" transform="scale(0.015625)"/>
       <path id="DejaVuSans-76" d="M 191 3500 
L 800 3500 
L 1894 563 
L 2988 3500 
L 3597 3500 
L 2284 0 
L 1503 0 
L 191 3500 
z
" transform="scale(0.015625)"/>
       <path id="DejaVuSans-6c" d="M 603 4863 
L 1178 4863 
L 1178 0 
L 603 0 
L 603 4863 
z
" transform="scale(0.015625)"/>
       <path id="DejaVuSans-50" d="M 1259 4147 
L 1259 2394 
L 2053 2394 
Q 2494 2394 2734 2622 
Q 2975 2850 2975 3272 
Q 2975 3691 2734 3919 
Q 2494 4147 2053 4147 
L 1259 4147 
z
M 628 4666 
L 2053 4666 
Q 2838 4666 3239 4311 
Q 3641 3956 3641 3272 
Q 3641 2581 3239 2228 
Q 2838 1875 2053 1875 
L 1259 1875 
L 1259 0 
L 628 0 
L 628 4666 
z
" transform="scale(0.015625)"/>
       <path id="DejaVuSans-6f" d="M 1959 3097 
Q 1497 3097 1228 2736 
Q 959 2375 959 1747 
Q 959 1119 1226 758 
Q 1494 397 1959 397 
Q 2419 397 2687 759 
Q 2956 1122 2956 1747 
Q 2956 2369 2687 2733 
Q 2419 3097 1959 3097 
z
M 1959 3584 
Q 2709 3584 3137 3096 
Q 3566 2609 3566 1747 
Q 3566 888 3137 398 
Q 2709 -91 1959 -91 
Q 1206 -91 779 398 
Q 353 888 353 1747 
Q 353 2609 779 3096 
Q 1206 3584 1959 3584 
z
" transform="scale(0.015625)"/>
       <path id="DejaVuSans-62" d="M 3116 1747 
Q 3116 2381 2855 2742 
Q 2594 3103 2138 3103 
Q 1681 3103 1420 2742 
Q 1159 2381 1159 1747 
Q 1159 1113 1420 752 
Q 1681 391 2138 391 
Q 2594 391 2855 752 
Q 3116 1113 3116 1747 
z
M 1159 2969 
Q 1341 3281 1617 3432 
Q 1894 3584 2278 3584 
Q 2916 3584 3314 3078 
Q 3713 2572 3713 1747 
Q 3713 922 3314 415 
Q 2916 -91 2278 -91 
Q 1894 -91 1617 61 
Q 1341 213 1159 525 
L 1159 0 
L 581 0 
L 581 4863 
L 1159 4863 
L 1159 2969 
z
" transform="scale(0.015625)"/>
       <path id="DejaVuSans-74" d="M 1172 4494 
L 1172 3500 
L 2356 3500 
L 2356 3053 
L 1172 3053 
L 1172 1153 
Q 1172 725 1289 603 
Q 1406 481 1766 481 
L 2356 481 
L 2356 0 
L 1766 0 
Q 1100 0 847 248 
Q 594 497 594 1153 
L 594 3053 
L 172 3053 
L 172 3500 
L 594 3500 
L 594 4494 
L 1172 4494 
z
" transform="scale(0.015625)"/>
      </defs>
      <use xlink:href="#DejaVuSans-53"/>
      <use xlink:href="#DejaVuSans-75" x="63.476562"/>
      <use xlink:href="#DejaVuSans-72" x="126.855469"/>
      <use xlink:href="#DejaVuSans-76" x="167.96875"/>
      <use xlink:href="#DejaVuSans-69" x="227.148438"/>
      <use xlink:href="#DejaVuSans-76" x="254.931641"/>
      <use xlink:href="#DejaVuSans-61" x="314.111328"/>
      <use xlink:href="#DejaVuSans-6c" x="375.390625"/>
      <use xlink:href="#DejaVuSans-20" x="403.173828"/>
      <use xlink:href="#DejaVuSans-50" x="434.960938"/>
      <use xlink:href="#DejaVuSans-72" x="493.513672"/>
      <use xlink:href="#DejaVuSans-6f" x="532.376953"/>
      <use xlink:href="#DejaVuSans-62" x="593.558594"/>
      <use xlink:href="#DejaVuSans-61" x="657.035156"/>
      <use xlink:href="#DejaVuSans-62" x="718.314453"/>
      <use xlink:href="#DejaVuSans-69" x="781.791016"/>
      <use xlink:href="#DejaVuSans-6c" x="809.574219"/>
      <use xlink:href="#DejaVuSans-69" x="837.357422"/>
      <use xlink:href="#DejaVuSans-74" x="865.140625"/>
      <use xlink:href="#DejaVuSans-79" x="904.349609"/>
     </g>
    </g>
   </g>
   <g id="line2d_14">
    <path d="M 69.144886 26.285118 
L 73.30286 26.285118 
L 73.30286 26.962743 
L 75.150848 26.962743 
L 75.150848 27.64064 
L 76.151841 27.64064 
L 76.151841 28.319743 
L 81.079809 28.319743 
L 81.079809 29.007673 
L 83.620793 29.007673 
L 83.620793 29.700884 
L 83.851791 29.700884 
L 83.851791 30.393637 
L 84.159789 30.393637 
L 84.159789 31.089009 
L 84.313788 31.089009 
L 84.313788 32.479795 
L 85.006784 32.479795 
L 85.006784 33.176679 
L 85.160783 33.176679 
L 85.160783 33.876334 
L 86.623774 33.876334 
L 86.623774 34.582536 
L 88.394762 34.582536 
L 88.394762 35.292211 
L 88.933759 35.292211 
L 88.933759 36.007399 
L 93.630728 36.007399 
L 93.630728 36.725194 
L 94.785721 36.725194 
L 94.785721 37.454993 
L 95.940713 37.454993 
L 95.940713 38.915346 
L 96.248712 38.915346 
L 96.248712 40.383514 
L 97.095706 40.383514 
L 97.095706 41.119814 
L 97.480704 41.119814 
L 97.480704 41.855482 
L 98.327698 41.855482 
L 98.327698 42.594549 
L 99.328692 42.594549 
L 99.328692 43.334664 
L 99.944688 43.334664 
L 99.944688 44.091116 
L 100.021687 44.091116 
L 100.175686 44.091116 
L 100.252686 45.608983 
L 100.483684 45.608983 
L 100.483684 46.370719 
L 100.945681 46.370719 
L 100.945681 47.131504 
L 102.177673 47.131504 
L 102.177673 47.891172 
L 103.178667 47.891172 
L 103.178667 49.408651 
L 103.871662 49.408651 
L 103.871662 50.17303 
L 104.17966 50.17303 
L 104.17966 50.94243 
L 104.872656 50.94243 
L 104.872656 51.713299 
L 105.026655 51.713299 
L 105.103654 53.268721 
L 105.71965 53.268721 
L 105.71965 54.048181 
L 106.335646 54.048181 
L 106.335646 54.829371 
L 106.566645 54.829371 
L 106.643644 56.397467 
L 107.490639 56.397467 
L 107.490639 57.184133 
L 108.414633 57.184133 
L 108.414633 57.970135 
L 108.722631 57.970135 
L 108.722631 58.756613 
L 109.723625 58.756613 
L 109.723625 59.54274 
L 109.877624 59.54274 
L 109.877624 60.330212 
L 110.955617 60.330212 
L 110.955617 61.116627 
L 113.804598 61.116627 
L 113.881598 62.703905 
L 114.497594 62.703905 
L 114.574593 64.29422 
L 116.422581 64.29422 
L 116.422581 65.097937 
L 119.271563 65.097937 
L 119.271563 65.911685 
L 122.967539 65.911685 
L 122.967539 66.732211 
L 123.660535 66.732211 
L 123.660535 67.561789 
L 124.199531 67.561789 
L 124.199531 68.395048 
L 124.815527 68.395048 
L 124.815527 69.226477 
L 126.971513 69.226477 
L 126.971513 70.060263 
L 127.202512 70.060263 
L 127.202512 70.893421 
L 128.588503 70.893421 
L 128.665502 71.729374 
L 128.665502 71.729374 
L 129.666496 71.729374 
L 129.666496 72.565831 
L 133.131474 72.565831 
L 133.131474 73.413522 
L 133.362472 73.413522 
L 133.362472 75.113224 
L 135.21046 75.113224 
L 135.21046 75.967905 
L 136.673451 75.967905 
L 136.673451 76.833111 
L 136.904449 76.833111 
L 136.904449 77.706216 
L 137.443446 77.706216 
L 137.443446 78.578342 
L 139.676431 78.578342 
L 139.676431 79.450864 
L 146.298389 79.450864 
L 146.298389 80.33817 
L 148.993371 80.33817 
L 148.993371 81.232498 
L 149.686367 81.232498 
L 149.686367 82.13448 
L 149.763366 82.13448 
L 150.071364 82.13448 
L 150.071364 83.039462 
L 150.841359 83.039462 
L 150.841359 83.945883 
L 151.457355 83.945883 
L 151.457355 84.853631 
L 154.306337 84.853631 
L 154.306337 85.778576 
L 154.460336 85.778576 
L 154.460336 86.70404 
L 154.691334 86.70404 
L 154.691334 87.628373 
L 156.92432 87.628373 
L 156.92432 88.554609 
L 158.618309 88.554609 
L 158.618309 89.478437 
L 159.619303 89.478437 
L 159.619303 90.403245 
L 159.927301 90.403245 
L 159.927301 91.327963 
L 162.853282 91.327963 
L 162.853282 92.261018 
L 163.315279 92.261018 
L 163.315279 93.193039 
L 167.78125 93.193039 
L 167.78125 94.139278 
L 167.85825 94.139278 
L 171.477226 94.139278 
L 171.477226 95.098518 
L 173.094216 95.098518 
L 173.094216 96.05679 
L 174.095209 96.05679 
L 174.095209 97.014743 
L 175.789198 97.014743 
L 175.789198 97.979809 
L 176.097196 97.979809 
L 176.097196 98.942954 
L 179.485174 98.942954 
L 179.485174 99.941224 
L 180.17817 99.941224 
L 180.17817 100.938599 
L 186.800127 100.938599 
L 186.800127 101.962998 
L 195.65507 101.962998 
L 195.65507 103.035737 
L 198.73505 103.035737 
L 198.73505 104.120033 
L 204.741012 104.120033 
L 204.741012 105.248447 
L 208.359988 105.248447 
L 208.359988 106.406419 
L 222.989894 106.406419 
L 222.989894 107.660564 
L 232.383833 107.660564 
L 232.460833 109.022901 
L 232.460833 109.022901 
L 247.167738 109.022901 
L 247.167738 110.547373 
L 253.789695 110.547373 
L 253.789695 112.115124 
L 284.435497 112.115124 
L 284.435497 114.250496 
L 286.591483 114.250496 
L 286.591483 116.443288 
L 361.512 116.443288 
L 361.512 121.42767 
L 576.417614 121.42767 
L 576.417614 121.42767 
" clip-path="url(#p9f9246b6f1)" style="fill: none; stroke: #2a5acb; stroke-width: 1.5; stroke-linecap: square"/>
   </g>
   <g id="line2d_15">
    <path d="M 69.144886 26.147262 
L 73.30286 26.147262 
L 73.30286 26.686419 
L 75.150848 26.686419 
L 75.150848 27.226021 
L 76.151841 27.226021 
L 76.151841 27.766813 
L 81.079809 27.766813 
L 81.079809 28.314868 
L 83.620793 28.314868 
L 83.620793 28.867371 
L 83.851791 28.867371 
L 83.851791 29.41975 
L 84.159789 29.41975 
L 84.159789 29.97446 
L 84.313788 29.97446 
L 84.313788 31.084646 
L 85.006784 31.084646 
L 85.006784 31.641298 
L 85.160783 31.641298 
L 85.160783 32.200412 
L 86.623774 32.200412 
L 86.623774 32.76501 
L 88.394762 32.76501 
L 88.394762 33.332643 
L 88.933759 33.332643 
L 88.933759 33.904946 
L 93.630728 33.904946 
L 93.630728 34.4796 
L 94.785721 34.4796 
L 94.785721 35.064136 
L 95.940713 35.064136 
L 95.940713 36.23464 
L 96.248712 36.23464 
L 96.248712 37.412525 
L 97.095706 37.412525 
L 97.095706 38.00367 
L 97.480704 38.00367 
L 97.480704 38.59459 
L 98.327698 38.59459 
L 98.327698 39.188528 
L 99.328692 39.188528 
L 99.328692 39.783597 
L 99.944688 39.783597 
L 99.944688 40.3921 
L 100.021687 40.3921 
L 100.175686 40.3921 
L 100.252686 41.614013 
L 100.483684 41.614013 
L 100.483684 42.227688 
L 100.945681 42.227688 
L 100.945681 42.840908 
L 102.177673 42.840908 
L 102.177673 43.453537 
L 103.178667 43.453537 
L 103.178667 44.678228 
L 103.871662 44.678228 
L 103.871662 45.295596 
L 104.17966 45.295596 
L 104.17966 45.91734 
L 104.872656 45.91734 
L 104.872656 46.540595 
L 105.026655 46.540595 
L 105.103654 47.799157 
L 105.71965 47.799157 
L 105.71965 48.430352 
L 106.335646 48.430352 
L 106.335646 49.063285 
L 106.566645 49.063285 
L 106.643644 50.334802 
L 107.490639 50.334802 
L 107.490639 50.973199 
L 108.414633 50.973199 
L 108.414633 51.611402 
L 108.722631 51.611402 
L 108.722631 52.250337 
L 109.723625 52.250337 
L 109.723625 52.889335 
L 109.877624 52.889335 
L 109.877624 53.529776 
L 110.955617 53.529776 
L 110.955617 54.169706 
L 113.804598 54.169706 
L 113.881598 55.462395 
L 114.497594 55.462395 
L 114.574593 56.758999 
L 116.422581 56.758999 
L 116.422581 57.414833 
L 119.271563 57.414833 
L 119.271563 58.079232 
L 122.967539 58.079232 
L 122.967539 58.749553 
L 123.660535 58.749553 
L 123.660535 59.427666 
L 124.199531 59.427666 
L 124.199531 60.109191 
L 124.815527 60.109191 
L 124.815527 60.789625 
L 126.971513 60.789625 
L 126.971513 61.472395 
L 127.202512 61.472395 
L 127.202512 62.15506 
L 128.588503 62.15506 
L 128.588503 62.840427 
L 128.665502 62.840427 
L 129.666496 62.840427 
L 129.666496 63.526623 
L 133.131474 63.526623 
L 133.131474 64.222459 
L 133.362472 64.222459 
L 133.362472 65.618973 
L 135.21046 65.618973 
L 135.21046 66.321854 
L 136.673451 66.321854 
L 136.673451 67.033841 
L 136.904449 67.033841 
L 136.904449 67.752787 
L 137.443446 67.752787 
L 137.443446 68.471391 
L 139.676431 68.471391 
L 139.676431 69.190785 
L 146.298389 69.190785 
L 146.298389 69.922849 
L 148.993371 69.922849 
L 148.993371 70.661196 
L 149.686367 70.661196 
L 149.686367 71.406363 
L 149.763366 71.406363 
L 150.071364 71.406363 
L 150.071364 72.154515 
L 150.841359 72.154515 
L 150.841359 72.904369 
L 151.457355 72.904369 
L 151.457355 73.655836 
L 154.306337 73.655836 
L 154.306337 74.42207 
L 154.460336 74.42207 
L 154.460336 75.189275 
L 154.691334 75.189275 
L 154.691334 75.956084 
L 156.92432 75.956084 
L 156.92432 76.725017 
L 158.618309 76.725017 
L 158.618309 77.492496 
L 159.619303 77.492496 
L 159.619303 78.261337 
L 159.927301 78.261337 
L 159.927301 79.030654 
L 162.853282 79.030654 
L 162.853282 79.807469 
L 163.315279 79.807469 
L 163.315279 80.583986 
L 167.78125 80.583986 
L 167.78125 81.372928 
L 167.85825 81.372928 
L 171.477226 81.372928 
L 171.477226 82.17331 
L 173.094216 82.17331 
L 173.094216 82.973488 
L 174.095209 82.973488 
L 174.095209 83.774006 
L 175.789198 83.774006 
L 175.789198 84.581084 
L 176.097196 84.581084 
L 176.097196 85.387176 
L 179.485174 85.387176 
L 179.485174 86.22332 
L 180.17817 86.22332 
L 180.17817 87.059384 
L 186.800127 87.059384 
L 186.800127 87.918802 
L 195.65507 87.918802 
L 195.65507 88.819539 
L 198.73505 88.819539 
L 198.73505 89.73078 
L 204.741012 89.73078 
L 204.741012 90.679954 
L 208.359988 90.679954 
L 208.359988 91.654904 
L 222.989894 91.654904 
L 222.989894 92.711879 
L 232.383833 92.711879 
L 232.383833 93.86128 
L 232.460833 93.86128 
L 247.167738 93.86128 
L 247.167738 95.149022 
L 253.789695 95.149022 
L 253.789695 96.475039 
L 284.435497 96.475039 
L 284.435497 98.283981 
L 286.591483 98.283981 
L 286.591483 100.14499 
L 361.512 100.14499 
L 361.512 104.388315 
L 576.417614 104.388315 
L 576.417614 104.388315 
" clip-path="url(#p9f9246b6f1)" style="fill: none; stroke: #3256aa; stroke-width: 1.5; stroke-linecap: square"/>
   </g>
   <g id="line2d_16">
    <path d="M 69.144886 26.078851 
L 73.30286 26.078851 
L 73.30286 26.549252 
L 75.150848 26.549252 
L 75.150848 27.020139 
L 76.151841 27.020139 
L 76.151841 27.492163 
L 81.079809 27.492163 
L 81.079809 27.970629 
L 83.620793 27.970629 
L 83.620793 28.453082 
L 83.851791 28.453082 
L 83.851791 28.935531 
L 84.159789 28.935531 
L 84.159789 29.420121 
L 84.313788 29.420121 
L 84.313788 30.390289 
L 85.006784 30.390289 
L 85.006784 30.876895 
L 85.160783 30.876895 
L 85.160783 31.365761 
L 86.623774 31.365761 
L 86.623774 31.859532 
L 88.394762 31.859532 
L 88.394762 32.356068 
L 88.933759 32.356068 
L 88.933759 32.856804 
L 93.630728 32.856804 
L 93.630728 33.35971 
L 94.785721 33.35971 
L 94.785721 33.871384 
L 95.940713 33.871384 
L 95.940713 34.896344 
L 96.248712 34.896344 
L 96.248712 35.928252 
L 97.095706 35.928252 
L 97.095706 36.446321 
L 97.480704 36.446321 
L 97.480704 36.964315 
L 98.327698 36.964315 
L 98.327698 37.485079 
L 99.328692 37.485079 
L 99.328692 38.006961 
L 99.944688 38.006961 
L 99.944688 38.540755 
L 100.021687 38.540755 
L 100.175686 38.540755 
L 100.252686 39.613046 
L 100.483684 39.613046 
L 100.483684 40.151779 
L 100.945681 40.151779 
L 100.945681 40.690247 
L 102.177673 40.690247 
L 102.177673 41.228331 
L 103.178667 41.228331 
L 103.178667 42.304407 
L 103.871662 42.304407 
L 103.871662 42.847064 
L 104.17966 42.847064 
L 104.17966 43.393707 
L 104.872656 43.393707 
L 104.872656 43.941819 
L 105.026655 43.941819 
L 105.103654 45.049076 
L 105.71965 45.049076 
L 105.71965 45.604606 
L 106.335646 45.604606 
L 106.335646 46.161813 
L 106.566645 46.161813 
L 106.643644 47.281647 
L 107.490639 47.281647 
L 107.490639 47.844112 
L 108.414633 47.844112 
L 108.414633 48.406558 
L 108.722631 48.406558 
L 108.722631 48.9698 
L 109.723625 48.9698 
L 109.723625 49.53325 
L 109.877624 49.53325 
L 109.877624 50.098125 
L 110.955617 50.098125 
L 110.955617 50.662703 
L 113.804598 50.662703 
L 113.881598 51.803645 
L 114.497594 51.803645 
L 114.574593 52.948676 
L 116.422581 52.948676 
L 116.422581 53.528085 
L 119.271563 53.528085 
L 119.271563 54.115227 
L 122.967539 54.115227 
L 122.967539 54.707773 
L 123.660535 54.707773 
L 123.660535 55.307381 
L 124.199531 55.307381 
L 124.199531 55.910183 
L 124.815527 55.910183 
L 124.815527 56.512198 
L 126.971513 56.512198 
L 126.971513 57.116459 
L 127.202512 57.116459 
L 127.202512 57.720806 
L 128.588503 57.720806 
L 128.588503 58.327727 
L 128.665502 58.327727 
L 129.666496 58.327727 
L 129.666496 58.935563 
L 133.131474 58.935563 
L 133.131474 59.552127 
L 133.362472 59.552127 
L 133.362472 60.790113 
L 135.21046 60.790113 
L 135.21046 61.413494 
L 136.673451 61.413494 
L 136.673451 62.045148 
L 136.904449 62.045148 
L 136.904449 62.683179 
L 137.443446 62.683179 
L 137.443446 63.321111 
L 139.676431 63.321111 
L 139.676431 63.959949 
L 146.298389 63.959949 
L 146.298389 64.610249 
L 148.993371 64.610249 
L 148.993371 65.266346 
L 149.686367 65.266346 
L 149.686367 65.928725 
L 149.763366 65.928725 
L 150.071364 65.928725 
L 150.071364 66.593981 
L 150.841359 66.593981 
L 150.841359 67.260976 
L 151.457355 67.260976 
L 151.457355 67.929633 
L 154.306337 67.929633 
L 154.306337 68.611666 
L 154.460336 68.611666 
L 154.460336 69.2948 
L 154.691334 69.2948 
L 154.691334 69.977822 
L 156.92432 69.977822 
L 156.92432 70.662976 
L 158.618309 70.662976 
L 158.618309 71.347077 
L 159.619303 71.347077 
L 159.619303 72.032633 
L 159.927301 72.032633 
L 159.927301 72.718858 
L 162.853282 72.718858 
L 162.853282 73.412019 
L 163.315279 73.412019 
L 163.315279 74.105164 
L 167.78125 74.105164 
L 167.78125 74.809658 
L 167.85825 74.809658 
L 171.477226 74.809658 
L 171.477226 75.524631 
L 173.094216 75.524631 
L 173.094216 76.239691 
L 174.095209 76.239691 
L 174.095209 76.955324 
L 175.789198 76.955324 
L 175.789198 77.677094 
L 176.097196 77.677094 
L 176.097196 78.398257 
L 179.485174 78.398257 
L 179.485174 79.146598 
L 180.17817 79.146598 
L 180.17817 79.895165 
L 186.800127 79.895165 
L 186.800127 80.664952 
L 195.65507 80.664952 
L 195.65507 81.47209 
L 198.73505 81.47209 
L 198.73505 82.288995 
L 204.741012 82.288995 
L 204.741012 83.140287 
L 208.359988 83.140287 
L 208.359988 84.015105 
L 222.989894 84.015105 
L 222.989894 84.96399 
L 232.383833 84.96399 
L 232.383833 85.996406 
L 232.460833 85.996406 
L 247.167738 85.996406 
L 247.167738 87.153772 
L 253.789695 87.153772 
L 253.789695 88.346305 
L 284.435497 88.346305 
L 284.435497 89.97441 
L 286.591483 89.97441 
L 286.591483 91.650908 
L 361.512 91.650908 
L 361.512 95.479402 
L 576.417614 95.479402 
L 576.417614 95.479402 
" clip-path="url(#p9f9246b6f1)" style="fill: none; stroke: #3a528a; stroke-width: 1.5; stroke-linecap: square"/>
   </g>
   <g id="line2d_17">
    <path d="M 69.144886 26.033251 
L 73.30286 26.033251 
L 73.30286 26.457804 
L 75.150848 26.457804 
L 75.150848 26.882855 
L 76.151841 26.882855 
L 76.151841 27.308993 
L 81.079809 27.308993 
L 81.079809 27.741008 
L 83.620793 27.741008 
L 83.620793 28.176685 
L 83.851791 28.176685 
L 83.851791 28.612422 
L 84.159789 28.612422 
L 84.159789 29.050155 
L 84.313788 29.050155 
L 84.313788 29.926706 
L 85.006784 29.926706 
L 85.006784 30.366452 
L 85.160783 30.366452 
L 85.160783 30.808306 
L 86.623774 30.808306 
L 86.623774 31.25466 
L 88.394762 31.25466 
L 88.394762 31.703581 
L 88.933759 31.703581 
L 88.933759 32.156366 
L 93.630728 32.156366 
L 93.630728 32.611184 
L 94.785721 32.611184 
L 94.785721 33.074001 
L 95.940713 33.074001 
L 95.940713 34.001312 
L 96.248712 34.001312 
L 96.248712 34.935203 
L 97.095706 34.935203 
L 97.095706 35.404173 
L 97.480704 35.404173 
L 97.480704 35.87315 
L 98.327698 35.87315 
L 98.327698 36.34471 
L 99.328692 36.34471 
L 99.328692 36.817358 
L 99.944688 36.817358 
L 99.944688 37.300873 
L 100.021687 37.300873 
L 100.175686 37.300873 
L 100.252686 38.272404 
L 100.483684 38.272404 
L 100.483684 38.760635 
L 100.945681 38.760635 
L 100.945681 39.248708 
L 102.177673 39.248708 
L 102.177673 39.736515 
L 103.178667 39.736515 
L 103.178667 40.712289 
L 103.871662 40.712289 
L 103.871662 41.20449 
L 104.17966 41.20449 
L 104.17966 41.700389 
L 104.872656 41.700389 
L 104.872656 42.197708 
L 105.026655 42.197708 
L 105.103654 43.202615 
L 105.71965 43.202615 
L 105.71965 43.706927 
L 106.335646 43.706927 
L 106.335646 44.212849 
L 106.566645 44.212849 
L 106.643644 45.229886 
L 107.490639 45.229886 
L 107.490639 45.740855 
L 108.414633 45.740855 
L 108.414633 46.251898 
L 108.722631 46.251898 
L 108.722631 46.763756 
L 109.723625 46.763756 
L 109.723625 47.275895 
L 109.877624 47.275895 
L 109.877624 47.789422 
L 110.955617 47.789422 
L 110.955617 48.302772 
L 113.804598 48.302772 
L 113.881598 49.340472 
L 114.497594 49.340472 
L 114.574593 50.382274 
L 116.422581 50.382274 
L 116.422581 50.909595 
L 119.271563 50.909595 
L 119.271563 51.444053 
L 122.967539 51.444053 
L 122.967539 51.983535 
L 123.660535 51.983535 
L 123.660535 52.529552 
L 124.199531 52.529552 
L 124.199531 53.078585 
L 124.815527 53.078585 
L 124.815527 53.627009 
L 126.971513 53.627009 
L 126.971513 54.177587 
L 127.202512 54.177587 
L 127.202512 54.728354 
L 128.588503 54.728354 
L 128.588503 55.281576 
L 128.665502 55.281576 
L 129.666496 55.281576 
L 129.666496 55.835743 
L 133.131474 55.835743 
L 133.131474 56.39798 
L 133.362472 56.39798 
L 133.362472 57.527232 
L 135.21046 57.527232 
L 135.21046 58.096036 
L 136.673451 58.096036 
L 136.673451 58.672509 
L 136.904449 58.672509 
L 136.904449 59.254926 
L 137.443446 59.254926 
L 137.443446 59.837376 
L 139.676431 59.837376 
L 139.676431 60.420778 
L 146.298389 60.420778 
L 146.298389 61.014776 
L 148.993371 61.014776 
L 148.993371 61.6142 
L 149.686367 61.6142 
L 149.686367 62.219499 
L 149.763366 62.219499 
L 150.071364 62.219499 
L 150.071364 62.827562 
L 150.841359 62.827562 
L 150.841359 63.437354 
L 151.457355 63.437354 
L 151.457355 64.048802 
L 154.306337 64.048802 
L 154.306337 64.672626 
L 154.460336 64.672626 
L 154.460336 65.297603 
L 154.691334 65.297603 
L 154.691334 65.922623 
L 156.92432 65.922623 
L 156.92432 66.54974 
L 158.618309 66.54974 
L 158.618309 67.176041 
L 159.619303 67.176041 
L 159.619303 67.803823 
L 159.927301 67.803823 
L 159.927301 68.432366 
L 162.853282 68.432366 
L 162.853282 69.067413 
L 163.315279 69.067413 
L 163.315279 69.702598 
L 167.78125 69.702598 
L 167.78125 70.34834 
L 167.85825 70.34834 
L 171.477226 70.34834 
L 171.477226 71.00385 
L 173.094216 71.00385 
L 173.094216 71.659603 
L 174.095209 71.659603 
L 174.095209 72.316046 
L 175.789198 72.316046 
L 175.789198 72.978285 
L 176.097196 72.978285 
L 176.097196 73.640136 
L 179.485174 73.640136 
L 179.485174 74.327108 
L 180.17817 74.327108 
L 180.17817 75.014469 
L 186.800127 75.014469 
L 186.800127 75.721506 
L 195.65507 75.721506 
L 195.65507 76.463057 
L 198.73505 76.463057 
L 198.73505 77.213799 
L 204.741012 77.213799 
L 204.741012 77.996378 
L 208.359988 77.996378 
L 208.359988 78.800832 
L 222.989894 78.800832 
L 222.989894 79.673683 
L 232.383833 79.673683 
L 232.383833 80.623711 
L 232.460833 80.623711 
L 247.167738 80.623711 
L 247.167738 81.689143 
L 253.789695 81.689143 
L 253.789695 82.787418 
L 284.435497 82.787418 
L 284.435497 84.287613 
L 286.591483 84.287613 
L 286.591483 85.833341 
L 361.512 85.833341 
L 361.512 89.366818 
L 576.417614 89.366818 
L 576.417614 89.366818 
" clip-path="url(#p9f9246b6f1)" style="fill: none; stroke: #424e69; stroke-width: 1.5; stroke-linecap: square"/>
   </g>
   <g id="line2d_18">
    <path d="M 69.144886 25.983279 
L 73.30286 25.983279 
L 73.30286 26.357575 
L 75.150848 26.357575 
L 75.150848 26.732368 
L 76.151841 26.732368 
L 76.151841 27.108176 
L 81.079809 27.108176 
L 81.079809 27.489227 
L 83.620793 27.489227 
L 83.620793 27.873568 
L 83.851791 27.873568 
L 83.851791 28.258022 
L 84.159789 28.258022 
L 84.159789 28.6443 
L 84.313788 28.6443 
L 84.313788 29.417996 
L 85.006784 29.417996 
L 85.006784 29.806236 
L 85.160783 29.806236 
L 85.160783 30.1964 
L 86.623774 30.1964 
L 86.623774 30.590601 
L 88.394762 30.590601 
L 88.394762 30.987133 
L 88.933759 30.987133 
L 88.933759 31.387146 
L 93.630728 31.387146 
L 93.630728 31.789021 
L 94.785721 31.789021 
L 94.785721 32.198034 
L 95.940713 32.198034 
L 95.940713 33.01775 
L 96.248712 33.01775 
L 96.248712 33.843567 
L 97.095706 33.843567 
L 97.095706 34.258373 
L 97.480704 34.258373 
L 97.480704 34.673259 
L 98.327698 34.673259 
L 98.327698 35.090502 
L 99.328692 35.090502 
L 99.328692 35.508781 
L 99.944688 35.508781 
L 99.944688 35.936752 
L 100.021687 35.936752 
L 100.175686 35.936752 
L 100.252686 36.796915 
L 100.483684 36.796915 
L 100.483684 37.229297 
L 100.945681 37.229297 
L 100.945681 37.661618 
L 102.177673 37.661618 
L 102.177673 38.093783 
L 103.178667 38.093783 
L 103.178667 38.958493 
L 103.871662 38.958493 
L 103.871662 39.394791 
L 104.17966 39.394791 
L 104.17966 39.83445 
L 104.872656 39.83445 
L 104.872656 40.27545 
L 105.026655 40.27545 
L 105.103654 41.16681 
L 105.71965 41.16681 
L 105.71965 41.614268 
L 106.335646 41.614268 
L 106.335646 42.06324 
L 106.566645 42.06324 
L 106.643644 42.966055 
L 107.490639 42.966055 
L 107.490639 43.419771 
L 108.414633 43.419771 
L 108.414633 43.87364 
L 108.722631 43.87364 
L 108.722631 44.328324 
L 109.723625 44.328324 
L 109.723625 44.783347 
L 109.877624 44.783347 
L 109.877624 45.239692 
L 110.955617 45.239692 
L 110.955617 45.695971 
L 113.804598 45.695971 
L 113.881598 46.618583 
L 114.497594 46.618583 
L 114.574593 47.545217 
L 116.422581 47.545217 
L 116.422581 48.014386 
L 119.271563 48.014386 
L 119.271563 48.490005 
L 122.967539 48.490005 
L 122.967539 48.970194 
L 123.660535 48.970194 
L 123.660535 49.456304 
L 124.199531 49.456304 
L 124.199531 49.945204 
L 124.815527 49.945204 
L 124.815527 50.433667 
L 126.971513 50.433667 
L 126.971513 50.924155 
L 127.202512 50.924155 
L 127.202512 51.414917 
L 128.588503 51.414917 
L 128.588503 51.907974 
L 128.665502 51.907974 
L 129.666496 51.907974 
L 129.666496 52.401982 
L 133.131474 52.401982 
L 133.131474 52.903295 
L 133.362472 52.903295 
L 133.362472 53.910519 
L 135.21046 53.910519 
L 135.21046 54.418029 
L 136.673451 54.418029 
L 136.673451 54.9325 
L 136.904449 54.9325 
L 136.904449 55.452396 
L 137.443446 55.452396 
L 137.443446 55.972442 
L 139.676431 55.972442 
L 139.676431 56.493461 
L 146.298389 56.493461 
L 146.298389 57.024068 
L 148.993371 57.024068 
L 148.993371 57.559652 
L 149.686367 57.559652 
L 149.686367 58.100616 
L 149.763366 58.100616 
L 150.071364 58.100616 
L 150.071364 58.644184 
L 150.841359 58.644184 
L 150.841359 59.189432 
L 151.457355 59.189432 
L 151.457355 59.736298 
L 154.306337 59.736298 
L 154.306337 60.294371 
L 154.460336 60.294371 
L 154.460336 60.85362 
L 154.691334 60.85362 
L 154.691334 61.413049 
L 156.92432 61.413049 
L 156.92432 61.974501 
L 158.618309 61.974501 
L 158.618309 62.535366 
L 159.619303 62.535366 
L 159.619303 63.097702 
L 159.927301 63.097702 
L 159.927301 63.660866 
L 162.853282 63.660866 
L 162.853282 64.230007 
L 163.315279 64.230007 
L 163.315279 64.799421 
L 167.78125 64.799421 
L 167.78125 65.378453 
L 167.85825 65.378453 
L 171.477226 65.378453 
L 171.477226 65.966404 
L 173.094216 65.966404 
L 173.094216 66.554733 
L 174.095209 66.554733 
L 174.095209 67.143843 
L 175.789198 67.143843 
L 175.789198 67.73832 
L 176.097196 67.73832 
L 176.097196 68.332613 
L 179.485174 68.332613 
L 179.485174 68.949638 
L 180.17817 68.949638 
L 180.17817 69.567193 
L 186.800127 69.567193 
L 186.800127 70.202612 
L 195.65507 70.202612 
L 195.65507 70.869255 
L 198.73505 70.869255 
L 198.73505 71.544375 
L 204.741012 71.544375 
L 204.741012 72.248354 
L 208.359988 72.248354 
L 208.359988 72.972258 
L 222.989894 72.972258 
L 222.989894 73.757993 
L 232.383833 73.757993 
L 232.383833 74.613539 
L 232.460833 74.613539 
L 247.167738 74.613539 
L 247.167738 75.573429 
L 253.789695 75.573429 
L 253.789695 76.563373 
L 284.435497 76.563373 
L 284.435497 77.91636 
L 286.591483 77.91636 
L 286.591483 79.311341 
L 361.512 79.311341 
L 361.512 82.503797 
L 576.417614 82.503797 
L 576.417614 82.503797 
" clip-path="url(#p9f9246b6f1)" style="fill: none; stroke: #4a4a4a; stroke-width: 1.5; stroke-linecap: square"/>
   </g>
   <g id="patch_3">
    <path d="M 43.78125 354.958125 
L 43.78125 22.318125 
" style="fill: none; stroke: #000000; stroke-width: 0.8; stroke-linejoin: miter; stroke-linecap: square"/>
   </g>
   <g id="patch_4">
    <path d="M 601.78125 354.958125 
L 601.78125 22.318125 
" style="fill: none; stroke: #000000; stroke-width: 0.8; stroke-linejoin: miter; stroke-linecap: square"/>
   </g>
   <g id="patch_5">
    <path d="M 43.78125 354.958125 
L 601.78125 354.958125 
" style="fill: none; stroke: #000000; stroke-width: 0.8; stroke-linejoin: miter; stroke-linecap: square"/>
   </g>
   <g id="patch_6">
    <path d="M 43.78125 22.318125 
L 601.78125 22.318125 
" style="fill: none; stroke: #000000; stroke-width: 0.8; stroke-linejoin: miter; stroke-linecap: square"/>
   </g>
   <g id="text_16">
    <!-- p-value: 0.406922 -->
    <g transform="translate(499.349375 36.569362) scale(0.1 -0.1)">
     <defs>
      <path id="DejaVuSans-70" d="M 1159 525 
L 1159 -1331 
L 581 -1331 
L 581 3500 
L 1159 3500 
L 1159 2969 
Q 1341 3281 1617 3432 
Q 1894 3584 2278 3584 
Q 2916 3584 3314 3078 
Q 3713 2572 3713 1747 
Q 3713 922 3314 415 
Q 2916 -91 2278 -91 
Q 1894 -91 1617 61 
Q 1341 213 1159 525 
z
M 3116 1747 
Q 3116 2381 2855 2742 
Q 2594 3103 2138 3103 
Q 1681 3103 1420 2742 
Q 1159 2381 1159 1747 
Q 1159 1113 1420 752 
Q 1681 391 2138 391 
Q 2594 391 2855 752 
Q 3116 1113 3116 1747 
z
" transform="scale(0.015625)"/>
      <path id="DejaVuSans-2d" d="M 313 2009 
L 1997 2009 
L 1997 1497 
L 313 1497 
L 313 2009 
z
" transform="scale(0.015625)"/>
      <path id="DejaVuSans-3a" d="M 750 794 
L 1409 794 
L 1409 0 
L 750 0 
L 750 794 
z
M 750 3309 
L 1409 3309 
L 1409 2516 
L 750 2516 
L 750 3309 
z
" transform="scale(0.015625)"/>
      <path id="DejaVuSans-39" d="M 703 97 
L 703 672 
Q 941 559 1184 500 
Q 1428 441 1663 441 
Q 2288 441 2617 861 
Q 2947 1281 2994 2138 
Q 2813 1869 2534 1725 
Q 2256 1581 1919 1581 
Q 1219 1581 811 2004 
Q 403 2428 403 3163 
Q 403 3881 828 4315 
Q 1253 4750 1959 4750 
Q 2769 4750 3195 4129 
Q 3622 3509 3622 2328 
Q 3622 1225 3098 567 
Q 2575 -91 1691 -91 
Q 1453 -91 1209 -44 
Q 966 3 703 97 
z
M 1959 2075 
Q 2384 2075 2632 2365 
Q 2881 2656 2881 3163 
Q 2881 3666 2632 3958 
Q 2384 4250 1959 4250 
Q 1534 4250 1286 3958 
Q 1038 3666 1038 3163 
Q 1038 2656 1286 2365 
Q 1534 2075 1959 2075 
z
" transform="scale(0.015625)"/>
     </defs>
     <use xlink:href="#DejaVuSans-70"/>
     <use xlink:href="#DejaVuSans-2d" x="63.476562"/>
     <use xlink:href="#DejaVuSans-76" x="96.935547"/>
     <use xlink:href="#DejaVuSans-61" x="156.115234"/>
     <use xlink:href="#DejaVuSans-6c" x="217.394531"/>
     <use xlink:href="#DejaVuSans-75" x="245.177734"/>
     <use xlink:href="#DejaVuSans-65" x="308.556641"/>
     <use xlink:href="#DejaVuSans-3a" x="370.080078"/>
     <use xlink:href="#DejaVuSans-20" x="403.771484"/>
     <use xlink:href="#DejaVuSans-30" x="435.558594"/>
     <use xlink:href="#DejaVuSans-2e" x="499.181641"/>
     <use xlink:href="#DejaVuSans-34" x="530.96875"/>
     <use xlink:href="#DejaVuSans-30" x="594.591797"/>
     <use xlink:href="#DejaVuSans-36" x="658.214844"/>
     <use xlink:href="#DejaVuSans-39" x="721.837891"/>
     <use xlink:href="#DejaVuSans-32" x="785.460938"/>
     <use xlink:href="#DejaVuSans-32" x="849.083984"/>
    </g>
   </g>
   <g id="text_17">
    <!-- Effect of Fetus Signature Expression on Survival Adjusted for Confoundings -->
    <g transform="translate(97.438125 16.318125) scale(0.12 -0.12)">
     <defs>
      <path id="DejaVuSans-45" d="M 628 4666 
L 3578 4666 
L 3578 4134 
L 1259 4134 
L 1259 2753 
L 3481 2753 
L 3481 2222 
L 1259 2222 
L 1259 531 
L 3634 531 
L 3634 0 
L 628 0 
L 628 4666 
z
" transform="scale(0.015625)"/>
      <path id="DejaVuSans-66" d="M 2375 4863 
L 2375 4384 
L 1825 4384 
Q 1516 4384 1395 4259 
Q 1275 4134 1275 3809 
L 1275 3500 
L 2222 3500 
L 2222 3053 
L 1275 3053 
L 1275 0 
L 697 0 
L 697 3053 
L 147 3053 
L 147 3500 
L 697 3500 
L 697 3744 
Q 697 4328 969 4595 
Q 1241 4863 1831 4863 
L 2375 4863 
z
" transform="scale(0.015625)"/>
      <path id="DejaVuSans-63" d="M 3122 3366 
L 3122 2828 
Q 2878 2963 2633 3030 
Q 2388 3097 2138 3097 
Q 1578 3097 1268 2742 
Q 959 2388 959 1747 
Q 959 1106 1268 751 
Q 1578 397 2138 397 
Q 2388 397 2633 464 
Q 2878 531 3122 666 
L 3122 134 
Q 2881 22 2623 -34 
Q 2366 -91 2075 -91 
Q 1284 -91 818 406 
Q 353 903 353 1747 
Q 353 2603 823 3093 
Q 1294 3584 2113 3584 
Q 2378 3584 2631 3529 
Q 2884 3475 3122 3366 
z
" transform="scale(0.015625)"/>
      <path id="DejaVuSans-46" d="M 628 4666 
L 3309 4666 
L 3309 4134 
L 1259 4134 
L 1259 2759 
L 3109 2759 
L 3109 2228 
L 1259 2228 
L 1259 0 
L 628 0 
L 628 4666 
z
" transform="scale(0.015625)"/>
      <path id="DejaVuSans-67" d="M 2906 1791 
Q 2906 2416 2648 2759 
Q 2391 3103 1925 3103 
Q 1463 3103 1205 2759 
Q 947 2416 947 1791 
Q 947 1169 1205 825 
Q 1463 481 1925 481 
Q 2391 481 2648 825 
Q 2906 1169 2906 1791 
z
M 3481 434 
Q 3481 -459 3084 -895 
Q 2688 -1331 1869 -1331 
Q 1566 -1331 1297 -1286 
Q 1028 -1241 775 -1147 
L 775 -588 
Q 1028 -725 1275 -790 
Q 1522 -856 1778 -856 
Q 2344 -856 2625 -561 
Q 2906 -266 2906 331 
L 2906 616 
Q 2728 306 2450 153 
Q 2172 0 1784 0 
Q 1141 0 747 490 
Q 353 981 353 1791 
Q 353 2603 747 3093 
Q 1141 3584 1784 3584 
Q 2172 3584 2450 3431 
Q 2728 3278 2906 2969 
L 2906 3500 
L 3481 3500 
L 3481 434 
z
" transform="scale(0.015625)"/>
      <path id="DejaVuSans-78" d="M 3513 3500 
L 2247 1797 
L 3578 0 
L 2900 0 
L 1881 1375 
L 863 0 
L 184 0 
L 1544 1831 
L 300 3500 
L 978 3500 
L 1906 2253 
L 2834 3500 
L 3513 3500 
z
" transform="scale(0.015625)"/>
      <path id="DejaVuSans-41" d="M 2188 4044 
L 1331 1722 
L 3047 1722 
L 2188 4044 
z
M 1831 4666 
L 2547 4666 
L 4325 0 
L 3669 0 
L 3244 1197 
L 1141 1197 
L 716 0 
L 50 0 
L 1831 4666 
z
" transform="scale(0.015625)"/>
      <path id="DejaVuSans-64" d="M 2906 2969 
L 2906 4863 
L 3481 4863 
L 3481 0 
L 2906 0 
L 2906 525 
Q 2725 213 2448 61 
Q 2172 -91 1784 -91 
Q 1150 -91 751 415 
Q 353 922 353 1747 
Q 353 2572 751 3078 
Q 1150 3584 1784 3584 
Q 2172 3584 2448 3432 
Q 2725 3281 2906 2969 
z
M 947 1747 
Q 947 1113 1208 752 
Q 1469 391 1925 391 
Q 2381 391 2643 752 
Q 2906 1113 2906 1747 
Q 2906 2381 2643 2742 
Q 2381 3103 1925 3103 
Q 1469 3103 1208 2742 
Q 947 2381 947 1747 
z
" transform="scale(0.015625)"/>
      <path id="DejaVuSans-6a" d="M 603 3500 
L 1178 3500 
L 1178 -63 
Q 1178 -731 923 -1031 
Q 669 -1331 103 -1331 
L -116 -1331 
L -116 -844 
L 38 -844 
Q 366 -844 484 -692 
Q 603 -541 603 -63 
L 603 3500 
z
M 603 4863 
L 1178 4863 
L 1178 4134 
L 603 4134 
L 603 4863 
z
" transform="scale(0.015625)"/>
      <path id="DejaVuSans-43" d="M 4122 4306 
L 4122 3641 
Q 3803 3938 3442 4084 
Q 3081 4231 2675 4231 
Q 1875 4231 1450 3742 
Q 1025 3253 1025 2328 
Q 1025 1406 1450 917 
Q 1875 428 2675 428 
Q 3081 428 3442 575 
Q 3803 722 4122 1019 
L 4122 359 
Q 3791 134 3420 21 
Q 3050 -91 2638 -91 
Q 1578 -91 968 557 
Q 359 1206 359 2328 
Q 359 3453 968 4101 
Q 1578 4750 2638 4750 
Q 3056 4750 3426 4639 
Q 3797 4528 4122 4306 
z
" transform="scale(0.015625)"/>
     </defs>
     <use xlink:href="#DejaVuSans-45"/>
     <use xlink:href="#DejaVuSans-66" x="63.183594"/>
     <use xlink:href="#DejaVuSans-66" x="98.388672"/>
     <use xlink:href="#DejaVuSans-65" x="133.59375"/>
     <use xlink:href="#DejaVuSans-63" x="195.117188"/>
     <use xlink:href="#DejaVuSans-74" x="250.097656"/>
     <use xlink:href="#DejaVuSans-20" x="289.306641"/>
     <use xlink:href="#DejaVuSans-6f" x="321.09375"/>
     <use xlink:href="#DejaVuSans-66" x="382.275391"/>
     <use xlink:href="#DejaVuSans-20" x="417.480469"/>
     <use xlink:href="#DejaVuSans-46" x="449.267578"/>
     <use xlink:href="#DejaVuSans-65" x="501.287109"/>
     <use xlink:href="#DejaVuSans-74" x="562.810547"/>
     <use xlink:href="#DejaVuSans-75" x="602.019531"/>
     <use xlink:href="#DejaVuSans-73" x="665.398438"/>
     <use xlink:href="#DejaVuSans-20" x="717.498047"/>
     <use xlink:href="#DejaVuSans-53" x="749.285156"/>
     <use xlink:href="#DejaVuSans-69" x="812.761719"/>
     <use xlink:href="#DejaVuSans-67" x="840.544922"/>
     <use xlink:href="#DejaVuSans-6e" x="904.021484"/>
     <use xlink:href="#DejaVuSans-61" x="967.400391"/>
     <use xlink:href="#DejaVuSans-74" x="1028.679688"/>
     <use xlink:href="#DejaVuSans-75" x="1067.888672"/>
     <use xlink:href="#DejaVuSans-72" x="1131.267578"/>
     <use xlink:href="#DejaVuSans-65" x="1170.130859"/>
     <use xlink:href="#DejaVuSans-20" x="1231.654297"/>
     <use xlink:href="#DejaVuSans-45" x="1263.441406"/>
     <use xlink:href="#DejaVuSans-78" x="1326.625"/>
     <use xlink:href="#DejaVuSans-70" x="1385.804688"/>
     <use xlink:href="#DejaVuSans-72" x="1449.28125"/>
     <use xlink:href="#DejaVuSans-65" x="1488.144531"/>
     <use xlink:href="#DejaVuSans-73" x="1549.667969"/>
     <use xlink:href="#DejaVuSans-73" x="1601.767578"/>
     <use xlink:href="#DejaVuSans-69" x="1653.867188"/>
     <use xlink:href="#DejaVuSans-6f" x="1681.650391"/>
     <use xlink:href="#DejaVuSans-6e" x="1742.832031"/>
     <use xlink:href="#DejaVuSans-20" x="1806.210938"/>
     <use xlink:href="#DejaVuSans-6f" x="1837.998047"/>
     <use xlink:href="#DejaVuSans-6e" x="1899.179688"/>
     <use xlink:href="#DejaVuSans-20" x="1962.558594"/>
     <use xlink:href="#DejaVuSans-53" x="1994.345703"/>
     <use xlink:href="#DejaVuSans-75" x="2057.822266"/>
     <use xlink:href="#DejaVuSans-72" x="2121.201172"/>
     <use xlink:href="#DejaVuSans-76" x="2162.314453"/>
     <use xlink:href="#DejaVuSans-69" x="2221.494141"/>
     <use xlink:href="#DejaVuSans-76" x="2249.277344"/>
     <use xlink:href="#DejaVuSans-61" x="2308.457031"/>
     <use xlink:href="#DejaVuSans-6c" x="2369.736328"/>
     <use xlink:href="#DejaVuSans-20" x="2397.519531"/>
     <use xlink:href="#DejaVuSans-41" x="2429.306641"/>
     <use xlink:href="#DejaVuSans-64" x="2495.964844"/>
     <use xlink:href="#DejaVuSans-6a" x="2559.441406"/>
     <use xlink:href="#DejaVuSans-75" x="2587.224609"/>
     <use xlink:href="#DejaVuSans-73" x="2650.603516"/>
     <use xlink:href="#DejaVuSans-74" x="2702.703125"/>
     <use xlink:href="#DejaVuSans-65" x="2741.912109"/>
     <use xlink:href="#DejaVuSans-64" x="2803.435547"/>
     <use xlink:href="#DejaVuSans-20" x="2866.912109"/>
     <use xlink:href="#DejaVuSans-66" x="2898.699219"/>
     <use xlink:href="#DejaVuSans-6f" x="2933.904297"/>
     <use xlink:href="#DejaVuSans-72" x="2995.085938"/>
     <use xlink:href="#DejaVuSans-20" x="3036.199219"/>
     <use xlink:href="#DejaVuSans-43" x="3067.986328"/>
     <use xlink:href="#DejaVuSans-6f" x="3137.810547"/>
     <use xlink:href="#DejaVuSans-6e" x="3198.992188"/>
     <use xlink:href="#DejaVuSans-66" x="3262.371094"/>
     <use xlink:href="#DejaVuSans-6f" x="3297.576172"/>
     <use xlink:href="#DejaVuSans-75" x="3358.757812"/>
     <use xlink:href="#DejaVuSans-6e" x="3422.136719"/>
     <use xlink:href="#DejaVuSans-64" x="3485.515625"/>
     <use xlink:href="#DejaVuSans-69" x="3548.992188"/>
     <use xlink:href="#DejaVuSans-6e" x="3576.775391"/>
     <use xlink:href="#DejaVuSans-67" x="3640.154297"/>
     <use xlink:href="#DejaVuSans-73" x="3703.630859"/>
    </g>
   </g>
  </g>
 </g>
 <defs>
  <clipPath id="p9f9246b6f1">
   <rect x="43.78125" y="22.318125" width="558" height="332.64"/>
  </clipPath>
 </defs>
</svg>
