<?xml version="1.0" encoding="utf-8" standalone="no"?>
<!DOCTYPE svg PUBLIC "-//W3C//DTD SVG 1.1//EN"
  "http://www.w3.org/Graphics/SVG/1.1/DTD/svg11.dtd">
<svg xmlns:xlink="http://www.w3.org/1999/xlink" width="608.98125pt" height="392.514375pt" viewBox="0 0 608.98125 392.514375" xmlns="http://www.w3.org/2000/svg" version="1.1">
 <metadata>
  <rdf:RDF xmlns:dc="http://purl.org/dc/elements/1.1/" xmlns:cc="http://creativecommons.org/ns#" xmlns:rdf="http://www.w3.org/1999/02/22-rdf-syntax-ns#">
   <cc:Work>
    <dc:type rdf:resource="http://purl.org/dc/dcmitype/StillImage"/>
    <dc:date>2024-07-08T09:39:41.309150</dc:date>
    <dc:format>image/svg+xml</dc:format>
    <dc:creator>
     <cc:Agent>
      <dc:title>Matplotlib v3.9.0, https://matplotlib.org/</dc:title>
     </cc:Agent>
    </dc:creator>
   </cc:Work>
  </rdf:RDF>
 </metadata>
 <defs>
  <style type="text/css">*{stroke-linejoin: round; stroke-linecap: butt}</style>
 </defs>
 <g id="figure_1">
  <g id="patch_1">
   <path d="M 0 392.514375 
L 608.98125 392.514375 
L 608.98125 0 
L 0 0 
z
" style="fill: #ffffff"/>
  </g>
  <g id="axes_1">
   <g id="patch_2">
    <path d="M 43.78125 354.958125 
L 601.78125 354.958125 
L 601.78125 22.318125 
L 43.78125 22.318125 
z
" style="fill: #ffffff"/>
   </g>
   <g id="matplotlib.axis_1">
    <g id="xtick_1">
     <g id="line2d_1">
      <defs>
       <path id="m71df55b9ec" d="M 0 0 
L 0 3.5 
" style="stroke: #000000; stroke-width: 0.8"/>
      </defs>
      <g>
       <use xlink:href="#m71df55b9ec" x="68.220892" y="354.958125" style="stroke: #000000; stroke-width: 0.8"/>
      </g>
     </g>
     <g id="text_1">
      <!-- 0 -->
      <g transform="translate(65.039642 369.556562) scale(0.1 -0.1)">
       <defs>
        <path id="DejaVuSans-30" d="M 2034 4250 
Q 1547 4250 1301 3770 
Q 1056 3291 1056 2328 
Q 1056 1369 1301 889 
Q 1547 409 2034 409 
Q 2525 409 2770 889 
Q 3016 1369 3016 2328 
Q 3016 3291 2770 3770 
Q 2525 4250 2034 4250 
z
M 2034 4750 
Q 2819 4750 3233 4129 
Q 3647 3509 3647 2328 
Q 3647 1150 3233 529 
Q 2819 -91 2034 -91 
Q 1250 -91 836 529 
Q 422 1150 422 2328 
Q 422 3509 836 4129 
Q 1250 4750 2034 4750 
z
" transform="scale(0.015625)"/>
       </defs>
       <use xlink:href="#DejaVuSans-30"/>
      </g>
     </g>
    </g>
    <g id="xtick_2">
     <g id="line2d_2">
      <g>
       <use xlink:href="#m71df55b9ec" x="145.220396" y="354.958125" style="stroke: #000000; stroke-width: 0.8"/>
      </g>
     </g>
     <g id="text_2">
      <!-- 1000 -->
      <g transform="translate(132.495396 369.556562) scale(0.1 -0.1)">
       <defs>
        <path id="DejaVuSans-31" d="M 794 531 
L 1825 531 
L 1825 4091 
L 703 3866 
L 703 4441 
L 1819 4666 
L 2450 4666 
L 2450 531 
L 3481 531 
L 3481 0 
L 794 0 
L 794 531 
z
" transform="scale(0.015625)"/>
       </defs>
       <use xlink:href="#DejaVuSans-31"/>
       <use xlink:href="#DejaVuSans-30" x="63.623047"/>
       <use xlink:href="#DejaVuSans-30" x="127.246094"/>
       <use xlink:href="#DejaVuSans-30" x="190.869141"/>
      </g>
     </g>
    </g>
    <g id="xtick_3">
     <g id="line2d_3">
      <g>
       <use xlink:href="#m71df55b9ec" x="222.219899" y="354.958125" style="stroke: #000000; stroke-width: 0.8"/>
      </g>
     </g>
     <g id="text_3">
      <!-- 2000 -->
      <g transform="translate(209.494899 369.556562) scale(0.1 -0.1)">
       <defs>
        <path id="DejaVuSans-32" d="M 1228 531 
L 3431 531 
L 3431 0 
L 469 0 
L 469 531 
Q 828 903 1448 1529 
Q 2069 2156 2228 2338 
Q 2531 2678 2651 2914 
Q 2772 3150 2772 3378 
Q 2772 3750 2511 3984 
Q 2250 4219 1831 4219 
Q 1534 4219 1204 4116 
Q 875 4013 500 3803 
L 500 4441 
Q 881 4594 1212 4672 
Q 1544 4750 1819 4750 
Q 2544 4750 2975 4387 
Q 3406 4025 3406 3419 
Q 3406 3131 3298 2873 
Q 3191 2616 2906 2266 
Q 2828 2175 2409 1742 
Q 1991 1309 1228 531 
z
" transform="scale(0.015625)"/>
       </defs>
       <use xlink:href="#DejaVuSans-32"/>
       <use xlink:href="#DejaVuSans-30" x="63.623047"/>
       <use xlink:href="#DejaVuSans-30" x="127.246094"/>
       <use xlink:href="#DejaVuSans-30" x="190.869141"/>
      </g>
     </g>
    </g>
    <g id="xtick_4">
     <g id="line2d_4">
      <g>
       <use xlink:href="#m71df55b9ec" x="299.219402" y="354.958125" style="stroke: #000000; stroke-width: 0.8"/>
      </g>
     </g>
     <g id="text_4">
      <!-- 3000 -->
      <g transform="translate(286.494402 369.556562) scale(0.1 -0.1)">
       <defs>
        <path id="DejaVuSans-33" d="M 2597 2516 
Q 3050 2419 3304 2112 
Q 3559 1806 3559 1356 
Q 3559 666 3084 287 
Q 2609 -91 1734 -91 
Q 1441 -91 1130 -33 
Q 819 25 488 141 
L 488 750 
Q 750 597 1062 519 
Q 1375 441 1716 441 
Q 2309 441 2620 675 
Q 2931 909 2931 1356 
Q 2931 1769 2642 2001 
Q 2353 2234 1838 2234 
L 1294 2234 
L 1294 2753 
L 1863 2753 
Q 2328 2753 2575 2939 
Q 2822 3125 2822 3475 
Q 2822 3834 2567 4026 
Q 2313 4219 1838 4219 
Q 1578 4219 1281 4162 
Q 984 4106 628 3988 
L 628 4550 
Q 988 4650 1302 4700 
Q 1616 4750 1894 4750 
Q 2613 4750 3031 4423 
Q 3450 4097 3450 3541 
Q 3450 3153 3228 2886 
Q 3006 2619 2597 2516 
z
" transform="scale(0.015625)"/>
       </defs>
       <use xlink:href="#DejaVuSans-33"/>
       <use xlink:href="#DejaVuSans-30" x="63.623047"/>
       <use xlink:href="#DejaVuSans-30" x="127.246094"/>
       <use xlink:href="#DejaVuSans-30" x="190.869141"/>
      </g>
     </g>
    </g>
    <g id="xtick_5">
     <g id="line2d_5">
      <g>
       <use xlink:href="#m71df55b9ec" x="376.218905" y="354.958125" style="stroke: #000000; stroke-width: 0.8"/>
      </g>
     </g>
     <g id="text_5">
      <!-- 4000 -->
      <g transform="translate(363.493905 369.556562) scale(0.1 -0.1)">
       <defs>
        <path id="DejaVuSans-34" d="M 2419 4116 
L 825 1625 
L 2419 1625 
L 2419 4116 
z
M 2253 4666 
L 3047 4666 
L 3047 1625 
L 3713 1625 
L 3713 1100 
L 3047 1100 
L 3047 0 
L 2419 0 
L 2419 1100 
L 313 1100 
L 313 1709 
L 2253 4666 
z
" transform="scale(0.015625)"/>
       </defs>
       <use xlink:href="#DejaVuSans-34"/>
       <use xlink:href="#DejaVuSans-30" x="63.623047"/>
       <use xlink:href="#DejaVuSans-30" x="127.246094"/>
       <use xlink:href="#DejaVuSans-30" x="190.869141"/>
      </g>
     </g>
    </g>
    <g id="xtick_6">
     <g id="line2d_6">
      <g>
       <use xlink:href="#m71df55b9ec" x="453.218408" y="354.958125" style="stroke: #000000; stroke-width: 0.8"/>
      </g>
     </g>
     <g id="text_6">
      <!-- 5000 -->
      <g transform="translate(440.493408 369.556562) scale(0.1 -0.1)">
       <defs>
        <path id="DejaVuSans-35" d="M 691 4666 
L 3169 4666 
L 3169 4134 
L 1269 4134 
L 1269 2991 
Q 1406 3038 1543 3061 
Q 1681 3084 1819 3084 
Q 2600 3084 3056 2656 
Q 3513 2228 3513 1497 
Q 3513 744 3044 326 
Q 2575 -91 1722 -91 
Q 1428 -91 1123 -41 
Q 819 9 494 109 
L 494 744 
Q 775 591 1075 516 
Q 1375 441 1709 441 
Q 2250 441 2565 725 
Q 2881 1009 2881 1497 
Q 2881 1984 2565 2268 
Q 2250 2553 1709 2553 
Q 1456 2553 1204 2497 
Q 953 2441 691 2322 
L 691 4666 
z
" transform="scale(0.015625)"/>
       </defs>
       <use xlink:href="#DejaVuSans-35"/>
       <use xlink:href="#DejaVuSans-30" x="63.623047"/>
       <use xlink:href="#DejaVuSans-30" x="127.246094"/>
       <use xlink:href="#DejaVuSans-30" x="190.869141"/>
      </g>
     </g>
    </g>
    <g id="xtick_7">
     <g id="line2d_7">
      <g>
       <use xlink:href="#m71df55b9ec" x="530.217912" y="354.958125" style="stroke: #000000; stroke-width: 0.8"/>
      </g>
     </g>
     <g id="text_7">
      <!-- 6000 -->
      <g transform="translate(517.492912 369.556562) scale(0.1 -0.1)">
       <defs>
        <path id="DejaVuSans-36" d="M 2113 2584 
Q 1688 2584 1439 2293 
Q 1191 2003 1191 1497 
Q 1191 994 1439 701 
Q 1688 409 2113 409 
Q 2538 409 2786 701 
Q 3034 994 3034 1497 
Q 3034 2003 2786 2293 
Q 2538 2584 2113 2584 
z
M 3366 4563 
L 3366 3988 
Q 3128 4100 2886 4159 
Q 2644 4219 2406 4219 
Q 1781 4219 1451 3797 
Q 1122 3375 1075 2522 
Q 1259 2794 1537 2939 
Q 1816 3084 2150 3084 
Q 2853 3084 3261 2657 
Q 3669 2231 3669 1497 
Q 3669 778 3244 343 
Q 2819 -91 2113 -91 
Q 1303 -91 875 529 
Q 447 1150 447 2328 
Q 447 3434 972 4092 
Q 1497 4750 2381 4750 
Q 2619 4750 2861 4703 
Q 3103 4656 3366 4563 
z
" transform="scale(0.015625)"/>
       </defs>
       <use xlink:href="#DejaVuSans-36"/>
       <use xlink:href="#DejaVuSans-30" x="63.623047"/>
       <use xlink:href="#DejaVuSans-30" x="127.246094"/>
       <use xlink:href="#DejaVuSans-30" x="190.869141"/>
      </g>
     </g>
    </g>
    <g id="text_8">
     <!-- Time in Days -->
     <g transform="translate(290.333594 383.234687) scale(0.1 -0.1)">
      <defs>
       <path id="DejaVuSans-54" d="M -19 4666 
L 3928 4666 
L 3928 4134 
L 2272 4134 
L 2272 0 
L 1638 0 
L 1638 4134 
L -19 4134 
L -19 4666 
z
" transform="scale(0.015625)"/>
       <path id="DejaVuSans-69" d="M 603 3500 
L 1178 3500 
L 1178 0 
L 603 0 
L 603 3500 
z
M 603 4863 
L 1178 4863 
L 1178 4134 
L 603 4134 
L 603 4863 
z
" transform="scale(0.015625)"/>
       <path id="DejaVuSans-6d" d="M 3328 2828 
Q 3544 3216 3844 3400 
Q 4144 3584 4550 3584 
Q 5097 3584 5394 3201 
Q 5691 2819 5691 2113 
L 5691 0 
L 5113 0 
L 5113 2094 
Q 5113 2597 4934 2840 
Q 4756 3084 4391 3084 
Q 3944 3084 3684 2787 
Q 3425 2491 3425 1978 
L 3425 0 
L 2847 0 
L 2847 2094 
Q 2847 2600 2669 2842 
Q 2491 3084 2119 3084 
Q 1678 3084 1418 2786 
Q 1159 2488 1159 1978 
L 1159 0 
L 581 0 
L 581 3500 
L 1159 3500 
L 1159 2956 
Q 1356 3278 1631 3431 
Q 1906 3584 2284 3584 
Q 2666 3584 2933 3390 
Q 3200 3197 3328 2828 
z
" transform="scale(0.015625)"/>
       <path id="DejaVuSans-65" d="M 3597 1894 
L 3597 1613 
L 953 1613 
Q 991 1019 1311 708 
Q 1631 397 2203 397 
Q 2534 397 2845 478 
Q 3156 559 3463 722 
L 3463 178 
Q 3153 47 2828 -22 
Q 2503 -91 2169 -91 
Q 1331 -91 842 396 
Q 353 884 353 1716 
Q 353 2575 817 3079 
Q 1281 3584 2069 3584 
Q 2775 3584 3186 3129 
Q 3597 2675 3597 1894 
z
M 3022 2063 
Q 3016 2534 2758 2815 
Q 2500 3097 2075 3097 
Q 1594 3097 1305 2825 
Q 1016 2553 972 2059 
L 3022 2063 
z
" transform="scale(0.015625)"/>
       <path id="DejaVuSans-20" transform="scale(0.015625)"/>
       <path id="DejaVuSans-6e" d="M 3513 2113 
L 3513 0 
L 2938 0 
L 2938 2094 
Q 2938 2591 2744 2837 
Q 2550 3084 2163 3084 
Q 1697 3084 1428 2787 
Q 1159 2491 1159 1978 
L 1159 0 
L 581 0 
L 581 3500 
L 1159 3500 
L 1159 2956 
Q 1366 3272 1645 3428 
Q 1925 3584 2291 3584 
Q 2894 3584 3203 3211 
Q 3513 2838 3513 2113 
z
" transform="scale(0.015625)"/>
       <path id="DejaVuSans-44" d="M 1259 4147 
L 1259 519 
L 2022 519 
Q 2988 519 3436 956 
Q 3884 1394 3884 2338 
Q 3884 3275 3436 3711 
Q 2988 4147 2022 4147 
L 1259 4147 
z
M 628 4666 
L 1925 4666 
Q 3281 4666 3915 4102 
Q 4550 3538 4550 2338 
Q 4550 1131 3912 565 
Q 3275 0 1925 0 
L 628 0 
L 628 4666 
z
" transform="scale(0.015625)"/>
       <path id="DejaVuSans-61" d="M 2194 1759 
Q 1497 1759 1228 1600 
Q 959 1441 959 1056 
Q 959 750 1161 570 
Q 1363 391 1709 391 
Q 2188 391 2477 730 
Q 2766 1069 2766 1631 
L 2766 1759 
L 2194 1759 
z
M 3341 1997 
L 3341 0 
L 2766 0 
L 2766 531 
Q 2569 213 2275 61 
Q 1981 -91 1556 -91 
Q 1019 -91 701 211 
Q 384 513 384 1019 
Q 384 1609 779 1909 
Q 1175 2209 1959 2209 
L 2766 2209 
L 2766 2266 
Q 2766 2663 2505 2880 
Q 2244 3097 1772 3097 
Q 1472 3097 1187 3025 
Q 903 2953 641 2809 
L 641 3341 
Q 956 3463 1253 3523 
Q 1550 3584 1831 3584 
Q 2591 3584 2966 3190 
Q 3341 2797 3341 1997 
z
" transform="scale(0.015625)"/>
       <path id="DejaVuSans-79" d="M 2059 -325 
Q 1816 -950 1584 -1140 
Q 1353 -1331 966 -1331 
L 506 -1331 
L 506 -850 
L 844 -850 
Q 1081 -850 1212 -737 
Q 1344 -625 1503 -206 
L 1606 56 
L 191 3500 
L 800 3500 
L 1894 763 
L 2988 3500 
L 3597 3500 
L 2059 -325 
z
" transform="scale(0.015625)"/>
       <path id="DejaVuSans-73" d="M 2834 3397 
L 2834 2853 
Q 2591 2978 2328 3040 
Q 2066 3103 1784 3103 
Q 1356 3103 1142 2972 
Q 928 2841 928 2578 
Q 928 2378 1081 2264 
Q 1234 2150 1697 2047 
L 1894 2003 
Q 2506 1872 2764 1633 
Q 3022 1394 3022 966 
Q 3022 478 2636 193 
Q 2250 -91 1575 -91 
Q 1294 -91 989 -36 
Q 684 19 347 128 
L 347 722 
Q 666 556 975 473 
Q 1284 391 1588 391 
Q 1994 391 2212 530 
Q 2431 669 2431 922 
Q 2431 1156 2273 1281 
Q 2116 1406 1581 1522 
L 1381 1569 
Q 847 1681 609 1914 
Q 372 2147 372 2553 
Q 372 3047 722 3315 
Q 1072 3584 1716 3584 
Q 2034 3584 2315 3537 
Q 2597 3491 2834 3397 
z
" transform="scale(0.015625)"/>
      </defs>
      <use xlink:href="#DejaVuSans-54"/>
      <use xlink:href="#DejaVuSans-69" x="57.958984"/>
      <use xlink:href="#DejaVuSans-6d" x="85.742188"/>
      <use xlink:href="#DejaVuSans-65" x="183.154297"/>
      <use xlink:href="#DejaVuSans-20" x="244.677734"/>
      <use xlink:href="#DejaVuSans-69" x="276.464844"/>
      <use xlink:href="#DejaVuSans-6e" x="304.248047"/>
      <use xlink:href="#DejaVuSans-20" x="367.626953"/>
      <use xlink:href="#DejaVuSans-44" x="399.414062"/>
      <use xlink:href="#DejaVuSans-61" x="476.416016"/>
      <use xlink:href="#DejaVuSans-79" x="537.695312"/>
      <use xlink:href="#DejaVuSans-73" x="596.875"/>
     </g>
    </g>
   </g>
   <g id="matplotlib.axis_2">
    <g id="ytick_1">
     <g id="line2d_8">
      <defs>
       <path id="m4cb0799c73" d="M 0 0 
L -3.5 0 
" style="stroke: #000000; stroke-width: 0.8"/>
      </defs>
      <g>
       <use xlink:href="#m4cb0799c73" x="43.78125" y="348.561202" style="stroke: #000000; stroke-width: 0.8"/>
      </g>
     </g>
     <g id="text_9">
      <!-- 0.5 -->
      <g transform="translate(20.878125 352.360421) scale(0.1 -0.1)">
       <defs>
        <path id="DejaVuSans-2e" d="M 684 794 
L 1344 794 
L 1344 0 
L 684 0 
L 684 794 
z
" transform="scale(0.015625)"/>
       </defs>
       <use xlink:href="#DejaVuSans-30"/>
       <use xlink:href="#DejaVuSans-2e" x="63.623047"/>
       <use xlink:href="#DejaVuSans-35" x="95.410156"/>
      </g>
     </g>
    </g>
    <g id="ytick_2">
     <g id="line2d_9">
      <g>
       <use xlink:href="#m4cb0799c73" x="43.78125" y="284.591971" style="stroke: #000000; stroke-width: 0.8"/>
      </g>
     </g>
     <g id="text_10">
      <!-- 0.6 -->
      <g transform="translate(20.878125 288.39119) scale(0.1 -0.1)">
       <use xlink:href="#DejaVuSans-30"/>
       <use xlink:href="#DejaVuSans-2e" x="63.623047"/>
       <use xlink:href="#DejaVuSans-36" x="95.410156"/>
      </g>
     </g>
    </g>
    <g id="ytick_3">
     <g id="line2d_10">
      <g>
       <use xlink:href="#m4cb0799c73" x="43.78125" y="220.62274" style="stroke: #000000; stroke-width: 0.8"/>
      </g>
     </g>
     <g id="text_11">
      <!-- 0.7 -->
      <g transform="translate(20.878125 224.421959) scale(0.1 -0.1)">
       <defs>
        <path id="DejaVuSans-37" d="M 525 4666 
L 3525 4666 
L 3525 4397 
L 1831 0 
L 1172 0 
L 2766 4134 
L 525 4134 
L 525 4666 
z
" transform="scale(0.015625)"/>
       </defs>
       <use xlink:href="#DejaVuSans-30"/>
       <use xlink:href="#DejaVuSans-2e" x="63.623047"/>
       <use xlink:href="#DejaVuSans-37" x="95.410156"/>
      </g>
     </g>
    </g>
    <g id="ytick_4">
     <g id="line2d_11">
      <g>
       <use xlink:href="#m4cb0799c73" x="43.78125" y="156.65351" style="stroke: #000000; stroke-width: 0.8"/>
      </g>
     </g>
     <g id="text_12">
      <!-- 0.8 -->
      <g transform="translate(20.878125 160.452728) scale(0.1 -0.1)">
       <defs>
        <path id="DejaVuSans-38" d="M 2034 2216 
Q 1584 2216 1326 1975 
Q 1069 1734 1069 1313 
Q 1069 891 1326 650 
Q 1584 409 2034 409 
Q 2484 409 2743 651 
Q 3003 894 3003 1313 
Q 3003 1734 2745 1975 
Q 2488 2216 2034 2216 
z
M 1403 2484 
Q 997 2584 770 2862 
Q 544 3141 544 3541 
Q 544 4100 942 4425 
Q 1341 4750 2034 4750 
Q 2731 4750 3128 4425 
Q 3525 4100 3525 3541 
Q 3525 3141 3298 2862 
Q 3072 2584 2669 2484 
Q 3125 2378 3379 2068 
Q 3634 1759 3634 1313 
Q 3634 634 3220 271 
Q 2806 -91 2034 -91 
Q 1263 -91 848 271 
Q 434 634 434 1313 
Q 434 1759 690 2068 
Q 947 2378 1403 2484 
z
M 1172 3481 
Q 1172 3119 1398 2916 
Q 1625 2713 2034 2713 
Q 2441 2713 2670 2916 
Q 2900 3119 2900 3481 
Q 2900 3844 2670 4047 
Q 2441 4250 2034 4250 
Q 1625 4250 1398 4047 
Q 1172 3844 1172 3481 
z
" transform="scale(0.015625)"/>
       </defs>
       <use xlink:href="#DejaVuSans-30"/>
       <use xlink:href="#DejaVuSans-2e" x="63.623047"/>
       <use xlink:href="#DejaVuSans-38" x="95.410156"/>
      </g>
     </g>
    </g>
    <g id="ytick_5">
     <g id="line2d_12">
      <g>
       <use xlink:href="#m4cb0799c73" x="43.78125" y="92.684279" style="stroke: #000000; stroke-width: 0.8"/>
      </g>
     </g>
     <g id="text_13">
      <!-- 0.9 -->
      <g transform="translate(20.878125 96.483498) scale(0.1 -0.1)">
       <defs>
        <path id="DejaVuSans-39" d="M 703 97 
L 703 672 
Q 941 559 1184 500 
Q 1428 441 1663 441 
Q 2288 441 2617 861 
Q 2947 1281 2994 2138 
Q 2813 1869 2534 1725 
Q 2256 1581 1919 1581 
Q 1219 1581 811 2004 
Q 403 2428 403 3163 
Q 403 3881 828 4315 
Q 1253 4750 1959 4750 
Q 2769 4750 3195 4129 
Q 3622 3509 3622 2328 
Q 3622 1225 3098 567 
Q 2575 -91 1691 -91 
Q 1453 -91 1209 -44 
Q 966 3 703 97 
z
M 1959 2075 
Q 2384 2075 2632 2365 
Q 2881 2656 2881 3163 
Q 2881 3666 2632 3958 
Q 2384 4250 1959 4250 
Q 1534 4250 1286 3958 
Q 1038 3666 1038 3163 
Q 1038 2656 1286 2365 
Q 1534 2075 1959 2075 
z
" transform="scale(0.015625)"/>
       </defs>
       <use xlink:href="#DejaVuSans-30"/>
       <use xlink:href="#DejaVuSans-2e" x="63.623047"/>
       <use xlink:href="#DejaVuSans-39" x="95.410156"/>
      </g>
     </g>
    </g>
    <g id="ytick_6">
     <g id="line2d_13">
      <g>
       <use xlink:href="#m4cb0799c73" x="43.78125" y="28.715048" style="stroke: #000000; stroke-width: 0.8"/>
      </g>
     </g>
     <g id="text_14">
      <!-- 1.0 -->
      <g transform="translate(20.878125 32.514267) scale(0.1 -0.1)">
       <use xlink:href="#DejaVuSans-31"/>
       <use xlink:href="#DejaVuSans-2e" x="63.623047"/>
       <use xlink:href="#DejaVuSans-30" x="95.410156"/>
      </g>
     </g>
    </g>
    <g id="text_15">
     <!-- Survival Probability -->
     <g transform="translate(14.798438 236.815469) rotate(-90) scale(0.1 -0.1)">
      <defs>
       <path id="DejaVuSans-53" d="M 3425 4513 
L 3425 3897 
Q 3066 4069 2747 4153 
Q 2428 4238 2131 4238 
Q 1616 4238 1336 4038 
Q 1056 3838 1056 3469 
Q 1056 3159 1242 3001 
Q 1428 2844 1947 2747 
L 2328 2669 
Q 3034 2534 3370 2195 
Q 3706 1856 3706 1288 
Q 3706 609 3251 259 
Q 2797 -91 1919 -91 
Q 1588 -91 1214 -16 
Q 841 59 441 206 
L 441 856 
Q 825 641 1194 531 
Q 1563 422 1919 422 
Q 2459 422 2753 634 
Q 3047 847 3047 1241 
Q 3047 1584 2836 1778 
Q 2625 1972 2144 2069 
L 1759 2144 
Q 1053 2284 737 2584 
Q 422 2884 422 3419 
Q 422 4038 858 4394 
Q 1294 4750 2059 4750 
Q 2388 4750 2728 4690 
Q 3069 4631 3425 4513 
z
" transform="scale(0.015625)"/>
       <path id="DejaVuSans-75" d="M 544 1381 
L 544 3500 
L 1119 3500 
L 1119 1403 
Q 1119 906 1312 657 
Q 1506 409 1894 409 
Q 2359 409 2629 706 
Q 2900 1003 2900 1516 
L 2900 3500 
L 3475 3500 
L 3475 0 
L 2900 0 
L 2900 538 
Q 2691 219 2414 64 
Q 2138 -91 1772 -91 
Q 1169 -91 856 284 
Q 544 659 544 1381 
z
M 1991 3584 
L 1991 3584 
z
" transform="scale(0.015625)"/>
       <path id="DejaVuSans-72" d="M 2631 2963 
Q 2534 3019 2420 3045 
Q 2306 3072 2169 3072 
Q 1681 3072 1420 2755 
Q 1159 2438 1159 1844 
L 1159 0 
L 581 0 
L 581 3500 
L 1159 3500 
L 1159 2956 
Q 1341 3275 1631 3429 
Q 1922 3584 2338 3584 
Q 2397 3584 2469 3576 
Q 2541 3569 2628 3553 
L 2631 2963 
z
" transform="scale(0.015625)"/>
       <path id="DejaVuSans-76" d="M 191 3500 
L 800 3500 
L 1894 563 
L 2988 3500 
L 3597 3500 
L 2284 0 
L 1503 0 
L 191 3500 
z
" transform="scale(0.015625)"/>
       <path id="DejaVuSans-6c" d="M 603 4863 
L 1178 4863 
L 1178 0 
L 603 0 
L 603 4863 
z
" transform="scale(0.015625)"/>
       <path id="DejaVuSans-50" d="M 1259 4147 
L 1259 2394 
L 2053 2394 
Q 2494 2394 2734 2622 
Q 2975 2850 2975 3272 
Q 2975 3691 2734 3919 
Q 2494 4147 2053 4147 
L 1259 4147 
z
M 628 4666 
L 2053 4666 
Q 2838 4666 3239 4311 
Q 3641 3956 3641 3272 
Q 3641 2581 3239 2228 
Q 2838 1875 2053 1875 
L 1259 1875 
L 1259 0 
L 628 0 
L 628 4666 
z
" transform="scale(0.015625)"/>
       <path id="DejaVuSans-6f" d="M 1959 3097 
Q 1497 3097 1228 2736 
Q 959 2375 959 1747 
Q 959 1119 1226 758 
Q 1494 397 1959 397 
Q 2419 397 2687 759 
Q 2956 1122 2956 1747 
Q 2956 2369 2687 2733 
Q 2419 3097 1959 3097 
z
M 1959 3584 
Q 2709 3584 3137 3096 
Q 3566 2609 3566 1747 
Q 3566 888 3137 398 
Q 2709 -91 1959 -91 
Q 1206 -91 779 398 
Q 353 888 353 1747 
Q 353 2609 779 3096 
Q 1206 3584 1959 3584 
z
" transform="scale(0.015625)"/>
       <path id="DejaVuSans-62" d="M 3116 1747 
Q 3116 2381 2855 2742 
Q 2594 3103 2138 3103 
Q 1681 3103 1420 2742 
Q 1159 2381 1159 1747 
Q 1159 1113 1420 752 
Q 1681 391 2138 391 
Q 2594 391 2855 752 
Q 3116 1113 3116 1747 
z
M 1159 2969 
Q 1341 3281 1617 3432 
Q 1894 3584 2278 3584 
Q 2916 3584 3314 3078 
Q 3713 2572 3713 1747 
Q 3713 922 3314 415 
Q 2916 -91 2278 -91 
Q 1894 -91 1617 61 
Q 1341 213 1159 525 
L 1159 0 
L 581 0 
L 581 4863 
L 1159 4863 
L 1159 2969 
z
" transform="scale(0.015625)"/>
       <path id="DejaVuSans-74" d="M 1172 4494 
L 1172 3500 
L 2356 3500 
L 2356 3053 
L 1172 3053 
L 1172 1153 
Q 1172 725 1289 603 
Q 1406 481 1766 481 
L 2356 481 
L 2356 0 
L 1766 0 
Q 1100 0 847 248 
Q 594 497 594 1153 
L 594 3053 
L 172 3053 
L 172 3500 
L 594 3500 
L 594 4494 
L 1172 4494 
z
" transform="scale(0.015625)"/>
      </defs>
      <use xlink:href="#DejaVuSans-53"/>
      <use xlink:href="#DejaVuSans-75" x="63.476562"/>
      <use xlink:href="#DejaVuSans-72" x="126.855469"/>
      <use xlink:href="#DejaVuSans-76" x="167.96875"/>
      <use xlink:href="#DejaVuSans-69" x="227.148438"/>
      <use xlink:href="#DejaVuSans-76" x="254.931641"/>
      <use xlink:href="#DejaVuSans-61" x="314.111328"/>
      <use xlink:href="#DejaVuSans-6c" x="375.390625"/>
      <use xlink:href="#DejaVuSans-20" x="403.173828"/>
      <use xlink:href="#DejaVuSans-50" x="434.960938"/>
      <use xlink:href="#DejaVuSans-72" x="493.513672"/>
      <use xlink:href="#DejaVuSans-6f" x="532.376953"/>
      <use xlink:href="#DejaVuSans-62" x="593.558594"/>
      <use xlink:href="#DejaVuSans-61" x="657.035156"/>
      <use xlink:href="#DejaVuSans-62" x="718.314453"/>
      <use xlink:href="#DejaVuSans-69" x="781.791016"/>
      <use xlink:href="#DejaVuSans-6c" x="809.574219"/>
      <use xlink:href="#DejaVuSans-69" x="837.357422"/>
      <use xlink:href="#DejaVuSans-74" x="865.140625"/>
      <use xlink:href="#DejaVuSans-79" x="904.349609"/>
     </g>
    </g>
   </g>
   <g id="line2d_14">
    <path d="M 69.144886 30.741233 
L 73.30286 30.741233 
L 73.30286 32.765746 
L 75.150848 32.765746 
L 75.150848 34.789818 
L 76.151841 34.789818 
L 76.151841 36.815243 
L 81.079809 36.815243 
L 81.079809 38.847572 
L 83.620793 38.847572 
L 83.620793 40.885626 
L 83.851791 40.885626 
L 83.851791 42.921713 
L 84.159789 42.921713 
L 84.159789 44.958241 
L 84.313788 44.958241 
L 84.313788 49.023378 
L 85.006784 49.023378 
L 85.006784 51.055157 
L 85.160783 51.055157 
L 85.160783 53.085721 
L 86.623774 53.085721 
L 86.623774 55.124088 
L 88.394762 55.124088 
L 88.394762 57.162961 
L 88.933759 57.162961 
L 88.933759 59.206001 
L 93.630728 59.206001 
L 93.630728 61.254369 
L 94.785721 61.254369 
L 94.785721 63.300401 
L 95.940713 63.300401 
L 95.940713 67.387493 
L 96.248712 67.387493 
L 96.248712 71.477354 
L 97.095706 71.477354 
L 97.095706 73.524455 
L 97.480704 73.524455 
L 97.480704 75.570579 
L 98.327698 75.570579 
L 98.327698 77.620963 
L 99.328692 77.620963 
L 99.328692 79.670114 
L 99.944688 79.670114 
L 99.944688 81.722063 
L 100.021687 81.722063 
L 100.175686 81.722063 
L 100.252686 85.829125 
L 100.483684 85.829125 
L 100.483684 87.880342 
L 100.945681 87.880342 
L 100.945681 89.929531 
L 102.177673 89.929531 
L 102.177673 91.975897 
L 103.178667 91.975897 
L 103.178667 96.060553 
L 103.871662 96.060553 
L 103.871662 98.103644 
L 104.17966 98.103644 
L 104.17966 100.145283 
L 104.872656 100.145283 
L 104.872656 102.185536 
L 105.026655 102.185536 
L 105.103654 106.269356 
L 105.71965 106.269356 
L 105.71965 108.308091 
L 106.335646 108.308091 
L 106.335646 110.35061 
L 106.566645 110.35061 
L 106.643644 114.435024 
L 107.490639 114.435024 
L 107.490639 116.474696 
L 108.414633 116.474696 
L 108.414633 118.510545 
L 108.722631 118.510545 
L 108.722631 120.543322 
L 109.723625 120.543322 
L 109.723625 122.579894 
L 109.877624 122.579894 
L 109.877624 124.61433 
L 110.955617 124.61433 
L 110.955617 126.644806 
L 113.804598 126.644806 
L 113.881598 130.72063 
L 114.497594 130.72063 
L 114.574593 134.788288 
L 116.422581 134.788288 
L 116.422581 136.826377 
L 119.271563 136.826377 
L 119.271563 138.880117 
L 122.967539 138.880117 
L 122.967539 140.935956 
L 123.660535 140.935956 
L 123.660535 142.990158 
L 124.199531 142.990158 
L 124.199531 145.046381 
L 124.815527 145.046381 
L 124.815527 147.097094 
L 126.971513 147.097094 
L 126.971513 149.145074 
L 127.202512 149.145074 
L 127.202512 151.188191 
L 128.588503 151.188191 
L 128.588503 153.231916 
L 128.665502 153.231916 
L 129.666496 153.231916 
L 129.666496 155.275265 
L 133.131474 155.275265 
L 133.131474 157.32869 
L 133.362472 157.32869 
L 133.362472 161.42397 
L 135.21046 161.42397 
L 135.21046 163.471806 
L 136.673451 163.471806 
L 136.673451 165.526326 
L 136.904449 165.526326 
L 136.904449 167.57985 
L 137.443446 167.57985 
L 137.443446 169.629459 
L 139.676431 169.629459 
L 139.676431 171.678393 
L 146.298389 171.678393 
L 146.298389 173.772501 
L 148.993371 173.772501 
L 148.993371 175.876334 
L 149.686367 175.876334 
L 149.686367 177.986827 
L 149.763366 177.986827 
L 150.071364 177.986827 
L 150.071364 180.099316 
L 150.841359 180.099316 
L 150.841359 182.214712 
L 151.457355 182.214712 
L 151.457355 184.330759 
L 154.306337 184.330759 
L 154.306337 186.487068 
L 154.460336 186.487068 
L 154.460336 188.641022 
L 154.691334 188.641022 
L 154.691334 190.78966 
L 156.92432 190.78966 
L 156.92432 192.938228 
L 158.618309 192.938228 
L 158.618309 195.080553 
L 159.619303 195.080553 
L 159.619303 197.224201 
L 159.927301 197.224201 
L 159.927301 199.362345 
L 162.853282 199.362345 
L 162.853282 201.519629 
L 163.315279 201.519629 
L 163.315279 203.673831 
L 167.78125 203.673831 
L 167.78125 205.865894 
L 167.85825 205.865894 
L 171.477226 205.865894 
L 171.477226 208.088985 
L 173.094216 208.088985 
L 173.094216 210.306563 
L 174.095209 210.306563 
L 174.095209 212.525984 
L 175.789198 212.525984 
L 175.789198 214.768276 
L 176.097196 214.768276 
L 176.097196 217.004104 
L 179.485174 217.004104 
L 179.485174 219.284361 
L 180.17817 219.284361 
L 180.17817 221.563938 
L 186.800127 221.563938 
L 186.800127 223.897496 
L 195.65507 223.897496 
L 195.65507 226.346572 
L 198.73505 226.346572 
L 198.73505 228.828212 
L 204.741012 228.828212 
L 204.741012 231.377523 
L 208.359988 231.377523 
L 208.359988 233.988765 
L 222.989894 233.988765 
L 222.989894 236.839796 
L 232.383833 236.839796 
L 232.383833 239.918473 
L 232.460833 239.918473 
L 247.167738 239.918473 
L 247.167738 243.356609 
L 253.789695 243.356609 
L 253.789695 246.902757 
L 284.435497 246.902757 
L 284.435497 251.409229 
L 286.591483 251.409229 
L 286.591483 256.048231 
L 361.512 256.048231 
L 361.512 266.044213 
L 576.417614 266.044213 
L 576.417614 266.044213 
" clip-path="url(#pf5573b0593)" style="fill: none; stroke: #2a5acb; stroke-width: 1.5; stroke-linecap: square"/>
   </g>
   <g id="line2d_15">
    <path d="M 69.144886 30.242247 
L 73.30286 30.242247 
L 73.30286 31.769382 
L 75.150848 31.769382 
L 75.150848 33.297383 
L 76.151841 33.297383 
L 76.151841 34.827611 
L 81.079809 34.827611 
L 81.079809 36.364271 
L 83.620793 36.364271 
L 83.620793 37.906489 
L 83.851791 37.906489 
L 83.851791 39.448452 
L 84.159789 39.448452 
L 84.159789 40.991988 
L 84.313788 40.991988 
L 84.313788 44.076782 
L 85.006784 44.076782 
L 85.006784 45.620449 
L 85.160783 45.620449 
L 85.160783 47.164445 
L 86.623774 47.164445 
L 86.623774 48.715639 
L 88.394762 48.715639 
L 88.394762 50.26849 
L 88.933759 50.26849 
L 88.933759 51.825797 
L 93.630728 51.825797 
L 93.630728 53.388457 
L 94.785721 53.388457 
L 94.785721 54.950634 
L 95.940713 54.950634 
L 95.940713 58.075098 
L 96.248712 58.075098 
L 96.248712 61.206928 
L 97.095706 61.206928 
L 97.095706 62.77649 
L 97.480704 62.77649 
L 97.480704 64.346635 
L 98.327698 64.346635 
L 98.327698 65.921389 
L 99.328692 65.921389 
L 99.328692 67.496544 
L 99.944688 67.496544 
L 99.944688 69.075205 
L 100.021687 69.075205 
L 100.175686 69.075205 
L 100.252686 72.239057 
L 100.483684 72.239057 
L 100.483684 73.821258 
L 100.945681 73.821258 
L 100.945681 75.403273 
L 102.177673 75.403273 
L 102.177673 76.984487 
L 103.178667 76.984487 
L 103.178667 80.144822 
L 103.871662 80.144822 
L 103.871662 81.727665 
L 104.17966 81.727665 
L 104.17966 83.31078 
L 104.872656 83.31078 
L 104.872656 84.894222 
L 105.026655 84.894222 
L 105.103654 88.067913 
L 105.71965 88.067913 
L 105.71965 89.654418 
L 106.335646 89.654418 
L 106.335646 91.245295 
L 106.566645 91.245295 
L 106.643644 94.430877 
L 107.490639 94.430877 
L 107.490639 96.023858 
L 108.414633 96.023858 
L 108.414633 97.615302 
L 108.722631 97.615302 
L 108.722631 99.205793 
L 109.723625 99.205793 
L 109.723625 100.800714 
L 109.877624 100.800714 
L 109.877624 102.395428 
L 110.955617 102.395428 
L 110.955617 103.988506 
L 113.804598 103.988506 
L 113.881598 107.190781 
L 114.497594 107.190781 
L 114.574593 110.392613 
L 116.422581 110.392613 
L 116.422581 111.999144 
L 119.271563 111.999144 
L 119.271563 113.619549 
L 122.967539 113.619549 
L 122.967539 115.243162 
L 123.660535 115.243162 
L 123.660535 116.867042 
L 124.199531 116.867042 
L 124.199531 118.494088 
L 124.815527 118.494088 
L 124.815527 120.118345 
L 126.971513 120.118345 
L 126.971513 121.742011 
L 127.202512 121.742011 
L 127.202512 123.363394 
L 128.588503 123.363394 
L 128.588503 124.986841 
L 128.665502 124.986841 
L 129.666496 124.986841 
L 129.666496 126.611578 
L 133.131474 126.611578 
L 133.131474 128.245933 
L 133.362472 128.245933 
L 133.362472 131.510281 
L 135.21046 131.510281 
L 135.21046 133.145048 
L 136.673451 133.145048 
L 136.673451 134.786795 
L 136.904449 134.786795 
L 136.904449 136.429399 
L 137.443446 136.429399 
L 137.443446 138.070529 
L 139.676431 138.070529 
L 139.676431 139.712779 
L 146.298389 139.712779 
L 146.298389 141.392965 
L 148.993371 141.392965 
L 148.993371 143.082721 
L 149.686367 143.082721 
L 149.686367 144.779615 
L 149.763366 144.779615 
L 150.071364 144.779615 
L 150.071364 146.479918 
L 150.841359 146.479918 
L 150.841359 148.184379 
L 151.457355 148.184379 
L 151.457355 149.891195 
L 154.306337 149.891195 
L 154.306337 151.63238 
L 154.460336 151.63238 
L 154.460336 153.373582 
L 154.691334 153.373582 
L 154.691334 155.112408 
L 156.92432 155.112408 
L 156.92432 156.853108 
L 158.618309 156.853108 
L 158.618309 158.590681 
L 159.619303 158.590681 
L 159.619303 160.33127 
L 159.927301 160.33127 
L 159.927301 162.069335 
L 162.853282 162.069335 
L 162.853282 163.82494 
L 163.315279 163.82494 
L 163.315279 165.580034 
L 167.78125 165.580034 
L 167.78125 167.368035 
L 167.85825 167.368035 
L 171.477226 167.368035 
L 171.477226 169.18348 
L 173.094216 169.18348 
L 173.094216 170.996577 
L 174.095209 170.996577 
L 174.095209 172.813349 
L 175.789198 172.813349 
L 175.789198 174.651059 
L 176.097196 174.651059 
L 176.097196 176.485703 
L 179.485174 176.485703 
L 179.485174 178.359113 
L 180.17817 178.359113 
L 180.17817 180.23431 
L 186.800127 180.23431 
L 186.800127 182.156357 
L 195.65507 182.156357 
L 195.65507 184.176229 
L 198.73505 184.176229 
L 198.73505 186.225774 
L 204.741012 186.225774 
L 204.741012 188.33418 
L 208.359988 188.33418 
L 208.359988 190.496953 
L 222.989894 190.496953 
L 222.989894 192.861996 
L 232.383833 192.861996 
L 232.383833 195.420211 
L 232.460833 195.420211 
L 247.167738 195.420211 
L 247.167738 198.282481 
L 253.789695 198.282481 
L 253.789695 201.240657 
L 284.435497 201.240657 
L 284.435497 205.008803 
L 286.591483 205.008803 
L 286.591483 208.898268 
L 361.512 208.898268 
L 361.512 217.316094 
L 576.417614 217.316094 
L 576.417614 217.316094 
" clip-path="url(#pf5573b0593)" style="fill: none; stroke: #3256aa; stroke-width: 1.5; stroke-linecap: square"/>
   </g>
   <g id="line2d_16">
    <path d="M 69.144886 29.924617 
L 73.30286 29.924617 
L 73.30286 31.134737 
L 75.150848 31.134737 
L 75.150848 32.34615 
L 76.151841 32.34615 
L 76.151841 33.559935 
L 81.079809 33.559935 
L 81.079809 34.779437 
L 83.620793 34.779437 
L 83.620793 36.003971 
L 83.851791 36.003971 
L 83.851791 37.228926 
L 84.159789 37.228926 
L 84.159789 38.455756 
L 84.313788 38.455756 
L 84.313788 40.909491 
L 85.006784 40.909491 
L 85.006784 42.138317 
L 85.160783 42.138317 
L 85.160783 43.368039 
L 86.623774 43.368039 
L 86.623774 44.604134 
L 88.394762 44.604134 
L 88.394762 45.842195 
L 88.933759 45.842195 
L 88.933759 47.084458 
L 93.630728 47.084458 
L 93.630728 48.331649 
L 94.785721 48.331649 
L 94.785721 49.579114 
L 95.940713 49.579114 
L 95.940713 52.076118 
L 96.248712 52.076118 
L 96.248712 54.581681 
L 97.095706 54.581681 
L 97.095706 55.838392 
L 97.480704 55.838392 
L 97.480704 57.096248 
L 98.327698 57.096248 
L 98.327698 58.358481 
L 99.328692 58.358481 
L 99.328692 59.621722 
L 99.944688 59.621722 
L 99.944688 60.888466 
L 100.021687 60.888466 
L 100.175686 60.888466 
L 100.252686 63.429289 
L 100.483684 63.429289 
L 100.483684 64.700974 
L 100.945681 64.700974 
L 100.945681 65.973213 
L 102.177673 65.973213 
L 102.177673 67.245515 
L 103.178667 67.245515 
L 103.178667 69.79056 
L 103.871662 69.79056 
L 103.871662 71.066305 
L 104.17966 71.066305 
L 104.17966 72.342988 
L 104.872656 72.342988 
L 104.872656 73.620653 
L 105.026655 73.620653 
L 105.103654 76.183653 
L 105.71965 76.183653 
L 105.71965 77.46597 
L 106.335646 77.46597 
L 106.335646 78.752557 
L 106.566645 78.752557 
L 106.643644 81.331049 
L 107.490639 81.331049 
L 107.490639 82.621566 
L 108.414633 82.621566 
L 108.414633 83.911583 
L 108.722631 83.911583 
L 108.722631 85.201578 
L 109.723625 85.201578 
L 109.723625 86.495919 
L 109.877624 86.495919 
L 109.877624 87.790849 
L 110.955617 87.790849 
L 110.955617 89.085208 
L 113.804598 89.085208 
L 113.881598 91.689329 
L 114.497594 91.689329 
L 114.574593 94.296185 
L 116.422581 94.296185 
L 116.422581 95.605357 
L 119.271563 95.605357 
L 119.271563 96.926632 
L 122.967539 96.926632 
L 122.967539 98.251329 
L 123.660535 98.251329 
L 123.660535 99.577054 
L 124.199531 99.577054 
L 124.199531 100.906178 
L 124.815527 100.906178 
L 124.815527 102.233841 
L 126.971513 102.233841 
L 126.971513 103.561839 
L 127.202512 103.561839 
L 127.202512 104.888791 
L 128.588503 104.888791 
L 128.588503 106.218255 
L 128.665502 106.218255 
L 129.666496 106.218255 
L 129.666496 107.549603 
L 133.131474 107.549603 
L 133.131474 108.889671 
L 133.362472 108.889671 
L 133.362472 111.568762 
L 135.21046 111.568762 
L 135.21046 112.911709 
L 136.673451 112.911709 
L 136.673451 114.26125 
L 136.904449 114.26125 
L 136.904449 115.61236 
L 137.443446 115.61236 
L 137.443446 116.963125 
L 139.676431 116.963125 
L 139.676431 118.315684 
L 146.298389 118.315684 
L 146.298389 119.700393 
L 148.993371 119.700393 
L 148.993371 121.093915 
L 149.686367 121.093915 
L 149.686367 122.494264 
L 149.763366 122.494264 
L 150.071364 122.494264 
L 150.071364 123.898373 
L 150.841359 123.898373 
L 150.841359 125.306873 
L 151.457355 125.306873 
L 151.457355 126.718281 
L 154.306337 126.718281 
L 154.306337 128.159108 
L 154.460336 128.159108 
L 154.460336 129.600959 
L 154.691334 129.600959 
L 154.691334 131.041856 
L 156.92432 131.041856 
L 156.92432 132.485324 
L 158.618309 132.485324 
L 158.618309 133.927219 
L 159.619303 133.927219 
L 159.619303 135.372643 
L 159.927301 135.372643 
L 159.927301 136.816999 
L 162.853282 136.816999 
L 162.853282 138.27698 
L 163.315279 138.27698 
L 163.315279 139.737594 
L 167.78125 139.737594 
L 167.78125 141.226685 
L 167.85825 141.226685 
L 171.477226 141.226685 
L 171.477226 142.739764 
L 173.094216 142.739764 
L 173.094216 144.25203 
L 174.095209 144.25203 
L 174.095209 145.768513 
L 175.789198 145.768513 
L 175.789198 147.303651 
L 176.097196 147.303651 
L 176.097196 148.837415 
L 179.485174 148.837415 
L 179.485174 150.404816 
L 180.17817 150.404816 
L 180.17817 151.974962 
L 186.800127 151.974962 
L 186.800127 153.58564 
L 195.65507 153.58564 
L 195.65507 155.279725 
L 198.73505 155.279725 
L 198.73505 157.000201 
L 204.741012 157.000201 
L 204.741012 158.771678 
L 208.359988 158.771678 
L 208.359988 160.590517 
L 222.989894 160.590517 
L 222.989894 162.581423 
L 232.383833 162.581423 
L 232.383833 164.737264 
L 232.460833 164.737264 
L 247.167738 164.737264 
L 247.167738 167.152215 
L 253.789695 167.152215 
L 253.789695 169.651304 
L 284.435497 169.651304 
L 284.435497 172.839438 
L 286.591483 172.839438 
L 286.591483 176.135884 
L 361.512 176.135884 
L 361.512 183.290246 
L 576.417614 183.290246 
L 576.417614 183.290246 
" clip-path="url(#pf5573b0593)" style="fill: none; stroke: #3a528a; stroke-width: 1.5; stroke-linecap: square"/>
   </g>
   <g id="line2d_17">
    <path d="M 69.144886 29.680433 
L 73.30286 29.680433 
L 73.30286 30.646627 
L 75.150848 30.646627 
L 75.150848 31.614225 
L 76.151841 31.614225 
L 76.151841 32.584091 
L 81.079809 32.584091 
L 81.079809 33.558903 
L 83.620793 33.558903 
L 83.620793 34.538118 
L 83.851791 34.538118 
L 83.851791 35.518054 
L 84.159789 35.518054 
L 84.159789 36.499874 
L 84.313788 36.499874 
L 84.313788 38.464736 
L 85.006784 38.464736 
L 85.006784 39.449317 
L 85.160783 39.449317 
L 85.160783 40.435008 
L 86.623774 40.435008 
L 86.623774 41.426202 
L 88.394762 41.426202 
L 88.394762 42.41937 
L 88.933759 42.41937 
L 88.933759 43.41631 
L 93.630728 43.41631 
L 93.630728 44.417611 
L 94.785721 44.417611 
L 94.785721 45.419538 
L 95.940713 45.419538 
L 95.940713 47.426286 
L 96.248712 47.426286 
L 96.248712 49.441563 
L 97.095706 49.441563 
L 97.095706 50.452988 
L 97.480704 50.452988 
L 97.480704 51.465755 
L 98.327698 51.465755 
L 98.327698 52.482468 
L 99.328692 52.482468 
L 99.328692 53.50042 
L 99.944688 53.50042 
L 99.944688 54.521623 
L 100.021687 54.521623 
L 100.175686 54.521623 
L 100.252686 56.571239 
L 100.483684 56.571239 
L 100.483684 57.597728 
L 100.945681 57.597728 
L 100.945681 58.625101 
L 102.177673 58.625101 
L 102.177673 59.652963 
L 103.178667 59.652963 
L 103.178667 61.710364 
L 103.871662 61.710364 
L 103.871662 62.742334 
L 104.17966 62.742334 
L 104.17966 63.775509 
L 104.872656 63.775509 
L 104.872656 64.809927 
L 105.026655 64.809927 
L 105.103654 66.886325 
L 105.71965 66.886325 
L 105.71965 67.925868 
L 106.335646 67.925868 
L 106.335646 68.96933 
L 106.566645 68.96933 
L 106.643644 71.061954 
L 107.490639 71.061954 
L 107.490639 72.109994 
L 108.414633 72.109994 
L 108.414633 73.158095 
L 108.722631 73.158095 
L 108.722631 74.206645 
L 109.723625 74.206645 
L 109.723625 75.259199 
L 109.877624 75.259199 
L 109.877624 76.312705 
L 110.955617 76.312705 
L 110.955617 77.366222 
L 113.804598 77.366222 
L 113.881598 79.487233 
L 114.497594 79.487233 
L 114.574593 81.612411 
L 116.422581 81.612411 
L 116.422581 82.680417 
L 119.271563 82.680417 
L 119.271563 83.758798 
L 122.967539 83.758798 
L 122.967539 84.840477 
L 123.660535 84.840477 
L 123.660535 85.923503 
L 124.199531 85.923503 
L 124.199531 87.00982 
L 124.815527 87.00982 
L 124.815527 88.095454 
L 126.971513 88.095454 
L 126.971513 89.181878 
L 127.202512 89.181878 
L 127.202512 90.26796 
L 128.588503 90.26796 
L 128.588503 91.356618 
L 128.665502 91.356618 
L 129.666496 91.356618 
L 129.666496 92.44734 
L 133.131474 92.44734 
L 133.131474 93.545734 
L 133.362472 93.545734 
L 133.362472 95.743261 
L 135.21046 95.743261 
L 135.21046 96.845618 
L 136.673451 96.845618 
L 136.673451 97.953929 
L 136.904449 97.953929 
L 136.904449 99.064076 
L 137.443446 99.064076 
L 137.443446 100.174488 
L 139.676431 100.174488 
L 139.676431 101.286925 
L 146.298389 101.286925 
L 146.298389 102.426377 
L 148.993371 102.426377 
L 148.993371 103.573668 
L 149.686367 103.573668 
L 149.686367 104.727174 
L 149.763366 104.727174 
L 150.071364 104.727174 
L 150.071364 105.884378 
L 150.841359 105.884378 
L 150.841359 107.045806 
L 151.457355 107.045806 
L 151.457355 108.210243 
L 154.306337 108.210243 
L 154.306337 109.399583 
L 154.460336 109.399583 
L 154.460336 110.590411 
L 154.691334 110.590411 
L 154.691334 111.781094 
L 156.92432 111.781094 
L 156.92432 112.974548 
L 158.618309 112.974548 
L 158.618309 114.16735 
L 159.619303 114.16735 
L 159.619303 115.363724 
L 159.927301 115.363724 
L 159.927301 116.55987 
L 162.853282 116.55987 
L 162.853282 117.769623 
L 163.315279 117.769623 
L 163.315279 118.980573 
L 167.78125 118.980573 
L 167.78125 120.215829 
L 167.85825 120.215829 
L 171.477226 120.215829 
L 171.477226 121.471707 
L 173.094216 121.471707 
L 173.094216 122.72764 
L 174.095209 122.72764 
L 174.095209 123.98781 
L 175.789198 123.98781 
L 175.789198 125.264235 
L 176.097196 125.264235 
L 176.097196 126.540275 
L 179.485174 126.540275 
L 179.485174 127.845088 
L 180.17817 127.845088 
L 180.17817 129.152986 
L 186.800127 129.152986 
L 186.800127 130.495481 
L 195.65507 130.495481 
L 195.65507 131.908412 
L 198.73505 131.908412 
L 198.73505 133.344318 
L 204.741012 133.344318 
L 204.741012 134.82381 
L 208.359988 134.82381 
L 208.359988 136.343939 
L 222.989894 136.343939 
L 222.989894 138.009137 
L 232.383833 138.009137 
L 232.383833 139.813782 
L 232.460833 139.813782 
L 247.167738 139.813782 
L 247.167738 141.837181 
L 253.789695 141.837181 
L 253.789695 143.933151 
L 284.435497 143.933151 
L 284.435497 146.610102 
L 286.591483 146.610102 
L 286.591483 149.381659 
L 361.512 149.381659 
L 361.512 155.409791 
L 576.417614 155.409791 
L 576.417614 155.409791 
" clip-path="url(#pf5573b0593)" style="fill: none; stroke: #424e69; stroke-width: 1.5; stroke-linecap: square"/>
   </g>
   <g id="line2d_18">
    <path d="M 69.144886 29.413537 
L 73.30286 29.413537 
L 73.30286 30.112905 
L 75.150848 30.112905 
L 75.150848 30.813583 
L 76.151841 30.813583 
L 76.151841 31.516198 
L 81.079809 31.516198 
L 81.079809 32.222696 
L 83.620793 32.222696 
L 83.620793 32.932686 
L 83.851791 32.932686 
L 83.851791 33.643503 
L 84.159789 33.643503 
L 84.159789 34.355993 
L 84.313788 34.355993 
L 84.313788 35.782778 
L 85.006784 35.782778 
L 85.006784 36.498195 
L 85.160783 36.498195 
L 85.160783 37.214728 
L 86.623774 37.214728 
L 86.623774 37.935576 
L 88.394762 37.935576 
L 88.394762 38.658176 
L 88.933759 38.658176 
L 88.933759 39.38384 
L 93.630728 39.38384 
L 93.630728 40.112999 
L 94.785721 40.112999 
L 94.785721 40.842939 
L 95.940713 40.842939 
L 95.940713 42.305904 
L 96.248712 42.305904 
L 96.248712 43.776405 
L 97.095706 43.776405 
L 97.095706 44.514916 
L 97.480704 44.514916 
L 97.480704 45.254743 
L 98.327698 45.254743 
L 98.327698 45.99779 
L 99.328692 45.99779 
L 99.328692 46.742083 
L 99.944688 46.742083 
L 99.944688 47.489095 
L 100.021687 47.489095 
L 100.175686 47.489095 
L 100.252686 48.989433 
L 100.483684 48.989433 
L 100.483684 49.741354 
L 100.945681 49.741354 
L 100.945681 50.494273 
L 102.177673 50.494273 
L 102.177673 51.247902 
L 103.178667 51.247902 
L 103.178667 52.757448 
L 103.871662 52.757448 
L 103.871662 53.515153 
L 104.17966 53.515153 
L 104.17966 54.2741 
L 104.872656 54.2741 
L 104.872656 55.03432 
L 105.026655 55.03432 
L 105.103654 56.561406 
L 105.71965 56.561406 
L 105.71965 57.326485 
L 106.335646 57.326485 
L 106.335646 58.094817 
L 106.566645 58.094817 
L 106.643644 59.636794 
L 107.490639 59.636794 
L 107.490639 60.409617 
L 108.414633 60.409617 
L 108.414633 61.182861 
L 108.722631 61.182861 
L 108.722631 61.956814 
L 109.723625 61.956814 
L 109.723625 62.734101 
L 109.877624 62.734101 
L 109.877624 63.512474 
L 110.955617 63.512474 
L 110.955617 64.291238 
L 113.804598 64.291238 
L 113.881598 65.860264 
L 114.497594 65.860264 
L 114.574593 67.433942 
L 116.422581 67.433942 
L 116.422581 68.225387 
L 119.271563 68.225387 
L 119.271563 69.024925 
L 122.967539 69.024925 
L 122.967539 69.827319 
L 123.660535 69.827319 
L 123.660535 70.631124 
L 124.199531 70.631124 
L 124.199531 71.437787 
L 124.815527 71.437787 
L 124.815527 72.24436 
L 126.971513 72.24436 
L 126.971513 73.051937 
L 127.202512 73.051937 
L 127.202512 73.859679 
L 128.588503 73.859679 
L 128.588503 74.669758 
L 128.665502 74.669758 
L 129.666496 74.669758 
L 129.666496 75.481797 
L 133.131474 75.481797 
L 133.131474 76.299978 
L 133.362472 76.299978 
L 133.362472 77.93819 
L 135.21046 77.93819 
L 135.21046 78.760629 
L 136.673451 78.760629 
L 136.673451 79.587953 
L 136.904449 79.587953 
L 136.904449 80.417094 
L 137.443446 80.417094 
L 137.443446 81.24688 
L 139.676431 81.24688 
L 139.676431 82.078629 
L 146.298389 82.078629 
L 146.298389 82.931044 
L 148.993371 82.931044 
L 148.993371 83.789804 
L 149.686367 83.789804 
L 149.686367 84.653702 
L 149.763366 84.653702 
L 150.071364 84.653702 
L 150.071364 85.520861 
L 150.841359 85.520861 
L 150.841359 86.391682 
L 151.457355 86.391682 
L 151.457355 87.26526 
L 154.306337 87.26526 
L 154.306337 88.158039 
L 154.460336 88.158039 
L 154.460336 89.052461 
L 154.691334 89.052461 
L 154.691334 89.947303 
L 156.92432 89.947303 
L 156.92432 90.844758 
L 158.618309 90.844758 
L 158.618309 91.742257 
L 159.619303 91.742257 
L 159.619303 92.64298 
L 159.927301 92.64298 
L 159.927301 93.54407 
L 162.853282 93.54407 
L 162.853282 94.455961 
L 163.315279 94.455961 
L 163.315279 95.369309 
L 167.78125 95.369309 
L 167.78125 96.301564 
L 167.85825 96.301564 
L 171.477226 96.301564 
L 171.477226 97.249977 
L 173.094216 97.249977 
L 173.094216 98.199035 
L 174.095209 98.199035 
L 174.095209 99.151903 
L 175.789198 99.151903 
L 175.789198 100.117683 
L 176.097196 100.117683 
L 176.097196 101.083801 
L 179.485174 101.083801 
L 179.485174 102.072353 
L 180.17817 102.072353 
L 180.17817 103.063906 
L 186.800127 103.063906 
L 186.800127 104.082379 
L 195.65507 104.082379 
L 195.65507 105.155048 
L 198.73505 105.155048 
L 198.73505 106.24596 
L 204.741012 106.24596 
L 204.741012 107.370834 
L 208.359988 107.370834 
L 208.359988 108.527503 
L 222.989894 108.527503 
L 222.989894 109.795605 
L 232.383833 109.795605 
L 232.383833 111.171145 
L 232.460833 111.171145 
L 247.167738 111.171145 
L 247.167738 112.71497 
L 253.789695 112.71497 
L 253.789695 114.315896 
L 284.435497 114.315896 
L 284.435497 116.363159 
L 286.591483 116.363159 
L 286.591483 118.485837 
L 361.512 118.485837 
L 361.512 123.113523 
L 576.417614 123.113523 
L 576.417614 123.113523 
" clip-path="url(#pf5573b0593)" style="fill: none; stroke: #4a4a4a; stroke-width: 1.5; stroke-linecap: square"/>
   </g>
   <g id="patch_3">
    <path d="M 43.78125 354.958125 
L 43.78125 22.318125 
" style="fill: none; stroke: #000000; stroke-width: 0.8; stroke-linejoin: miter; stroke-linecap: square"/>
   </g>
   <g id="patch_4">
    <path d="M 601.78125 354.958125 
L 601.78125 22.318125 
" style="fill: none; stroke: #000000; stroke-width: 0.8; stroke-linejoin: miter; stroke-linecap: square"/>
   </g>
   <g id="patch_5">
    <path d="M 43.78125 354.958125 
L 601.78125 354.958125 
" style="fill: none; stroke: #000000; stroke-width: 0.8; stroke-linejoin: miter; stroke-linecap: square"/>
   </g>
   <g id="patch_6">
    <path d="M 43.78125 22.318125 
L 601.78125 22.318125 
" style="fill: none; stroke: #000000; stroke-width: 0.8; stroke-linejoin: miter; stroke-linecap: square"/>
   </g>
   <g id="text_16">
    <!-- p-value: 0.000878 -->
    <g transform="translate(499.349375 36.569362) scale(0.1 -0.1)">
     <defs>
      <path id="DejaVuSans-70" d="M 1159 525 
L 1159 -1331 
L 581 -1331 
L 581 3500 
L 1159 3500 
L 1159 2969 
Q 1341 3281 1617 3432 
Q 1894 3584 2278 3584 
Q 2916 3584 3314 3078 
Q 3713 2572 3713 1747 
Q 3713 922 3314 415 
Q 2916 -91 2278 -91 
Q 1894 -91 1617 61 
Q 1341 213 1159 525 
z
M 3116 1747 
Q 3116 2381 2855 2742 
Q 2594 3103 2138 3103 
Q 1681 3103 1420 2742 
Q 1159 2381 1159 1747 
Q 1159 1113 1420 752 
Q 1681 391 2138 391 
Q 2594 391 2855 752 
Q 3116 1113 3116 1747 
z
" transform="scale(0.015625)"/>
      <path id="DejaVuSans-2d" d="M 313 2009 
L 1997 2009 
L 1997 1497 
L 313 1497 
L 313 2009 
z
" transform="scale(0.015625)"/>
      <path id="DejaVuSans-3a" d="M 750 794 
L 1409 794 
L 1409 0 
L 750 0 
L 750 794 
z
M 750 3309 
L 1409 3309 
L 1409 2516 
L 750 2516 
L 750 3309 
z
" transform="scale(0.015625)"/>
     </defs>
     <use xlink:href="#DejaVuSans-70"/>
     <use xlink:href="#DejaVuSans-2d" x="63.476562"/>
     <use xlink:href="#DejaVuSans-76" x="96.935547"/>
     <use xlink:href="#DejaVuSans-61" x="156.115234"/>
     <use xlink:href="#DejaVuSans-6c" x="217.394531"/>
     <use xlink:href="#DejaVuSans-75" x="245.177734"/>
     <use xlink:href="#DejaVuSans-65" x="308.556641"/>
     <use xlink:href="#DejaVuSans-3a" x="370.080078"/>
     <use xlink:href="#DejaVuSans-20" x="403.771484"/>
     <use xlink:href="#DejaVuSans-30" x="435.558594"/>
     <use xlink:href="#DejaVuSans-2e" x="499.181641"/>
     <use xlink:href="#DejaVuSans-30" x="530.96875"/>
     <use xlink:href="#DejaVuSans-30" x="594.591797"/>
     <use xlink:href="#DejaVuSans-30" x="658.214844"/>
     <use xlink:href="#DejaVuSans-38" x="721.837891"/>
     <use xlink:href="#DejaVuSans-37" x="785.460938"/>
     <use xlink:href="#DejaVuSans-38" x="849.083984"/>
    </g>
   </g>
   <g id="text_17">
    <!-- Adjusted Partial Effects of Continuous FOXP3 Expression on Survival -->
    <g transform="translate(118.692188 16.318125) scale(0.12 -0.12)">
     <defs>
      <path id="DejaVuSans-41" d="M 2188 4044 
L 1331 1722 
L 3047 1722 
L 2188 4044 
z
M 1831 4666 
L 2547 4666 
L 4325 0 
L 3669 0 
L 3244 1197 
L 1141 1197 
L 716 0 
L 50 0 
L 1831 4666 
z
" transform="scale(0.015625)"/>
      <path id="DejaVuSans-64" d="M 2906 2969 
L 2906 4863 
L 3481 4863 
L 3481 0 
L 2906 0 
L 2906 525 
Q 2725 213 2448 61 
Q 2172 -91 1784 -91 
Q 1150 -91 751 415 
Q 353 922 353 1747 
Q 353 2572 751 3078 
Q 1150 3584 1784 3584 
Q 2172 3584 2448 3432 
Q 2725 3281 2906 2969 
z
M 947 1747 
Q 947 1113 1208 752 
Q 1469 391 1925 391 
Q 2381 391 2643 752 
Q 2906 1113 2906 1747 
Q 2906 2381 2643 2742 
Q 2381 3103 1925 3103 
Q 1469 3103 1208 2742 
Q 947 2381 947 1747 
z
" transform="scale(0.015625)"/>
      <path id="DejaVuSans-6a" d="M 603 3500 
L 1178 3500 
L 1178 -63 
Q 1178 -731 923 -1031 
Q 669 -1331 103 -1331 
L -116 -1331 
L -116 -844 
L 38 -844 
Q 366 -844 484 -692 
Q 603 -541 603 -63 
L 603 3500 
z
M 603 4863 
L 1178 4863 
L 1178 4134 
L 603 4134 
L 603 4863 
z
" transform="scale(0.015625)"/>
      <path id="DejaVuSans-45" d="M 628 4666 
L 3578 4666 
L 3578 4134 
L 1259 4134 
L 1259 2753 
L 3481 2753 
L 3481 2222 
L 1259 2222 
L 1259 531 
L 3634 531 
L 3634 0 
L 628 0 
L 628 4666 
z
" transform="scale(0.015625)"/>
      <path id="DejaVuSans-66" d="M 2375 4863 
L 2375 4384 
L 1825 4384 
Q 1516 4384 1395 4259 
Q 1275 4134 1275 3809 
L 1275 3500 
L 2222 3500 
L 2222 3053 
L 1275 3053 
L 1275 0 
L 697 0 
L 697 3053 
L 147 3053 
L 147 3500 
L 697 3500 
L 697 3744 
Q 697 4328 969 4595 
Q 1241 4863 1831 4863 
L 2375 4863 
z
" transform="scale(0.015625)"/>
      <path id="DejaVuSans-63" d="M 3122 3366 
L 3122 2828 
Q 2878 2963 2633 3030 
Q 2388 3097 2138 3097 
Q 1578 3097 1268 2742 
Q 959 2388 959 1747 
Q 959 1106 1268 751 
Q 1578 397 2138 397 
Q 2388 397 2633 464 
Q 2878 531 3122 666 
L 3122 134 
Q 2881 22 2623 -34 
Q 2366 -91 2075 -91 
Q 1284 -91 818 406 
Q 353 903 353 1747 
Q 353 2603 823 3093 
Q 1294 3584 2113 3584 
Q 2378 3584 2631 3529 
Q 2884 3475 3122 3366 
z
" transform="scale(0.015625)"/>
      <path id="DejaVuSans-43" d="M 4122 4306 
L 4122 3641 
Q 3803 3938 3442 4084 
Q 3081 4231 2675 4231 
Q 1875 4231 1450 3742 
Q 1025 3253 1025 2328 
Q 1025 1406 1450 917 
Q 1875 428 2675 428 
Q 3081 428 3442 575 
Q 3803 722 4122 1019 
L 4122 359 
Q 3791 134 3420 21 
Q 3050 -91 2638 -91 
Q 1578 -91 968 557 
Q 359 1206 359 2328 
Q 359 3453 968 4101 
Q 1578 4750 2638 4750 
Q 3056 4750 3426 4639 
Q 3797 4528 4122 4306 
z
" transform="scale(0.015625)"/>
      <path id="DejaVuSans-46" d="M 628 4666 
L 3309 4666 
L 3309 4134 
L 1259 4134 
L 1259 2759 
L 3109 2759 
L 3109 2228 
L 1259 2228 
L 1259 0 
L 628 0 
L 628 4666 
z
" transform="scale(0.015625)"/>
      <path id="DejaVuSans-4f" d="M 2522 4238 
Q 1834 4238 1429 3725 
Q 1025 3213 1025 2328 
Q 1025 1447 1429 934 
Q 1834 422 2522 422 
Q 3209 422 3611 934 
Q 4013 1447 4013 2328 
Q 4013 3213 3611 3725 
Q 3209 4238 2522 4238 
z
M 2522 4750 
Q 3503 4750 4090 4092 
Q 4678 3434 4678 2328 
Q 4678 1225 4090 567 
Q 3503 -91 2522 -91 
Q 1538 -91 948 565 
Q 359 1222 359 2328 
Q 359 3434 948 4092 
Q 1538 4750 2522 4750 
z
" transform="scale(0.015625)"/>
      <path id="DejaVuSans-58" d="M 403 4666 
L 1081 4666 
L 2241 2931 
L 3406 4666 
L 4084 4666 
L 2584 2425 
L 4184 0 
L 3506 0 
L 2194 1984 
L 872 0 
L 191 0 
L 1856 2491 
L 403 4666 
z
" transform="scale(0.015625)"/>
      <path id="DejaVuSans-78" d="M 3513 3500 
L 2247 1797 
L 3578 0 
L 2900 0 
L 1881 1375 
L 863 0 
L 184 0 
L 1544 1831 
L 300 3500 
L 978 3500 
L 1906 2253 
L 2834 3500 
L 3513 3500 
z
" transform="scale(0.015625)"/>
     </defs>
     <use xlink:href="#DejaVuSans-41"/>
     <use xlink:href="#DejaVuSans-64" x="66.658203"/>
     <use xlink:href="#DejaVuSans-6a" x="130.134766"/>
     <use xlink:href="#DejaVuSans-75" x="157.917969"/>
     <use xlink:href="#DejaVuSans-73" x="221.296875"/>
     <use xlink:href="#DejaVuSans-74" x="273.396484"/>
     <use xlink:href="#DejaVuSans-65" x="312.605469"/>
     <use xlink:href="#DejaVuSans-64" x="374.128906"/>
     <use xlink:href="#DejaVuSans-20" x="437.605469"/>
     <use xlink:href="#DejaVuSans-50" x="469.392578"/>
     <use xlink:href="#DejaVuSans-61" x="525.195312"/>
     <use xlink:href="#DejaVuSans-72" x="586.474609"/>
     <use xlink:href="#DejaVuSans-74" x="627.587891"/>
     <use xlink:href="#DejaVuSans-69" x="666.796875"/>
     <use xlink:href="#DejaVuSans-61" x="694.580078"/>
     <use xlink:href="#DejaVuSans-6c" x="755.859375"/>
     <use xlink:href="#DejaVuSans-20" x="783.642578"/>
     <use xlink:href="#DejaVuSans-45" x="815.429688"/>
     <use xlink:href="#DejaVuSans-66" x="878.613281"/>
     <use xlink:href="#DejaVuSans-66" x="913.818359"/>
     <use xlink:href="#DejaVuSans-65" x="949.023438"/>
     <use xlink:href="#DejaVuSans-63" x="1010.546875"/>
     <use xlink:href="#DejaVuSans-74" x="1065.527344"/>
     <use xlink:href="#DejaVuSans-73" x="1104.736328"/>
     <use xlink:href="#DejaVuSans-20" x="1156.835938"/>
     <use xlink:href="#DejaVuSans-6f" x="1188.623047"/>
     <use xlink:href="#DejaVuSans-66" x="1249.804688"/>
     <use xlink:href="#DejaVuSans-20" x="1285.009766"/>
     <use xlink:href="#DejaVuSans-43" x="1316.796875"/>
     <use xlink:href="#DejaVuSans-6f" x="1386.621094"/>
     <use xlink:href="#DejaVuSans-6e" x="1447.802734"/>
     <use xlink:href="#DejaVuSans-74" x="1511.181641"/>
     <use xlink:href="#DejaVuSans-69" x="1550.390625"/>
     <use xlink:href="#DejaVuSans-6e" x="1578.173828"/>
     <use xlink:href="#DejaVuSans-75" x="1641.552734"/>
     <use xlink:href="#DejaVuSans-6f" x="1704.931641"/>
     <use xlink:href="#DejaVuSans-75" x="1766.113281"/>
     <use xlink:href="#DejaVuSans-73" x="1829.492188"/>
     <use xlink:href="#DejaVuSans-20" x="1881.591797"/>
     <use xlink:href="#DejaVuSans-46" x="1913.378906"/>
     <use xlink:href="#DejaVuSans-4f" x="1970.898438"/>
     <use xlink:href="#DejaVuSans-58" x="2043.234375"/>
     <use xlink:href="#DejaVuSans-50" x="2111.740234"/>
     <use xlink:href="#DejaVuSans-33" x="2172.042969"/>
     <use xlink:href="#DejaVuSans-20" x="2235.666016"/>
     <use xlink:href="#DejaVuSans-45" x="2267.453125"/>
     <use xlink:href="#DejaVuSans-78" x="2330.636719"/>
     <use xlink:href="#DejaVuSans-70" x="2389.816406"/>
     <use xlink:href="#DejaVuSans-72" x="2453.292969"/>
     <use xlink:href="#DejaVuSans-65" x="2492.15625"/>
     <use xlink:href="#DejaVuSans-73" x="2553.679688"/>
     <use xlink:href="#DejaVuSans-73" x="2605.779297"/>
     <use xlink:href="#DejaVuSans-69" x="2657.878906"/>
     <use xlink:href="#DejaVuSans-6f" x="2685.662109"/>
     <use xlink:href="#DejaVuSans-6e" x="2746.84375"/>
     <use xlink:href="#DejaVuSans-20" x="2810.222656"/>
     <use xlink:href="#DejaVuSans-6f" x="2842.009766"/>
     <use xlink:href="#DejaVuSans-6e" x="2903.191406"/>
     <use xlink:href="#DejaVuSans-20" x="2966.570312"/>
     <use xlink:href="#DejaVuSans-53" x="2998.357422"/>
     <use xlink:href="#DejaVuSans-75" x="3061.833984"/>
     <use xlink:href="#DejaVuSans-72" x="3125.212891"/>
     <use xlink:href="#DejaVuSans-76" x="3166.326172"/>
     <use xlink:href="#DejaVuSans-69" x="3225.505859"/>
     <use xlink:href="#DejaVuSans-76" x="3253.289062"/>
     <use xlink:href="#DejaVuSans-61" x="3312.46875"/>
     <use xlink:href="#DejaVuSans-6c" x="3373.748047"/>
    </g>
   </g>
  </g>
 </g>
 <defs>
  <clipPath id="pf5573b0593">
   <rect x="43.78125" y="22.318125" width="558" height="332.64"/>
  </clipPath>
 </defs>
</svg>
