<?xml version="1.0" encoding="utf-8" standalone="no"?>
<!DOCTYPE svg PUBLIC "-//W3C//DTD SVG 1.1//EN"
  "http://www.w3.org/Graphics/SVG/1.1/DTD/svg11.dtd">
<svg xmlns:xlink="http://www.w3.org/1999/xlink" width="608.98125pt" height="392.514375pt" viewBox="0 0 608.98125 392.514375" xmlns="http://www.w3.org/2000/svg" version="1.1">
 <metadata>
  <rdf:RDF xmlns:dc="http://purl.org/dc/elements/1.1/" xmlns:cc="http://creativecommons.org/ns#" xmlns:rdf="http://www.w3.org/1999/02/22-rdf-syntax-ns#">
   <cc:Work>
    <dc:type rdf:resource="http://purl.org/dc/dcmitype/StillImage"/>
    <dc:date>2024-07-08T09:39:48.668064</dc:date>
    <dc:format>image/svg+xml</dc:format>
    <dc:creator>
     <cc:Agent>
      <dc:title>Matplotlib v3.9.0, https://matplotlib.org/</dc:title>
     </cc:Agent>
    </dc:creator>
   </cc:Work>
  </rdf:RDF>
 </metadata>
 <defs>
  <style type="text/css">*{stroke-linejoin: round; stroke-linecap: butt}</style>
 </defs>
 <g id="figure_1">
  <g id="patch_1">
   <path d="M 0 392.514375 
L 608.98125 392.514375 
L 608.98125 0 
L 0 0 
z
" style="fill: #ffffff"/>
  </g>
  <g id="axes_1">
   <g id="patch_2">
    <path d="M 43.78125 354.958125 
L 601.78125 354.958125 
L 601.78125 22.318125 
L 43.78125 22.318125 
z
" style="fill: #ffffff"/>
   </g>
   <g id="matplotlib.axis_1">
    <g id="xtick_1">
     <g id="line2d_1">
      <defs>
       <path id="m1803f87d9e" d="M 0 0 
L 0 3.5 
" style="stroke: #000000; stroke-width: 0.8"/>
      </defs>
      <g>
       <use xlink:href="#m1803f87d9e" x="68.220892" y="354.958125" style="stroke: #000000; stroke-width: 0.8"/>
      </g>
     </g>
     <g id="text_1">
      <!-- 0 -->
      <g transform="translate(65.039642 369.556562) scale(0.1 -0.1)">
       <defs>
        <path id="DejaVuSans-30" d="M 2034 4250 
Q 1547 4250 1301 3770 
Q 1056 3291 1056 2328 
Q 1056 1369 1301 889 
Q 1547 409 2034 409 
Q 2525 409 2770 889 
Q 3016 1369 3016 2328 
Q 3016 3291 2770 3770 
Q 2525 4250 2034 4250 
z
M 2034 4750 
Q 2819 4750 3233 4129 
Q 3647 3509 3647 2328 
Q 3647 1150 3233 529 
Q 2819 -91 2034 -91 
Q 1250 -91 836 529 
Q 422 1150 422 2328 
Q 422 3509 836 4129 
Q 1250 4750 2034 4750 
z
" transform="scale(0.015625)"/>
       </defs>
       <use xlink:href="#DejaVuSans-30"/>
      </g>
     </g>
    </g>
    <g id="xtick_2">
     <g id="line2d_2">
      <g>
       <use xlink:href="#m1803f87d9e" x="145.220396" y="354.958125" style="stroke: #000000; stroke-width: 0.8"/>
      </g>
     </g>
     <g id="text_2">
      <!-- 1000 -->
      <g transform="translate(132.495396 369.556562) scale(0.1 -0.1)">
       <defs>
        <path id="DejaVuSans-31" d="M 794 531 
L 1825 531 
L 1825 4091 
L 703 3866 
L 703 4441 
L 1819 4666 
L 2450 4666 
L 2450 531 
L 3481 531 
L 3481 0 
L 794 0 
L 794 531 
z
" transform="scale(0.015625)"/>
       </defs>
       <use xlink:href="#DejaVuSans-31"/>
       <use xlink:href="#DejaVuSans-30" x="63.623047"/>
       <use xlink:href="#DejaVuSans-30" x="127.246094"/>
       <use xlink:href="#DejaVuSans-30" x="190.869141"/>
      </g>
     </g>
    </g>
    <g id="xtick_3">
     <g id="line2d_3">
      <g>
       <use xlink:href="#m1803f87d9e" x="222.219899" y="354.958125" style="stroke: #000000; stroke-width: 0.8"/>
      </g>
     </g>
     <g id="text_3">
      <!-- 2000 -->
      <g transform="translate(209.494899 369.556562) scale(0.1 -0.1)">
       <defs>
        <path id="DejaVuSans-32" d="M 1228 531 
L 3431 531 
L 3431 0 
L 469 0 
L 469 531 
Q 828 903 1448 1529 
Q 2069 2156 2228 2338 
Q 2531 2678 2651 2914 
Q 2772 3150 2772 3378 
Q 2772 3750 2511 3984 
Q 2250 4219 1831 4219 
Q 1534 4219 1204 4116 
Q 875 4013 500 3803 
L 500 4441 
Q 881 4594 1212 4672 
Q 1544 4750 1819 4750 
Q 2544 4750 2975 4387 
Q 3406 4025 3406 3419 
Q 3406 3131 3298 2873 
Q 3191 2616 2906 2266 
Q 2828 2175 2409 1742 
Q 1991 1309 1228 531 
z
" transform="scale(0.015625)"/>
       </defs>
       <use xlink:href="#DejaVuSans-32"/>
       <use xlink:href="#DejaVuSans-30" x="63.623047"/>
       <use xlink:href="#DejaVuSans-30" x="127.246094"/>
       <use xlink:href="#DejaVuSans-30" x="190.869141"/>
      </g>
     </g>
    </g>
    <g id="xtick_4">
     <g id="line2d_4">
      <g>
       <use xlink:href="#m1803f87d9e" x="299.219402" y="354.958125" style="stroke: #000000; stroke-width: 0.8"/>
      </g>
     </g>
     <g id="text_4">
      <!-- 3000 -->
      <g transform="translate(286.494402 369.556562) scale(0.1 -0.1)">
       <defs>
        <path id="DejaVuSans-33" d="M 2597 2516 
Q 3050 2419 3304 2112 
Q 3559 1806 3559 1356 
Q 3559 666 3084 287 
Q 2609 -91 1734 -91 
Q 1441 -91 1130 -33 
Q 819 25 488 141 
L 488 750 
Q 750 597 1062 519 
Q 1375 441 1716 441 
Q 2309 441 2620 675 
Q 2931 909 2931 1356 
Q 2931 1769 2642 2001 
Q 2353 2234 1838 2234 
L 1294 2234 
L 1294 2753 
L 1863 2753 
Q 2328 2753 2575 2939 
Q 2822 3125 2822 3475 
Q 2822 3834 2567 4026 
Q 2313 4219 1838 4219 
Q 1578 4219 1281 4162 
Q 984 4106 628 3988 
L 628 4550 
Q 988 4650 1302 4700 
Q 1616 4750 1894 4750 
Q 2613 4750 3031 4423 
Q 3450 4097 3450 3541 
Q 3450 3153 3228 2886 
Q 3006 2619 2597 2516 
z
" transform="scale(0.015625)"/>
       </defs>
       <use xlink:href="#DejaVuSans-33"/>
       <use xlink:href="#DejaVuSans-30" x="63.623047"/>
       <use xlink:href="#DejaVuSans-30" x="127.246094"/>
       <use xlink:href="#DejaVuSans-30" x="190.869141"/>
      </g>
     </g>
    </g>
    <g id="xtick_5">
     <g id="line2d_5">
      <g>
       <use xlink:href="#m1803f87d9e" x="376.218905" y="354.958125" style="stroke: #000000; stroke-width: 0.8"/>
      </g>
     </g>
     <g id="text_5">
      <!-- 4000 -->
      <g transform="translate(363.493905 369.556562) scale(0.1 -0.1)">
       <defs>
        <path id="DejaVuSans-34" d="M 2419 4116 
L 825 1625 
L 2419 1625 
L 2419 4116 
z
M 2253 4666 
L 3047 4666 
L 3047 1625 
L 3713 1625 
L 3713 1100 
L 3047 1100 
L 3047 0 
L 2419 0 
L 2419 1100 
L 313 1100 
L 313 1709 
L 2253 4666 
z
" transform="scale(0.015625)"/>
       </defs>
       <use xlink:href="#DejaVuSans-34"/>
       <use xlink:href="#DejaVuSans-30" x="63.623047"/>
       <use xlink:href="#DejaVuSans-30" x="127.246094"/>
       <use xlink:href="#DejaVuSans-30" x="190.869141"/>
      </g>
     </g>
    </g>
    <g id="xtick_6">
     <g id="line2d_6">
      <g>
       <use xlink:href="#m1803f87d9e" x="453.218408" y="354.958125" style="stroke: #000000; stroke-width: 0.8"/>
      </g>
     </g>
     <g id="text_6">
      <!-- 5000 -->
      <g transform="translate(440.493408 369.556562) scale(0.1 -0.1)">
       <defs>
        <path id="DejaVuSans-35" d="M 691 4666 
L 3169 4666 
L 3169 4134 
L 1269 4134 
L 1269 2991 
Q 1406 3038 1543 3061 
Q 1681 3084 1819 3084 
Q 2600 3084 3056 2656 
Q 3513 2228 3513 1497 
Q 3513 744 3044 326 
Q 2575 -91 1722 -91 
Q 1428 -91 1123 -41 
Q 819 9 494 109 
L 494 744 
Q 775 591 1075 516 
Q 1375 441 1709 441 
Q 2250 441 2565 725 
Q 2881 1009 2881 1497 
Q 2881 1984 2565 2268 
Q 2250 2553 1709 2553 
Q 1456 2553 1204 2497 
Q 953 2441 691 2322 
L 691 4666 
z
" transform="scale(0.015625)"/>
       </defs>
       <use xlink:href="#DejaVuSans-35"/>
       <use xlink:href="#DejaVuSans-30" x="63.623047"/>
       <use xlink:href="#DejaVuSans-30" x="127.246094"/>
       <use xlink:href="#DejaVuSans-30" x="190.869141"/>
      </g>
     </g>
    </g>
    <g id="xtick_7">
     <g id="line2d_7">
      <g>
       <use xlink:href="#m1803f87d9e" x="530.217912" y="354.958125" style="stroke: #000000; stroke-width: 0.8"/>
      </g>
     </g>
     <g id="text_7">
      <!-- 6000 -->
      <g transform="translate(517.492912 369.556562) scale(0.1 -0.1)">
       <defs>
        <path id="DejaVuSans-36" d="M 2113 2584 
Q 1688 2584 1439 2293 
Q 1191 2003 1191 1497 
Q 1191 994 1439 701 
Q 1688 409 2113 409 
Q 2538 409 2786 701 
Q 3034 994 3034 1497 
Q 3034 2003 2786 2293 
Q 2538 2584 2113 2584 
z
M 3366 4563 
L 3366 3988 
Q 3128 4100 2886 4159 
Q 2644 4219 2406 4219 
Q 1781 4219 1451 3797 
Q 1122 3375 1075 2522 
Q 1259 2794 1537 2939 
Q 1816 3084 2150 3084 
Q 2853 3084 3261 2657 
Q 3669 2231 3669 1497 
Q 3669 778 3244 343 
Q 2819 -91 2113 -91 
Q 1303 -91 875 529 
Q 447 1150 447 2328 
Q 447 3434 972 4092 
Q 1497 4750 2381 4750 
Q 2619 4750 2861 4703 
Q 3103 4656 3366 4563 
z
" transform="scale(0.015625)"/>
       </defs>
       <use xlink:href="#DejaVuSans-36"/>
       <use xlink:href="#DejaVuSans-30" x="63.623047"/>
       <use xlink:href="#DejaVuSans-30" x="127.246094"/>
       <use xlink:href="#DejaVuSans-30" x="190.869141"/>
      </g>
     </g>
    </g>
    <g id="text_8">
     <!-- Time in Days -->
     <g transform="translate(290.333594 383.234687) scale(0.1 -0.1)">
      <defs>
       <path id="DejaVuSans-54" d="M -19 4666 
L 3928 4666 
L 3928 4134 
L 2272 4134 
L 2272 0 
L 1638 0 
L 1638 4134 
L -19 4134 
L -19 4666 
z
" transform="scale(0.015625)"/>
       <path id="DejaVuSans-69" d="M 603 3500 
L 1178 3500 
L 1178 0 
L 603 0 
L 603 3500 
z
M 603 4863 
L 1178 4863 
L 1178 4134 
L 603 4134 
L 603 4863 
z
" transform="scale(0.015625)"/>
       <path id="DejaVuSans-6d" d="M 3328 2828 
Q 3544 3216 3844 3400 
Q 4144 3584 4550 3584 
Q 5097 3584 5394 3201 
Q 5691 2819 5691 2113 
L 5691 0 
L 5113 0 
L 5113 2094 
Q 5113 2597 4934 2840 
Q 4756 3084 4391 3084 
Q 3944 3084 3684 2787 
Q 3425 2491 3425 1978 
L 3425 0 
L 2847 0 
L 2847 2094 
Q 2847 2600 2669 2842 
Q 2491 3084 2119 3084 
Q 1678 3084 1418 2786 
Q 1159 2488 1159 1978 
L 1159 0 
L 581 0 
L 581 3500 
L 1159 3500 
L 1159 2956 
Q 1356 3278 1631 3431 
Q 1906 3584 2284 3584 
Q 2666 3584 2933 3390 
Q 3200 3197 3328 2828 
z
" transform="scale(0.015625)"/>
       <path id="DejaVuSans-65" d="M 3597 1894 
L 3597 1613 
L 953 1613 
Q 991 1019 1311 708 
Q 1631 397 2203 397 
Q 2534 397 2845 478 
Q 3156 559 3463 722 
L 3463 178 
Q 3153 47 2828 -22 
Q 2503 -91 2169 -91 
Q 1331 -91 842 396 
Q 353 884 353 1716 
Q 353 2575 817 3079 
Q 1281 3584 2069 3584 
Q 2775 3584 3186 3129 
Q 3597 2675 3597 1894 
z
M 3022 2063 
Q 3016 2534 2758 2815 
Q 2500 3097 2075 3097 
Q 1594 3097 1305 2825 
Q 1016 2553 972 2059 
L 3022 2063 
z
" transform="scale(0.015625)"/>
       <path id="DejaVuSans-20" transform="scale(0.015625)"/>
       <path id="DejaVuSans-6e" d="M 3513 2113 
L 3513 0 
L 2938 0 
L 2938 2094 
Q 2938 2591 2744 2837 
Q 2550 3084 2163 3084 
Q 1697 3084 1428 2787 
Q 1159 2491 1159 1978 
L 1159 0 
L 581 0 
L 581 3500 
L 1159 3500 
L 1159 2956 
Q 1366 3272 1645 3428 
Q 1925 3584 2291 3584 
Q 2894 3584 3203 3211 
Q 3513 2838 3513 2113 
z
" transform="scale(0.015625)"/>
       <path id="DejaVuSans-44" d="M 1259 4147 
L 1259 519 
L 2022 519 
Q 2988 519 3436 956 
Q 3884 1394 3884 2338 
Q 3884 3275 3436 3711 
Q 2988 4147 2022 4147 
L 1259 4147 
z
M 628 4666 
L 1925 4666 
Q 3281 4666 3915 4102 
Q 4550 3538 4550 2338 
Q 4550 1131 3912 565 
Q 3275 0 1925 0 
L 628 0 
L 628 4666 
z
" transform="scale(0.015625)"/>
       <path id="DejaVuSans-61" d="M 2194 1759 
Q 1497 1759 1228 1600 
Q 959 1441 959 1056 
Q 959 750 1161 570 
Q 1363 391 1709 391 
Q 2188 391 2477 730 
Q 2766 1069 2766 1631 
L 2766 1759 
L 2194 1759 
z
M 3341 1997 
L 3341 0 
L 2766 0 
L 2766 531 
Q 2569 213 2275 61 
Q 1981 -91 1556 -91 
Q 1019 -91 701 211 
Q 384 513 384 1019 
Q 384 1609 779 1909 
Q 1175 2209 1959 2209 
L 2766 2209 
L 2766 2266 
Q 2766 2663 2505 2880 
Q 2244 3097 1772 3097 
Q 1472 3097 1187 3025 
Q 903 2953 641 2809 
L 641 3341 
Q 956 3463 1253 3523 
Q 1550 3584 1831 3584 
Q 2591 3584 2966 3190 
Q 3341 2797 3341 1997 
z
" transform="scale(0.015625)"/>
       <path id="DejaVuSans-79" d="M 2059 -325 
Q 1816 -950 1584 -1140 
Q 1353 -1331 966 -1331 
L 506 -1331 
L 506 -850 
L 844 -850 
Q 1081 -850 1212 -737 
Q 1344 -625 1503 -206 
L 1606 56 
L 191 3500 
L 800 3500 
L 1894 763 
L 2988 3500 
L 3597 3500 
L 2059 -325 
z
" transform="scale(0.015625)"/>
       <path id="DejaVuSans-73" d="M 2834 3397 
L 2834 2853 
Q 2591 2978 2328 3040 
Q 2066 3103 1784 3103 
Q 1356 3103 1142 2972 
Q 928 2841 928 2578 
Q 928 2378 1081 2264 
Q 1234 2150 1697 2047 
L 1894 2003 
Q 2506 1872 2764 1633 
Q 3022 1394 3022 966 
Q 3022 478 2636 193 
Q 2250 -91 1575 -91 
Q 1294 -91 989 -36 
Q 684 19 347 128 
L 347 722 
Q 666 556 975 473 
Q 1284 391 1588 391 
Q 1994 391 2212 530 
Q 2431 669 2431 922 
Q 2431 1156 2273 1281 
Q 2116 1406 1581 1522 
L 1381 1569 
Q 847 1681 609 1914 
Q 372 2147 372 2553 
Q 372 3047 722 3315 
Q 1072 3584 1716 3584 
Q 2034 3584 2315 3537 
Q 2597 3491 2834 3397 
z
" transform="scale(0.015625)"/>
      </defs>
      <use xlink:href="#DejaVuSans-54"/>
      <use xlink:href="#DejaVuSans-69" x="57.958984"/>
      <use xlink:href="#DejaVuSans-6d" x="85.742188"/>
      <use xlink:href="#DejaVuSans-65" x="183.154297"/>
      <use xlink:href="#DejaVuSans-20" x="244.677734"/>
      <use xlink:href="#DejaVuSans-69" x="276.464844"/>
      <use xlink:href="#DejaVuSans-6e" x="304.248047"/>
      <use xlink:href="#DejaVuSans-20" x="367.626953"/>
      <use xlink:href="#DejaVuSans-44" x="399.414062"/>
      <use xlink:href="#DejaVuSans-61" x="476.416016"/>
      <use xlink:href="#DejaVuSans-79" x="537.695312"/>
      <use xlink:href="#DejaVuSans-73" x="596.875"/>
     </g>
    </g>
   </g>
   <g id="matplotlib.axis_2">
    <g id="ytick_1">
     <g id="line2d_8">
      <defs>
       <path id="m4197783ef1" d="M 0 0 
L -3.5 0 
" style="stroke: #000000; stroke-width: 0.8"/>
      </defs>
      <g>
       <use xlink:href="#m4197783ef1" x="43.78125" y="348.561202" style="stroke: #000000; stroke-width: 0.8"/>
      </g>
     </g>
     <g id="text_9">
      <!-- 0.5 -->
      <g transform="translate(20.878125 352.360421) scale(0.1 -0.1)">
       <defs>
        <path id="DejaVuSans-2e" d="M 684 794 
L 1344 794 
L 1344 0 
L 684 0 
L 684 794 
z
" transform="scale(0.015625)"/>
       </defs>
       <use xlink:href="#DejaVuSans-30"/>
       <use xlink:href="#DejaVuSans-2e" x="63.623047"/>
       <use xlink:href="#DejaVuSans-35" x="95.410156"/>
      </g>
     </g>
    </g>
    <g id="ytick_2">
     <g id="line2d_9">
      <g>
       <use xlink:href="#m4197783ef1" x="43.78125" y="284.591971" style="stroke: #000000; stroke-width: 0.8"/>
      </g>
     </g>
     <g id="text_10">
      <!-- 0.6 -->
      <g transform="translate(20.878125 288.39119) scale(0.1 -0.1)">
       <use xlink:href="#DejaVuSans-30"/>
       <use xlink:href="#DejaVuSans-2e" x="63.623047"/>
       <use xlink:href="#DejaVuSans-36" x="95.410156"/>
      </g>
     </g>
    </g>
    <g id="ytick_3">
     <g id="line2d_10">
      <g>
       <use xlink:href="#m4197783ef1" x="43.78125" y="220.62274" style="stroke: #000000; stroke-width: 0.8"/>
      </g>
     </g>
     <g id="text_11">
      <!-- 0.7 -->
      <g transform="translate(20.878125 224.421959) scale(0.1 -0.1)">
       <defs>
        <path id="DejaVuSans-37" d="M 525 4666 
L 3525 4666 
L 3525 4397 
L 1831 0 
L 1172 0 
L 2766 4134 
L 525 4134 
L 525 4666 
z
" transform="scale(0.015625)"/>
       </defs>
       <use xlink:href="#DejaVuSans-30"/>
       <use xlink:href="#DejaVuSans-2e" x="63.623047"/>
       <use xlink:href="#DejaVuSans-37" x="95.410156"/>
      </g>
     </g>
    </g>
    <g id="ytick_4">
     <g id="line2d_11">
      <g>
       <use xlink:href="#m4197783ef1" x="43.78125" y="156.65351" style="stroke: #000000; stroke-width: 0.8"/>
      </g>
     </g>
     <g id="text_12">
      <!-- 0.8 -->
      <g transform="translate(20.878125 160.452728) scale(0.1 -0.1)">
       <defs>
        <path id="DejaVuSans-38" d="M 2034 2216 
Q 1584 2216 1326 1975 
Q 1069 1734 1069 1313 
Q 1069 891 1326 650 
Q 1584 409 2034 409 
Q 2484 409 2743 651 
Q 3003 894 3003 1313 
Q 3003 1734 2745 1975 
Q 2488 2216 2034 2216 
z
M 1403 2484 
Q 997 2584 770 2862 
Q 544 3141 544 3541 
Q 544 4100 942 4425 
Q 1341 4750 2034 4750 
Q 2731 4750 3128 4425 
Q 3525 4100 3525 3541 
Q 3525 3141 3298 2862 
Q 3072 2584 2669 2484 
Q 3125 2378 3379 2068 
Q 3634 1759 3634 1313 
Q 3634 634 3220 271 
Q 2806 -91 2034 -91 
Q 1263 -91 848 271 
Q 434 634 434 1313 
Q 434 1759 690 2068 
Q 947 2378 1403 2484 
z
M 1172 3481 
Q 1172 3119 1398 2916 
Q 1625 2713 2034 2713 
Q 2441 2713 2670 2916 
Q 2900 3119 2900 3481 
Q 2900 3844 2670 4047 
Q 2441 4250 2034 4250 
Q 1625 4250 1398 4047 
Q 1172 3844 1172 3481 
z
" transform="scale(0.015625)"/>
       </defs>
       <use xlink:href="#DejaVuSans-30"/>
       <use xlink:href="#DejaVuSans-2e" x="63.623047"/>
       <use xlink:href="#DejaVuSans-38" x="95.410156"/>
      </g>
     </g>
    </g>
    <g id="ytick_5">
     <g id="line2d_12">
      <g>
       <use xlink:href="#m4197783ef1" x="43.78125" y="92.684279" style="stroke: #000000; stroke-width: 0.8"/>
      </g>
     </g>
     <g id="text_13">
      <!-- 0.9 -->
      <g transform="translate(20.878125 96.483498) scale(0.1 -0.1)">
       <defs>
        <path id="DejaVuSans-39" d="M 703 97 
L 703 672 
Q 941 559 1184 500 
Q 1428 441 1663 441 
Q 2288 441 2617 861 
Q 2947 1281 2994 2138 
Q 2813 1869 2534 1725 
Q 2256 1581 1919 1581 
Q 1219 1581 811 2004 
Q 403 2428 403 3163 
Q 403 3881 828 4315 
Q 1253 4750 1959 4750 
Q 2769 4750 3195 4129 
Q 3622 3509 3622 2328 
Q 3622 1225 3098 567 
Q 2575 -91 1691 -91 
Q 1453 -91 1209 -44 
Q 966 3 703 97 
z
M 1959 2075 
Q 2384 2075 2632 2365 
Q 2881 2656 2881 3163 
Q 2881 3666 2632 3958 
Q 2384 4250 1959 4250 
Q 1534 4250 1286 3958 
Q 1038 3666 1038 3163 
Q 1038 2656 1286 2365 
Q 1534 2075 1959 2075 
z
" transform="scale(0.015625)"/>
       </defs>
       <use xlink:href="#DejaVuSans-30"/>
       <use xlink:href="#DejaVuSans-2e" x="63.623047"/>
       <use xlink:href="#DejaVuSans-39" x="95.410156"/>
      </g>
     </g>
    </g>
    <g id="ytick_6">
     <g id="line2d_13">
      <g>
       <use xlink:href="#m4197783ef1" x="43.78125" y="28.715048" style="stroke: #000000; stroke-width: 0.8"/>
      </g>
     </g>
     <g id="text_14">
      <!-- 1.0 -->
      <g transform="translate(20.878125 32.514267) scale(0.1 -0.1)">
       <use xlink:href="#DejaVuSans-31"/>
       <use xlink:href="#DejaVuSans-2e" x="63.623047"/>
       <use xlink:href="#DejaVuSans-30" x="95.410156"/>
      </g>
     </g>
    </g>
    <g id="text_15">
     <!-- Survival Probability -->
     <g transform="translate(14.798438 236.815469) rotate(-90) scale(0.1 -0.1)">
      <defs>
       <path id="DejaVuSans-53" d="M 3425 4513 
L 3425 3897 
Q 3066 4069 2747 4153 
Q 2428 4238 2131 4238 
Q 1616 4238 1336 4038 
Q 1056 3838 1056 3469 
Q 1056 3159 1242 3001 
Q 1428 2844 1947 2747 
L 2328 2669 
Q 3034 2534 3370 2195 
Q 3706 1856 3706 1288 
Q 3706 609 3251 259 
Q 2797 -91 1919 -91 
Q 1588 -91 1214 -16 
Q 841 59 441 206 
L 441 856 
Q 825 641 1194 531 
Q 1563 422 1919 422 
Q 2459 422 2753 634 
Q 3047 847 3047 1241 
Q 3047 1584 2836 1778 
Q 2625 1972 2144 2069 
L 1759 2144 
Q 1053 2284 737 2584 
Q 422 2884 422 3419 
Q 422 4038 858 4394 
Q 1294 4750 2059 4750 
Q 2388 4750 2728 4690 
Q 3069 4631 3425 4513 
z
" transform="scale(0.015625)"/>
       <path id="DejaVuSans-75" d="M 544 1381 
L 544 3500 
L 1119 3500 
L 1119 1403 
Q 1119 906 1312 657 
Q 1506 409 1894 409 
Q 2359 409 2629 706 
Q 2900 1003 2900 1516 
L 2900 3500 
L 3475 3500 
L 3475 0 
L 2900 0 
L 2900 538 
Q 2691 219 2414 64 
Q 2138 -91 1772 -91 
Q 1169 -91 856 284 
Q 544 659 544 1381 
z
M 1991 3584 
L 1991 3584 
z
" transform="scale(0.015625)"/>
       <path id="DejaVuSans-72" d="M 2631 2963 
Q 2534 3019 2420 3045 
Q 2306 3072 2169 3072 
Q 1681 3072 1420 2755 
Q 1159 2438 1159 1844 
L 1159 0 
L 581 0 
L 581 3500 
L 1159 3500 
L 1159 2956 
Q 1341 3275 1631 3429 
Q 1922 3584 2338 3584 
Q 2397 3584 2469 3576 
Q 2541 3569 2628 3553 
L 2631 2963 
z
" transform="scale(0.015625)"/>
       <path id="DejaVuSans-76" d="M 191 3500 
L 800 3500 
L 1894 563 
L 2988 3500 
L 3597 3500 
L 2284 0 
L 1503 0 
L 191 3500 
z
" transform="scale(0.015625)"/>
       <path id="DejaVuSans-6c" d="M 603 4863 
L 1178 4863 
L 1178 0 
L 603 0 
L 603 4863 
z
" transform="scale(0.015625)"/>
       <path id="DejaVuSans-50" d="M 1259 4147 
L 1259 2394 
L 2053 2394 
Q 2494 2394 2734 2622 
Q 2975 2850 2975 3272 
Q 2975 3691 2734 3919 
Q 2494 4147 2053 4147 
L 1259 4147 
z
M 628 4666 
L 2053 4666 
Q 2838 4666 3239 4311 
Q 3641 3956 3641 3272 
Q 3641 2581 3239 2228 
Q 2838 1875 2053 1875 
L 1259 1875 
L 1259 0 
L 628 0 
L 628 4666 
z
" transform="scale(0.015625)"/>
       <path id="DejaVuSans-6f" d="M 1959 3097 
Q 1497 3097 1228 2736 
Q 959 2375 959 1747 
Q 959 1119 1226 758 
Q 1494 397 1959 397 
Q 2419 397 2687 759 
Q 2956 1122 2956 1747 
Q 2956 2369 2687 2733 
Q 2419 3097 1959 3097 
z
M 1959 3584 
Q 2709 3584 3137 3096 
Q 3566 2609 3566 1747 
Q 3566 888 3137 398 
Q 2709 -91 1959 -91 
Q 1206 -91 779 398 
Q 353 888 353 1747 
Q 353 2609 779 3096 
Q 1206 3584 1959 3584 
z
" transform="scale(0.015625)"/>
       <path id="DejaVuSans-62" d="M 3116 1747 
Q 3116 2381 2855 2742 
Q 2594 3103 2138 3103 
Q 1681 3103 1420 2742 
Q 1159 2381 1159 1747 
Q 1159 1113 1420 752 
Q 1681 391 2138 391 
Q 2594 391 2855 752 
Q 3116 1113 3116 1747 
z
M 1159 2969 
Q 1341 3281 1617 3432 
Q 1894 3584 2278 3584 
Q 2916 3584 3314 3078 
Q 3713 2572 3713 1747 
Q 3713 922 3314 415 
Q 2916 -91 2278 -91 
Q 1894 -91 1617 61 
Q 1341 213 1159 525 
L 1159 0 
L 581 0 
L 581 4863 
L 1159 4863 
L 1159 2969 
z
" transform="scale(0.015625)"/>
       <path id="DejaVuSans-74" d="M 1172 4494 
L 1172 3500 
L 2356 3500 
L 2356 3053 
L 1172 3053 
L 1172 1153 
Q 1172 725 1289 603 
Q 1406 481 1766 481 
L 2356 481 
L 2356 0 
L 1766 0 
Q 1100 0 847 248 
Q 594 497 594 1153 
L 594 3053 
L 172 3053 
L 172 3500 
L 594 3500 
L 594 4494 
L 1172 4494 
z
" transform="scale(0.015625)"/>
      </defs>
      <use xlink:href="#DejaVuSans-53"/>
      <use xlink:href="#DejaVuSans-75" x="63.476562"/>
      <use xlink:href="#DejaVuSans-72" x="126.855469"/>
      <use xlink:href="#DejaVuSans-76" x="167.96875"/>
      <use xlink:href="#DejaVuSans-69" x="227.148438"/>
      <use xlink:href="#DejaVuSans-76" x="254.931641"/>
      <use xlink:href="#DejaVuSans-61" x="314.111328"/>
      <use xlink:href="#DejaVuSans-6c" x="375.390625"/>
      <use xlink:href="#DejaVuSans-20" x="403.173828"/>
      <use xlink:href="#DejaVuSans-50" x="434.960938"/>
      <use xlink:href="#DejaVuSans-72" x="493.513672"/>
      <use xlink:href="#DejaVuSans-6f" x="532.376953"/>
      <use xlink:href="#DejaVuSans-62" x="593.558594"/>
      <use xlink:href="#DejaVuSans-61" x="657.035156"/>
      <use xlink:href="#DejaVuSans-62" x="718.314453"/>
      <use xlink:href="#DejaVuSans-69" x="781.791016"/>
      <use xlink:href="#DejaVuSans-6c" x="809.574219"/>
      <use xlink:href="#DejaVuSans-69" x="837.357422"/>
      <use xlink:href="#DejaVuSans-74" x="865.140625"/>
      <use xlink:href="#DejaVuSans-79" x="904.349609"/>
     </g>
    </g>
   </g>
   <g id="line2d_14">
    <path d="M 69.144886 29.441844 
L 73.30286 29.441844 
L 73.30286 30.175287 
L 75.150848 30.175287 
L 75.150848 30.90979 
L 76.151841 30.90979 
L 76.151841 31.646771 
L 81.079809 31.646771 
L 81.079809 32.392104 
L 83.620793 32.392104 
L 83.620793 33.144711 
L 83.851791 33.144711 
L 83.851791 33.897471 
L 84.159789 33.897471 
L 84.159789 34.654414 
L 84.313788 34.654414 
L 84.313788 36.173393 
L 85.006784 36.173393 
L 85.006784 36.935723 
L 85.160783 36.935723 
L 85.160783 37.702817 
L 86.623774 37.702817 
L 86.623774 38.477798 
L 88.394762 38.477798 
L 88.394762 39.258319 
L 88.933759 39.258319 
L 88.933759 40.046374 
L 93.630728 40.046374 
L 93.630728 40.838381 
L 94.785721 40.838381 
L 94.785721 41.640491 
L 95.940713 41.640491 
L 95.940713 43.249165 
L 96.248712 43.249165 
L 96.248712 44.86413 
L 97.095706 44.86413 
L 97.095706 45.674159 
L 97.480704 45.674159 
L 97.480704 46.484018 
L 98.327698 46.484018 
L 98.327698 47.299605 
L 99.328692 47.299605 
L 99.328692 48.116879 
L 99.944688 48.116879 
L 99.944688 48.952462 
L 100.021687 48.952462 
L 100.175686 48.952462 
L 100.252686 50.633245 
L 100.483684 50.633245 
L 100.483684 51.477947 
L 100.945681 51.477947 
L 100.945681 52.322121 
L 102.177673 52.322121 
L 102.177673 53.165699 
L 103.178667 53.165699 
L 103.178667 54.851846 
L 103.871662 54.851846 
L 103.871662 55.702487 
L 104.17966 55.702487 
L 104.17966 56.567748 
L 104.872656 56.567748 
L 104.872656 57.433599 
L 105.026655 57.433599 
L 105.103654 59.180979 
L 105.71965 59.180979 
L 105.71965 60.056081 
L 106.335646 60.056081 
L 106.335646 60.932272 
L 106.566645 60.932272 
L 106.643644 62.69142 
L 107.490639 62.69142 
L 107.490639 63.578539 
L 108.414633 63.578539 
L 108.414633 64.465876 
L 108.722631 64.465876 
L 108.722631 65.354672 
L 109.723625 65.354672 
L 109.723625 66.243413 
L 109.877624 66.243413 
L 109.877624 67.135007 
L 110.955617 67.135007 
L 110.955617 68.026675 
L 113.804598 68.026675 
L 113.881598 69.827031 
L 114.497594 69.827031 
L 114.574593 71.636481 
L 116.422581 71.636481 
L 116.422581 72.551651 
L 119.271563 72.551651 
L 119.271563 73.478743 
L 122.967539 73.478743 
L 122.967539 74.417827 
L 123.660535 74.417827 
L 123.660535 75.371919 
L 124.199531 75.371919 
L 124.199531 76.33262 
L 124.815527 76.33262 
L 124.815527 77.292992 
L 126.971513 77.292992 
L 126.971513 78.256961 
L 127.202512 78.256961 
L 127.202512 79.223169 
L 128.588503 79.223169 
L 128.588503 80.193704 
L 128.665502 80.193704 
L 129.666496 80.193704 
L 129.666496 81.165743 
L 133.131474 81.165743 
L 133.131474 82.151455 
L 133.362472 82.151455 
L 133.362472 84.131515 
L 135.21046 84.131515 
L 135.21046 85.128776 
L 136.673451 85.128776 
L 136.673451 86.143262 
L 136.904449 86.143262 
L 136.904449 87.169221 
L 137.443446 87.169221 
L 137.443446 88.196039 
L 139.676431 88.196039 
L 139.676431 89.223873 
L 146.298389 89.223873 
L 146.298389 90.271254 
L 148.993371 90.271254 
L 148.993371 91.329393 
L 149.686367 91.329393 
L 149.686367 92.396748 
L 149.763366 92.396748 
L 150.071364 92.396748 
L 150.071364 93.470954 
L 150.841359 93.470954 
L 150.841359 94.54884 
L 151.457355 94.54884 
L 151.457355 95.62988 
L 154.306337 95.62988 
L 154.306337 96.733291 
L 154.460336 96.733291 
L 154.460336 97.837653 
L 154.691334 97.837653 
L 154.691334 98.944137 
L 156.92432 98.944137 
L 156.92432 100.053723 
L 158.618309 100.053723 
L 158.618309 101.162599 
L 159.619303 101.162599 
L 159.619303 102.275598 
L 159.927301 102.275598 
L 159.927301 103.390831 
L 162.853282 103.390831 
L 162.853282 104.520492 
L 163.315279 104.520492 
L 163.315279 105.650791 
L 167.78125 105.650791 
L 167.78125 106.798754 
L 167.85825 106.798754 
L 171.477226 106.798754 
L 171.477226 107.968217 
L 173.094216 107.968217 
L 173.094216 109.140379 
L 174.095209 109.140379 
L 174.095209 110.313172 
L 175.789198 110.313172 
L 175.789198 111.49801 
L 176.097196 111.49801 
L 176.097196 112.684116 
L 179.485174 112.684116 
L 179.485174 113.920026 
L 180.17817 113.920026 
L 180.17817 115.158007 
L 186.800127 115.158007 
L 186.800127 116.433238 
L 195.65507 116.433238 
L 195.65507 117.773002 
L 198.73505 117.773002 
L 198.73505 119.129835 
L 204.741012 119.129835 
L 204.741012 120.549944 
L 208.359988 120.549944 
L 208.359988 122.01018 
L 222.989894 122.01018 
L 222.989894 123.605327 
L 232.383833 123.605327 
L 232.383833 125.348413 
L 232.460833 125.348413 
L 247.167738 125.348413 
L 247.167738 127.28533 
L 253.789695 127.28533 
L 253.789695 129.281607 
L 284.435497 129.281607 
L 284.435497 131.968893 
L 286.591483 131.968893 
L 286.591483 134.74818 
L 361.512 134.74818 
L 361.512 140.449488 
L 576.417614 140.449488 
L 576.417614 140.449488 
" clip-path="url(#pda0f0ce696)" style="fill: none; stroke: #2a5acb; stroke-width: 1.5; stroke-linecap: square"/>
   </g>
   <g id="line2d_15">
    <path d="M 69.144886 29.524471 
L 73.30286 29.524471 
L 73.30286 30.34119 
L 75.150848 30.34119 
L 75.150848 31.158984 
L 76.151841 31.158984 
L 76.151841 31.979428 
L 81.079809 31.979428 
L 81.079809 32.809061 
L 83.620793 32.809061 
L 83.620793 33.646678 
L 83.851791 33.646678 
L 83.851791 34.484352 
L 84.159789 34.484352 
L 84.159789 35.326567 
L 84.313788 35.326567 
L 84.313788 37.016319 
L 85.006784 37.016319 
L 85.006784 37.864181 
L 85.160783 37.864181 
L 85.160783 38.717223 
L 86.623774 38.717223 
L 86.623774 39.578917 
L 88.394762 39.578917 
L 88.394762 40.446648 
L 88.933759 40.446648 
L 88.933759 41.322632 
L 93.630728 41.322632 
L 93.630728 42.202881 
L 94.785721 42.202881 
L 94.785721 43.094231 
L 95.940713 43.094231 
L 95.940713 44.88149 
L 96.248712 44.88149 
L 96.248712 46.675211 
L 97.095706 46.675211 
L 97.095706 47.574701 
L 97.480704 47.574701 
L 97.480704 48.473869 
L 98.327698 48.473869 
L 98.327698 49.379263 
L 99.328692 49.379263 
L 99.328692 50.286393 
L 99.944688 50.286393 
L 99.944688 51.213706 
L 100.021687 51.213706 
L 100.175686 51.213706 
L 100.252686 53.078571 
L 100.483684 53.078571 
L 100.483684 54.015569 
L 100.945681 54.015569 
L 100.945681 54.951835 
L 102.177673 54.951835 
L 102.177673 55.887294 
L 103.178667 55.887294 
L 103.178667 57.756656 
L 103.871662 57.756656 
L 103.871662 58.699506 
L 104.17966 58.699506 
L 104.17966 59.658407 
L 104.872656 59.658407 
L 104.872656 60.617807 
L 105.026655 60.617807 
L 105.103654 62.55351 
L 105.71965 62.55351 
L 105.71965 63.522688 
L 106.335646 63.522688 
L 106.335646 64.492913 
L 106.566645 64.492913 
L 106.643644 66.440375 
L 107.490639 66.440375 
L 107.490639 67.422214 
L 108.414633 67.422214 
L 108.414633 68.404132 
L 108.722631 68.404132 
L 108.722631 69.387499 
L 109.723625 69.387499 
L 109.723625 70.37064 
L 109.877624 70.37064 
L 109.877624 71.356771 
L 110.955617 71.356771 
L 110.955617 72.342818 
L 113.804598 72.342818 
L 113.881598 74.333226 
L 114.497594 74.333226 
L 114.574593 76.333001 
L 116.422581 76.333001 
L 116.422581 77.344171 
L 119.271563 77.344171 
L 119.271563 78.368332 
L 122.967539 78.368332 
L 122.967539 79.405556 
L 123.660535 79.405556 
L 123.660535 80.459166 
L 124.199531 80.459166 
L 124.199531 81.519878 
L 124.815527 81.519878 
L 124.815527 82.580032 
L 126.971513 82.580032 
L 126.971513 83.643959 
L 127.202512 83.643959 
L 127.202512 84.71016 
L 128.588503 84.71016 
L 128.588503 85.780936 
L 128.665502 85.780936 
L 129.666496 85.780936 
L 129.666496 86.853168 
L 133.131474 86.853168 
L 133.131474 87.940277 
L 133.362472 87.940277 
L 133.362472 90.123391 
L 135.21046 90.123391 
L 135.21046 91.222602 
L 136.673451 91.222602 
L 136.673451 92.34058 
L 136.904449 92.34058 
L 136.904449 93.470976 
L 137.443446 93.470976 
L 137.443446 94.60209 
L 139.676431 94.60209 
L 139.676431 95.734096 
L 146.298389 95.734096 
L 146.298389 96.887395 
L 148.993371 96.887395 
L 148.993371 98.0523 
L 149.686367 98.0523 
L 149.686367 99.227102 
L 149.763366 99.227102 
L 150.071364 99.227102 
L 150.071364 100.409196 
L 150.841359 100.409196 
L 150.841359 101.595088 
L 151.457355 101.595088 
L 151.457355 102.784195 
L 154.306337 102.784195 
L 154.306337 103.997646 
L 154.460336 103.997646 
L 154.460336 105.211875 
L 154.691334 105.211875 
L 154.691334 106.42817 
L 156.92432 106.42817 
L 156.92432 107.647605 
L 158.618309 107.647605 
L 158.618309 108.865989 
L 159.619303 108.865989 
L 159.619303 110.08863 
L 159.927301 110.08863 
L 159.927301 111.313452 
L 162.853282 111.313452 
L 162.853282 112.553839 
L 163.315279 112.553839 
L 163.315279 113.794643 
L 167.78125 113.794643 
L 167.78125 115.054549 
L 167.85825 115.054549 
L 171.477226 115.054549 
L 171.477226 116.337749 
L 173.094216 116.337749 
L 173.094216 117.623606 
L 174.095209 117.623606 
L 174.095209 118.909849 
L 175.789198 118.909849 
L 175.789198 120.208988 
L 176.097196 120.208988 
L 176.097196 121.509203 
L 179.485174 121.509203 
L 179.485174 122.863679 
L 180.17817 122.863679 
L 180.17817 124.220079 
L 186.800127 124.220079 
L 186.800127 125.616931 
L 195.65507 125.616931 
L 195.65507 127.084076 
L 198.73505 127.084076 
L 198.73505 128.569498 
L 204.741012 128.569498 
L 204.741012 130.123748 
L 208.359988 130.123748 
L 208.359988 131.721436 
L 222.989894 131.721436 
L 222.989894 133.466179 
L 232.383833 133.466179 
L 232.383833 135.37207 
L 232.460833 135.37207 
L 247.167738 135.37207 
L 247.167738 137.489081 
L 253.789695 137.489081 
L 253.789695 139.670069 
L 284.435497 139.670069 
L 284.435497 142.604551 
L 286.591483 142.604551 
L 286.591483 145.63774 
L 361.512 145.63774 
L 361.512 151.854259 
L 576.417614 151.854259 
L 576.417614 151.854259 
" clip-path="url(#pda0f0ce696)" style="fill: none; stroke: #3256aa; stroke-width: 1.5; stroke-linecap: square"/>
   </g>
   <g id="line2d_16">
    <path d="M 69.144886 29.599611 
L 73.30286 29.599611 
L 73.30286 30.492042 
L 75.150848 30.492042 
L 75.150848 31.38554 
L 76.151841 31.38554 
L 76.151841 32.281828 
L 81.079809 32.281828 
L 81.079809 33.188044 
L 83.620793 33.188044 
L 83.620793 34.10287 
L 83.851791 34.10287 
L 83.851791 35.017647 
L 84.159789 35.017647 
L 84.159789 35.937268 
L 84.313788 35.937268 
L 84.313788 37.78198 
L 85.006784 37.78198 
L 85.006784 38.707423 
L 85.160783 38.707423 
L 85.160783 39.638404 
L 86.623774 39.638404 
L 86.623774 40.578708 
L 88.394762 40.578708 
L 88.394762 41.525479 
L 88.933759 41.525479 
L 88.933759 42.481131 
L 93.630728 42.481131 
L 93.630728 43.441312 
L 94.785721 43.441312 
L 94.785721 44.413474 
L 95.940713 44.413474 
L 95.940713 46.362381 
L 96.248712 46.362381 
L 96.248712 48.317814 
L 97.095706 48.317814 
L 97.095706 49.298199 
L 97.480704 49.298199 
L 97.480704 50.278102 
L 98.327698 50.278102 
L 98.327698 51.264656 
L 99.328692 51.264656 
L 99.328692 52.252968 
L 99.944688 52.252968 
L 99.944688 53.263129 
L 100.021687 53.263129 
L 100.175686 53.263129 
L 100.252686 55.294178 
L 100.483684 55.294178 
L 100.483684 56.31446 
L 100.945681 56.31446 
L 100.945681 57.3338 
L 102.177673 57.3338 
L 102.177673 58.352118 
L 103.178667 58.352118 
L 103.178667 60.386625 
L 103.871662 60.386625 
L 103.871662 61.41255 
L 104.17966 61.41255 
L 104.17966 62.455789 
L 104.872656 62.455789 
L 104.872656 63.499419 
L 105.026655 63.499419 
L 105.103654 65.604598 
L 105.71965 65.604598 
L 105.71965 66.658395 
L 106.335646 66.658395 
L 106.335646 67.713175 
L 106.566645 67.713175 
L 106.643644 69.829881 
L 107.490639 69.829881 
L 107.490639 70.896806 
L 108.414633 70.896806 
L 108.414633 71.963654 
L 108.722631 71.963654 
L 108.722631 73.031914 
L 109.723625 73.031914 
L 109.723625 74.099766 
L 109.877624 74.099766 
L 109.877624 75.170702 
L 110.955617 75.170702 
L 110.955617 76.241383 
L 113.804598 76.241383 
L 113.881598 78.402128 
L 114.497594 78.402128 
L 114.574593 80.572364 
L 116.422581 80.572364 
L 116.422581 81.669467 
L 119.271563 81.669467 
L 119.271563 82.780488 
L 122.967539 82.780488 
L 122.967539 83.905497 
L 123.660535 83.905497 
L 123.660535 85.04809 
L 124.199531 85.04809 
L 124.199531 86.198194 
L 124.815527 86.198194 
L 124.815527 87.347498 
L 126.971513 87.347498 
L 126.971513 88.5007 
L 127.202512 88.5007 
L 127.202512 89.65617 
L 128.588503 89.65617 
L 128.588503 90.816401 
L 128.665502 90.816401 
L 129.666496 90.816401 
L 129.666496 91.978012 
L 133.131474 91.978012 
L 133.131474 93.155536 
L 133.362472 93.155536 
L 133.362472 95.519602 
L 135.21046 95.519602 
L 135.21046 96.70961 
L 136.673451 96.70961 
L 136.673451 97.919718 
L 136.904449 97.919718 
L 136.904449 99.143047 
L 137.443446 99.143047 
L 137.443446 100.366929 
L 139.676431 100.366929 
L 139.676431 101.591551 
L 146.298389 101.591551 
L 146.298389 102.838978 
L 148.993371 102.838978 
L 148.993371 104.09872 
L 149.686367 104.09872 
L 149.686367 105.368924 
L 149.763366 105.368924 
L 150.071364 105.368924 
L 150.071364 106.646765 
L 150.841359 106.646765 
L 150.841359 107.928464 
L 151.457355 107.928464 
L 151.457355 109.213387 
L 154.306337 109.213387 
L 154.306337 110.524358 
L 154.460336 110.524358 
L 154.460336 111.835906 
L 154.691334 111.835906 
L 154.691334 113.149424 
L 156.92432 113.149424 
L 156.92432 114.466067 
L 158.618309 114.466067 
L 158.618309 115.78131 
L 159.619303 115.78131 
L 159.619303 117.10088 
L 159.927301 117.10088 
L 159.927301 118.422535 
L 162.853282 118.422535 
L 162.853282 119.760712 
L 163.315279 119.760712 
L 163.315279 121.09906 
L 167.78125 121.09906 
L 167.78125 122.457728 
L 167.85825 122.457728 
L 171.477226 122.457728 
L 171.477226 123.84122 
L 173.094216 123.84122 
L 173.094216 125.227277 
L 174.095209 125.227277 
L 174.095209 126.613449 
L 175.789198 126.613449 
L 175.789198 128.013214 
L 176.097196 128.013214 
L 176.097196 129.413829 
L 179.485174 129.413829 
L 179.485174 130.872566 
L 180.17817 130.872566 
L 180.17817 132.333039 
L 186.800127 132.333039 
L 186.800127 133.836713 
L 195.65507 133.836713 
L 195.65507 135.415669 
L 198.73505 135.415669 
L 198.73505 137.013891 
L 204.741012 137.013891 
L 204.741012 138.685728 
L 208.359988 138.685728 
L 208.359988 140.403824 
L 222.989894 140.403824 
L 222.989894 142.279514 
L 232.383833 142.279514 
L 232.383833 144.327797 
L 232.460833 144.327797 
L 247.167738 144.327797 
L 247.167738 146.602176 
L 253.789695 146.602176 
L 253.789695 148.944407 
L 284.435497 148.944407 
L 284.435497 152.094422 
L 286.591483 152.094422 
L 286.591483 155.348678 
L 361.512 155.348678 
L 361.512 162.012783 
L 576.417614 162.012783 
L 576.417614 162.012783 
" clip-path="url(#pda0f0ce696)" style="fill: none; stroke: #3a528a; stroke-width: 1.5; stroke-linecap: square"/>
   </g>
   <g id="line2d_17">
    <path d="M 69.144886 29.678881 
L 73.30286 29.678881 
L 73.30286 30.651166 
L 75.150848 30.651166 
L 75.150848 31.624492 
L 76.151841 31.624492 
L 76.151841 32.600733 
L 81.079809 32.600733 
L 81.079809 33.587663 
L 83.620793 33.587663 
L 83.620793 34.583841 
L 83.851791 34.583841 
L 83.851791 35.579837 
L 84.159789 35.579837 
L 84.159789 36.580978 
L 84.313788 36.580978 
L 84.313788 38.58882 
L 85.006784 38.58882 
L 85.006784 39.595902 
L 85.160783 39.595902 
L 85.160783 40.608878 
L 86.623774 40.608878 
L 86.623774 41.63186 
L 88.394762 41.63186 
L 88.394762 42.661741 
L 88.933759 42.661741 
L 88.933759 43.701139 
L 93.630728 43.701139 
L 93.630728 44.745321 
L 94.785721 44.745321 
L 94.785721 45.802384 
L 95.940713 45.802384 
L 95.940713 47.92105 
L 96.248712 47.92105 
L 96.248712 50.046212 
L 97.095706 50.046212 
L 97.095706 51.111468 
L 97.480704 51.111468 
L 97.480704 52.176048 
L 98.327698 52.176048 
L 98.327698 53.247701 
L 99.328692 53.247701 
L 99.328692 54.32111 
L 99.944688 54.32111 
L 99.944688 55.41809 
L 100.021687 55.41809 
L 100.175686 55.41809 
L 100.252686 57.623209 
L 100.483684 57.623209 
L 100.483684 58.730686 
L 100.945681 58.730686 
L 100.945681 59.836976 
L 102.177673 59.836976 
L 102.177673 60.941991 
L 103.178667 60.941991 
L 103.178667 63.149216 
L 103.871662 63.149216 
L 103.871662 64.261985 
L 104.17966 64.261985 
L 104.17966 65.393361 
L 104.872656 65.393361 
L 104.872656 66.524985 
L 105.026655 66.524985 
L 105.103654 68.807132 
L 105.71965 68.807132 
L 105.71965 69.949246 
L 106.335646 69.949246 
L 106.335646 71.092246 
L 106.566645 71.092246 
L 106.643644 73.385447 
L 107.490639 73.385447 
L 107.490639 74.541057 
L 108.414633 74.541057 
L 108.414633 75.6964 
L 108.722631 75.6964 
L 108.722631 76.853087 
L 109.723625 76.853087 
L 109.723625 78.009146 
L 109.877624 78.009146 
L 109.877624 79.168356 
L 110.955617 79.168356 
L 110.955617 80.327102 
L 113.804598 80.327102 
L 113.881598 82.665 
L 114.497594 82.665 
L 114.574593 85.012394 
L 116.422581 85.012394 
L 116.422581 86.19876 
L 119.271563 86.19876 
L 119.271563 87.399972 
L 122.967539 87.399972 
L 122.967539 88.6161 
L 123.660535 88.6161 
L 123.660535 89.851021 
L 124.199531 89.851021 
L 124.199531 91.093841 
L 124.815527 91.093841 
L 124.815527 92.335577 
L 126.971513 92.335577 
L 126.971513 93.581303 
L 127.202512 93.581303 
L 127.202512 94.829256 
L 128.588503 94.829256 
L 128.588503 96.082126 
L 128.665502 96.082126 
L 129.666496 96.082126 
L 129.666496 97.33626 
L 133.131474 97.33626 
L 133.131474 98.607344 
L 133.362472 98.607344 
L 133.362472 101.158541 
L 135.21046 101.158541 
L 135.21046 102.442388 
L 136.673451 102.442388 
L 136.673451 103.747675 
L 136.904449 103.747675 
L 136.904449 105.066971 
L 137.443446 105.066971 
L 137.443446 106.386608 
L 139.676431 106.386608 
L 139.676431 107.706789 
L 146.298389 107.706789 
L 146.298389 109.05129 
L 148.993371 109.05129 
L 148.993371 110.408795 
L 149.686367 110.408795 
L 149.686367 111.777298 
L 149.763366 111.777298 
L 150.071364 111.777298 
L 150.071364 113.153751 
L 150.841359 113.153751 
L 150.841359 114.534077 
L 151.457355 114.534077 
L 151.457355 115.917592 
L 154.306337 115.917592 
L 154.306337 117.328858 
L 154.460336 117.328858 
L 154.460336 118.74045 
L 154.691334 118.74045 
L 154.691334 120.153861 
L 156.92432 120.153861 
L 156.92432 121.570335 
L 158.618309 121.570335 
L 158.618309 122.985 
L 159.619303 122.985 
L 159.619303 124.404018 
L 159.927301 124.404018 
L 159.927301 125.824971 
L 162.853282 125.824971 
L 162.853282 127.263376 
L 163.315279 127.263376 
L 163.315279 128.70165 
L 167.78125 128.70165 
L 167.78125 130.161439 
L 167.85825 130.161439 
L 171.477226 130.161439 
L 171.477226 131.647564 
L 173.094216 131.647564 
L 173.094216 133.136105 
L 174.095209 133.136105 
L 174.095209 134.624429 
L 175.789198 134.624429 
L 175.789198 136.127002 
L 176.097196 136.127002 
L 176.097196 137.630137 
L 179.485174 137.630137 
L 179.485174 139.195276 
L 180.17817 139.195276 
L 180.17817 140.761896 
L 186.800127 140.761896 
L 186.800127 142.374458 
L 195.65507 142.374458 
L 195.65507 144.067315 
L 198.73505 144.067315 
L 198.73505 145.78037 
L 204.741012 145.78037 
L 204.741012 147.571835 
L 208.359988 147.571835 
L 208.359988 149.41234 
L 222.989894 149.41234 
L 222.989894 151.421055 
L 232.383833 151.421055 
L 232.383833 153.613869 
L 232.460833 153.613869 
L 247.167738 153.613869 
L 247.167738 156.047832 
L 253.789695 156.047832 
L 253.789695 158.553415 
L 284.435497 158.553415 
L 284.435497 161.921519 
L 286.591483 161.921519 
L 286.591483 165.399146 
L 361.512 165.399146 
L 361.512 172.514489 
L 576.417614 172.514489 
L 576.417614 172.514489 
" clip-path="url(#pda0f0ce696)" style="fill: none; stroke: #424e69; stroke-width: 1.5; stroke-linecap: square"/>
   </g>
   <g id="line2d_18">
    <path d="M 69.144886 29.805177 
L 73.30286 29.805177 
L 73.30286 30.904646 
L 75.150848 30.904646 
L 75.150848 32.005072 
L 76.151841 32.005072 
L 76.151841 33.108573 
L 81.079809 33.108573 
L 81.079809 34.22393 
L 83.620793 34.22393 
L 83.620793 35.349508 
L 83.851791 35.349508 
L 83.851791 36.474648 
L 84.159789 36.474648 
L 84.159789 37.605366 
L 84.313788 37.605366 
L 84.313788 39.872374 
L 85.006784 39.872374 
L 85.006784 41.009091 
L 85.160783 41.009091 
L 85.160783 42.152219 
L 86.623774 42.152219 
L 86.623774 43.306394 
L 88.394762 43.306394 
L 88.394762 44.468102 
L 88.933759 44.468102 
L 88.933759 45.640291 
L 93.630728 45.640291 
L 93.630728 46.817618 
L 94.785721 46.817618 
L 94.785721 48.009206 
L 95.940713 48.009206 
L 95.940713 50.3967 
L 96.248712 50.3967 
L 96.248712 52.79044 
L 97.095706 52.79044 
L 97.095706 53.989917 
L 97.480704 53.989917 
L 97.480704 55.188362 
L 98.327698 55.188362 
L 98.327698 56.394496 
L 99.328692 56.394496 
L 99.328692 57.602329 
L 99.944688 57.602329 
L 99.944688 58.836399 
L 100.021687 58.836399 
L 100.175686 58.836399 
L 100.252686 61.316216 
L 100.483684 61.316216 
L 100.483684 62.561213 
L 100.945681 62.561213 
L 100.945681 63.804578 
L 102.177673 63.804578 
L 102.177673 65.046215 
L 103.178667 65.046215 
L 103.178667 67.52545 
L 103.871662 67.52545 
L 103.871662 68.774903 
L 104.17966 68.774903 
L 104.17966 70.044939 
L 104.872656 70.044939 
L 104.872656 71.314941 
L 105.026655 71.314941 
L 105.103654 73.875202 
L 105.71965 73.875202 
L 105.71965 75.156021 
L 106.335646 75.156021 
L 106.335646 76.437511 
L 106.566645 76.437511 
L 106.643644 79.007596 
L 107.490639 79.007596 
L 107.490639 80.302245 
L 108.414633 80.302245 
L 108.414633 81.596264 
L 108.722631 81.596264 
L 108.722631 82.891457 
L 109.723625 82.891457 
L 109.723625 84.185614 
L 109.877624 84.185614 
L 109.877624 85.482966 
L 110.955617 85.482966 
L 110.955617 86.779463 
L 113.804598 86.779463 
L 113.881598 89.39427 
L 114.497594 89.39427 
L 114.574593 92.018322 
L 116.422581 92.018322 
L 116.422581 93.343983 
L 119.271563 93.343983 
L 119.271563 94.685873 
L 122.967539 94.685873 
L 122.967539 96.044054 
L 123.660535 96.044054 
L 123.660535 97.422842 
L 124.199531 97.422842 
L 124.199531 98.81006 
L 124.815527 98.81006 
L 124.815527 100.195676 
L 126.971513 100.195676 
L 126.971513 101.585351 
L 127.202512 101.585351 
L 127.202512 102.977114 
L 128.588503 102.977114 
L 128.588503 104.373963 
L 128.665502 104.373963 
L 129.666496 104.373963 
L 129.666496 105.771817 
L 133.131474 105.771817 
L 133.131474 107.188155 
L 133.362472 107.188155 
L 133.362472 110.029638 
L 135.21046 110.029638 
L 135.21046 111.458934 
L 136.673451 111.458934 
L 136.673451 112.911663 
L 136.904449 112.911663 
L 136.904449 114.379535 
L 137.443446 114.379535 
L 137.443446 115.847337 
L 139.676431 115.847337 
L 139.676431 117.31529 
L 146.298389 117.31529 
L 146.298389 118.809821 
L 148.993371 118.809821 
L 148.993371 120.318329 
L 149.686367 120.318329 
L 149.686367 121.838571 
L 149.763366 121.838571 
L 150.071364 121.838571 
L 150.071364 123.36715 
L 150.841359 123.36715 
L 150.841359 124.899531 
L 151.457355 124.899531 
L 151.457355 126.43495 
L 154.306337 126.43495 
L 154.306337 128.000647 
L 154.460336 128.000647 
L 154.460336 129.56618 
L 154.691334 129.56618 
L 154.691334 131.133202 
L 156.92432 131.133202 
L 156.92432 132.703089 
L 158.618309 132.703089 
L 158.618309 134.270439 
L 159.619303 134.270439 
L 159.619303 135.842076 
L 159.927301 135.842076 
L 159.927301 137.415318 
L 162.853282 137.415318 
L 162.853282 139.00733 
L 163.315279 139.00733 
L 163.315279 140.598645 
L 167.78125 140.598645 
L 167.78125 142.213194 
L 167.85825 142.213194 
L 171.477226 142.213194 
L 171.477226 143.856282 
L 173.094216 143.856282 
L 173.094216 145.501443 
L 174.095209 145.501443 
L 174.095209 147.145764 
L 175.789198 147.145764 
L 175.789198 148.805218 
L 176.097196 148.805218 
L 176.097196 150.464678 
L 179.485174 150.464678 
L 179.485174 152.191936 
L 180.17817 152.191936 
L 180.17817 153.920157 
L 186.800127 153.920157 
L 186.800127 155.698357 
L 195.65507 155.698357 
L 195.65507 157.564329 
L 198.73505 157.564329 
L 198.73505 159.451761 
L 204.741012 159.451761 
L 204.741012 161.424718 
L 208.359988 161.424718 
L 208.359988 163.450756 
L 222.989894 163.450756 
L 222.989894 165.660885 
L 232.383833 165.660885 
L 232.383833 168.072288 
L 232.460833 168.072288 
L 247.167738 168.072288 
L 247.167738 170.7473 
L 253.789695 170.7473 
L 253.789695 173.499285 
L 284.435497 173.499285 
L 284.435497 177.195818 
L 286.591483 177.195818 
L 286.591483 181.009172 
L 361.512 181.009172 
L 361.512 188.800631 
L 576.417614 188.800631 
L 576.417614 188.800631 
" clip-path="url(#pda0f0ce696)" style="fill: none; stroke: #4a4a4a; stroke-width: 1.5; stroke-linecap: square"/>
   </g>
   <g id="patch_3">
    <path d="M 43.78125 354.958125 
L 43.78125 22.318125 
" style="fill: none; stroke: #000000; stroke-width: 0.8; stroke-linejoin: miter; stroke-linecap: square"/>
   </g>
   <g id="patch_4">
    <path d="M 601.78125 354.958125 
L 601.78125 22.318125 
" style="fill: none; stroke: #000000; stroke-width: 0.8; stroke-linejoin: miter; stroke-linecap: square"/>
   </g>
   <g id="patch_5">
    <path d="M 43.78125 354.958125 
L 601.78125 354.958125 
" style="fill: none; stroke: #000000; stroke-width: 0.8; stroke-linejoin: miter; stroke-linecap: square"/>
   </g>
   <g id="patch_6">
    <path d="M 43.78125 22.318125 
L 601.78125 22.318125 
" style="fill: none; stroke: #000000; stroke-width: 0.8; stroke-linejoin: miter; stroke-linecap: square"/>
   </g>
   <g id="text_16">
    <!-- p-value: 0.384420 -->
    <g transform="translate(499.349375 36.569362) scale(0.1 -0.1)">
     <defs>
      <path id="DejaVuSans-70" d="M 1159 525 
L 1159 -1331 
L 581 -1331 
L 581 3500 
L 1159 3500 
L 1159 2969 
Q 1341 3281 1617 3432 
Q 1894 3584 2278 3584 
Q 2916 3584 3314 3078 
Q 3713 2572 3713 1747 
Q 3713 922 3314 415 
Q 2916 -91 2278 -91 
Q 1894 -91 1617 61 
Q 1341 213 1159 525 
z
M 3116 1747 
Q 3116 2381 2855 2742 
Q 2594 3103 2138 3103 
Q 1681 3103 1420 2742 
Q 1159 2381 1159 1747 
Q 1159 1113 1420 752 
Q 1681 391 2138 391 
Q 2594 391 2855 752 
Q 3116 1113 3116 1747 
z
" transform="scale(0.015625)"/>
      <path id="DejaVuSans-2d" d="M 313 2009 
L 1997 2009 
L 1997 1497 
L 313 1497 
L 313 2009 
z
" transform="scale(0.015625)"/>
      <path id="DejaVuSans-3a" d="M 750 794 
L 1409 794 
L 1409 0 
L 750 0 
L 750 794 
z
M 750 3309 
L 1409 3309 
L 1409 2516 
L 750 2516 
L 750 3309 
z
" transform="scale(0.015625)"/>
     </defs>
     <use xlink:href="#DejaVuSans-70"/>
     <use xlink:href="#DejaVuSans-2d" x="63.476562"/>
     <use xlink:href="#DejaVuSans-76" x="96.935547"/>
     <use xlink:href="#DejaVuSans-61" x="156.115234"/>
     <use xlink:href="#DejaVuSans-6c" x="217.394531"/>
     <use xlink:href="#DejaVuSans-75" x="245.177734"/>
     <use xlink:href="#DejaVuSans-65" x="308.556641"/>
     <use xlink:href="#DejaVuSans-3a" x="370.080078"/>
     <use xlink:href="#DejaVuSans-20" x="403.771484"/>
     <use xlink:href="#DejaVuSans-30" x="435.558594"/>
     <use xlink:href="#DejaVuSans-2e" x="499.181641"/>
     <use xlink:href="#DejaVuSans-33" x="530.96875"/>
     <use xlink:href="#DejaVuSans-38" x="594.591797"/>
     <use xlink:href="#DejaVuSans-34" x="658.214844"/>
     <use xlink:href="#DejaVuSans-34" x="721.837891"/>
     <use xlink:href="#DejaVuSans-32" x="785.460938"/>
     <use xlink:href="#DejaVuSans-30" x="849.083984"/>
    </g>
   </g>
   <g id="text_17">
    <!-- Effect of FOXP3 Expression on Survival Adjusted for Confoundings -->
    <g transform="translate(125.04375 16.318125) scale(0.12 -0.12)">
     <defs>
      <path id="DejaVuSans-45" d="M 628 4666 
L 3578 4666 
L 3578 4134 
L 1259 4134 
L 1259 2753 
L 3481 2753 
L 3481 2222 
L 1259 2222 
L 1259 531 
L 3634 531 
L 3634 0 
L 628 0 
L 628 4666 
z
" transform="scale(0.015625)"/>
      <path id="DejaVuSans-66" d="M 2375 4863 
L 2375 4384 
L 1825 4384 
Q 1516 4384 1395 4259 
Q 1275 4134 1275 3809 
L 1275 3500 
L 2222 3500 
L 2222 3053 
L 1275 3053 
L 1275 0 
L 697 0 
L 697 3053 
L 147 3053 
L 147 3500 
L 697 3500 
L 697 3744 
Q 697 4328 969 4595 
Q 1241 4863 1831 4863 
L 2375 4863 
z
" transform="scale(0.015625)"/>
      <path id="DejaVuSans-63" d="M 3122 3366 
L 3122 2828 
Q 2878 2963 2633 3030 
Q 2388 3097 2138 3097 
Q 1578 3097 1268 2742 
Q 959 2388 959 1747 
Q 959 1106 1268 751 
Q 1578 397 2138 397 
Q 2388 397 2633 464 
Q 2878 531 3122 666 
L 3122 134 
Q 2881 22 2623 -34 
Q 2366 -91 2075 -91 
Q 1284 -91 818 406 
Q 353 903 353 1747 
Q 353 2603 823 3093 
Q 1294 3584 2113 3584 
Q 2378 3584 2631 3529 
Q 2884 3475 3122 3366 
z
" transform="scale(0.015625)"/>
      <path id="DejaVuSans-46" d="M 628 4666 
L 3309 4666 
L 3309 4134 
L 1259 4134 
L 1259 2759 
L 3109 2759 
L 3109 2228 
L 1259 2228 
L 1259 0 
L 628 0 
L 628 4666 
z
" transform="scale(0.015625)"/>
      <path id="DejaVuSans-4f" d="M 2522 4238 
Q 1834 4238 1429 3725 
Q 1025 3213 1025 2328 
Q 1025 1447 1429 934 
Q 1834 422 2522 422 
Q 3209 422 3611 934 
Q 4013 1447 4013 2328 
Q 4013 3213 3611 3725 
Q 3209 4238 2522 4238 
z
M 2522 4750 
Q 3503 4750 4090 4092 
Q 4678 3434 4678 2328 
Q 4678 1225 4090 567 
Q 3503 -91 2522 -91 
Q 1538 -91 948 565 
Q 359 1222 359 2328 
Q 359 3434 948 4092 
Q 1538 4750 2522 4750 
z
" transform="scale(0.015625)"/>
      <path id="DejaVuSans-58" d="M 403 4666 
L 1081 4666 
L 2241 2931 
L 3406 4666 
L 4084 4666 
L 2584 2425 
L 4184 0 
L 3506 0 
L 2194 1984 
L 872 0 
L 191 0 
L 1856 2491 
L 403 4666 
z
" transform="scale(0.015625)"/>
      <path id="DejaVuSans-78" d="M 3513 3500 
L 2247 1797 
L 3578 0 
L 2900 0 
L 1881 1375 
L 863 0 
L 184 0 
L 1544 1831 
L 300 3500 
L 978 3500 
L 1906 2253 
L 2834 3500 
L 3513 3500 
z
" transform="scale(0.015625)"/>
      <path id="DejaVuSans-41" d="M 2188 4044 
L 1331 1722 
L 3047 1722 
L 2188 4044 
z
M 1831 4666 
L 2547 4666 
L 4325 0 
L 3669 0 
L 3244 1197 
L 1141 1197 
L 716 0 
L 50 0 
L 1831 4666 
z
" transform="scale(0.015625)"/>
      <path id="DejaVuSans-64" d="M 2906 2969 
L 2906 4863 
L 3481 4863 
L 3481 0 
L 2906 0 
L 2906 525 
Q 2725 213 2448 61 
Q 2172 -91 1784 -91 
Q 1150 -91 751 415 
Q 353 922 353 1747 
Q 353 2572 751 3078 
Q 1150 3584 1784 3584 
Q 2172 3584 2448 3432 
Q 2725 3281 2906 2969 
z
M 947 1747 
Q 947 1113 1208 752 
Q 1469 391 1925 391 
Q 2381 391 2643 752 
Q 2906 1113 2906 1747 
Q 2906 2381 2643 2742 
Q 2381 3103 1925 3103 
Q 1469 3103 1208 2742 
Q 947 2381 947 1747 
z
" transform="scale(0.015625)"/>
      <path id="DejaVuSans-6a" d="M 603 3500 
L 1178 3500 
L 1178 -63 
Q 1178 -731 923 -1031 
Q 669 -1331 103 -1331 
L -116 -1331 
L -116 -844 
L 38 -844 
Q 366 -844 484 -692 
Q 603 -541 603 -63 
L 603 3500 
z
M 603 4863 
L 1178 4863 
L 1178 4134 
L 603 4134 
L 603 4863 
z
" transform="scale(0.015625)"/>
      <path id="DejaVuSans-43" d="M 4122 4306 
L 4122 3641 
Q 3803 3938 3442 4084 
Q 3081 4231 2675 4231 
Q 1875 4231 1450 3742 
Q 1025 3253 1025 2328 
Q 1025 1406 1450 917 
Q 1875 428 2675 428 
Q 3081 428 3442 575 
Q 3803 722 4122 1019 
L 4122 359 
Q 3791 134 3420 21 
Q 3050 -91 2638 -91 
Q 1578 -91 968 557 
Q 359 1206 359 2328 
Q 359 3453 968 4101 
Q 1578 4750 2638 4750 
Q 3056 4750 3426 4639 
Q 3797 4528 4122 4306 
z
" transform="scale(0.015625)"/>
      <path id="DejaVuSans-67" d="M 2906 1791 
Q 2906 2416 2648 2759 
Q 2391 3103 1925 3103 
Q 1463 3103 1205 2759 
Q 947 2416 947 1791 
Q 947 1169 1205 825 
Q 1463 481 1925 481 
Q 2391 481 2648 825 
Q 2906 1169 2906 1791 
z
M 3481 434 
Q 3481 -459 3084 -895 
Q 2688 -1331 1869 -1331 
Q 1566 -1331 1297 -1286 
Q 1028 -1241 775 -1147 
L 775 -588 
Q 1028 -725 1275 -790 
Q 1522 -856 1778 -856 
Q 2344 -856 2625 -561 
Q 2906 -266 2906 331 
L 2906 616 
Q 2728 306 2450 153 
Q 2172 0 1784 0 
Q 1141 0 747 490 
Q 353 981 353 1791 
Q 353 2603 747 3093 
Q 1141 3584 1784 3584 
Q 2172 3584 2450 3431 
Q 2728 3278 2906 2969 
L 2906 3500 
L 3481 3500 
L 3481 434 
z
" transform="scale(0.015625)"/>
     </defs>
     <use xlink:href="#DejaVuSans-45"/>
     <use xlink:href="#DejaVuSans-66" x="63.183594"/>
     <use xlink:href="#DejaVuSans-66" x="98.388672"/>
     <use xlink:href="#DejaVuSans-65" x="133.59375"/>
     <use xlink:href="#DejaVuSans-63" x="195.117188"/>
     <use xlink:href="#DejaVuSans-74" x="250.097656"/>
     <use xlink:href="#DejaVuSans-20" x="289.306641"/>
     <use xlink:href="#DejaVuSans-6f" x="321.09375"/>
     <use xlink:href="#DejaVuSans-66" x="382.275391"/>
     <use xlink:href="#DejaVuSans-20" x="417.480469"/>
     <use xlink:href="#DejaVuSans-46" x="449.267578"/>
     <use xlink:href="#DejaVuSans-4f" x="506.787109"/>
     <use xlink:href="#DejaVuSans-58" x="579.123047"/>
     <use xlink:href="#DejaVuSans-50" x="647.628906"/>
     <use xlink:href="#DejaVuSans-33" x="707.931641"/>
     <use xlink:href="#DejaVuSans-20" x="771.554688"/>
     <use xlink:href="#DejaVuSans-45" x="803.341797"/>
     <use xlink:href="#DejaVuSans-78" x="866.525391"/>
     <use xlink:href="#DejaVuSans-70" x="925.705078"/>
     <use xlink:href="#DejaVuSans-72" x="989.181641"/>
     <use xlink:href="#DejaVuSans-65" x="1028.044922"/>
     <use xlink:href="#DejaVuSans-73" x="1089.568359"/>
     <use xlink:href="#DejaVuSans-73" x="1141.667969"/>
     <use xlink:href="#DejaVuSans-69" x="1193.767578"/>
     <use xlink:href="#DejaVuSans-6f" x="1221.550781"/>
     <use xlink:href="#DejaVuSans-6e" x="1282.732422"/>
     <use xlink:href="#DejaVuSans-20" x="1346.111328"/>
     <use xlink:href="#DejaVuSans-6f" x="1377.898438"/>
     <use xlink:href="#DejaVuSans-6e" x="1439.080078"/>
     <use xlink:href="#DejaVuSans-20" x="1502.458984"/>
     <use xlink:href="#DejaVuSans-53" x="1534.246094"/>
     <use xlink:href="#DejaVuSans-75" x="1597.722656"/>
     <use xlink:href="#DejaVuSans-72" x="1661.101562"/>
     <use xlink:href="#DejaVuSans-76" x="1702.214844"/>
     <use xlink:href="#DejaVuSans-69" x="1761.394531"/>
     <use xlink:href="#DejaVuSans-76" x="1789.177734"/>
     <use xlink:href="#DejaVuSans-61" x="1848.357422"/>
     <use xlink:href="#DejaVuSans-6c" x="1909.636719"/>
     <use xlink:href="#DejaVuSans-20" x="1937.419922"/>
     <use xlink:href="#DejaVuSans-41" x="1969.207031"/>
     <use xlink:href="#DejaVuSans-64" x="2035.865234"/>
     <use xlink:href="#DejaVuSans-6a" x="2099.341797"/>
     <use xlink:href="#DejaVuSans-75" x="2127.125"/>
     <use xlink:href="#DejaVuSans-73" x="2190.503906"/>
     <use xlink:href="#DejaVuSans-74" x="2242.603516"/>
     <use xlink:href="#DejaVuSans-65" x="2281.8125"/>
     <use xlink:href="#DejaVuSans-64" x="2343.335938"/>
     <use xlink:href="#DejaVuSans-20" x="2406.8125"/>
     <use xlink:href="#DejaVuSans-66" x="2438.599609"/>
     <use xlink:href="#DejaVuSans-6f" x="2473.804688"/>
     <use xlink:href="#DejaVuSans-72" x="2534.986328"/>
     <use xlink:href="#DejaVuSans-20" x="2576.099609"/>
     <use xlink:href="#DejaVuSans-43" x="2607.886719"/>
     <use xlink:href="#DejaVuSans-6f" x="2677.710938"/>
     <use xlink:href="#DejaVuSans-6e" x="2738.892578"/>
     <use xlink:href="#DejaVuSans-66" x="2802.271484"/>
     <use xlink:href="#DejaVuSans-6f" x="2837.476562"/>
     <use xlink:href="#DejaVuSans-75" x="2898.658203"/>
     <use xlink:href="#DejaVuSans-6e" x="2962.037109"/>
     <use xlink:href="#DejaVuSans-64" x="3025.416016"/>
     <use xlink:href="#DejaVuSans-69" x="3088.892578"/>
     <use xlink:href="#DejaVuSans-6e" x="3116.675781"/>
     <use xlink:href="#DejaVuSans-67" x="3180.054688"/>
     <use xlink:href="#DejaVuSans-73" x="3243.53125"/>
    </g>
   </g>
  </g>
 </g>
 <defs>
  <clipPath id="pda0f0ce696">
   <rect x="43.78125" y="22.318125" width="558" height="332.64"/>
  </clipPath>
 </defs>
</svg>
