<?xml version="1.0" encoding="utf-8" standalone="no"?>
<!DOCTYPE svg PUBLIC "-//W3C//DTD SVG 1.1//EN"
  "http://www.w3.org/Graphics/SVG/1.1/DTD/svg11.dtd">
<svg xmlns:xlink="http://www.w3.org/1999/xlink" width="608.98125pt" height="392.514375pt" viewBox="0 0 608.98125 392.514375" xmlns="http://www.w3.org/2000/svg" version="1.1">
 <metadata>
  <rdf:RDF xmlns:dc="http://purl.org/dc/elements/1.1/" xmlns:cc="http://creativecommons.org/ns#" xmlns:rdf="http://www.w3.org/1999/02/22-rdf-syntax-ns#">
   <cc:Work>
    <dc:type rdf:resource="http://purl.org/dc/dcmitype/StillImage"/>
    <dc:date>2024-07-08T09:39:58.147899</dc:date>
    <dc:format>image/svg+xml</dc:format>
    <dc:creator>
     <cc:Agent>
      <dc:title>Matplotlib v3.9.0, https://matplotlib.org/</dc:title>
     </cc:Agent>
    </dc:creator>
   </cc:Work>
  </rdf:RDF>
 </metadata>
 <defs>
  <style type="text/css">*{stroke-linejoin: round; stroke-linecap: butt}</style>
 </defs>
 <g id="figure_1">
  <g id="patch_1">
   <path d="M 0 392.514375 
L 608.98125 392.514375 
L 608.98125 0 
L 0 0 
z
" style="fill: #ffffff"/>
  </g>
  <g id="axes_1">
   <g id="patch_2">
    <path d="M 43.78125 354.958125 
L 601.78125 354.958125 
L 601.78125 22.318125 
L 43.78125 22.318125 
z
" style="fill: #ffffff"/>
   </g>
   <g id="matplotlib.axis_1">
    <g id="xtick_1">
     <g id="line2d_1">
      <defs>
       <path id="me8f39af59a" d="M 0 0 
L 0 3.5 
" style="stroke: #000000; stroke-width: 0.8"/>
      </defs>
      <g>
       <use xlink:href="#me8f39af59a" x="68.220892" y="354.958125" style="stroke: #000000; stroke-width: 0.8"/>
      </g>
     </g>
     <g id="text_1">
      <!-- 0 -->
      <g transform="translate(65.039642 369.556562) scale(0.1 -0.1)">
       <defs>
        <path id="DejaVuSans-30" d="M 2034 4250 
Q 1547 4250 1301 3770 
Q 1056 3291 1056 2328 
Q 1056 1369 1301 889 
Q 1547 409 2034 409 
Q 2525 409 2770 889 
Q 3016 1369 3016 2328 
Q 3016 3291 2770 3770 
Q 2525 4250 2034 4250 
z
M 2034 4750 
Q 2819 4750 3233 4129 
Q 3647 3509 3647 2328 
Q 3647 1150 3233 529 
Q 2819 -91 2034 -91 
Q 1250 -91 836 529 
Q 422 1150 422 2328 
Q 422 3509 836 4129 
Q 1250 4750 2034 4750 
z
" transform="scale(0.015625)"/>
       </defs>
       <use xlink:href="#DejaVuSans-30"/>
      </g>
     </g>
    </g>
    <g id="xtick_2">
     <g id="line2d_2">
      <g>
       <use xlink:href="#me8f39af59a" x="145.220396" y="354.958125" style="stroke: #000000; stroke-width: 0.8"/>
      </g>
     </g>
     <g id="text_2">
      <!-- 1000 -->
      <g transform="translate(132.495396 369.556562) scale(0.1 -0.1)">
       <defs>
        <path id="DejaVuSans-31" d="M 794 531 
L 1825 531 
L 1825 4091 
L 703 3866 
L 703 4441 
L 1819 4666 
L 2450 4666 
L 2450 531 
L 3481 531 
L 3481 0 
L 794 0 
L 794 531 
z
" transform="scale(0.015625)"/>
       </defs>
       <use xlink:href="#DejaVuSans-31"/>
       <use xlink:href="#DejaVuSans-30" x="63.623047"/>
       <use xlink:href="#DejaVuSans-30" x="127.246094"/>
       <use xlink:href="#DejaVuSans-30" x="190.869141"/>
      </g>
     </g>
    </g>
    <g id="xtick_3">
     <g id="line2d_3">
      <g>
       <use xlink:href="#me8f39af59a" x="222.219899" y="354.958125" style="stroke: #000000; stroke-width: 0.8"/>
      </g>
     </g>
     <g id="text_3">
      <!-- 2000 -->
      <g transform="translate(209.494899 369.556562) scale(0.1 -0.1)">
       <defs>
        <path id="DejaVuSans-32" d="M 1228 531 
L 3431 531 
L 3431 0 
L 469 0 
L 469 531 
Q 828 903 1448 1529 
Q 2069 2156 2228 2338 
Q 2531 2678 2651 2914 
Q 2772 3150 2772 3378 
Q 2772 3750 2511 3984 
Q 2250 4219 1831 4219 
Q 1534 4219 1204 4116 
Q 875 4013 500 3803 
L 500 4441 
Q 881 4594 1212 4672 
Q 1544 4750 1819 4750 
Q 2544 4750 2975 4387 
Q 3406 4025 3406 3419 
Q 3406 3131 3298 2873 
Q 3191 2616 2906 2266 
Q 2828 2175 2409 1742 
Q 1991 1309 1228 531 
z
" transform="scale(0.015625)"/>
       </defs>
       <use xlink:href="#DejaVuSans-32"/>
       <use xlink:href="#DejaVuSans-30" x="63.623047"/>
       <use xlink:href="#DejaVuSans-30" x="127.246094"/>
       <use xlink:href="#DejaVuSans-30" x="190.869141"/>
      </g>
     </g>
    </g>
    <g id="xtick_4">
     <g id="line2d_4">
      <g>
       <use xlink:href="#me8f39af59a" x="299.219402" y="354.958125" style="stroke: #000000; stroke-width: 0.8"/>
      </g>
     </g>
     <g id="text_4">
      <!-- 3000 -->
      <g transform="translate(286.494402 369.556562) scale(0.1 -0.1)">
       <defs>
        <path id="DejaVuSans-33" d="M 2597 2516 
Q 3050 2419 3304 2112 
Q 3559 1806 3559 1356 
Q 3559 666 3084 287 
Q 2609 -91 1734 -91 
Q 1441 -91 1130 -33 
Q 819 25 488 141 
L 488 750 
Q 750 597 1062 519 
Q 1375 441 1716 441 
Q 2309 441 2620 675 
Q 2931 909 2931 1356 
Q 2931 1769 2642 2001 
Q 2353 2234 1838 2234 
L 1294 2234 
L 1294 2753 
L 1863 2753 
Q 2328 2753 2575 2939 
Q 2822 3125 2822 3475 
Q 2822 3834 2567 4026 
Q 2313 4219 1838 4219 
Q 1578 4219 1281 4162 
Q 984 4106 628 3988 
L 628 4550 
Q 988 4650 1302 4700 
Q 1616 4750 1894 4750 
Q 2613 4750 3031 4423 
Q 3450 4097 3450 3541 
Q 3450 3153 3228 2886 
Q 3006 2619 2597 2516 
z
" transform="scale(0.015625)"/>
       </defs>
       <use xlink:href="#DejaVuSans-33"/>
       <use xlink:href="#DejaVuSans-30" x="63.623047"/>
       <use xlink:href="#DejaVuSans-30" x="127.246094"/>
       <use xlink:href="#DejaVuSans-30" x="190.869141"/>
      </g>
     </g>
    </g>
    <g id="xtick_5">
     <g id="line2d_5">
      <g>
       <use xlink:href="#me8f39af59a" x="376.218905" y="354.958125" style="stroke: #000000; stroke-width: 0.8"/>
      </g>
     </g>
     <g id="text_5">
      <!-- 4000 -->
      <g transform="translate(363.493905 369.556562) scale(0.1 -0.1)">
       <defs>
        <path id="DejaVuSans-34" d="M 2419 4116 
L 825 1625 
L 2419 1625 
L 2419 4116 
z
M 2253 4666 
L 3047 4666 
L 3047 1625 
L 3713 1625 
L 3713 1100 
L 3047 1100 
L 3047 0 
L 2419 0 
L 2419 1100 
L 313 1100 
L 313 1709 
L 2253 4666 
z
" transform="scale(0.015625)"/>
       </defs>
       <use xlink:href="#DejaVuSans-34"/>
       <use xlink:href="#DejaVuSans-30" x="63.623047"/>
       <use xlink:href="#DejaVuSans-30" x="127.246094"/>
       <use xlink:href="#DejaVuSans-30" x="190.869141"/>
      </g>
     </g>
    </g>
    <g id="xtick_6">
     <g id="line2d_6">
      <g>
       <use xlink:href="#me8f39af59a" x="453.218408" y="354.958125" style="stroke: #000000; stroke-width: 0.8"/>
      </g>
     </g>
     <g id="text_6">
      <!-- 5000 -->
      <g transform="translate(440.493408 369.556562) scale(0.1 -0.1)">
       <defs>
        <path id="DejaVuSans-35" d="M 691 4666 
L 3169 4666 
L 3169 4134 
L 1269 4134 
L 1269 2991 
Q 1406 3038 1543 3061 
Q 1681 3084 1819 3084 
Q 2600 3084 3056 2656 
Q 3513 2228 3513 1497 
Q 3513 744 3044 326 
Q 2575 -91 1722 -91 
Q 1428 -91 1123 -41 
Q 819 9 494 109 
L 494 744 
Q 775 591 1075 516 
Q 1375 441 1709 441 
Q 2250 441 2565 725 
Q 2881 1009 2881 1497 
Q 2881 1984 2565 2268 
Q 2250 2553 1709 2553 
Q 1456 2553 1204 2497 
Q 953 2441 691 2322 
L 691 4666 
z
" transform="scale(0.015625)"/>
       </defs>
       <use xlink:href="#DejaVuSans-35"/>
       <use xlink:href="#DejaVuSans-30" x="63.623047"/>
       <use xlink:href="#DejaVuSans-30" x="127.246094"/>
       <use xlink:href="#DejaVuSans-30" x="190.869141"/>
      </g>
     </g>
    </g>
    <g id="xtick_7">
     <g id="line2d_7">
      <g>
       <use xlink:href="#me8f39af59a" x="530.217912" y="354.958125" style="stroke: #000000; stroke-width: 0.8"/>
      </g>
     </g>
     <g id="text_7">
      <!-- 6000 -->
      <g transform="translate(517.492912 369.556562) scale(0.1 -0.1)">
       <defs>
        <path id="DejaVuSans-36" d="M 2113 2584 
Q 1688 2584 1439 2293 
Q 1191 2003 1191 1497 
Q 1191 994 1439 701 
Q 1688 409 2113 409 
Q 2538 409 2786 701 
Q 3034 994 3034 1497 
Q 3034 2003 2786 2293 
Q 2538 2584 2113 2584 
z
M 3366 4563 
L 3366 3988 
Q 3128 4100 2886 4159 
Q 2644 4219 2406 4219 
Q 1781 4219 1451 3797 
Q 1122 3375 1075 2522 
Q 1259 2794 1537 2939 
Q 1816 3084 2150 3084 
Q 2853 3084 3261 2657 
Q 3669 2231 3669 1497 
Q 3669 778 3244 343 
Q 2819 -91 2113 -91 
Q 1303 -91 875 529 
Q 447 1150 447 2328 
Q 447 3434 972 4092 
Q 1497 4750 2381 4750 
Q 2619 4750 2861 4703 
Q 3103 4656 3366 4563 
z
" transform="scale(0.015625)"/>
       </defs>
       <use xlink:href="#DejaVuSans-36"/>
       <use xlink:href="#DejaVuSans-30" x="63.623047"/>
       <use xlink:href="#DejaVuSans-30" x="127.246094"/>
       <use xlink:href="#DejaVuSans-30" x="190.869141"/>
      </g>
     </g>
    </g>
    <g id="text_8">
     <!-- Time in Days -->
     <g transform="translate(290.333594 383.234687) scale(0.1 -0.1)">
      <defs>
       <path id="DejaVuSans-54" d="M -19 4666 
L 3928 4666 
L 3928 4134 
L 2272 4134 
L 2272 0 
L 1638 0 
L 1638 4134 
L -19 4134 
L -19 4666 
z
" transform="scale(0.015625)"/>
       <path id="DejaVuSans-69" d="M 603 3500 
L 1178 3500 
L 1178 0 
L 603 0 
L 603 3500 
z
M 603 4863 
L 1178 4863 
L 1178 4134 
L 603 4134 
L 603 4863 
z
" transform="scale(0.015625)"/>
       <path id="DejaVuSans-6d" d="M 3328 2828 
Q 3544 3216 3844 3400 
Q 4144 3584 4550 3584 
Q 5097 3584 5394 3201 
Q 5691 2819 5691 2113 
L 5691 0 
L 5113 0 
L 5113 2094 
Q 5113 2597 4934 2840 
Q 4756 3084 4391 3084 
Q 3944 3084 3684 2787 
Q 3425 2491 3425 1978 
L 3425 0 
L 2847 0 
L 2847 2094 
Q 2847 2600 2669 2842 
Q 2491 3084 2119 3084 
Q 1678 3084 1418 2786 
Q 1159 2488 1159 1978 
L 1159 0 
L 581 0 
L 581 3500 
L 1159 3500 
L 1159 2956 
Q 1356 3278 1631 3431 
Q 1906 3584 2284 3584 
Q 2666 3584 2933 3390 
Q 3200 3197 3328 2828 
z
" transform="scale(0.015625)"/>
       <path id="DejaVuSans-65" d="M 3597 1894 
L 3597 1613 
L 953 1613 
Q 991 1019 1311 708 
Q 1631 397 2203 397 
Q 2534 397 2845 478 
Q 3156 559 3463 722 
L 3463 178 
Q 3153 47 2828 -22 
Q 2503 -91 2169 -91 
Q 1331 -91 842 396 
Q 353 884 353 1716 
Q 353 2575 817 3079 
Q 1281 3584 2069 3584 
Q 2775 3584 3186 3129 
Q 3597 2675 3597 1894 
z
M 3022 2063 
Q 3016 2534 2758 2815 
Q 2500 3097 2075 3097 
Q 1594 3097 1305 2825 
Q 1016 2553 972 2059 
L 3022 2063 
z
" transform="scale(0.015625)"/>
       <path id="DejaVuSans-20" transform="scale(0.015625)"/>
       <path id="DejaVuSans-6e" d="M 3513 2113 
L 3513 0 
L 2938 0 
L 2938 2094 
Q 2938 2591 2744 2837 
Q 2550 3084 2163 3084 
Q 1697 3084 1428 2787 
Q 1159 2491 1159 1978 
L 1159 0 
L 581 0 
L 581 3500 
L 1159 3500 
L 1159 2956 
Q 1366 3272 1645 3428 
Q 1925 3584 2291 3584 
Q 2894 3584 3203 3211 
Q 3513 2838 3513 2113 
z
" transform="scale(0.015625)"/>
       <path id="DejaVuSans-44" d="M 1259 4147 
L 1259 519 
L 2022 519 
Q 2988 519 3436 956 
Q 3884 1394 3884 2338 
Q 3884 3275 3436 3711 
Q 2988 4147 2022 4147 
L 1259 4147 
z
M 628 4666 
L 1925 4666 
Q 3281 4666 3915 4102 
Q 4550 3538 4550 2338 
Q 4550 1131 3912 565 
Q 3275 0 1925 0 
L 628 0 
L 628 4666 
z
" transform="scale(0.015625)"/>
       <path id="DejaVuSans-61" d="M 2194 1759 
Q 1497 1759 1228 1600 
Q 959 1441 959 1056 
Q 959 750 1161 570 
Q 1363 391 1709 391 
Q 2188 391 2477 730 
Q 2766 1069 2766 1631 
L 2766 1759 
L 2194 1759 
z
M 3341 1997 
L 3341 0 
L 2766 0 
L 2766 531 
Q 2569 213 2275 61 
Q 1981 -91 1556 -91 
Q 1019 -91 701 211 
Q 384 513 384 1019 
Q 384 1609 779 1909 
Q 1175 2209 1959 2209 
L 2766 2209 
L 2766 2266 
Q 2766 2663 2505 2880 
Q 2244 3097 1772 3097 
Q 1472 3097 1187 3025 
Q 903 2953 641 2809 
L 641 3341 
Q 956 3463 1253 3523 
Q 1550 3584 1831 3584 
Q 2591 3584 2966 3190 
Q 3341 2797 3341 1997 
z
" transform="scale(0.015625)"/>
       <path id="DejaVuSans-79" d="M 2059 -325 
Q 1816 -950 1584 -1140 
Q 1353 -1331 966 -1331 
L 506 -1331 
L 506 -850 
L 844 -850 
Q 1081 -850 1212 -737 
Q 1344 -625 1503 -206 
L 1606 56 
L 191 3500 
L 800 3500 
L 1894 763 
L 2988 3500 
L 3597 3500 
L 2059 -325 
z
" transform="scale(0.015625)"/>
       <path id="DejaVuSans-73" d="M 2834 3397 
L 2834 2853 
Q 2591 2978 2328 3040 
Q 2066 3103 1784 3103 
Q 1356 3103 1142 2972 
Q 928 2841 928 2578 
Q 928 2378 1081 2264 
Q 1234 2150 1697 2047 
L 1894 2003 
Q 2506 1872 2764 1633 
Q 3022 1394 3022 966 
Q 3022 478 2636 193 
Q 2250 -91 1575 -91 
Q 1294 -91 989 -36 
Q 684 19 347 128 
L 347 722 
Q 666 556 975 473 
Q 1284 391 1588 391 
Q 1994 391 2212 530 
Q 2431 669 2431 922 
Q 2431 1156 2273 1281 
Q 2116 1406 1581 1522 
L 1381 1569 
Q 847 1681 609 1914 
Q 372 2147 372 2553 
Q 372 3047 722 3315 
Q 1072 3584 1716 3584 
Q 2034 3584 2315 3537 
Q 2597 3491 2834 3397 
z
" transform="scale(0.015625)"/>
      </defs>
      <use xlink:href="#DejaVuSans-54"/>
      <use xlink:href="#DejaVuSans-69" x="57.958984"/>
      <use xlink:href="#DejaVuSans-6d" x="85.742188"/>
      <use xlink:href="#DejaVuSans-65" x="183.154297"/>
      <use xlink:href="#DejaVuSans-20" x="244.677734"/>
      <use xlink:href="#DejaVuSans-69" x="276.464844"/>
      <use xlink:href="#DejaVuSans-6e" x="304.248047"/>
      <use xlink:href="#DejaVuSans-20" x="367.626953"/>
      <use xlink:href="#DejaVuSans-44" x="399.414062"/>
      <use xlink:href="#DejaVuSans-61" x="476.416016"/>
      <use xlink:href="#DejaVuSans-79" x="537.695312"/>
      <use xlink:href="#DejaVuSans-73" x="596.875"/>
     </g>
    </g>
   </g>
   <g id="matplotlib.axis_2">
    <g id="ytick_1">
     <g id="line2d_8">
      <defs>
       <path id="m8141cef5e2" d="M 0 0 
L -3.5 0 
" style="stroke: #000000; stroke-width: 0.8"/>
      </defs>
      <g>
       <use xlink:href="#m8141cef5e2" x="43.78125" y="348.561202" style="stroke: #000000; stroke-width: 0.8"/>
      </g>
     </g>
     <g id="text_9">
      <!-- 0.5 -->
      <g transform="translate(20.878125 352.360421) scale(0.1 -0.1)">
       <defs>
        <path id="DejaVuSans-2e" d="M 684 794 
L 1344 794 
L 1344 0 
L 684 0 
L 684 794 
z
" transform="scale(0.015625)"/>
       </defs>
       <use xlink:href="#DejaVuSans-30"/>
       <use xlink:href="#DejaVuSans-2e" x="63.623047"/>
       <use xlink:href="#DejaVuSans-35" x="95.410156"/>
      </g>
     </g>
    </g>
    <g id="ytick_2">
     <g id="line2d_9">
      <g>
       <use xlink:href="#m8141cef5e2" x="43.78125" y="284.591971" style="stroke: #000000; stroke-width: 0.8"/>
      </g>
     </g>
     <g id="text_10">
      <!-- 0.6 -->
      <g transform="translate(20.878125 288.39119) scale(0.1 -0.1)">
       <use xlink:href="#DejaVuSans-30"/>
       <use xlink:href="#DejaVuSans-2e" x="63.623047"/>
       <use xlink:href="#DejaVuSans-36" x="95.410156"/>
      </g>
     </g>
    </g>
    <g id="ytick_3">
     <g id="line2d_10">
      <g>
       <use xlink:href="#m8141cef5e2" x="43.78125" y="220.62274" style="stroke: #000000; stroke-width: 0.8"/>
      </g>
     </g>
     <g id="text_11">
      <!-- 0.7 -->
      <g transform="translate(20.878125 224.421959) scale(0.1 -0.1)">
       <defs>
        <path id="DejaVuSans-37" d="M 525 4666 
L 3525 4666 
L 3525 4397 
L 1831 0 
L 1172 0 
L 2766 4134 
L 525 4134 
L 525 4666 
z
" transform="scale(0.015625)"/>
       </defs>
       <use xlink:href="#DejaVuSans-30"/>
       <use xlink:href="#DejaVuSans-2e" x="63.623047"/>
       <use xlink:href="#DejaVuSans-37" x="95.410156"/>
      </g>
     </g>
    </g>
    <g id="ytick_4">
     <g id="line2d_11">
      <g>
       <use xlink:href="#m8141cef5e2" x="43.78125" y="156.65351" style="stroke: #000000; stroke-width: 0.8"/>
      </g>
     </g>
     <g id="text_12">
      <!-- 0.8 -->
      <g transform="translate(20.878125 160.452728) scale(0.1 -0.1)">
       <defs>
        <path id="DejaVuSans-38" d="M 2034 2216 
Q 1584 2216 1326 1975 
Q 1069 1734 1069 1313 
Q 1069 891 1326 650 
Q 1584 409 2034 409 
Q 2484 409 2743 651 
Q 3003 894 3003 1313 
Q 3003 1734 2745 1975 
Q 2488 2216 2034 2216 
z
M 1403 2484 
Q 997 2584 770 2862 
Q 544 3141 544 3541 
Q 544 4100 942 4425 
Q 1341 4750 2034 4750 
Q 2731 4750 3128 4425 
Q 3525 4100 3525 3541 
Q 3525 3141 3298 2862 
Q 3072 2584 2669 2484 
Q 3125 2378 3379 2068 
Q 3634 1759 3634 1313 
Q 3634 634 3220 271 
Q 2806 -91 2034 -91 
Q 1263 -91 848 271 
Q 434 634 434 1313 
Q 434 1759 690 2068 
Q 947 2378 1403 2484 
z
M 1172 3481 
Q 1172 3119 1398 2916 
Q 1625 2713 2034 2713 
Q 2441 2713 2670 2916 
Q 2900 3119 2900 3481 
Q 2900 3844 2670 4047 
Q 2441 4250 2034 4250 
Q 1625 4250 1398 4047 
Q 1172 3844 1172 3481 
z
" transform="scale(0.015625)"/>
       </defs>
       <use xlink:href="#DejaVuSans-30"/>
       <use xlink:href="#DejaVuSans-2e" x="63.623047"/>
       <use xlink:href="#DejaVuSans-38" x="95.410156"/>
      </g>
     </g>
    </g>
    <g id="ytick_5">
     <g id="line2d_12">
      <g>
       <use xlink:href="#m8141cef5e2" x="43.78125" y="92.684279" style="stroke: #000000; stroke-width: 0.8"/>
      </g>
     </g>
     <g id="text_13">
      <!-- 0.9 -->
      <g transform="translate(20.878125 96.483498) scale(0.1 -0.1)">
       <defs>
        <path id="DejaVuSans-39" d="M 703 97 
L 703 672 
Q 941 559 1184 500 
Q 1428 441 1663 441 
Q 2288 441 2617 861 
Q 2947 1281 2994 2138 
Q 2813 1869 2534 1725 
Q 2256 1581 1919 1581 
Q 1219 1581 811 2004 
Q 403 2428 403 3163 
Q 403 3881 828 4315 
Q 1253 4750 1959 4750 
Q 2769 4750 3195 4129 
Q 3622 3509 3622 2328 
Q 3622 1225 3098 567 
Q 2575 -91 1691 -91 
Q 1453 -91 1209 -44 
Q 966 3 703 97 
z
M 1959 2075 
Q 2384 2075 2632 2365 
Q 2881 2656 2881 3163 
Q 2881 3666 2632 3958 
Q 2384 4250 1959 4250 
Q 1534 4250 1286 3958 
Q 1038 3666 1038 3163 
Q 1038 2656 1286 2365 
Q 1534 2075 1959 2075 
z
" transform="scale(0.015625)"/>
       </defs>
       <use xlink:href="#DejaVuSans-30"/>
       <use xlink:href="#DejaVuSans-2e" x="63.623047"/>
       <use xlink:href="#DejaVuSans-39" x="95.410156"/>
      </g>
     </g>
    </g>
    <g id="ytick_6">
     <g id="line2d_13">
      <g>
       <use xlink:href="#m8141cef5e2" x="43.78125" y="28.715048" style="stroke: #000000; stroke-width: 0.8"/>
      </g>
     </g>
     <g id="text_14">
      <!-- 1.0 -->
      <g transform="translate(20.878125 32.514267) scale(0.1 -0.1)">
       <use xlink:href="#DejaVuSans-31"/>
       <use xlink:href="#DejaVuSans-2e" x="63.623047"/>
       <use xlink:href="#DejaVuSans-30" x="95.410156"/>
      </g>
     </g>
    </g>
    <g id="text_15">
     <!-- Survival Probability -->
     <g transform="translate(14.798438 236.815469) rotate(-90) scale(0.1 -0.1)">
      <defs>
       <path id="DejaVuSans-53" d="M 3425 4513 
L 3425 3897 
Q 3066 4069 2747 4153 
Q 2428 4238 2131 4238 
Q 1616 4238 1336 4038 
Q 1056 3838 1056 3469 
Q 1056 3159 1242 3001 
Q 1428 2844 1947 2747 
L 2328 2669 
Q 3034 2534 3370 2195 
Q 3706 1856 3706 1288 
Q 3706 609 3251 259 
Q 2797 -91 1919 -91 
Q 1588 -91 1214 -16 
Q 841 59 441 206 
L 441 856 
Q 825 641 1194 531 
Q 1563 422 1919 422 
Q 2459 422 2753 634 
Q 3047 847 3047 1241 
Q 3047 1584 2836 1778 
Q 2625 1972 2144 2069 
L 1759 2144 
Q 1053 2284 737 2584 
Q 422 2884 422 3419 
Q 422 4038 858 4394 
Q 1294 4750 2059 4750 
Q 2388 4750 2728 4690 
Q 3069 4631 3425 4513 
z
" transform="scale(0.015625)"/>
       <path id="DejaVuSans-75" d="M 544 1381 
L 544 3500 
L 1119 3500 
L 1119 1403 
Q 1119 906 1312 657 
Q 1506 409 1894 409 
Q 2359 409 2629 706 
Q 2900 1003 2900 1516 
L 2900 3500 
L 3475 3500 
L 3475 0 
L 2900 0 
L 2900 538 
Q 2691 219 2414 64 
Q 2138 -91 1772 -91 
Q 1169 -91 856 284 
Q 544 659 544 1381 
z
M 1991 3584 
L 1991 3584 
z
" transform="scale(0.015625)"/>
       <path id="DejaVuSans-72" d="M 2631 2963 
Q 2534 3019 2420 3045 
Q 2306 3072 2169 3072 
Q 1681 3072 1420 2755 
Q 1159 2438 1159 1844 
L 1159 0 
L 581 0 
L 581 3500 
L 1159 3500 
L 1159 2956 
Q 1341 3275 1631 3429 
Q 1922 3584 2338 3584 
Q 2397 3584 2469 3576 
Q 2541 3569 2628 3553 
L 2631 2963 
z
" transform="scale(0.015625)"/>
       <path id="DejaVuSans-76" d="M 191 3500 
L 800 3500 
L 1894 563 
L 2988 3500 
L 3597 3500 
L 2284 0 
L 1503 0 
L 191 3500 
z
" transform="scale(0.015625)"/>
       <path id="DejaVuSans-6c" d="M 603 4863 
L 1178 4863 
L 1178 0 
L 603 0 
L 603 4863 
z
" transform="scale(0.015625)"/>
       <path id="DejaVuSans-50" d="M 1259 4147 
L 1259 2394 
L 2053 2394 
Q 2494 2394 2734 2622 
Q 2975 2850 2975 3272 
Q 2975 3691 2734 3919 
Q 2494 4147 2053 4147 
L 1259 4147 
z
M 628 4666 
L 2053 4666 
Q 2838 4666 3239 4311 
Q 3641 3956 3641 3272 
Q 3641 2581 3239 2228 
Q 2838 1875 2053 1875 
L 1259 1875 
L 1259 0 
L 628 0 
L 628 4666 
z
" transform="scale(0.015625)"/>
       <path id="DejaVuSans-6f" d="M 1959 3097 
Q 1497 3097 1228 2736 
Q 959 2375 959 1747 
Q 959 1119 1226 758 
Q 1494 397 1959 397 
Q 2419 397 2687 759 
Q 2956 1122 2956 1747 
Q 2956 2369 2687 2733 
Q 2419 3097 1959 3097 
z
M 1959 3584 
Q 2709 3584 3137 3096 
Q 3566 2609 3566 1747 
Q 3566 888 3137 398 
Q 2709 -91 1959 -91 
Q 1206 -91 779 398 
Q 353 888 353 1747 
Q 353 2609 779 3096 
Q 1206 3584 1959 3584 
z
" transform="scale(0.015625)"/>
       <path id="DejaVuSans-62" d="M 3116 1747 
Q 3116 2381 2855 2742 
Q 2594 3103 2138 3103 
Q 1681 3103 1420 2742 
Q 1159 2381 1159 1747 
Q 1159 1113 1420 752 
Q 1681 391 2138 391 
Q 2594 391 2855 752 
Q 3116 1113 3116 1747 
z
M 1159 2969 
Q 1341 3281 1617 3432 
Q 1894 3584 2278 3584 
Q 2916 3584 3314 3078 
Q 3713 2572 3713 1747 
Q 3713 922 3314 415 
Q 2916 -91 2278 -91 
Q 1894 -91 1617 61 
Q 1341 213 1159 525 
L 1159 0 
L 581 0 
L 581 4863 
L 1159 4863 
L 1159 2969 
z
" transform="scale(0.015625)"/>
       <path id="DejaVuSans-74" d="M 1172 4494 
L 1172 3500 
L 2356 3500 
L 2356 3053 
L 1172 3053 
L 1172 1153 
Q 1172 725 1289 603 
Q 1406 481 1766 481 
L 2356 481 
L 2356 0 
L 1766 0 
Q 1100 0 847 248 
Q 594 497 594 1153 
L 594 3053 
L 172 3053 
L 172 3500 
L 594 3500 
L 594 4494 
L 1172 4494 
z
" transform="scale(0.015625)"/>
      </defs>
      <use xlink:href="#DejaVuSans-53"/>
      <use xlink:href="#DejaVuSans-75" x="63.476562"/>
      <use xlink:href="#DejaVuSans-72" x="126.855469"/>
      <use xlink:href="#DejaVuSans-76" x="167.96875"/>
      <use xlink:href="#DejaVuSans-69" x="227.148438"/>
      <use xlink:href="#DejaVuSans-76" x="254.931641"/>
      <use xlink:href="#DejaVuSans-61" x="314.111328"/>
      <use xlink:href="#DejaVuSans-6c" x="375.390625"/>
      <use xlink:href="#DejaVuSans-20" x="403.173828"/>
      <use xlink:href="#DejaVuSans-50" x="434.960938"/>
      <use xlink:href="#DejaVuSans-72" x="493.513672"/>
      <use xlink:href="#DejaVuSans-6f" x="532.376953"/>
      <use xlink:href="#DejaVuSans-62" x="593.558594"/>
      <use xlink:href="#DejaVuSans-61" x="657.035156"/>
      <use xlink:href="#DejaVuSans-62" x="718.314453"/>
      <use xlink:href="#DejaVuSans-69" x="781.791016"/>
      <use xlink:href="#DejaVuSans-6c" x="809.574219"/>
      <use xlink:href="#DejaVuSans-69" x="837.357422"/>
      <use xlink:href="#DejaVuSans-74" x="865.140625"/>
      <use xlink:href="#DejaVuSans-79" x="904.349609"/>
     </g>
    </g>
   </g>
   <g id="line2d_14">
    <path d="M 69.144886 29.609466 
L 73.30286 29.609466 
L 73.30286 30.511002 
L 75.150848 30.511002 
L 75.150848 31.413837 
L 76.151841 31.413837 
L 76.151841 32.319384 
L 81.079809 32.319384 
L 81.079809 33.235672 
L 83.620793 33.235672 
L 83.620793 34.160085 
L 83.851791 34.160085 
L 83.851791 35.084505 
L 84.159789 35.084505 
L 84.159789 36.014412 
L 84.313788 36.014412 
L 84.313788 37.880101 
L 85.006784 37.880101 
L 85.006784 38.81591 
L 85.160783 38.81591 
L 85.160783 39.756955 
L 86.623774 39.756955 
L 86.623774 40.707246 
L 88.394762 40.707246 
L 88.394762 41.663798 
L 88.933759 41.663798 
L 88.933759 42.628656 
L 93.630728 42.628656 
L 93.630728 43.598318 
L 94.785721 43.598318 
L 94.785721 44.578794 
L 95.940713 44.578794 
L 95.940713 46.545286 
L 96.248712 46.545286 
L 96.248712 48.52038 
L 97.095706 48.52038 
L 97.095706 49.511006 
L 97.480704 49.511006 
L 97.480704 50.501315 
L 98.327698 50.501315 
L 98.327698 51.498087 
L 99.328692 51.498087 
L 99.328692 52.496672 
L 99.944688 52.496672 
L 99.944688 53.515814 
L 100.021687 53.515814 
L 100.175686 53.515814 
L 100.252686 55.565398 
L 100.483684 55.565398 
L 100.483684 56.594987 
L 100.945681 56.594987 
L 100.945681 57.623652 
L 102.177673 57.623652 
L 102.177673 58.651272 
L 103.178667 58.651272 
L 103.178667 60.704693 
L 103.871662 60.704693 
L 103.871662 61.74053 
L 104.17966 61.74053 
L 104.17966 62.791695 
L 104.872656 62.791695 
L 104.872656 63.843348 
L 105.026655 63.843348 
L 105.103654 65.968984 
L 105.71965 65.968984 
L 105.71965 67.03316 
L 106.335646 67.03316 
L 106.335646 68.099025 
L 106.566645 68.099025 
L 106.643644 70.239855 
L 107.490639 70.239855 
L 107.490639 71.318798 
L 108.414633 71.318798 
L 108.414633 72.397475 
L 108.722631 72.397475 
L 108.722631 73.477278 
L 109.723625 73.477278 
L 109.723625 74.557212 
L 109.877624 74.557212 
L 109.877624 75.640001 
L 110.955617 75.640001 
L 110.955617 76.722537 
L 113.804598 76.722537 
L 113.881598 78.908147 
L 114.497594 78.908147 
L 114.574593 81.102543 
L 116.422581 81.102543 
L 116.422581 82.212619 
L 119.271563 82.212619 
L 119.271563 83.336206 
L 122.967539 83.336206 
L 122.967539 84.474185 
L 123.660535 84.474185 
L 123.660535 85.62885 
L 124.199531 85.62885 
L 124.199531 86.791484 
L 124.815527 86.791484 
L 124.815527 87.953193 
L 126.971513 87.953193 
L 126.971513 89.118363 
L 127.202512 89.118363 
L 127.202512 90.284986 
L 128.588503 90.284986 
L 128.588503 91.455623 
L 128.665502 91.455623 
L 129.666496 91.455623 
L 129.666496 92.627344 
L 133.131474 92.627344 
L 133.131474 93.815582 
L 133.362472 93.815582 
L 133.362472 96.201211 
L 135.21046 96.201211 
L 135.21046 97.402272 
L 136.673451 97.402272 
L 136.673451 98.622961 
L 136.904449 98.622961 
L 136.904449 99.857097 
L 137.443446 99.857097 
L 137.443446 101.091655 
L 139.676431 101.091655 
L 139.676431 102.327347 
L 146.298389 102.327347 
L 146.298389 103.586353 
L 148.993371 103.586353 
L 148.993371 104.856652 
L 149.686367 104.856652 
L 149.686367 106.139208 
L 149.763366 106.139208 
L 150.071364 106.139208 
L 150.071364 107.429173 
L 150.841359 107.429173 
L 150.841359 108.723177 
L 151.457355 108.723177 
L 151.457355 110.020689 
L 154.306337 110.020689 
L 154.306337 111.348103 
L 154.460336 111.348103 
L 154.460336 112.676174 
L 154.691334 112.676174 
L 154.691334 114.005903 
L 156.92432 114.005903 
L 156.92432 115.338324 
L 158.618309 115.338324 
L 158.618309 116.669114 
L 159.619303 116.669114 
L 159.619303 118.003588 
L 159.927301 118.003588 
L 159.927301 119.339768 
L 162.853282 119.339768 
L 162.853282 120.69375 
L 163.315279 120.69375 
L 163.315279 122.048074 
L 167.78125 122.048074 
L 167.78125 123.423149 
L 167.85825 123.423149 
L 171.477226 123.423149 
L 171.477226 124.823409 
L 173.094216 124.823409 
L 173.094216 126.225981 
L 174.095209 126.225981 
L 174.095209 127.628685 
L 175.789198 127.628685 
L 175.789198 129.045451 
L 176.097196 129.045451 
L 176.097196 130.462753 
L 179.485174 130.462753 
L 179.485174 131.935367 
L 180.17817 131.935367 
L 180.17817 133.409643 
L 186.800127 133.409643 
L 186.800127 134.925513 
L 195.65507 134.925513 
L 195.65507 136.515195 
L 198.73505 136.515195 
L 198.73505 138.123459 
L 204.741012 138.123459 
L 204.741012 139.806043 
L 208.359988 139.806043 
L 208.359988 141.532771 
L 222.989894 141.532771 
L 222.989894 143.421532 
L 232.383833 143.421532 
L 232.383833 145.490969 
L 232.460833 145.490969 
L 247.167738 145.490969 
L 247.167738 147.791322 
L 253.789695 147.791322 
L 253.789695 150.161695 
L 284.435497 150.161695 
L 284.435497 153.333603 
L 286.591483 153.333603 
L 286.591483 156.605563 
L 361.512 156.605563 
L 361.512 163.398359 
L 576.417614 163.398359 
L 576.417614 163.398359 
" clip-path="url(#p73dfb43b7e)" style="fill: none; stroke: #4a4a4a; stroke-width: 1.5; stroke-linecap: square"/>
   </g>
   <g id="line2d_15">
    <path d="M 69.144886 29.604593 
L 73.30286 29.604593 
L 73.30286 30.501223 
L 75.150848 30.501223 
L 75.150848 31.399152 
L 76.151841 31.399152 
L 76.151841 32.299785 
L 81.079809 32.299785 
L 81.079809 33.211108 
L 83.620793 33.211108 
L 83.620793 34.13052 
L 83.851791 34.13052 
L 83.851791 35.049946 
L 84.159789 35.049946 
L 84.159789 35.974836 
L 84.313788 35.974836 
L 84.313788 37.830483 
L 85.006784 37.830483 
L 85.006784 38.761266 
L 85.160783 38.761266 
L 85.160783 39.697265 
L 86.623774 39.697265 
L 86.623774 40.642467 
L 88.394762 40.642467 
L 88.394762 41.593906 
L 88.933759 41.593906 
L 88.933759 42.553614 
L 93.630728 42.553614 
L 93.630728 43.518107 
L 94.785721 43.518107 
L 94.785721 44.493366 
L 95.940713 44.493366 
L 95.940713 46.44942 
L 96.248712 46.44942 
L 96.248712 48.414064 
L 97.095706 48.414064 
L 97.095706 49.399462 
L 97.480704 49.399462 
L 97.480704 50.384552 
L 98.327698 50.384552 
L 98.327698 51.37608 
L 99.328692 51.37608 
L 99.328692 52.369422 
L 99.944688 52.369422 
L 99.944688 53.38322 
L 100.021687 53.38322 
L 100.175686 53.38322 
L 100.252686 55.422086 
L 100.483684 55.422086 
L 100.483684 56.446305 
L 100.945681 56.446305 
L 100.945681 57.469614 
L 102.177673 57.469614 
L 102.177673 58.491893 
L 103.178667 58.491893 
L 103.178667 60.534669 
L 103.871662 60.534669 
L 103.871662 61.565151 
L 104.17966 61.565151 
L 104.17966 62.610891 
L 104.872656 62.610891 
L 104.872656 63.657127 
L 105.026655 63.657127 
L 105.103654 65.771844 
L 105.71965 65.771844 
L 105.71965 66.830568 
L 106.335646 66.830568 
L 106.335646 67.890983 
L 106.566645 67.890983 
L 106.643644 70.020898 
L 107.490639 70.020898 
L 107.490639 71.094356 
L 108.414633 71.094356 
L 108.414633 72.167559 
L 108.722631 72.167559 
L 108.722631 73.241894 
L 109.723625 73.241894 
L 109.723625 74.31637 
L 109.877624 74.31637 
L 109.877624 75.393696 
L 110.955617 75.393696 
L 110.955617 76.470782 
L 113.804598 76.470782 
L 113.881598 78.645421 
L 114.497594 78.645421 
L 114.574593 80.828846 
L 116.422581 80.828846 
L 116.422581 81.933389 
L 119.271563 81.933389 
L 119.271563 83.051387 
L 122.967539 83.051387 
L 122.967539 84.183718 
L 123.660535 84.183718 
L 123.660535 85.332664 
L 124.199531 85.332664 
L 124.199531 86.489552 
L 124.815527 86.489552 
L 124.815527 87.645533 
L 126.971513 87.645533 
L 126.971513 88.80497 
L 127.202512 88.80497 
L 127.202512 89.965866 
L 128.588503 89.965866 
L 128.588503 91.130768 
L 128.665502 91.130768 
L 129.666496 91.130768 
L 129.666496 92.296763 
L 133.131474 92.296763 
L 133.131474 93.479206 
L 133.362472 93.479206 
L 133.362472 95.853243 
L 135.21046 95.853243 
L 135.21046 97.048488 
L 136.673451 97.048488 
L 136.673451 98.26328 
L 136.904449 98.26328 
L 136.904449 99.491468 
L 137.443446 99.491468 
L 137.443446 100.720091 
L 139.676431 100.720091 
L 139.676431 101.949857 
L 146.298389 101.949857 
L 146.298389 103.20284 
L 148.993371 103.20284 
L 148.993371 104.467078 
L 149.686367 104.467078 
L 149.686367 105.74353 
L 149.763366 105.74353 
L 150.071364 105.74353 
L 150.071364 107.027372 
L 150.841359 107.027372 
L 150.841359 108.31525 
L 151.457355 108.31525 
L 151.457355 109.606636 
L 154.306337 109.606636 
L 154.306337 110.927799 
L 154.460336 110.927799 
L 154.460336 112.249633 
L 154.691334 112.249633 
L 154.691334 113.573135 
L 156.92432 113.573135 
L 156.92432 114.899333 
L 158.618309 114.899333 
L 158.618309 116.223926 
L 159.619303 116.223926 
L 159.619303 117.552203 
L 159.927301 117.552203 
L 159.927301 118.882195 
L 162.853282 118.882195 
L 162.853282 120.229926 
L 163.315279 120.229926 
L 163.315279 121.578015 
L 167.78125 121.578015 
L 167.78125 122.946777 
L 167.85825 122.946777 
L 171.477226 122.946777 
L 171.477226 124.340629 
L 173.094216 124.340629 
L 173.094216 125.736802 
L 174.095209 125.736802 
L 174.095209 127.133125 
L 175.789198 127.133125 
L 175.789198 128.543467 
L 176.097196 128.543467 
L 176.097196 129.954362 
L 179.485174 129.954362 
L 179.485174 131.420342 
L 180.17817 131.420342 
L 180.17817 132.887998 
L 186.800127 132.887998 
L 186.800127 134.397083 
L 195.65507 134.397083 
L 195.65507 135.979676 
L 198.73505 135.979676 
L 198.73505 137.580794 
L 204.741012 137.580794 
L 204.741012 139.25593 
L 208.359988 139.25593 
L 208.359988 140.975044 
L 222.989894 140.975044 
L 222.989894 142.855513 
L 232.383833 142.855513 
L 232.383833 144.915907 
L 232.460833 144.915907 
L 247.167738 144.915907 
L 247.167738 147.20626 
L 253.789695 147.20626 
L 253.789695 149.566386 
L 284.435497 149.566386 
L 284.435497 152.724675 
L 286.591483 152.724675 
L 286.591483 155.982696 
L 361.512 155.982696 
L 361.512 162.746919 
L 576.417614 162.746919 
L 576.417614 162.746919 
" clip-path="url(#p73dfb43b7e)" style="fill: none; stroke: #424e6b; stroke-width: 1.5; stroke-linecap: square"/>
   </g>
   <g id="line2d_16">
    <path d="M 69.144886 29.60155 
L 73.30286 29.60155 
L 73.30286 30.495118 
L 75.150848 30.495118 
L 75.150848 31.389984 
L 76.151841 31.389984 
L 76.151841 32.28755 
L 81.079809 32.28755 
L 81.079809 33.195774 
L 83.620793 33.195774 
L 83.620793 34.112064 
L 83.851791 34.112064 
L 83.851791 35.028371 
L 84.159789 35.028371 
L 84.159789 35.95013 
L 84.313788 35.95013 
L 84.313788 37.799507 
L 85.006784 37.799507 
L 85.006784 38.727153 
L 85.160783 38.727153 
L 85.160783 39.66 
L 86.623774 39.66 
L 86.623774 40.602026 
L 88.394762 40.602026 
L 88.394762 41.550272 
L 88.933759 41.550272 
L 88.933759 42.506764 
L 93.630728 42.506764 
L 93.630728 43.468031 
L 94.785721 43.468031 
L 94.785721 44.440033 
L 95.940713 44.440033 
L 95.940713 46.389568 
L 96.248712 46.389568 
L 96.248712 48.347688 
L 97.095706 48.347688 
L 97.095706 49.329821 
L 97.480704 49.329821 
L 97.480704 50.311652 
L 98.327698 50.311652 
L 98.327698 51.299906 
L 99.328692 51.299906 
L 99.328692 52.289973 
L 99.944688 52.289973 
L 99.944688 53.300435 
L 100.021687 53.300435 
L 100.175686 53.300435 
L 100.252686 55.332608 
L 100.483684 55.332608 
L 100.483684 56.353473 
L 100.945681 56.353473 
L 100.945681 57.373437 
L 102.177673 57.373437 
L 102.177673 58.392381 
L 103.178667 58.392381 
L 103.178667 60.428509 
L 103.871662 60.428509 
L 103.871662 61.455646 
L 104.17966 61.455646 
L 104.17966 62.497999 
L 104.872656 62.497999 
L 104.872656 63.540851 
L 105.026655 63.540851 
L 105.103654 65.648747 
L 105.71965 65.648747 
L 105.71965 66.704067 
L 106.335646 66.704067 
L 106.335646 67.761078 
L 106.566645 67.761078 
L 106.643644 69.884175 
L 107.490639 69.884175 
L 107.490639 70.954207 
L 108.414633 70.954207 
L 108.414633 72.023991 
L 108.722631 72.023991 
L 108.722631 73.09491 
L 109.723625 73.09491 
L 109.723625 74.165976 
L 109.877624 74.165976 
L 109.877624 75.23989 
L 110.955617 75.23989 
L 110.955617 76.313571 
L 113.804598 76.313571 
L 113.881598 78.481357 
L 114.497594 78.481357 
L 114.574593 80.657928 
L 116.422581 80.657928 
L 116.422581 81.759014 
L 119.271563 81.759014 
L 119.271563 82.873521 
L 122.967539 82.873521 
L 122.967539 84.002323 
L 123.660535 84.002323 
L 123.660535 85.147696 
L 124.199531 85.147696 
L 124.199531 86.300994 
L 124.815527 86.300994 
L 124.815527 87.453395 
L 126.971513 87.453395 
L 126.971513 88.609251 
L 127.202512 88.609251 
L 127.202512 89.766568 
L 128.588503 89.766568 
L 128.588503 90.927887 
L 128.665502 90.927887 
L 129.666496 90.927887 
L 129.666496 92.090303 
L 133.131474 92.090303 
L 133.131474 93.269126 
L 133.362472 93.269126 
L 133.362472 95.635919 
L 135.21046 95.635919 
L 135.21046 96.82753 
L 136.673451 96.82753 
L 136.673451 98.038636 
L 136.904449 98.038636 
L 136.904449 99.263107 
L 137.443446 99.263107 
L 137.443446 100.488021 
L 139.676431 100.488021 
L 139.676431 101.714084 
L 146.298389 101.714084 
L 146.298389 102.963304 
L 148.993371 102.963304 
L 148.993371 104.223753 
L 149.686367 104.223753 
L 149.686367 105.496391 
L 149.763366 105.496391 
L 150.071364 105.496391 
L 150.071364 106.776406 
L 150.841359 106.776406 
L 150.841359 108.060454 
L 151.457355 108.060454 
L 151.457355 109.34801 
L 154.306337 109.34801 
L 154.306337 110.665267 
L 154.460336 110.665267 
L 154.460336 111.983202 
L 154.691334 111.983202 
L 154.691334 113.302812 
L 156.92432 113.302812 
L 156.92432 114.62512 
L 158.618309 114.62512 
L 158.618309 115.945838 
L 159.619303 115.945838 
L 159.619303 117.270242 
L 159.927301 117.270242 
L 159.927301 118.596366 
L 162.853282 118.596366 
L 162.853282 119.940188 
L 163.315279 119.940188 
L 163.315279 121.284379 
L 167.78125 121.284379 
L 167.78125 122.649195 
L 167.85825 122.649195 
L 171.477226 122.649195 
L 171.477226 124.03904 
L 173.094216 124.03904 
L 173.094216 125.431212 
L 174.095209 125.431212 
L 174.095209 126.823545 
L 175.789198 126.823545 
L 175.789198 128.229871 
L 176.097196 128.229871 
L 176.097196 129.63676 
L 179.485174 129.63676 
L 179.485174 131.09859 
L 180.17817 131.09859 
L 180.17817 132.562107 
L 186.800127 132.562107 
L 186.800127 134.066949 
L 195.65507 134.066949 
L 195.65507 135.645109 
L 198.73505 135.645109 
L 198.73505 137.241757 
L 204.741012 137.241757 
L 204.741012 138.912235 
L 208.359988 138.912235 
L 208.359988 140.626588 
L 222.989894 140.626588 
L 222.989894 142.501871 
L 232.383833 142.501871 
L 232.383833 144.556608 
L 232.460833 144.556608 
L 247.167738 144.556608 
L 247.167738 146.840706 
L 253.789695 146.840706 
L 253.789695 149.194422 
L 284.435497 149.194422 
L 284.435497 152.344191 
L 286.591483 152.344191 
L 286.591483 155.593492 
L 361.512 155.593492 
L 361.512 162.339837 
L 576.417614 162.339837 
L 576.417614 162.339837 
" clip-path="url(#p73dfb43b7e)" style="fill: none; stroke: #3a528b; stroke-width: 1.5; stroke-linecap: square"/>
   </g>
   <g id="line2d_17">
    <path d="M 69.144886 29.598316 
L 73.30286 29.598316 
L 73.30286 30.488627 
L 75.150848 30.488627 
L 75.150848 31.380238 
L 76.151841 31.380238 
L 76.151841 32.274542 
L 81.079809 32.274542 
L 81.079809 33.179471 
L 83.620793 33.179471 
L 83.620793 34.092441 
L 83.851791 34.092441 
L 83.851791 35.005433 
L 84.159789 35.005433 
L 84.159789 35.923862 
L 84.313788 35.923862 
L 84.313788 37.766573 
L 85.006784 37.766573 
L 85.006784 38.690882 
L 85.160783 38.690882 
L 85.160783 39.62038 
L 86.623774 39.62038 
L 86.623774 40.559028 
L 88.394762 40.559028 
L 88.394762 41.503878 
L 88.933759 41.503878 
L 88.933759 42.456951 
L 93.630728 42.456951 
L 93.630728 43.414787 
L 94.785721 43.414787 
L 94.785721 44.383325 
L 95.940713 44.383325 
L 95.940713 46.32593 
L 96.248712 46.32593 
L 96.248712 48.27711 
L 97.095706 48.27711 
L 97.095706 49.255771 
L 97.480704 49.255771 
L 97.480704 50.234138 
L 98.327698 50.234138 
L 98.327698 51.21891 
L 99.328692 51.21891 
L 99.328692 52.205494 
L 99.944688 52.205494 
L 99.944688 53.212407 
L 100.021687 53.212407 
L 100.175686 53.212407 
L 100.252686 55.237462 
L 100.483684 55.237462 
L 100.483684 56.254761 
L 100.945681 56.254761 
L 100.945681 57.271168 
L 102.177673 57.271168 
L 102.177673 58.286564 
L 103.178667 58.286564 
L 103.178667 60.315622 
L 103.871662 60.315622 
L 103.871662 61.339202 
L 104.17966 61.339202 
L 104.17966 62.377951 
L 104.872656 62.377951 
L 104.872656 63.417205 
L 105.026655 63.417205 
L 105.103654 65.517847 
L 105.71965 65.517847 
L 105.71965 66.569545 
L 106.335646 66.569545 
L 106.335646 67.622935 
L 106.566645 67.622935 
L 106.643644 69.738781 
L 107.490639 69.738781 
L 107.490639 70.805168 
L 108.414633 70.805168 
L 108.414633 71.871316 
L 108.722631 71.871316 
L 108.722631 72.938601 
L 109.723625 72.938601 
L 109.723625 74.006039 
L 109.877624 74.006039 
L 109.877624 75.076324 
L 110.955617 75.076324 
L 110.955617 76.146383 
L 113.804598 76.146383 
L 113.881598 78.306878 
L 114.497594 78.306878 
L 114.574593 80.476158 
L 116.422581 80.476158 
L 116.422581 81.573566 
L 119.271563 81.573566 
L 119.271563 82.684359 
L 122.967539 82.684359 
L 122.967539 83.809406 
L 123.660535 83.809406 
L 123.660535 84.950979 
L 124.199531 84.950979 
L 124.199531 86.100457 
L 124.815527 86.100457 
L 124.815527 87.24905 
L 126.971513 87.24905 
L 126.971513 88.401095 
L 127.202512 88.401095 
L 127.202512 89.554604 
L 128.588503 89.554604 
L 128.588503 90.712111 
L 128.665502 90.712111 
L 129.666496 90.712111 
L 129.666496 91.87072 
L 133.131474 91.87072 
L 133.131474 93.045691 
L 133.362472 93.045691 
L 133.362472 95.404775 
L 135.21046 95.404775 
L 135.21046 96.592519 
L 136.673451 96.592519 
L 136.673451 97.799704 
L 136.904449 97.799704 
L 136.904449 99.02022 
L 137.443446 99.02022 
L 137.443446 100.241187 
L 139.676431 100.241187 
L 139.676431 101.463309 
L 146.298389 101.463309 
L 146.298389 102.708523 
L 148.993371 102.708523 
L 148.993371 103.964941 
L 149.686367 103.964941 
L 149.763366 105.233519 
L 149.763366 105.233519 
L 150.071364 105.233519 
L 150.071364 106.509461 
L 150.841359 106.509461 
L 150.841359 107.789434 
L 151.457355 107.789434 
L 151.457355 109.072915 
L 154.306337 109.072915 
L 154.306337 110.386013 
L 154.460336 110.386013 
L 154.460336 111.699799 
L 154.691334 111.699799 
L 154.691334 113.015266 
L 156.92432 113.015266 
L 156.92432 114.333435 
L 158.618309 114.333435 
L 158.618309 115.650029 
L 159.619303 115.650029 
L 159.619303 116.970309 
L 159.927301 116.970309 
L 159.927301 118.292316 
L 162.853282 118.292316 
L 162.853282 119.631978 
L 163.315279 119.631978 
L 163.315279 120.972019 
L 167.78125 120.972019 
L 167.78125 122.332634 
L 167.85825 122.332634 
L 171.477226 122.332634 
L 171.477226 123.718215 
L 173.094216 123.718215 
L 173.094216 125.106127 
L 174.095209 125.106127 
L 174.095209 126.494214 
L 175.789198 126.494214 
L 175.789198 127.896263 
L 176.097196 127.896263 
L 176.097196 129.298888 
L 179.485174 129.298888 
L 179.485174 130.756301 
L 180.17817 130.756301 
L 180.17817 132.21541 
L 186.800127 132.21541 
L 186.800127 133.715736 
L 195.65507 133.715736 
L 195.65507 135.289175 
L 198.73505 135.289175 
L 198.73505 136.881065 
L 204.741012 136.881065 
L 204.741012 138.546583 
L 208.359988 138.546583 
L 208.359988 140.255866 
L 222.989894 140.255866 
L 222.989894 142.125626 
L 232.383833 142.125626 
L 232.383833 144.17434 
L 232.460833 144.17434 
L 247.167738 144.17434 
L 247.167738 146.451777 
L 253.789695 146.451777 
L 253.789695 148.798667 
L 284.435497 148.798667 
L 284.435497 151.939362 
L 286.591483 151.939362 
L 286.591483 155.179376 
L 361.512 155.179376 
L 361.512 161.906679 
L 576.417614 161.906679 
L 576.417614 161.906679 
" clip-path="url(#p73dfb43b7e)" style="fill: none; stroke: #3256ac; stroke-width: 1.5; stroke-linecap: square"/>
   </g>
   <g id="line2d_18">
    <path d="M 69.144886 29.593685 
L 73.30286 29.593685 
L 73.30286 30.479336 
L 75.150848 30.479336 
L 75.150848 31.366286 
L 76.151841 31.366286 
L 76.151841 32.255922 
L 81.079809 32.255922 
L 81.079809 33.156133 
L 83.620793 33.156133 
L 83.620793 34.064351 
L 83.851791 34.064351 
L 83.851791 34.972598 
L 84.159789 34.972598 
L 84.159789 35.88626 
L 84.313788 35.88626 
L 84.313788 37.719427 
L 85.006784 37.719427 
L 85.006784 38.63896 
L 85.160783 38.63896 
L 85.160783 39.563662 
L 86.623774 39.563662 
L 86.623774 40.497474 
L 88.394762 40.497474 
L 88.394762 41.437464 
L 88.933759 41.437464 
L 88.933759 42.385641 
L 93.630728 42.385641 
L 93.630728 43.338566 
L 94.785721 43.338566 
L 94.785721 44.302144 
L 95.940713 44.302144 
L 95.940713 46.234826 
L 96.248712 46.234826 
L 96.248712 48.176071 
L 97.095706 48.176071 
L 97.095706 49.149761 
L 97.480704 49.149761 
L 97.480704 50.123166 
L 98.327698 50.123166 
L 98.327698 51.102952 
L 99.328692 51.102952 
L 99.328692 52.084549 
L 99.944688 52.084549 
L 99.944688 53.086382 
L 100.021687 53.086382 
L 100.175686 53.086382 
L 100.252686 55.101244 
L 100.483684 55.101244 
L 100.483684 56.113435 
L 100.945681 56.113435 
L 100.945681 57.124749 
L 102.177673 57.124749 
L 102.177673 58.135065 
L 103.178667 58.135065 
L 103.178667 60.153998 
L 103.871662 60.153998 
L 103.871662 61.172483 
L 104.17966 61.172483 
L 104.17966 62.206072 
L 104.872656 62.206072 
L 104.872656 63.240172 
L 105.026655 63.240172 
L 105.103654 65.330426 
L 105.71965 65.330426 
L 105.71965 66.376937 
L 106.335646 66.376937 
L 106.335646 67.425141 
L 106.566645 67.425141 
L 106.643644 69.5306 
L 107.490639 69.5306 
L 107.490639 70.591767 
L 108.414633 70.591767 
L 108.414633 71.652706 
L 108.722631 71.652706 
L 108.722631 72.714787 
L 109.723625 72.714787 
L 109.723625 73.77703 
L 109.877624 73.77703 
L 109.877624 74.842115 
L 110.955617 74.842115 
L 110.955617 75.906987 
L 113.804598 75.906987 
L 113.881598 78.057038 
L 114.497594 78.057038 
L 114.574593 80.215872 
L 116.422581 80.215872 
L 116.422581 81.308013 
L 119.271563 81.308013 
L 119.271563 82.413484 
L 122.967539 82.413484 
L 122.967539 83.533153 
L 123.660535 83.533153 
L 123.660535 84.66928 
L 124.199531 84.66928 
L 124.199531 85.813287 
L 124.815527 85.813287 
L 124.815527 86.956424 
L 126.971513 86.956424 
L 126.971513 88.103008 
L 127.202512 88.103008 
L 127.202512 89.251062 
L 128.588503 89.251062 
L 128.588503 90.403107 
L 128.665502 90.403107 
L 129.666496 90.403107 
L 129.666496 91.556261 
L 133.131474 91.556261 
L 133.131474 92.725712 
L 133.362472 92.725712 
L 133.362472 95.073752 
L 135.21046 95.073752 
L 135.21046 96.255954 
L 136.673451 96.255954 
L 136.673451 97.45752 
L 136.904449 97.45752 
L 136.904449 98.672369 
L 137.443446 98.672369 
L 137.443446 99.88768 
L 139.676431 99.88768 
L 139.676431 101.104154 
L 146.298389 101.104154 
L 146.298389 102.343628 
L 148.993371 102.343628 
L 148.993371 103.594269 
L 149.686367 103.594269 
L 149.686367 104.857028 
L 149.763366 104.857028 
L 150.071364 104.857028 
L 150.071364 106.127133 
L 150.841359 106.127133 
L 150.841359 107.401266 
L 151.457355 107.401266 
L 151.457355 108.678906 
L 154.306337 108.678906 
L 154.306337 109.986044 
L 154.460336 109.986044 
L 154.460336 111.293883 
L 154.691334 111.293883 
L 154.691334 112.603412 
L 156.92432 112.603412 
L 156.92432 113.915646 
L 158.618309 113.915646 
L 158.618309 115.22633 
L 159.619303 115.22633 
L 159.619303 116.540699 
L 159.927301 116.540699 
L 159.927301 117.856804 
L 162.853282 117.856804 
L 162.853282 119.190502 
L 163.315279 119.190502 
L 163.315279 120.524595 
L 167.78125 120.524595 
L 167.78125 121.879188 
L 167.85825 121.879188 
L 171.477226 121.879188 
L 171.477226 123.258653 
L 173.094216 123.258653 
L 173.094216 124.640459 
L 174.095209 124.640459 
L 174.095209 126.022458 
L 175.789198 126.022458 
L 175.789198 127.418375 
L 176.097196 127.418375 
L 176.097196 128.814886 
L 179.485174 128.814886 
L 179.485174 130.265966 
L 180.17817 130.265966 
L 180.17817 131.718755 
L 186.800127 131.718755 
L 186.800127 133.212604 
L 195.65507 133.212604 
L 195.65507 134.779274 
L 198.73505 134.779274 
L 198.73505 136.364341 
L 204.741012 136.364341 
L 204.741012 138.022746 
L 208.359988 138.022746 
L 208.359988 139.724758 
L 222.989894 139.724758 
L 222.989894 141.586598 
L 232.383833 141.586598 
L 232.383833 143.626673 
L 232.460833 143.626673 
L 247.167738 143.626673 
L 247.167738 145.894556 
L 253.789695 145.894556 
L 253.789695 148.231655 
L 284.435497 148.231655 
L 284.435497 151.359334 
L 286.591483 151.359334 
L 286.591483 154.586024 
L 361.512 154.586024 
L 361.512 161.286006 
L 576.417614 161.286006 
L 576.417614 161.286006 
" clip-path="url(#p73dfb43b7e)" style="fill: none; stroke: #2a5acb; stroke-width: 1.5; stroke-linecap: square"/>
   </g>
   <g id="patch_3">
    <path d="M 43.78125 354.958125 
L 43.78125 22.318125 
" style="fill: none; stroke: #000000; stroke-width: 0.8; stroke-linejoin: miter; stroke-linecap: square"/>
   </g>
   <g id="patch_4">
    <path d="M 601.78125 354.958125 
L 601.78125 22.318125 
" style="fill: none; stroke: #000000; stroke-width: 0.8; stroke-linejoin: miter; stroke-linecap: square"/>
   </g>
   <g id="patch_5">
    <path d="M 43.78125 354.958125 
L 601.78125 354.958125 
" style="fill: none; stroke: #000000; stroke-width: 0.8; stroke-linejoin: miter; stroke-linecap: square"/>
   </g>
   <g id="patch_6">
    <path d="M 43.78125 22.318125 
L 601.78125 22.318125 
" style="fill: none; stroke: #000000; stroke-width: 0.8; stroke-linejoin: miter; stroke-linecap: square"/>
   </g>
   <g id="text_16">
    <!-- p-value: 0.938492 -->
    <g transform="translate(499.349375 36.569362) scale(0.1 -0.1)">
     <defs>
      <path id="DejaVuSans-70" d="M 1159 525 
L 1159 -1331 
L 581 -1331 
L 581 3500 
L 1159 3500 
L 1159 2969 
Q 1341 3281 1617 3432 
Q 1894 3584 2278 3584 
Q 2916 3584 3314 3078 
Q 3713 2572 3713 1747 
Q 3713 922 3314 415 
Q 2916 -91 2278 -91 
Q 1894 -91 1617 61 
Q 1341 213 1159 525 
z
M 3116 1747 
Q 3116 2381 2855 2742 
Q 2594 3103 2138 3103 
Q 1681 3103 1420 2742 
Q 1159 2381 1159 1747 
Q 1159 1113 1420 752 
Q 1681 391 2138 391 
Q 2594 391 2855 752 
Q 3116 1113 3116 1747 
z
" transform="scale(0.015625)"/>
      <path id="DejaVuSans-2d" d="M 313 2009 
L 1997 2009 
L 1997 1497 
L 313 1497 
L 313 2009 
z
" transform="scale(0.015625)"/>
      <path id="DejaVuSans-3a" d="M 750 794 
L 1409 794 
L 1409 0 
L 750 0 
L 750 794 
z
M 750 3309 
L 1409 3309 
L 1409 2516 
L 750 2516 
L 750 3309 
z
" transform="scale(0.015625)"/>
     </defs>
     <use xlink:href="#DejaVuSans-70"/>
     <use xlink:href="#DejaVuSans-2d" x="63.476562"/>
     <use xlink:href="#DejaVuSans-76" x="96.935547"/>
     <use xlink:href="#DejaVuSans-61" x="156.115234"/>
     <use xlink:href="#DejaVuSans-6c" x="217.394531"/>
     <use xlink:href="#DejaVuSans-75" x="245.177734"/>
     <use xlink:href="#DejaVuSans-65" x="308.556641"/>
     <use xlink:href="#DejaVuSans-3a" x="370.080078"/>
     <use xlink:href="#DejaVuSans-20" x="403.771484"/>
     <use xlink:href="#DejaVuSans-30" x="435.558594"/>
     <use xlink:href="#DejaVuSans-2e" x="499.181641"/>
     <use xlink:href="#DejaVuSans-39" x="530.96875"/>
     <use xlink:href="#DejaVuSans-33" x="594.591797"/>
     <use xlink:href="#DejaVuSans-38" x="658.214844"/>
     <use xlink:href="#DejaVuSans-34" x="721.837891"/>
     <use xlink:href="#DejaVuSans-39" x="785.460938"/>
     <use xlink:href="#DejaVuSans-32" x="849.083984"/>
    </g>
   </g>
   <g id="text_17">
    <!-- Effect of GZMB Expression on Survival Adjusted for Confoundings -->
    <g transform="translate(126.328125 16.318125) scale(0.12 -0.12)">
     <defs>
      <path id="DejaVuSans-45" d="M 628 4666 
L 3578 4666 
L 3578 4134 
L 1259 4134 
L 1259 2753 
L 3481 2753 
L 3481 2222 
L 1259 2222 
L 1259 531 
L 3634 531 
L 3634 0 
L 628 0 
L 628 4666 
z
" transform="scale(0.015625)"/>
      <path id="DejaVuSans-66" d="M 2375 4863 
L 2375 4384 
L 1825 4384 
Q 1516 4384 1395 4259 
Q 1275 4134 1275 3809 
L 1275 3500 
L 2222 3500 
L 2222 3053 
L 1275 3053 
L 1275 0 
L 697 0 
L 697 3053 
L 147 3053 
L 147 3500 
L 697 3500 
L 697 3744 
Q 697 4328 969 4595 
Q 1241 4863 1831 4863 
L 2375 4863 
z
" transform="scale(0.015625)"/>
      <path id="DejaVuSans-63" d="M 3122 3366 
L 3122 2828 
Q 2878 2963 2633 3030 
Q 2388 3097 2138 3097 
Q 1578 3097 1268 2742 
Q 959 2388 959 1747 
Q 959 1106 1268 751 
Q 1578 397 2138 397 
Q 2388 397 2633 464 
Q 2878 531 3122 666 
L 3122 134 
Q 2881 22 2623 -34 
Q 2366 -91 2075 -91 
Q 1284 -91 818 406 
Q 353 903 353 1747 
Q 353 2603 823 3093 
Q 1294 3584 2113 3584 
Q 2378 3584 2631 3529 
Q 2884 3475 3122 3366 
z
" transform="scale(0.015625)"/>
      <path id="DejaVuSans-47" d="M 3809 666 
L 3809 1919 
L 2778 1919 
L 2778 2438 
L 4434 2438 
L 4434 434 
Q 4069 175 3628 42 
Q 3188 -91 2688 -91 
Q 1594 -91 976 548 
Q 359 1188 359 2328 
Q 359 3472 976 4111 
Q 1594 4750 2688 4750 
Q 3144 4750 3555 4637 
Q 3966 4525 4313 4306 
L 4313 3634 
Q 3963 3931 3569 4081 
Q 3175 4231 2741 4231 
Q 1884 4231 1454 3753 
Q 1025 3275 1025 2328 
Q 1025 1384 1454 906 
Q 1884 428 2741 428 
Q 3075 428 3337 486 
Q 3600 544 3809 666 
z
" transform="scale(0.015625)"/>
      <path id="DejaVuSans-5a" d="M 359 4666 
L 4025 4666 
L 4025 4184 
L 1075 531 
L 4097 531 
L 4097 0 
L 288 0 
L 288 481 
L 3238 4134 
L 359 4134 
L 359 4666 
z
" transform="scale(0.015625)"/>
      <path id="DejaVuSans-4d" d="M 628 4666 
L 1569 4666 
L 2759 1491 
L 3956 4666 
L 4897 4666 
L 4897 0 
L 4281 0 
L 4281 4097 
L 3078 897 
L 2444 897 
L 1241 4097 
L 1241 0 
L 628 0 
L 628 4666 
z
" transform="scale(0.015625)"/>
      <path id="DejaVuSans-42" d="M 1259 2228 
L 1259 519 
L 2272 519 
Q 2781 519 3026 730 
Q 3272 941 3272 1375 
Q 3272 1813 3026 2020 
Q 2781 2228 2272 2228 
L 1259 2228 
z
M 1259 4147 
L 1259 2741 
L 2194 2741 
Q 2656 2741 2882 2914 
Q 3109 3088 3109 3444 
Q 3109 3797 2882 3972 
Q 2656 4147 2194 4147 
L 1259 4147 
z
M 628 4666 
L 2241 4666 
Q 2963 4666 3353 4366 
Q 3744 4066 3744 3513 
Q 3744 3084 3544 2831 
Q 3344 2578 2956 2516 
Q 3422 2416 3680 2098 
Q 3938 1781 3938 1306 
Q 3938 681 3513 340 
Q 3088 0 2303 0 
L 628 0 
L 628 4666 
z
" transform="scale(0.015625)"/>
      <path id="DejaVuSans-78" d="M 3513 3500 
L 2247 1797 
L 3578 0 
L 2900 0 
L 1881 1375 
L 863 0 
L 184 0 
L 1544 1831 
L 300 3500 
L 978 3500 
L 1906 2253 
L 2834 3500 
L 3513 3500 
z
" transform="scale(0.015625)"/>
      <path id="DejaVuSans-41" d="M 2188 4044 
L 1331 1722 
L 3047 1722 
L 2188 4044 
z
M 1831 4666 
L 2547 4666 
L 4325 0 
L 3669 0 
L 3244 1197 
L 1141 1197 
L 716 0 
L 50 0 
L 1831 4666 
z
" transform="scale(0.015625)"/>
      <path id="DejaVuSans-64" d="M 2906 2969 
L 2906 4863 
L 3481 4863 
L 3481 0 
L 2906 0 
L 2906 525 
Q 2725 213 2448 61 
Q 2172 -91 1784 -91 
Q 1150 -91 751 415 
Q 353 922 353 1747 
Q 353 2572 751 3078 
Q 1150 3584 1784 3584 
Q 2172 3584 2448 3432 
Q 2725 3281 2906 2969 
z
M 947 1747 
Q 947 1113 1208 752 
Q 1469 391 1925 391 
Q 2381 391 2643 752 
Q 2906 1113 2906 1747 
Q 2906 2381 2643 2742 
Q 2381 3103 1925 3103 
Q 1469 3103 1208 2742 
Q 947 2381 947 1747 
z
" transform="scale(0.015625)"/>
      <path id="DejaVuSans-6a" d="M 603 3500 
L 1178 3500 
L 1178 -63 
Q 1178 -731 923 -1031 
Q 669 -1331 103 -1331 
L -116 -1331 
L -116 -844 
L 38 -844 
Q 366 -844 484 -692 
Q 603 -541 603 -63 
L 603 3500 
z
M 603 4863 
L 1178 4863 
L 1178 4134 
L 603 4134 
L 603 4863 
z
" transform="scale(0.015625)"/>
      <path id="DejaVuSans-43" d="M 4122 4306 
L 4122 3641 
Q 3803 3938 3442 4084 
Q 3081 4231 2675 4231 
Q 1875 4231 1450 3742 
Q 1025 3253 1025 2328 
Q 1025 1406 1450 917 
Q 1875 428 2675 428 
Q 3081 428 3442 575 
Q 3803 722 4122 1019 
L 4122 359 
Q 3791 134 3420 21 
Q 3050 -91 2638 -91 
Q 1578 -91 968 557 
Q 359 1206 359 2328 
Q 359 3453 968 4101 
Q 1578 4750 2638 4750 
Q 3056 4750 3426 4639 
Q 3797 4528 4122 4306 
z
" transform="scale(0.015625)"/>
      <path id="DejaVuSans-67" d="M 2906 1791 
Q 2906 2416 2648 2759 
Q 2391 3103 1925 3103 
Q 1463 3103 1205 2759 
Q 947 2416 947 1791 
Q 947 1169 1205 825 
Q 1463 481 1925 481 
Q 2391 481 2648 825 
Q 2906 1169 2906 1791 
z
M 3481 434 
Q 3481 -459 3084 -895 
Q 2688 -1331 1869 -1331 
Q 1566 -1331 1297 -1286 
Q 1028 -1241 775 -1147 
L 775 -588 
Q 1028 -725 1275 -790 
Q 1522 -856 1778 -856 
Q 2344 -856 2625 -561 
Q 2906 -266 2906 331 
L 2906 616 
Q 2728 306 2450 153 
Q 2172 0 1784 0 
Q 1141 0 747 490 
Q 353 981 353 1791 
Q 353 2603 747 3093 
Q 1141 3584 1784 3584 
Q 2172 3584 2450 3431 
Q 2728 3278 2906 2969 
L 2906 3500 
L 3481 3500 
L 3481 434 
z
" transform="scale(0.015625)"/>
     </defs>
     <use xlink:href="#DejaVuSans-45"/>
     <use xlink:href="#DejaVuSans-66" x="63.183594"/>
     <use xlink:href="#DejaVuSans-66" x="98.388672"/>
     <use xlink:href="#DejaVuSans-65" x="133.59375"/>
     <use xlink:href="#DejaVuSans-63" x="195.117188"/>
     <use xlink:href="#DejaVuSans-74" x="250.097656"/>
     <use xlink:href="#DejaVuSans-20" x="289.306641"/>
     <use xlink:href="#DejaVuSans-6f" x="321.09375"/>
     <use xlink:href="#DejaVuSans-66" x="382.275391"/>
     <use xlink:href="#DejaVuSans-20" x="417.480469"/>
     <use xlink:href="#DejaVuSans-47" x="449.267578"/>
     <use xlink:href="#DejaVuSans-5a" x="526.757812"/>
     <use xlink:href="#DejaVuSans-4d" x="595.263672"/>
     <use xlink:href="#DejaVuSans-42" x="681.542969"/>
     <use xlink:href="#DejaVuSans-20" x="750.146484"/>
     <use xlink:href="#DejaVuSans-45" x="781.933594"/>
     <use xlink:href="#DejaVuSans-78" x="845.117188"/>
     <use xlink:href="#DejaVuSans-70" x="904.296875"/>
     <use xlink:href="#DejaVuSans-72" x="967.773438"/>
     <use xlink:href="#DejaVuSans-65" x="1006.636719"/>
     <use xlink:href="#DejaVuSans-73" x="1068.160156"/>
     <use xlink:href="#DejaVuSans-73" x="1120.259766"/>
     <use xlink:href="#DejaVuSans-69" x="1172.359375"/>
     <use xlink:href="#DejaVuSans-6f" x="1200.142578"/>
     <use xlink:href="#DejaVuSans-6e" x="1261.324219"/>
     <use xlink:href="#DejaVuSans-20" x="1324.703125"/>
     <use xlink:href="#DejaVuSans-6f" x="1356.490234"/>
     <use xlink:href="#DejaVuSans-6e" x="1417.671875"/>
     <use xlink:href="#DejaVuSans-20" x="1481.050781"/>
     <use xlink:href="#DejaVuSans-53" x="1512.837891"/>
     <use xlink:href="#DejaVuSans-75" x="1576.314453"/>
     <use xlink:href="#DejaVuSans-72" x="1639.693359"/>
     <use xlink:href="#DejaVuSans-76" x="1680.806641"/>
     <use xlink:href="#DejaVuSans-69" x="1739.986328"/>
     <use xlink:href="#DejaVuSans-76" x="1767.769531"/>
     <use xlink:href="#DejaVuSans-61" x="1826.949219"/>
     <use xlink:href="#DejaVuSans-6c" x="1888.228516"/>
     <use xlink:href="#DejaVuSans-20" x="1916.011719"/>
     <use xlink:href="#DejaVuSans-41" x="1947.798828"/>
     <use xlink:href="#DejaVuSans-64" x="2014.457031"/>
     <use xlink:href="#DejaVuSans-6a" x="2077.933594"/>
     <use xlink:href="#DejaVuSans-75" x="2105.716797"/>
     <use xlink:href="#DejaVuSans-73" x="2169.095703"/>
     <use xlink:href="#DejaVuSans-74" x="2221.195312"/>
     <use xlink:href="#DejaVuSans-65" x="2260.404297"/>
     <use xlink:href="#DejaVuSans-64" x="2321.927734"/>
     <use xlink:href="#DejaVuSans-20" x="2385.404297"/>
     <use xlink:href="#DejaVuSans-66" x="2417.191406"/>
     <use xlink:href="#DejaVuSans-6f" x="2452.396484"/>
     <use xlink:href="#DejaVuSans-72" x="2513.578125"/>
     <use xlink:href="#DejaVuSans-20" x="2554.691406"/>
     <use xlink:href="#DejaVuSans-43" x="2586.478516"/>
     <use xlink:href="#DejaVuSans-6f" x="2656.302734"/>
     <use xlink:href="#DejaVuSans-6e" x="2717.484375"/>
     <use xlink:href="#DejaVuSans-66" x="2780.863281"/>
     <use xlink:href="#DejaVuSans-6f" x="2816.068359"/>
     <use xlink:href="#DejaVuSans-75" x="2877.25"/>
     <use xlink:href="#DejaVuSans-6e" x="2940.628906"/>
     <use xlink:href="#DejaVuSans-64" x="3004.007812"/>
     <use xlink:href="#DejaVuSans-69" x="3067.484375"/>
     <use xlink:href="#DejaVuSans-6e" x="3095.267578"/>
     <use xlink:href="#DejaVuSans-67" x="3158.646484"/>
     <use xlink:href="#DejaVuSans-73" x="3222.123047"/>
    </g>
   </g>
  </g>
 </g>
 <defs>
  <clipPath id="p73dfb43b7e">
   <rect x="43.78125" y="22.318125" width="558" height="332.64"/>
  </clipPath>
 </defs>
</svg>
