<?xml version="1.0" encoding="utf-8" standalone="no"?>
<!DOCTYPE svg PUBLIC "-//W3C//DTD SVG 1.1//EN"
  "http://www.w3.org/Graphics/SVG/1.1/DTD/svg11.dtd">
<svg xmlns:xlink="http://www.w3.org/1999/xlink" width="608.98125pt" height="392.514375pt" viewBox="0 0 608.98125 392.514375" xmlns="http://www.w3.org/2000/svg" version="1.1">
 <metadata>
  <rdf:RDF xmlns:dc="http://purl.org/dc/elements/1.1/" xmlns:cc="http://creativecommons.org/ns#" xmlns:rdf="http://www.w3.org/1999/02/22-rdf-syntax-ns#">
   <cc:Work>
    <dc:type rdf:resource="http://purl.org/dc/dcmitype/StillImage"/>
    <dc:date>2024-07-08T09:40:01.837840</dc:date>
    <dc:format>image/svg+xml</dc:format>
    <dc:creator>
     <cc:Agent>
      <dc:title>Matplotlib v3.9.0, https://matplotlib.org/</dc:title>
     </cc:Agent>
    </dc:creator>
   </cc:Work>
  </rdf:RDF>
 </metadata>
 <defs>
  <style type="text/css">*{stroke-linejoin: round; stroke-linecap: butt}</style>
 </defs>
 <g id="figure_1">
  <g id="patch_1">
   <path d="M 0 392.514375 
L 608.98125 392.514375 
L 608.98125 0 
L 0 0 
z
" style="fill: #ffffff"/>
  </g>
  <g id="axes_1">
   <g id="patch_2">
    <path d="M 43.78125 354.958125 
L 601.78125 354.958125 
L 601.78125 22.318125 
L 43.78125 22.318125 
z
" style="fill: #ffffff"/>
   </g>
   <g id="matplotlib.axis_1">
    <g id="xtick_1">
     <g id="line2d_1">
      <defs>
       <path id="m48aed5deb7" d="M 0 0 
L 0 3.5 
" style="stroke: #000000; stroke-width: 0.8"/>
      </defs>
      <g>
       <use xlink:href="#m48aed5deb7" x="68.220892" y="354.958125" style="stroke: #000000; stroke-width: 0.8"/>
      </g>
     </g>
     <g id="text_1">
      <!-- 0 -->
      <g transform="translate(65.039642 369.556562) scale(0.1 -0.1)">
       <defs>
        <path id="DejaVuSans-30" d="M 2034 4250 
Q 1547 4250 1301 3770 
Q 1056 3291 1056 2328 
Q 1056 1369 1301 889 
Q 1547 409 2034 409 
Q 2525 409 2770 889 
Q 3016 1369 3016 2328 
Q 3016 3291 2770 3770 
Q 2525 4250 2034 4250 
z
M 2034 4750 
Q 2819 4750 3233 4129 
Q 3647 3509 3647 2328 
Q 3647 1150 3233 529 
Q 2819 -91 2034 -91 
Q 1250 -91 836 529 
Q 422 1150 422 2328 
Q 422 3509 836 4129 
Q 1250 4750 2034 4750 
z
" transform="scale(0.015625)"/>
       </defs>
       <use xlink:href="#DejaVuSans-30"/>
      </g>
     </g>
    </g>
    <g id="xtick_2">
     <g id="line2d_2">
      <g>
       <use xlink:href="#m48aed5deb7" x="145.220396" y="354.958125" style="stroke: #000000; stroke-width: 0.8"/>
      </g>
     </g>
     <g id="text_2">
      <!-- 1000 -->
      <g transform="translate(132.495396 369.556562) scale(0.1 -0.1)">
       <defs>
        <path id="DejaVuSans-31" d="M 794 531 
L 1825 531 
L 1825 4091 
L 703 3866 
L 703 4441 
L 1819 4666 
L 2450 4666 
L 2450 531 
L 3481 531 
L 3481 0 
L 794 0 
L 794 531 
z
" transform="scale(0.015625)"/>
       </defs>
       <use xlink:href="#DejaVuSans-31"/>
       <use xlink:href="#DejaVuSans-30" x="63.623047"/>
       <use xlink:href="#DejaVuSans-30" x="127.246094"/>
       <use xlink:href="#DejaVuSans-30" x="190.869141"/>
      </g>
     </g>
    </g>
    <g id="xtick_3">
     <g id="line2d_3">
      <g>
       <use xlink:href="#m48aed5deb7" x="222.219899" y="354.958125" style="stroke: #000000; stroke-width: 0.8"/>
      </g>
     </g>
     <g id="text_3">
      <!-- 2000 -->
      <g transform="translate(209.494899 369.556562) scale(0.1 -0.1)">
       <defs>
        <path id="DejaVuSans-32" d="M 1228 531 
L 3431 531 
L 3431 0 
L 469 0 
L 469 531 
Q 828 903 1448 1529 
Q 2069 2156 2228 2338 
Q 2531 2678 2651 2914 
Q 2772 3150 2772 3378 
Q 2772 3750 2511 3984 
Q 2250 4219 1831 4219 
Q 1534 4219 1204 4116 
Q 875 4013 500 3803 
L 500 4441 
Q 881 4594 1212 4672 
Q 1544 4750 1819 4750 
Q 2544 4750 2975 4387 
Q 3406 4025 3406 3419 
Q 3406 3131 3298 2873 
Q 3191 2616 2906 2266 
Q 2828 2175 2409 1742 
Q 1991 1309 1228 531 
z
" transform="scale(0.015625)"/>
       </defs>
       <use xlink:href="#DejaVuSans-32"/>
       <use xlink:href="#DejaVuSans-30" x="63.623047"/>
       <use xlink:href="#DejaVuSans-30" x="127.246094"/>
       <use xlink:href="#DejaVuSans-30" x="190.869141"/>
      </g>
     </g>
    </g>
    <g id="xtick_4">
     <g id="line2d_4">
      <g>
       <use xlink:href="#m48aed5deb7" x="299.219402" y="354.958125" style="stroke: #000000; stroke-width: 0.8"/>
      </g>
     </g>
     <g id="text_4">
      <!-- 3000 -->
      <g transform="translate(286.494402 369.556562) scale(0.1 -0.1)">
       <defs>
        <path id="DejaVuSans-33" d="M 2597 2516 
Q 3050 2419 3304 2112 
Q 3559 1806 3559 1356 
Q 3559 666 3084 287 
Q 2609 -91 1734 -91 
Q 1441 -91 1130 -33 
Q 819 25 488 141 
L 488 750 
Q 750 597 1062 519 
Q 1375 441 1716 441 
Q 2309 441 2620 675 
Q 2931 909 2931 1356 
Q 2931 1769 2642 2001 
Q 2353 2234 1838 2234 
L 1294 2234 
L 1294 2753 
L 1863 2753 
Q 2328 2753 2575 2939 
Q 2822 3125 2822 3475 
Q 2822 3834 2567 4026 
Q 2313 4219 1838 4219 
Q 1578 4219 1281 4162 
Q 984 4106 628 3988 
L 628 4550 
Q 988 4650 1302 4700 
Q 1616 4750 1894 4750 
Q 2613 4750 3031 4423 
Q 3450 4097 3450 3541 
Q 3450 3153 3228 2886 
Q 3006 2619 2597 2516 
z
" transform="scale(0.015625)"/>
       </defs>
       <use xlink:href="#DejaVuSans-33"/>
       <use xlink:href="#DejaVuSans-30" x="63.623047"/>
       <use xlink:href="#DejaVuSans-30" x="127.246094"/>
       <use xlink:href="#DejaVuSans-30" x="190.869141"/>
      </g>
     </g>
    </g>
    <g id="xtick_5">
     <g id="line2d_5">
      <g>
       <use xlink:href="#m48aed5deb7" x="376.218905" y="354.958125" style="stroke: #000000; stroke-width: 0.8"/>
      </g>
     </g>
     <g id="text_5">
      <!-- 4000 -->
      <g transform="translate(363.493905 369.556562) scale(0.1 -0.1)">
       <defs>
        <path id="DejaVuSans-34" d="M 2419 4116 
L 825 1625 
L 2419 1625 
L 2419 4116 
z
M 2253 4666 
L 3047 4666 
L 3047 1625 
L 3713 1625 
L 3713 1100 
L 3047 1100 
L 3047 0 
L 2419 0 
L 2419 1100 
L 313 1100 
L 313 1709 
L 2253 4666 
z
" transform="scale(0.015625)"/>
       </defs>
       <use xlink:href="#DejaVuSans-34"/>
       <use xlink:href="#DejaVuSans-30" x="63.623047"/>
       <use xlink:href="#DejaVuSans-30" x="127.246094"/>
       <use xlink:href="#DejaVuSans-30" x="190.869141"/>
      </g>
     </g>
    </g>
    <g id="xtick_6">
     <g id="line2d_6">
      <g>
       <use xlink:href="#m48aed5deb7" x="453.218408" y="354.958125" style="stroke: #000000; stroke-width: 0.8"/>
      </g>
     </g>
     <g id="text_6">
      <!-- 5000 -->
      <g transform="translate(440.493408 369.556562) scale(0.1 -0.1)">
       <defs>
        <path id="DejaVuSans-35" d="M 691 4666 
L 3169 4666 
L 3169 4134 
L 1269 4134 
L 1269 2991 
Q 1406 3038 1543 3061 
Q 1681 3084 1819 3084 
Q 2600 3084 3056 2656 
Q 3513 2228 3513 1497 
Q 3513 744 3044 326 
Q 2575 -91 1722 -91 
Q 1428 -91 1123 -41 
Q 819 9 494 109 
L 494 744 
Q 775 591 1075 516 
Q 1375 441 1709 441 
Q 2250 441 2565 725 
Q 2881 1009 2881 1497 
Q 2881 1984 2565 2268 
Q 2250 2553 1709 2553 
Q 1456 2553 1204 2497 
Q 953 2441 691 2322 
L 691 4666 
z
" transform="scale(0.015625)"/>
       </defs>
       <use xlink:href="#DejaVuSans-35"/>
       <use xlink:href="#DejaVuSans-30" x="63.623047"/>
       <use xlink:href="#DejaVuSans-30" x="127.246094"/>
       <use xlink:href="#DejaVuSans-30" x="190.869141"/>
      </g>
     </g>
    </g>
    <g id="xtick_7">
     <g id="line2d_7">
      <g>
       <use xlink:href="#m48aed5deb7" x="530.217912" y="354.958125" style="stroke: #000000; stroke-width: 0.8"/>
      </g>
     </g>
     <g id="text_7">
      <!-- 6000 -->
      <g transform="translate(517.492912 369.556562) scale(0.1 -0.1)">
       <defs>
        <path id="DejaVuSans-36" d="M 2113 2584 
Q 1688 2584 1439 2293 
Q 1191 2003 1191 1497 
Q 1191 994 1439 701 
Q 1688 409 2113 409 
Q 2538 409 2786 701 
Q 3034 994 3034 1497 
Q 3034 2003 2786 2293 
Q 2538 2584 2113 2584 
z
M 3366 4563 
L 3366 3988 
Q 3128 4100 2886 4159 
Q 2644 4219 2406 4219 
Q 1781 4219 1451 3797 
Q 1122 3375 1075 2522 
Q 1259 2794 1537 2939 
Q 1816 3084 2150 3084 
Q 2853 3084 3261 2657 
Q 3669 2231 3669 1497 
Q 3669 778 3244 343 
Q 2819 -91 2113 -91 
Q 1303 -91 875 529 
Q 447 1150 447 2328 
Q 447 3434 972 4092 
Q 1497 4750 2381 4750 
Q 2619 4750 2861 4703 
Q 3103 4656 3366 4563 
z
" transform="scale(0.015625)"/>
       </defs>
       <use xlink:href="#DejaVuSans-36"/>
       <use xlink:href="#DejaVuSans-30" x="63.623047"/>
       <use xlink:href="#DejaVuSans-30" x="127.246094"/>
       <use xlink:href="#DejaVuSans-30" x="190.869141"/>
      </g>
     </g>
    </g>
    <g id="text_8">
     <!-- Time in Days -->
     <g transform="translate(290.333594 383.234687) scale(0.1 -0.1)">
      <defs>
       <path id="DejaVuSans-54" d="M -19 4666 
L 3928 4666 
L 3928 4134 
L 2272 4134 
L 2272 0 
L 1638 0 
L 1638 4134 
L -19 4134 
L -19 4666 
z
" transform="scale(0.015625)"/>
       <path id="DejaVuSans-69" d="M 603 3500 
L 1178 3500 
L 1178 0 
L 603 0 
L 603 3500 
z
M 603 4863 
L 1178 4863 
L 1178 4134 
L 603 4134 
L 603 4863 
z
" transform="scale(0.015625)"/>
       <path id="DejaVuSans-6d" d="M 3328 2828 
Q 3544 3216 3844 3400 
Q 4144 3584 4550 3584 
Q 5097 3584 5394 3201 
Q 5691 2819 5691 2113 
L 5691 0 
L 5113 0 
L 5113 2094 
Q 5113 2597 4934 2840 
Q 4756 3084 4391 3084 
Q 3944 3084 3684 2787 
Q 3425 2491 3425 1978 
L 3425 0 
L 2847 0 
L 2847 2094 
Q 2847 2600 2669 2842 
Q 2491 3084 2119 3084 
Q 1678 3084 1418 2786 
Q 1159 2488 1159 1978 
L 1159 0 
L 581 0 
L 581 3500 
L 1159 3500 
L 1159 2956 
Q 1356 3278 1631 3431 
Q 1906 3584 2284 3584 
Q 2666 3584 2933 3390 
Q 3200 3197 3328 2828 
z
" transform="scale(0.015625)"/>
       <path id="DejaVuSans-65" d="M 3597 1894 
L 3597 1613 
L 953 1613 
Q 991 1019 1311 708 
Q 1631 397 2203 397 
Q 2534 397 2845 478 
Q 3156 559 3463 722 
L 3463 178 
Q 3153 47 2828 -22 
Q 2503 -91 2169 -91 
Q 1331 -91 842 396 
Q 353 884 353 1716 
Q 353 2575 817 3079 
Q 1281 3584 2069 3584 
Q 2775 3584 3186 3129 
Q 3597 2675 3597 1894 
z
M 3022 2063 
Q 3016 2534 2758 2815 
Q 2500 3097 2075 3097 
Q 1594 3097 1305 2825 
Q 1016 2553 972 2059 
L 3022 2063 
z
" transform="scale(0.015625)"/>
       <path id="DejaVuSans-20" transform="scale(0.015625)"/>
       <path id="DejaVuSans-6e" d="M 3513 2113 
L 3513 0 
L 2938 0 
L 2938 2094 
Q 2938 2591 2744 2837 
Q 2550 3084 2163 3084 
Q 1697 3084 1428 2787 
Q 1159 2491 1159 1978 
L 1159 0 
L 581 0 
L 581 3500 
L 1159 3500 
L 1159 2956 
Q 1366 3272 1645 3428 
Q 1925 3584 2291 3584 
Q 2894 3584 3203 3211 
Q 3513 2838 3513 2113 
z
" transform="scale(0.015625)"/>
       <path id="DejaVuSans-44" d="M 1259 4147 
L 1259 519 
L 2022 519 
Q 2988 519 3436 956 
Q 3884 1394 3884 2338 
Q 3884 3275 3436 3711 
Q 2988 4147 2022 4147 
L 1259 4147 
z
M 628 4666 
L 1925 4666 
Q 3281 4666 3915 4102 
Q 4550 3538 4550 2338 
Q 4550 1131 3912 565 
Q 3275 0 1925 0 
L 628 0 
L 628 4666 
z
" transform="scale(0.015625)"/>
       <path id="DejaVuSans-61" d="M 2194 1759 
Q 1497 1759 1228 1600 
Q 959 1441 959 1056 
Q 959 750 1161 570 
Q 1363 391 1709 391 
Q 2188 391 2477 730 
Q 2766 1069 2766 1631 
L 2766 1759 
L 2194 1759 
z
M 3341 1997 
L 3341 0 
L 2766 0 
L 2766 531 
Q 2569 213 2275 61 
Q 1981 -91 1556 -91 
Q 1019 -91 701 211 
Q 384 513 384 1019 
Q 384 1609 779 1909 
Q 1175 2209 1959 2209 
L 2766 2209 
L 2766 2266 
Q 2766 2663 2505 2880 
Q 2244 3097 1772 3097 
Q 1472 3097 1187 3025 
Q 903 2953 641 2809 
L 641 3341 
Q 956 3463 1253 3523 
Q 1550 3584 1831 3584 
Q 2591 3584 2966 3190 
Q 3341 2797 3341 1997 
z
" transform="scale(0.015625)"/>
       <path id="DejaVuSans-79" d="M 2059 -325 
Q 1816 -950 1584 -1140 
Q 1353 -1331 966 -1331 
L 506 -1331 
L 506 -850 
L 844 -850 
Q 1081 -850 1212 -737 
Q 1344 -625 1503 -206 
L 1606 56 
L 191 3500 
L 800 3500 
L 1894 763 
L 2988 3500 
L 3597 3500 
L 2059 -325 
z
" transform="scale(0.015625)"/>
       <path id="DejaVuSans-73" d="M 2834 3397 
L 2834 2853 
Q 2591 2978 2328 3040 
Q 2066 3103 1784 3103 
Q 1356 3103 1142 2972 
Q 928 2841 928 2578 
Q 928 2378 1081 2264 
Q 1234 2150 1697 2047 
L 1894 2003 
Q 2506 1872 2764 1633 
Q 3022 1394 3022 966 
Q 3022 478 2636 193 
Q 2250 -91 1575 -91 
Q 1294 -91 989 -36 
Q 684 19 347 128 
L 347 722 
Q 666 556 975 473 
Q 1284 391 1588 391 
Q 1994 391 2212 530 
Q 2431 669 2431 922 
Q 2431 1156 2273 1281 
Q 2116 1406 1581 1522 
L 1381 1569 
Q 847 1681 609 1914 
Q 372 2147 372 2553 
Q 372 3047 722 3315 
Q 1072 3584 1716 3584 
Q 2034 3584 2315 3537 
Q 2597 3491 2834 3397 
z
" transform="scale(0.015625)"/>
      </defs>
      <use xlink:href="#DejaVuSans-54"/>
      <use xlink:href="#DejaVuSans-69" x="57.958984"/>
      <use xlink:href="#DejaVuSans-6d" x="85.742188"/>
      <use xlink:href="#DejaVuSans-65" x="183.154297"/>
      <use xlink:href="#DejaVuSans-20" x="244.677734"/>
      <use xlink:href="#DejaVuSans-69" x="276.464844"/>
      <use xlink:href="#DejaVuSans-6e" x="304.248047"/>
      <use xlink:href="#DejaVuSans-20" x="367.626953"/>
      <use xlink:href="#DejaVuSans-44" x="399.414062"/>
      <use xlink:href="#DejaVuSans-61" x="476.416016"/>
      <use xlink:href="#DejaVuSans-79" x="537.695312"/>
      <use xlink:href="#DejaVuSans-73" x="596.875"/>
     </g>
    </g>
   </g>
   <g id="matplotlib.axis_2">
    <g id="ytick_1">
     <g id="line2d_8">
      <defs>
       <path id="m3c7c185ef4" d="M 0 0 
L -3.5 0 
" style="stroke: #000000; stroke-width: 0.8"/>
      </defs>
      <g>
       <use xlink:href="#m3c7c185ef4" x="43.78125" y="324.779449" style="stroke: #000000; stroke-width: 0.8"/>
      </g>
     </g>
     <g id="text_9">
      <!-- 0.3 -->
      <g transform="translate(20.878125 328.578668) scale(0.1 -0.1)">
       <defs>
        <path id="DejaVuSans-2e" d="M 684 794 
L 1344 794 
L 1344 0 
L 684 0 
L 684 794 
z
" transform="scale(0.015625)"/>
       </defs>
       <use xlink:href="#DejaVuSans-30"/>
       <use xlink:href="#DejaVuSans-2e" x="63.623047"/>
       <use xlink:href="#DejaVuSans-33" x="95.410156"/>
      </g>
     </g>
    </g>
    <g id="ytick_2">
     <g id="line2d_9">
      <g>
       <use xlink:href="#m3c7c185ef4" x="43.78125" y="283.695415" style="stroke: #000000; stroke-width: 0.8"/>
      </g>
     </g>
     <g id="text_10">
      <!-- 0.4 -->
      <g transform="translate(20.878125 287.494634) scale(0.1 -0.1)">
       <use xlink:href="#DejaVuSans-30"/>
       <use xlink:href="#DejaVuSans-2e" x="63.623047"/>
       <use xlink:href="#DejaVuSans-34" x="95.410156"/>
      </g>
     </g>
    </g>
    <g id="ytick_3">
     <g id="line2d_10">
      <g>
       <use xlink:href="#m3c7c185ef4" x="43.78125" y="242.611382" style="stroke: #000000; stroke-width: 0.8"/>
      </g>
     </g>
     <g id="text_11">
      <!-- 0.5 -->
      <g transform="translate(20.878125 246.410601) scale(0.1 -0.1)">
       <use xlink:href="#DejaVuSans-30"/>
       <use xlink:href="#DejaVuSans-2e" x="63.623047"/>
       <use xlink:href="#DejaVuSans-35" x="95.410156"/>
      </g>
     </g>
    </g>
    <g id="ytick_4">
     <g id="line2d_11">
      <g>
       <use xlink:href="#m3c7c185ef4" x="43.78125" y="201.527348" style="stroke: #000000; stroke-width: 0.8"/>
      </g>
     </g>
     <g id="text_12">
      <!-- 0.6 -->
      <g transform="translate(20.878125 205.326567) scale(0.1 -0.1)">
       <use xlink:href="#DejaVuSans-30"/>
       <use xlink:href="#DejaVuSans-2e" x="63.623047"/>
       <use xlink:href="#DejaVuSans-36" x="95.410156"/>
      </g>
     </g>
    </g>
    <g id="ytick_5">
     <g id="line2d_12">
      <g>
       <use xlink:href="#m3c7c185ef4" x="43.78125" y="160.443315" style="stroke: #000000; stroke-width: 0.8"/>
      </g>
     </g>
     <g id="text_13">
      <!-- 0.7 -->
      <g transform="translate(20.878125 164.242534) scale(0.1 -0.1)">
       <defs>
        <path id="DejaVuSans-37" d="M 525 4666 
L 3525 4666 
L 3525 4397 
L 1831 0 
L 1172 0 
L 2766 4134 
L 525 4134 
L 525 4666 
z
" transform="scale(0.015625)"/>
       </defs>
       <use xlink:href="#DejaVuSans-30"/>
       <use xlink:href="#DejaVuSans-2e" x="63.623047"/>
       <use xlink:href="#DejaVuSans-37" x="95.410156"/>
      </g>
     </g>
    </g>
    <g id="ytick_6">
     <g id="line2d_13">
      <g>
       <use xlink:href="#m3c7c185ef4" x="43.78125" y="119.359281" style="stroke: #000000; stroke-width: 0.8"/>
      </g>
     </g>
     <g id="text_14">
      <!-- 0.8 -->
      <g transform="translate(20.878125 123.1585) scale(0.1 -0.1)">
       <defs>
        <path id="DejaVuSans-38" d="M 2034 2216 
Q 1584 2216 1326 1975 
Q 1069 1734 1069 1313 
Q 1069 891 1326 650 
Q 1584 409 2034 409 
Q 2484 409 2743 651 
Q 3003 894 3003 1313 
Q 3003 1734 2745 1975 
Q 2488 2216 2034 2216 
z
M 1403 2484 
Q 997 2584 770 2862 
Q 544 3141 544 3541 
Q 544 4100 942 4425 
Q 1341 4750 2034 4750 
Q 2731 4750 3128 4425 
Q 3525 4100 3525 3541 
Q 3525 3141 3298 2862 
Q 3072 2584 2669 2484 
Q 3125 2378 3379 2068 
Q 3634 1759 3634 1313 
Q 3634 634 3220 271 
Q 2806 -91 2034 -91 
Q 1263 -91 848 271 
Q 434 634 434 1313 
Q 434 1759 690 2068 
Q 947 2378 1403 2484 
z
M 1172 3481 
Q 1172 3119 1398 2916 
Q 1625 2713 2034 2713 
Q 2441 2713 2670 2916 
Q 2900 3119 2900 3481 
Q 2900 3844 2670 4047 
Q 2441 4250 2034 4250 
Q 1625 4250 1398 4047 
Q 1172 3844 1172 3481 
z
" transform="scale(0.015625)"/>
       </defs>
       <use xlink:href="#DejaVuSans-30"/>
       <use xlink:href="#DejaVuSans-2e" x="63.623047"/>
       <use xlink:href="#DejaVuSans-38" x="95.410156"/>
      </g>
     </g>
    </g>
    <g id="ytick_7">
     <g id="line2d_14">
      <g>
       <use xlink:href="#m3c7c185ef4" x="43.78125" y="78.275248" style="stroke: #000000; stroke-width: 0.8"/>
      </g>
     </g>
     <g id="text_15">
      <!-- 0.9 -->
      <g transform="translate(20.878125 82.074466) scale(0.1 -0.1)">
       <defs>
        <path id="DejaVuSans-39" d="M 703 97 
L 703 672 
Q 941 559 1184 500 
Q 1428 441 1663 441 
Q 2288 441 2617 861 
Q 2947 1281 2994 2138 
Q 2813 1869 2534 1725 
Q 2256 1581 1919 1581 
Q 1219 1581 811 2004 
Q 403 2428 403 3163 
Q 403 3881 828 4315 
Q 1253 4750 1959 4750 
Q 2769 4750 3195 4129 
Q 3622 3509 3622 2328 
Q 3622 1225 3098 567 
Q 2575 -91 1691 -91 
Q 1453 -91 1209 -44 
Q 966 3 703 97 
z
M 1959 2075 
Q 2384 2075 2632 2365 
Q 2881 2656 2881 3163 
Q 2881 3666 2632 3958 
Q 2384 4250 1959 4250 
Q 1534 4250 1286 3958 
Q 1038 3666 1038 3163 
Q 1038 2656 1286 2365 
Q 1534 2075 1959 2075 
z
" transform="scale(0.015625)"/>
       </defs>
       <use xlink:href="#DejaVuSans-30"/>
       <use xlink:href="#DejaVuSans-2e" x="63.623047"/>
       <use xlink:href="#DejaVuSans-39" x="95.410156"/>
      </g>
     </g>
    </g>
    <g id="ytick_8">
     <g id="line2d_15">
      <g>
       <use xlink:href="#m3c7c185ef4" x="43.78125" y="37.191214" style="stroke: #000000; stroke-width: 0.8"/>
      </g>
     </g>
     <g id="text_16">
      <!-- 1.0 -->
      <g transform="translate(20.878125 40.990433) scale(0.1 -0.1)">
       <use xlink:href="#DejaVuSans-31"/>
       <use xlink:href="#DejaVuSans-2e" x="63.623047"/>
       <use xlink:href="#DejaVuSans-30" x="95.410156"/>
      </g>
     </g>
    </g>
    <g id="text_17">
     <!-- Survival Probability -->
     <g transform="translate(14.798438 236.815469) rotate(-90) scale(0.1 -0.1)">
      <defs>
       <path id="DejaVuSans-53" d="M 3425 4513 
L 3425 3897 
Q 3066 4069 2747 4153 
Q 2428 4238 2131 4238 
Q 1616 4238 1336 4038 
Q 1056 3838 1056 3469 
Q 1056 3159 1242 3001 
Q 1428 2844 1947 2747 
L 2328 2669 
Q 3034 2534 3370 2195 
Q 3706 1856 3706 1288 
Q 3706 609 3251 259 
Q 2797 -91 1919 -91 
Q 1588 -91 1214 -16 
Q 841 59 441 206 
L 441 856 
Q 825 641 1194 531 
Q 1563 422 1919 422 
Q 2459 422 2753 634 
Q 3047 847 3047 1241 
Q 3047 1584 2836 1778 
Q 2625 1972 2144 2069 
L 1759 2144 
Q 1053 2284 737 2584 
Q 422 2884 422 3419 
Q 422 4038 858 4394 
Q 1294 4750 2059 4750 
Q 2388 4750 2728 4690 
Q 3069 4631 3425 4513 
z
" transform="scale(0.015625)"/>
       <path id="DejaVuSans-75" d="M 544 1381 
L 544 3500 
L 1119 3500 
L 1119 1403 
Q 1119 906 1312 657 
Q 1506 409 1894 409 
Q 2359 409 2629 706 
Q 2900 1003 2900 1516 
L 2900 3500 
L 3475 3500 
L 3475 0 
L 2900 0 
L 2900 538 
Q 2691 219 2414 64 
Q 2138 -91 1772 -91 
Q 1169 -91 856 284 
Q 544 659 544 1381 
z
M 1991 3584 
L 1991 3584 
z
" transform="scale(0.015625)"/>
       <path id="DejaVuSans-72" d="M 2631 2963 
Q 2534 3019 2420 3045 
Q 2306 3072 2169 3072 
Q 1681 3072 1420 2755 
Q 1159 2438 1159 1844 
L 1159 0 
L 581 0 
L 581 3500 
L 1159 3500 
L 1159 2956 
Q 1341 3275 1631 3429 
Q 1922 3584 2338 3584 
Q 2397 3584 2469 3576 
Q 2541 3569 2628 3553 
L 2631 2963 
z
" transform="scale(0.015625)"/>
       <path id="DejaVuSans-76" d="M 191 3500 
L 800 3500 
L 1894 563 
L 2988 3500 
L 3597 3500 
L 2284 0 
L 1503 0 
L 191 3500 
z
" transform="scale(0.015625)"/>
       <path id="DejaVuSans-6c" d="M 603 4863 
L 1178 4863 
L 1178 0 
L 603 0 
L 603 4863 
z
" transform="scale(0.015625)"/>
       <path id="DejaVuSans-50" d="M 1259 4147 
L 1259 2394 
L 2053 2394 
Q 2494 2394 2734 2622 
Q 2975 2850 2975 3272 
Q 2975 3691 2734 3919 
Q 2494 4147 2053 4147 
L 1259 4147 
z
M 628 4666 
L 2053 4666 
Q 2838 4666 3239 4311 
Q 3641 3956 3641 3272 
Q 3641 2581 3239 2228 
Q 2838 1875 2053 1875 
L 1259 1875 
L 1259 0 
L 628 0 
L 628 4666 
z
" transform="scale(0.015625)"/>
       <path id="DejaVuSans-6f" d="M 1959 3097 
Q 1497 3097 1228 2736 
Q 959 2375 959 1747 
Q 959 1119 1226 758 
Q 1494 397 1959 397 
Q 2419 397 2687 759 
Q 2956 1122 2956 1747 
Q 2956 2369 2687 2733 
Q 2419 3097 1959 3097 
z
M 1959 3584 
Q 2709 3584 3137 3096 
Q 3566 2609 3566 1747 
Q 3566 888 3137 398 
Q 2709 -91 1959 -91 
Q 1206 -91 779 398 
Q 353 888 353 1747 
Q 353 2609 779 3096 
Q 1206 3584 1959 3584 
z
" transform="scale(0.015625)"/>
       <path id="DejaVuSans-62" d="M 3116 1747 
Q 3116 2381 2855 2742 
Q 2594 3103 2138 3103 
Q 1681 3103 1420 2742 
Q 1159 2381 1159 1747 
Q 1159 1113 1420 752 
Q 1681 391 2138 391 
Q 2594 391 2855 752 
Q 3116 1113 3116 1747 
z
M 1159 2969 
Q 1341 3281 1617 3432 
Q 1894 3584 2278 3584 
Q 2916 3584 3314 3078 
Q 3713 2572 3713 1747 
Q 3713 922 3314 415 
Q 2916 -91 2278 -91 
Q 1894 -91 1617 61 
Q 1341 213 1159 525 
L 1159 0 
L 581 0 
L 581 4863 
L 1159 4863 
L 1159 2969 
z
" transform="scale(0.015625)"/>
       <path id="DejaVuSans-74" d="M 1172 4494 
L 1172 3500 
L 2356 3500 
L 2356 3053 
L 1172 3053 
L 1172 1153 
Q 1172 725 1289 603 
Q 1406 481 1766 481 
L 2356 481 
L 2356 0 
L 1766 0 
Q 1100 0 847 248 
Q 594 497 594 1153 
L 594 3053 
L 172 3053 
L 172 3500 
L 594 3500 
L 594 4494 
L 1172 4494 
z
" transform="scale(0.015625)"/>
      </defs>
      <use xlink:href="#DejaVuSans-53"/>
      <use xlink:href="#DejaVuSans-75" x="63.476562"/>
      <use xlink:href="#DejaVuSans-72" x="126.855469"/>
      <use xlink:href="#DejaVuSans-76" x="167.96875"/>
      <use xlink:href="#DejaVuSans-69" x="227.148438"/>
      <use xlink:href="#DejaVuSans-76" x="254.931641"/>
      <use xlink:href="#DejaVuSans-61" x="314.111328"/>
      <use xlink:href="#DejaVuSans-6c" x="375.390625"/>
      <use xlink:href="#DejaVuSans-20" x="403.173828"/>
      <use xlink:href="#DejaVuSans-50" x="434.960938"/>
      <use xlink:href="#DejaVuSans-72" x="493.513672"/>
      <use xlink:href="#DejaVuSans-6f" x="532.376953"/>
      <use xlink:href="#DejaVuSans-62" x="593.558594"/>
      <use xlink:href="#DejaVuSans-61" x="657.035156"/>
      <use xlink:href="#DejaVuSans-62" x="718.314453"/>
      <use xlink:href="#DejaVuSans-69" x="781.791016"/>
      <use xlink:href="#DejaVuSans-6c" x="809.574219"/>
      <use xlink:href="#DejaVuSans-69" x="837.357422"/>
      <use xlink:href="#DejaVuSans-74" x="865.140625"/>
      <use xlink:href="#DejaVuSans-79" x="904.349609"/>
     </g>
    </g>
   </g>
   <g id="line2d_16">
    <path d="M 69.144886 37.438125 
L 73.30286 37.438125 
L 73.30286 37.68631 
L 75.150848 37.68631 
L 75.150848 37.934653 
L 76.151841 37.934653 
L 76.151841 38.186219 
L 81.079809 38.186219 
L 81.079809 38.439615 
L 83.620793 38.439615 
L 83.620793 38.694023 
L 83.851791 38.694023 
L 83.851791 38.948536 
L 84.159789 38.948536 
L 84.159789 39.206039 
L 84.313788 39.206039 
L 84.313788 39.725521 
L 85.006784 39.725521 
L 85.006784 39.987109 
L 85.160783 39.987109 
L 85.160783 40.248837 
L 86.623774 40.248837 
L 86.623774 40.514685 
L 88.394762 40.514685 
L 88.394762 40.781148 
L 88.933759 40.781148 
L 88.933759 41.050095 
L 93.630728 41.050095 
L 93.630728 41.322043 
L 94.785721 41.322043 
L 94.785721 41.594936 
L 95.940713 41.594936 
L 95.940713 42.142492 
L 96.248712 42.142492 
L 96.248712 42.697954 
L 97.095706 42.697954 
L 97.095706 42.977574 
L 97.480704 42.977574 
L 97.480704 43.258239 
L 98.327698 43.258239 
L 98.327698 43.542391 
L 99.328692 43.542391 
L 99.328692 43.828733 
L 99.944688 43.828733 
L 99.944688 44.11883 
L 100.021687 44.11883 
L 100.175686 44.11883 
L 100.252686 44.711513 
L 100.483684 44.711513 
L 100.483684 45.010792 
L 100.945681 45.010792 
L 100.945681 45.310175 
L 102.177673 45.310175 
L 102.177673 45.611926 
L 103.178667 45.611926 
L 103.178667 46.218557 
L 103.871662 46.218557 
L 103.871662 46.5261 
L 104.17966 46.5261 
L 104.17966 46.836874 
L 104.872656 46.836874 
L 104.872656 47.147634 
L 105.026655 47.147634 
L 105.103654 47.77864 
L 105.71965 47.77864 
L 105.71965 48.095088 
L 106.335646 48.095088 
L 106.335646 48.413595 
L 106.566645 48.413595 
L 106.643644 49.056605 
L 107.490639 49.056605 
L 107.490639 49.382461 
L 108.414633 49.382461 
L 108.414633 49.708731 
L 108.722631 49.708731 
L 108.722631 50.035057 
L 109.723625 50.035057 
L 109.723625 50.364753 
L 109.877624 50.364753 
L 109.877624 50.696652 
L 110.955617 50.696652 
L 110.955617 51.028893 
L 113.804598 51.028893 
L 113.881598 51.710218 
L 114.497594 51.710218 
L 114.574593 52.397842 
L 116.422581 52.397842 
L 116.422581 52.746396 
L 119.271563 52.746396 
L 119.271563 53.099163 
L 122.967539 53.099163 
L 122.967539 53.455205 
L 123.660535 53.455205 
L 123.660535 53.814405 
L 124.199531 53.814405 
L 124.199531 54.177258 
L 124.815527 54.177258 
L 124.815527 54.540389 
L 126.971513 54.540389 
L 126.971513 54.903823 
L 127.202512 54.903823 
L 127.202512 55.267255 
L 128.588503 55.267255 
L 128.588503 55.631738 
L 128.665502 55.631738 
L 129.666496 55.631738 
L 129.666496 56.00173 
L 133.131474 56.00173 
L 133.131474 56.373403 
L 133.362472 56.373403 
L 133.362472 57.117923 
L 135.21046 57.117923 
L 135.21046 57.495791 
L 136.673451 57.495791 
L 136.673451 57.878401 
L 136.904449 57.878401 
L 136.904449 58.26383 
L 137.443446 58.26383 
L 137.443446 58.652964 
L 139.676431 58.652964 
L 139.676431 59.042164 
L 146.298389 59.042164 
L 146.298389 59.437996 
L 148.993371 59.437996 
L 148.993371 59.835945 
L 149.686367 59.835945 
L 149.686367 60.243941 
L 149.763366 60.243941 
L 150.071364 60.243941 
L 150.071364 60.652884 
L 150.841359 60.652884 
L 150.841359 61.062949 
L 151.457355 61.062949 
L 151.457355 61.476672 
L 154.306337 61.476672 
L 154.306337 61.902389 
L 154.460336 61.902389 
L 154.460336 62.32818 
L 154.691334 62.32818 
L 154.691334 62.754287 
L 156.92432 62.754287 
L 156.92432 63.181618 
L 158.618309 63.181618 
L 158.618309 63.609251 
L 159.619303 63.609251 
L 159.619303 64.038697 
L 159.927301 64.038697 
L 159.927301 64.468561 
L 162.853282 64.468561 
L 162.853282 64.906321 
L 163.315279 64.906321 
L 163.315279 65.344426 
L 167.78125 65.344426 
L 167.78125 65.797647 
L 167.85825 65.797647 
L 171.477226 65.797647 
L 171.477226 66.256574 
L 173.094216 66.256574 
L 173.094216 66.716309 
L 174.095209 66.716309 
L 174.095209 67.177027 
L 175.789198 67.177027 
L 175.789198 67.65821 
L 176.097196 67.65821 
L 176.097196 68.139417 
L 179.485174 68.139417 
L 179.485174 68.630144 
L 180.17817 68.630144 
L 180.17817 69.122138 
L 186.800127 69.122138 
L 186.800127 69.623462 
L 195.65507 69.623462 
L 195.65507 70.153143 
L 198.73505 70.153143 
L 198.73505 70.695487 
L 204.741012 70.695487 
L 204.741012 71.268986 
L 208.359988 71.268986 
L 208.359988 71.862692 
L 222.989894 71.862692 
L 222.989894 72.494836 
L 232.383833 72.494836 
L 232.383833 73.224295 
L 232.460833 73.224295 
L 247.167738 73.224295 
L 247.167738 74.065199 
L 253.789695 74.065199 
L 253.789695 74.927484 
L 284.435497 74.927484 
L 284.435497 76.091875 
L 286.591483 76.091875 
L 286.591483 77.341227 
L 361.512 77.341227 
L 361.512 80.476152 
L 576.417614 80.476152 
L 576.417614 80.476152 
" clip-path="url(#p9bf5591580)" style="fill: none; stroke: #2a5acb; stroke-width: 1.5; stroke-linecap: square"/>
   </g>
   <g id="line2d_17">
    <path d="M 69.144886 37.544436 
L 73.30286 37.544436 
L 73.30286 37.899388 
L 75.150848 37.899388 
L 75.150848 38.254473 
L 76.151841 38.254473 
L 76.151841 38.614073 
L 81.079809 38.614073 
L 81.079809 38.976192 
L 83.620793 38.976192 
L 83.620793 39.339661 
L 83.851791 39.339661 
L 83.851791 39.703181 
L 84.159789 39.703181 
L 84.159789 40.070873 
L 84.313788 40.070873 
L 84.313788 40.812347 
L 85.006784 40.812347 
L 85.006784 41.185565 
L 85.160783 41.185565 
L 85.160783 41.558882 
L 86.623774 41.558882 
L 86.623774 41.937968 
L 88.394762 41.937968 
L 88.394762 42.317823 
L 88.933759 42.317823 
L 88.933759 42.701112 
L 93.630728 42.701112 
L 93.630728 43.088568 
L 94.785721 43.088568 
L 94.785721 43.477257 
L 95.940713 43.477257 
L 95.940713 44.256817 
L 96.248712 44.256817 
L 96.248712 45.047171 
L 97.095706 45.047171 
L 97.095706 45.444859 
L 97.480704 45.444859 
L 97.480704 45.843914 
L 98.327698 45.843914 
L 98.327698 46.247806 
L 99.328692 46.247806 
L 99.328692 46.654686 
L 99.944688 46.654686 
L 99.944688 47.066777 
L 100.021687 47.066777 
L 100.175686 47.066777 
L 100.252686 47.908303 
L 100.483684 47.908303 
L 100.483684 48.333033 
L 100.945681 48.333033 
L 100.945681 48.757776 
L 102.177673 48.757776 
L 102.177673 49.185741 
L 103.178667 49.185741 
L 103.178667 50.04569 
L 103.871662 50.04569 
L 103.871662 50.481444 
L 104.17966 50.481444 
L 104.17966 50.92163 
L 104.872656 50.92163 
L 104.872656 51.361649 
L 105.026655 51.361649 
L 105.103654 52.254666 
L 105.71965 52.254666 
L 105.71965 52.702284 
L 106.335646 52.702284 
L 106.335646 53.152661 
L 106.566645 53.152661 
L 106.643644 54.061421 
L 107.490639 54.061421 
L 107.490639 54.521709 
L 108.414633 54.521709 
L 108.414633 54.982421 
L 108.722631 54.982421 
L 108.722631 55.443048 
L 109.723625 55.443048 
L 109.723625 55.908268 
L 109.877624 55.908268 
L 109.877624 56.376428 
L 110.955617 56.376428 
L 110.955617 56.844902 
L 113.804598 56.844902 
L 113.881598 57.805071 
L 114.497594 57.805071 
L 114.574593 58.773395 
L 116.422581 58.773395 
L 116.422581 59.263959 
L 119.271563 59.263959 
L 119.271563 59.760263 
L 122.967539 59.760263 
L 122.967539 60.26098 
L 123.660535 60.26098 
L 123.660535 60.765942 
L 124.199531 60.765942 
L 124.199531 61.275836 
L 124.815527 61.275836 
L 124.815527 61.785921 
L 126.971513 61.785921 
L 126.971513 62.296226 
L 127.202512 62.296226 
L 127.202512 62.806327 
L 128.588503 62.806327 
L 128.588503 63.317699 
L 128.665502 63.317699 
L 129.666496 63.317699 
L 129.666496 63.83659 
L 133.131474 63.83659 
L 133.131474 64.357626 
L 133.362472 64.357626 
L 133.362472 65.400704 
L 135.21046 65.400704 
L 135.21046 65.929773 
L 136.673451 65.929773 
L 136.673451 66.465257 
L 136.904449 66.465257 
L 136.904449 67.004457 
L 137.443446 67.004457 
L 137.443446 67.548608 
L 139.676431 67.548608 
L 139.676431 68.092616 
L 146.298389 68.092616 
L 146.298389 68.645655 
L 148.993371 68.645655 
L 148.993371 69.201405 
L 149.686367 69.201405 
L 149.686367 69.770933 
L 149.763366 69.770933 
L 150.071364 69.770933 
L 150.071364 70.341523 
L 150.841359 70.341523 
L 150.841359 70.913419 
L 151.457355 70.913419 
L 151.457355 71.490152 
L 154.306337 71.490152 
L 154.306337 72.083327 
L 154.460336 72.083327 
L 154.460336 72.676322 
L 154.691334 72.676322 
L 154.691334 73.269477 
L 156.92432 73.269477 
L 156.92432 73.864051 
L 158.618309 73.864051 
L 158.618309 74.458761 
L 159.619303 74.458761 
L 159.619303 75.055705 
L 159.927301 75.055705 
L 159.927301 75.652943 
L 162.853282 75.652943 
L 162.853282 76.260855 
L 163.315279 76.260855 
L 163.315279 76.868946 
L 167.78125 76.868946 
L 167.78125 77.497703 
L 167.85825 77.497703 
L 171.477226 77.497703 
L 171.477226 78.13405 
L 173.094216 78.13405 
L 173.094216 78.771185 
L 174.095209 78.771185 
L 174.095209 79.409351 
L 175.789198 79.409351 
L 175.789198 80.075511 
L 176.097196 80.075511 
L 176.097196 80.741339 
L 179.485174 80.741339 
L 179.485174 81.419966 
L 180.17817 81.419966 
L 180.17817 82.099966 
L 186.800127 82.099966 
L 186.800127 82.792472 
L 195.65507 82.792472 
L 195.65507 83.523717 
L 198.73505 83.523717 
L 198.73505 84.271987 
L 204.741012 84.271987 
L 204.741012 85.062739 
L 208.359988 85.062739 
L 208.359988 85.880805 
L 222.989894 85.880805 
L 222.989894 86.751224 
L 232.383833 86.751224 
L 232.383833 87.754857 
L 232.460833 87.754857 
L 247.167738 87.754857 
L 247.167738 88.910777 
L 253.789695 88.910777 
L 253.789695 90.094926 
L 284.435497 90.094926 
L 284.435497 91.692076 
L 286.591483 91.692076 
L 286.591483 93.403372 
L 361.512 93.403372 
L 361.512 97.686483 
L 576.417614 97.686483 
L 576.417614 97.686483 
" clip-path="url(#p9bf5591580)" style="fill: none; stroke: #3256aa; stroke-width: 1.5; stroke-linecap: square"/>
   </g>
   <g id="line2d_18">
    <path d="M 69.144886 37.649106 
L 73.30286 37.649106 
L 73.30286 38.109123 
L 75.150848 38.109123 
L 75.150848 38.569194 
L 76.151841 38.569194 
L 76.151841 39.034996 
L 81.079809 39.034996 
L 81.079809 39.503936 
L 83.620793 39.503936 
L 83.620793 39.974502 
L 83.851791 39.974502 
L 83.851791 40.445009 
L 84.159789 40.445009 
L 84.159789 40.920791 
L 84.313788 40.920791 
L 84.313788 41.879846 
L 85.006784 41.879846 
L 85.006784 42.362387 
L 85.160783 42.362387 
L 85.160783 42.844924 
L 86.623774 42.844924 
L 86.623774 43.334785 
L 88.394762 43.334785 
L 88.394762 43.825503 
L 88.933759 43.825503 
L 88.933759 44.320519 
L 93.630728 44.320519 
L 93.630728 44.820776 
L 94.785721 44.820776 
L 94.785721 45.322481 
L 95.940713 45.322481 
L 95.940713 46.328279 
L 96.248712 46.328279 
L 96.248712 47.347416 
L 97.095706 47.347416 
L 97.095706 47.859998 
L 97.480704 47.859998 
L 97.480704 48.374191 
L 98.327698 48.374191 
L 98.327698 48.894464 
L 99.328692 48.894464 
L 99.328692 49.418428 
L 99.944688 49.418428 
L 99.944688 49.948942 
L 100.021687 49.948942 
L 100.175686 49.948942 
L 100.252686 51.031795 
L 100.483684 51.031795 
L 100.483684 51.578071 
L 100.945681 51.578071 
L 100.945681 52.124191 
L 102.177673 52.124191 
L 102.177673 52.67428 
L 103.178667 52.67428 
L 103.178667 53.779094 
L 103.871662 53.779094 
L 103.871662 54.338656 
L 104.17966 54.338656 
L 104.17966 54.903724 
L 104.872656 54.903724 
L 104.872656 55.468394 
L 105.026655 55.468394 
L 105.103654 56.613816 
L 105.71965 56.613816 
L 105.71965 57.187662 
L 106.335646 57.187662 
L 106.335646 57.764851 
L 106.566645 57.764851 
L 106.643644 58.928894 
L 107.490639 58.928894 
L 107.490639 59.518181 
L 108.414633 59.518181 
L 108.414633 60.107804 
L 108.722631 60.107804 
L 108.722631 60.697115 
L 109.723625 60.697115 
L 109.723625 61.292093 
L 109.877624 61.292093 
L 109.877624 61.89062 
L 110.955617 61.89062 
L 110.955617 62.489336 
L 113.804598 62.489336 
L 113.881598 63.715781 
L 114.497594 63.715781 
L 114.574593 64.951738 
L 116.422581 64.951738 
L 116.422581 65.57754 
L 119.271563 65.57754 
L 119.271563 66.210425 
L 122.967539 66.210425 
L 122.967539 66.848695 
L 123.660535 66.848695 
L 123.660535 67.492129 
L 124.199531 67.492129 
L 124.199531 68.141596 
L 124.815527 68.141596 
L 124.815527 68.79105 
L 126.971513 68.79105 
L 126.971513 69.440532 
L 127.202512 69.440532 
L 127.202512 70.089499 
L 128.588503 70.089499 
L 128.588503 70.739827 
L 128.665502 70.739827 
L 129.666496 70.739827 
L 129.666496 71.399455 
L 133.131474 71.399455 
L 133.131474 72.061546 
L 133.362472 72.061546 
L 133.362472 73.386201 
L 135.21046 73.386201 
L 135.21046 74.057683 
L 136.673451 74.057683 
L 136.673451 74.737026 
L 136.904449 74.737026 
L 136.904449 75.420798 
L 137.443446 75.420798 
L 137.443446 76.110557 
L 139.676431 76.110557 
L 139.676431 76.799843 
L 146.298389 76.799843 
L 146.298389 77.500271 
L 148.993371 77.500271 
L 148.993371 78.20383 
L 149.686367 78.20383 
L 149.686367 78.924511 
L 149.763366 78.924511 
L 150.071364 78.924511 
L 150.071364 79.646215 
L 150.841359 79.646215 
L 150.841359 80.369246 
L 151.457355 80.369246 
L 151.457355 81.098064 
L 154.306337 81.098064 
L 154.306337 81.847313 
L 154.460336 81.847313 
L 154.460336 82.595986 
L 154.691334 82.595986 
L 154.691334 83.344509 
L 156.92432 83.344509 
L 156.92432 84.094471 
L 158.618309 84.094471 
L 158.618309 84.844251 
L 159.619303 84.844251 
L 159.619303 85.596491 
L 159.927301 85.596491 
L 159.927301 86.348745 
L 162.853282 86.348745 
L 162.853282 87.114076 
L 163.315279 87.114076 
L 163.315279 87.879261 
L 167.78125 87.879261 
L 167.78125 88.670061 
L 167.85825 88.670061 
L 171.477226 88.670061 
L 171.477226 89.470001 
L 173.094216 89.470001 
L 173.094216 90.270524 
L 174.095209 90.270524 
L 174.095209 91.071931 
L 175.789198 91.071931 
L 175.789198 91.908054 
L 176.097196 91.908054 
L 176.097196 92.743313 
L 179.485174 92.743313 
L 179.485174 93.594165 
L 180.17817 93.594165 
L 180.17817 94.446272 
L 186.800127 94.446272 
L 186.800127 95.313565 
L 195.65507 95.313565 
L 195.65507 96.228848 
L 198.73505 96.228848 
L 198.73505 97.164876 
L 204.741012 97.164876 
L 204.741012 98.153426 
L 208.359988 98.153426 
L 208.359988 99.17545 
L 222.989894 99.17545 
L 222.989894 100.262129 
L 232.383833 100.262129 
L 232.383833 101.514156 
L 232.460833 101.514156 
L 247.167738 101.514156 
L 247.167738 102.954879 
L 253.789695 102.954879 
L 253.789695 104.429361 
L 284.435497 104.429361 
L 284.435497 106.415815 
L 286.591483 106.415815 
L 286.591483 108.541311 
L 361.512 108.541311 
L 361.512 113.847754 
L 576.417614 113.847754 
L 576.417614 113.847754 
" clip-path="url(#p9bf5591580)" style="fill: none; stroke: #3a528a; stroke-width: 1.5; stroke-linecap: square"/>
   </g>
   <g id="line2d_19">
    <path d="M 69.144886 37.807347 
L 73.30286 37.807347 
L 73.30286 38.426102 
L 75.150848 38.426102 
L 75.150848 39.044689 
L 76.151841 39.044689 
L 76.151841 39.670735 
L 81.079809 39.670735 
L 81.079809 40.300751 
L 83.620793 40.300751 
L 83.620793 40.932699 
L 83.851791 40.932699 
L 83.851791 41.564318 
L 84.159789 41.564318 
L 84.159789 42.20276 
L 84.313788 42.20276 
L 84.313788 43.488912 
L 85.006784 43.488912 
L 85.006784 44.135633 
L 85.160783 44.135633 
L 85.160783 44.782083 
L 86.623774 44.782083 
L 86.623774 45.438071 
L 88.394762 45.438071 
L 88.394762 46.094933 
L 88.933759 46.094933 
L 88.933759 46.757269 
L 93.630728 46.757269 
L 93.630728 47.42633 
L 94.785721 47.42633 
L 94.785721 48.097042 
L 95.940713 48.097042 
L 95.940713 49.440785 
L 96.248712 49.440785 
L 96.248712 50.801163 
L 97.095706 50.801163 
L 97.095706 51.484922 
L 97.480704 51.484922 
L 97.480704 52.170526 
L 98.327698 52.170526 
L 98.327698 52.863927 
L 99.328692 52.863927 
L 99.328692 53.561931 
L 99.944688 53.561931 
L 99.944688 54.268337 
L 100.021687 54.268337 
L 100.175686 54.268337 
L 100.252686 55.709201 
L 100.483684 55.709201 
L 100.483684 56.43557 
L 100.945681 56.43557 
L 100.945681 57.161386 
L 102.177673 57.161386 
L 102.177673 57.892126 
L 103.178667 57.892126 
L 103.178667 59.358703 
L 103.871662 59.358703 
L 103.871662 60.100949 
L 104.17966 60.100949 
L 104.17966 60.850127 
L 104.872656 60.850127 
L 104.872656 61.598405 
L 105.026655 61.598405 
L 105.103654 63.11513 
L 105.71965 63.11513 
L 105.71965 63.874418 
L 106.335646 63.874418 
L 106.335646 64.637742 
L 106.566645 64.637742 
L 106.643644 66.175983 
L 107.490639 66.175983 
L 107.490639 66.954097 
L 108.414633 66.954097 
L 108.414633 67.732247 
L 108.722631 67.732247 
L 108.722631 68.509577 
L 109.723625 68.509577 
L 109.723625 69.293967 
L 109.877624 69.293967 
L 109.877624 70.082615 
L 110.955617 70.082615 
L 110.955617 70.871089 
L 113.804598 70.871089 
L 113.881598 72.484924 
L 114.497594 72.484924 
L 114.574593 74.109474 
L 116.422581 74.109474 
L 116.422581 74.931341 
L 119.271563 74.931341 
L 119.271563 75.762038 
L 122.967539 75.762038 
L 122.967539 76.599321 
L 123.660535 76.599321 
L 123.660535 77.442887 
L 124.199531 77.442887 
L 124.199531 78.293862 
L 124.815527 78.293862 
L 124.815527 79.144319 
L 126.971513 79.144319 
L 126.971513 79.994308 
L 127.202512 79.994308 
L 127.202512 80.843118 
L 128.588503 80.843118 
L 128.588503 81.693204 
L 128.665502 81.693204 
L 129.666496 81.693204 
L 129.666496 82.554929 
L 133.131474 82.554929 
L 133.131474 83.419346 
L 133.362472 83.419346 
L 133.362472 85.147219 
L 135.21046 85.147219 
L 135.21046 86.02229 
L 136.673451 86.02229 
L 136.673451 86.907053 
L 136.904449 86.907053 
L 136.904449 87.797021 
L 137.443446 87.797021 
L 137.443446 88.694211 
L 139.676431 88.694211 
L 139.676431 89.590211 
L 146.298389 89.590211 
L 146.298389 90.500104 
L 148.993371 90.500104 
L 148.993371 91.413465 
L 149.686367 91.413465 
L 149.686367 92.348433 
L 149.763366 92.348433 
L 150.071364 92.348433 
L 150.071364 93.284095 
L 150.841359 93.284095 
L 150.841359 94.220842 
L 151.457355 94.220842 
L 151.457355 95.164441 
L 154.306337 95.164441 
L 154.306337 96.133818 
L 154.460336 96.133818 
L 154.460336 97.101764 
L 154.691334 97.101764 
L 154.691334 98.06883 
L 156.92432 98.06883 
L 156.92432 99.037068 
L 158.618309 99.037068 
L 158.618309 100.004381 
L 159.619303 100.004381 
L 159.619303 100.974174 
L 159.927301 100.974174 
L 159.927301 101.94329 
L 162.853282 101.94329 
L 162.853282 102.928536 
L 163.315279 102.928536 
L 163.315279 103.912873 
L 167.78125 103.912873 
L 167.78125 104.929402 
L 167.85825 104.929402 
L 171.477226 104.929402 
L 171.477226 105.956892 
L 173.094216 105.956892 
L 173.094216 106.984338 
L 174.095209 106.984338 
L 174.095209 108.012123 
L 175.789198 108.012123 
L 175.789198 109.083579 
L 176.097196 109.083579 
L 176.097196 110.153059 
L 179.485174 110.153059 
L 179.485174 111.241614 
L 180.17817 111.241614 
L 180.17817 112.330866 
L 186.800127 112.330866 
L 186.800127 113.4386 
L 195.65507 113.4386 
L 195.65507 114.606607 
L 198.73505 114.606607 
L 198.73505 115.8 
L 204.741012 115.8 
L 204.741012 117.059161 
L 208.359988 117.059161 
L 208.359988 118.359667 
L 222.989894 118.359667 
L 222.989894 119.741001 
L 232.383833 119.741001 
L 232.383833 121.330666 
L 232.460833 121.330666 
L 247.167738 121.330666 
L 247.167738 123.157457 
L 253.789695 123.157457 
L 253.789695 125.024325 
L 284.435497 125.024325 
L 284.435497 127.53503 
L 286.591483 127.53503 
L 286.591483 130.215885 
L 361.512 130.215885 
L 361.512 136.883459 
L 576.417614 136.883459 
L 576.417614 136.883459 
" clip-path="url(#p9bf5591580)" style="fill: none; stroke: #424e69; stroke-width: 1.5; stroke-linecap: square"/>
   </g>
   <g id="line2d_20">
    <path d="M 69.144886 40.140663 
L 73.30286 40.140663 
L 73.30286 43.085765 
L 75.150848 43.085765 
L 75.150848 46.013213 
L 76.151841 46.013213 
L 76.151841 48.958879 
L 81.079809 48.958879 
L 81.079809 51.905948 
L 83.620793 51.905948 
L 83.620793 54.844719 
L 83.851791 54.844719 
L 83.851791 57.764683 
L 84.159789 57.764683 
L 84.159789 60.698717 
L 84.313788 60.698717 
L 84.313788 66.556352 
L 85.006784 66.556352 
L 85.006784 69.475145 
L 85.160783 69.475145 
L 85.160783 72.375017 
L 86.623774 72.375017 
L 86.623774 75.299673 
L 88.394762 75.299673 
L 88.394762 78.210131 
L 88.933759 78.210131 
L 88.933759 81.126593 
L 93.630728 81.126593 
L 93.630728 84.054155 
L 94.785721 84.054155 
L 94.785721 86.970346 
L 95.940713 86.970346 
L 95.940713 92.757154 
L 96.248712 92.757154 
L 96.248712 98.540555 
L 97.095706 98.540555 
L 97.095706 101.419147 
L 97.480704 101.419147 
L 97.480704 104.286626 
L 98.327698 104.286626 
L 98.327698 107.167578 
L 99.328692 107.167578 
L 99.328692 110.048316 
L 99.944688 110.048316 
L 99.944688 112.944073 
L 100.021687 112.944073 
L 100.175686 112.944073 
L 100.252686 118.789682 
L 100.483684 118.789682 
L 100.483684 121.705802 
L 100.945681 121.705802 
L 100.945681 124.599238 
L 102.177673 124.599238 
L 102.177673 127.491748 
L 103.178667 127.491748 
L 103.178667 133.235141 
L 103.871662 133.235141 
L 103.871662 136.110691 
L 104.17966 136.110691 
L 104.17966 138.991971 
L 104.872656 138.991971 
L 104.872656 141.848716 
L 105.026655 141.848716 
L 105.103654 147.575065 
L 105.71965 147.575065 
L 105.71965 150.409706 
L 106.335646 150.409706 
L 106.335646 153.238025 
L 106.566645 153.238025 
L 106.643644 158.87297 
L 107.490639 158.87297 
L 107.490639 161.69072 
L 108.414633 161.69072 
L 108.414633 164.486817 
L 108.722631 164.486817 
L 108.722631 167.258339 
L 109.723625 167.258339 
L 109.723625 170.033251 
L 109.877624 170.033251 
L 109.877624 172.80129 
L 110.955617 172.80129 
L 110.955617 175.546862 
L 113.804598 175.546862 
L 113.881598 181.098834 
L 114.497594 181.098834 
L 114.574593 186.596831 
L 116.422581 186.596831 
L 116.422581 189.343927 
L 119.271563 189.343927 
L 119.271563 192.097262 
L 122.967539 192.097262 
L 122.967539 194.8489 
L 123.660535 194.8489 
L 123.660535 197.597445 
L 124.199531 197.597445 
L 124.199531 200.346143 
L 124.815527 200.346143 
L 124.815527 203.069248 
L 126.971513 203.069248 
L 126.971513 205.767119 
L 127.202512 205.767119 
L 127.202512 208.437721 
L 128.588503 208.437721 
L 128.588503 211.088921 
L 128.665502 211.088921 
L 129.666496 211.088921 
L 129.666496 213.752664 
L 133.131474 213.752664 
L 133.131474 216.40085 
L 133.362472 216.40085 
L 133.362472 221.623242 
L 135.21046 221.623242 
L 135.21046 224.232283 
L 136.673451 224.232283 
L 136.673451 226.845966 
L 136.904449 226.845966 
L 136.904449 229.450586 
L 137.443446 229.450586 
L 137.443446 232.051703 
L 139.676431 232.051703 
L 139.676431 234.624849 
L 146.298389 234.624849 
L 146.298389 237.212999 
L 148.993371 237.212999 
L 148.993371 239.785957 
L 149.686367 239.785957 
L 149.686367 242.393967 
L 149.763366 242.393967 
L 150.071364 242.393967 
L 150.071364 244.977959 
L 150.841359 244.977959 
L 150.841359 247.539126 
L 151.457355 247.539126 
L 151.457355 250.093105 
L 154.306337 250.093105 
L 154.306337 252.689964 
L 154.460336 252.689964 
L 154.460336 255.256002 
L 154.691334 255.256002 
L 154.691334 257.792985 
L 156.92432 257.792985 
L 156.92432 260.306487 
L 158.618309 260.306487 
L 158.618309 262.791262 
L 159.619303 262.791262 
L 159.619303 265.256199 
L 159.927301 265.256199 
L 159.927301 267.693398 
L 162.853282 267.693398 
L 162.853282 270.144717 
L 163.315279 270.144717 
L 163.315279 272.567358 
L 167.78125 272.567358 
L 167.78125 275.041734 
L 167.85825 275.041734 
L 171.477226 275.041734 
L 171.477226 277.514637 
L 173.094216 277.514637 
L 173.094216 279.959365 
L 174.095209 279.959365 
L 174.095209 282.377053 
L 175.789198 282.377053 
L 175.789198 284.868073 
L 176.097196 284.868073 
L 176.097196 287.324831 
L 179.485174 287.324831 
L 179.485174 289.795238 
L 180.17817 289.795238 
L 180.17817 292.237038 
L 186.800127 292.237038 
L 186.800127 294.689577 
L 195.65507 294.689577 
L 195.65507 297.242351 
L 198.73505 297.242351 
L 198.73505 299.815742 
L 204.741012 299.815742 
L 204.741012 302.493127 
L 208.359988 302.493127 
L 208.359988 305.218081 
L 222.989894 305.218081 
L 222.989894 308.067992 
L 232.383833 308.067992 
L 232.383833 311.291803 
L 232.460833 311.291803 
L 247.167738 311.291803 
L 247.167738 314.923605 
L 253.789695 314.923605 
L 253.789695 318.555752 
L 284.435497 318.555752 
L 284.435497 323.316336 
L 286.591483 323.316336 
L 286.591483 328.245452 
L 361.512 328.245452 
L 361.512 339.838125 
L 576.417614 339.838125 
L 576.417614 339.838125 
" clip-path="url(#p9bf5591580)" style="fill: none; stroke: #4a4a4a; stroke-width: 1.5; stroke-linecap: square"/>
   </g>
   <g id="patch_3">
    <path d="M 43.78125 354.958125 
L 43.78125 22.318125 
" style="fill: none; stroke: #000000; stroke-width: 0.8; stroke-linejoin: miter; stroke-linecap: square"/>
   </g>
   <g id="patch_4">
    <path d="M 601.78125 354.958125 
L 601.78125 22.318125 
" style="fill: none; stroke: #000000; stroke-width: 0.8; stroke-linejoin: miter; stroke-linecap: square"/>
   </g>
   <g id="patch_5">
    <path d="M 43.78125 354.958125 
L 601.78125 354.958125 
" style="fill: none; stroke: #000000; stroke-width: 0.8; stroke-linejoin: miter; stroke-linecap: square"/>
   </g>
   <g id="patch_6">
    <path d="M 43.78125 22.318125 
L 601.78125 22.318125 
" style="fill: none; stroke: #000000; stroke-width: 0.8; stroke-linejoin: miter; stroke-linecap: square"/>
   </g>
   <g id="text_18">
    <!-- p-value: 1.19e-21 -->
    <g transform="translate(502.313438 36.569362) scale(0.1 -0.1)">
     <defs>
      <path id="DejaVuSans-70" d="M 1159 525 
L 1159 -1331 
L 581 -1331 
L 581 3500 
L 1159 3500 
L 1159 2969 
Q 1341 3281 1617 3432 
Q 1894 3584 2278 3584 
Q 2916 3584 3314 3078 
Q 3713 2572 3713 1747 
Q 3713 922 3314 415 
Q 2916 -91 2278 -91 
Q 1894 -91 1617 61 
Q 1341 213 1159 525 
z
M 3116 1747 
Q 3116 2381 2855 2742 
Q 2594 3103 2138 3103 
Q 1681 3103 1420 2742 
Q 1159 2381 1159 1747 
Q 1159 1113 1420 752 
Q 1681 391 2138 391 
Q 2594 391 2855 752 
Q 3116 1113 3116 1747 
z
" transform="scale(0.015625)"/>
      <path id="DejaVuSans-2d" d="M 313 2009 
L 1997 2009 
L 1997 1497 
L 313 1497 
L 313 2009 
z
" transform="scale(0.015625)"/>
      <path id="DejaVuSans-3a" d="M 750 794 
L 1409 794 
L 1409 0 
L 750 0 
L 750 794 
z
M 750 3309 
L 1409 3309 
L 1409 2516 
L 750 2516 
L 750 3309 
z
" transform="scale(0.015625)"/>
     </defs>
     <use xlink:href="#DejaVuSans-70"/>
     <use xlink:href="#DejaVuSans-2d" x="63.476562"/>
     <use xlink:href="#DejaVuSans-76" x="96.935547"/>
     <use xlink:href="#DejaVuSans-61" x="156.115234"/>
     <use xlink:href="#DejaVuSans-6c" x="217.394531"/>
     <use xlink:href="#DejaVuSans-75" x="245.177734"/>
     <use xlink:href="#DejaVuSans-65" x="308.556641"/>
     <use xlink:href="#DejaVuSans-3a" x="370.080078"/>
     <use xlink:href="#DejaVuSans-20" x="403.771484"/>
     <use xlink:href="#DejaVuSans-31" x="435.558594"/>
     <use xlink:href="#DejaVuSans-2e" x="499.181641"/>
     <use xlink:href="#DejaVuSans-31" x="530.96875"/>
     <use xlink:href="#DejaVuSans-39" x="594.591797"/>
     <use xlink:href="#DejaVuSans-65" x="658.214844"/>
     <use xlink:href="#DejaVuSans-2d" x="719.738281"/>
     <use xlink:href="#DejaVuSans-32" x="755.822266"/>
     <use xlink:href="#DejaVuSans-31" x="819.445312"/>
    </g>
   </g>
   <g id="text_19">
    <!-- Adjusted Partial Effects of Continuous MYCN Expression on Survival -->
    <g transform="translate(120.839063 16.318125) scale(0.12 -0.12)">
     <defs>
      <path id="DejaVuSans-41" d="M 2188 4044 
L 1331 1722 
L 3047 1722 
L 2188 4044 
z
M 1831 4666 
L 2547 4666 
L 4325 0 
L 3669 0 
L 3244 1197 
L 1141 1197 
L 716 0 
L 50 0 
L 1831 4666 
z
" transform="scale(0.015625)"/>
      <path id="DejaVuSans-64" d="M 2906 2969 
L 2906 4863 
L 3481 4863 
L 3481 0 
L 2906 0 
L 2906 525 
Q 2725 213 2448 61 
Q 2172 -91 1784 -91 
Q 1150 -91 751 415 
Q 353 922 353 1747 
Q 353 2572 751 3078 
Q 1150 3584 1784 3584 
Q 2172 3584 2448 3432 
Q 2725 3281 2906 2969 
z
M 947 1747 
Q 947 1113 1208 752 
Q 1469 391 1925 391 
Q 2381 391 2643 752 
Q 2906 1113 2906 1747 
Q 2906 2381 2643 2742 
Q 2381 3103 1925 3103 
Q 1469 3103 1208 2742 
Q 947 2381 947 1747 
z
" transform="scale(0.015625)"/>
      <path id="DejaVuSans-6a" d="M 603 3500 
L 1178 3500 
L 1178 -63 
Q 1178 -731 923 -1031 
Q 669 -1331 103 -1331 
L -116 -1331 
L -116 -844 
L 38 -844 
Q 366 -844 484 -692 
Q 603 -541 603 -63 
L 603 3500 
z
M 603 4863 
L 1178 4863 
L 1178 4134 
L 603 4134 
L 603 4863 
z
" transform="scale(0.015625)"/>
      <path id="DejaVuSans-45" d="M 628 4666 
L 3578 4666 
L 3578 4134 
L 1259 4134 
L 1259 2753 
L 3481 2753 
L 3481 2222 
L 1259 2222 
L 1259 531 
L 3634 531 
L 3634 0 
L 628 0 
L 628 4666 
z
" transform="scale(0.015625)"/>
      <path id="DejaVuSans-66" d="M 2375 4863 
L 2375 4384 
L 1825 4384 
Q 1516 4384 1395 4259 
Q 1275 4134 1275 3809 
L 1275 3500 
L 2222 3500 
L 2222 3053 
L 1275 3053 
L 1275 0 
L 697 0 
L 697 3053 
L 147 3053 
L 147 3500 
L 697 3500 
L 697 3744 
Q 697 4328 969 4595 
Q 1241 4863 1831 4863 
L 2375 4863 
z
" transform="scale(0.015625)"/>
      <path id="DejaVuSans-63" d="M 3122 3366 
L 3122 2828 
Q 2878 2963 2633 3030 
Q 2388 3097 2138 3097 
Q 1578 3097 1268 2742 
Q 959 2388 959 1747 
Q 959 1106 1268 751 
Q 1578 397 2138 397 
Q 2388 397 2633 464 
Q 2878 531 3122 666 
L 3122 134 
Q 2881 22 2623 -34 
Q 2366 -91 2075 -91 
Q 1284 -91 818 406 
Q 353 903 353 1747 
Q 353 2603 823 3093 
Q 1294 3584 2113 3584 
Q 2378 3584 2631 3529 
Q 2884 3475 3122 3366 
z
" transform="scale(0.015625)"/>
      <path id="DejaVuSans-43" d="M 4122 4306 
L 4122 3641 
Q 3803 3938 3442 4084 
Q 3081 4231 2675 4231 
Q 1875 4231 1450 3742 
Q 1025 3253 1025 2328 
Q 1025 1406 1450 917 
Q 1875 428 2675 428 
Q 3081 428 3442 575 
Q 3803 722 4122 1019 
L 4122 359 
Q 3791 134 3420 21 
Q 3050 -91 2638 -91 
Q 1578 -91 968 557 
Q 359 1206 359 2328 
Q 359 3453 968 4101 
Q 1578 4750 2638 4750 
Q 3056 4750 3426 4639 
Q 3797 4528 4122 4306 
z
" transform="scale(0.015625)"/>
      <path id="DejaVuSans-4d" d="M 628 4666 
L 1569 4666 
L 2759 1491 
L 3956 4666 
L 4897 4666 
L 4897 0 
L 4281 0 
L 4281 4097 
L 3078 897 
L 2444 897 
L 1241 4097 
L 1241 0 
L 628 0 
L 628 4666 
z
" transform="scale(0.015625)"/>
      <path id="DejaVuSans-59" d="M -13 4666 
L 666 4666 
L 1959 2747 
L 3244 4666 
L 3922 4666 
L 2272 2222 
L 2272 0 
L 1638 0 
L 1638 2222 
L -13 4666 
z
" transform="scale(0.015625)"/>
      <path id="DejaVuSans-4e" d="M 628 4666 
L 1478 4666 
L 3547 763 
L 3547 4666 
L 4159 4666 
L 4159 0 
L 3309 0 
L 1241 3903 
L 1241 0 
L 628 0 
L 628 4666 
z
" transform="scale(0.015625)"/>
      <path id="DejaVuSans-78" d="M 3513 3500 
L 2247 1797 
L 3578 0 
L 2900 0 
L 1881 1375 
L 863 0 
L 184 0 
L 1544 1831 
L 300 3500 
L 978 3500 
L 1906 2253 
L 2834 3500 
L 3513 3500 
z
" transform="scale(0.015625)"/>
     </defs>
     <use xlink:href="#DejaVuSans-41"/>
     <use xlink:href="#DejaVuSans-64" x="66.658203"/>
     <use xlink:href="#DejaVuSans-6a" x="130.134766"/>
     <use xlink:href="#DejaVuSans-75" x="157.917969"/>
     <use xlink:href="#DejaVuSans-73" x="221.296875"/>
     <use xlink:href="#DejaVuSans-74" x="273.396484"/>
     <use xlink:href="#DejaVuSans-65" x="312.605469"/>
     <use xlink:href="#DejaVuSans-64" x="374.128906"/>
     <use xlink:href="#DejaVuSans-20" x="437.605469"/>
     <use xlink:href="#DejaVuSans-50" x="469.392578"/>
     <use xlink:href="#DejaVuSans-61" x="525.195312"/>
     <use xlink:href="#DejaVuSans-72" x="586.474609"/>
     <use xlink:href="#DejaVuSans-74" x="627.587891"/>
     <use xlink:href="#DejaVuSans-69" x="666.796875"/>
     <use xlink:href="#DejaVuSans-61" x="694.580078"/>
     <use xlink:href="#DejaVuSans-6c" x="755.859375"/>
     <use xlink:href="#DejaVuSans-20" x="783.642578"/>
     <use xlink:href="#DejaVuSans-45" x="815.429688"/>
     <use xlink:href="#DejaVuSans-66" x="878.613281"/>
     <use xlink:href="#DejaVuSans-66" x="913.818359"/>
     <use xlink:href="#DejaVuSans-65" x="949.023438"/>
     <use xlink:href="#DejaVuSans-63" x="1010.546875"/>
     <use xlink:href="#DejaVuSans-74" x="1065.527344"/>
     <use xlink:href="#DejaVuSans-73" x="1104.736328"/>
     <use xlink:href="#DejaVuSans-20" x="1156.835938"/>
     <use xlink:href="#DejaVuSans-6f" x="1188.623047"/>
     <use xlink:href="#DejaVuSans-66" x="1249.804688"/>
     <use xlink:href="#DejaVuSans-20" x="1285.009766"/>
     <use xlink:href="#DejaVuSans-43" x="1316.796875"/>
     <use xlink:href="#DejaVuSans-6f" x="1386.621094"/>
     <use xlink:href="#DejaVuSans-6e" x="1447.802734"/>
     <use xlink:href="#DejaVuSans-74" x="1511.181641"/>
     <use xlink:href="#DejaVuSans-69" x="1550.390625"/>
     <use xlink:href="#DejaVuSans-6e" x="1578.173828"/>
     <use xlink:href="#DejaVuSans-75" x="1641.552734"/>
     <use xlink:href="#DejaVuSans-6f" x="1704.931641"/>
     <use xlink:href="#DejaVuSans-75" x="1766.113281"/>
     <use xlink:href="#DejaVuSans-73" x="1829.492188"/>
     <use xlink:href="#DejaVuSans-20" x="1881.591797"/>
     <use xlink:href="#DejaVuSans-4d" x="1913.378906"/>
     <use xlink:href="#DejaVuSans-59" x="1999.658203"/>
     <use xlink:href="#DejaVuSans-43" x="2055.242188"/>
     <use xlink:href="#DejaVuSans-4e" x="2125.066406"/>
     <use xlink:href="#DejaVuSans-20" x="2199.871094"/>
     <use xlink:href="#DejaVuSans-45" x="2231.658203"/>
     <use xlink:href="#DejaVuSans-78" x="2294.841797"/>
     <use xlink:href="#DejaVuSans-70" x="2354.021484"/>
     <use xlink:href="#DejaVuSans-72" x="2417.498047"/>
     <use xlink:href="#DejaVuSans-65" x="2456.361328"/>
     <use xlink:href="#DejaVuSans-73" x="2517.884766"/>
     <use xlink:href="#DejaVuSans-73" x="2569.984375"/>
     <use xlink:href="#DejaVuSans-69" x="2622.083984"/>
     <use xlink:href="#DejaVuSans-6f" x="2649.867188"/>
     <use xlink:href="#DejaVuSans-6e" x="2711.048828"/>
     <use xlink:href="#DejaVuSans-20" x="2774.427734"/>
     <use xlink:href="#DejaVuSans-6f" x="2806.214844"/>
     <use xlink:href="#DejaVuSans-6e" x="2867.396484"/>
     <use xlink:href="#DejaVuSans-20" x="2930.775391"/>
     <use xlink:href="#DejaVuSans-53" x="2962.5625"/>
     <use xlink:href="#DejaVuSans-75" x="3026.039062"/>
     <use xlink:href="#DejaVuSans-72" x="3089.417969"/>
     <use xlink:href="#DejaVuSans-76" x="3130.53125"/>
     <use xlink:href="#DejaVuSans-69" x="3189.710938"/>
     <use xlink:href="#DejaVuSans-76" x="3217.494141"/>
     <use xlink:href="#DejaVuSans-61" x="3276.673828"/>
     <use xlink:href="#DejaVuSans-6c" x="3337.953125"/>
    </g>
   </g>
  </g>
 </g>
 <defs>
  <clipPath id="p9bf5591580">
   <rect x="43.78125" y="22.318125" width="558" height="332.64"/>
  </clipPath>
 </defs>
</svg>
