<?xml version="1.0" encoding="utf-8" standalone="no"?>
<!DOCTYPE svg PUBLIC "-//W3C//DTD SVG 1.1//EN"
  "http://www.w3.org/Graphics/SVG/1.1/DTD/svg11.dtd">
<svg xmlns:xlink="http://www.w3.org/1999/xlink" width="608.98125pt" height="392.514375pt" viewBox="0 0 608.98125 392.514375" xmlns="http://www.w3.org/2000/svg" version="1.1">
 <metadata>
  <rdf:RDF xmlns:dc="http://purl.org/dc/elements/1.1/" xmlns:cc="http://creativecommons.org/ns#" xmlns:rdf="http://www.w3.org/1999/02/22-rdf-syntax-ns#">
   <cc:Work>
    <dc:type rdf:resource="http://purl.org/dc/dcmitype/StillImage"/>
    <dc:date>2024-07-08T09:39:39.323295</dc:date>
    <dc:format>image/svg+xml</dc:format>
    <dc:creator>
     <cc:Agent>
      <dc:title>Matplotlib v3.9.0, https://matplotlib.org/</dc:title>
     </cc:Agent>
    </dc:creator>
   </cc:Work>
  </rdf:RDF>
 </metadata>
 <defs>
  <style type="text/css">*{stroke-linejoin: round; stroke-linecap: butt}</style>
 </defs>
 <g id="figure_1">
  <g id="patch_1">
   <path d="M 0 392.514375 
L 608.98125 392.514375 
L 608.98125 0 
L 0 0 
z
" style="fill: #ffffff"/>
  </g>
  <g id="axes_1">
   <g id="patch_2">
    <path d="M 43.78125 354.958125 
L 601.78125 354.958125 
L 601.78125 22.318125 
L 43.78125 22.318125 
z
" style="fill: #ffffff"/>
   </g>
   <g id="matplotlib.axis_1">
    <g id="xtick_1">
     <g id="line2d_1">
      <defs>
       <path id="m50cca0b73b" d="M 0 0 
L 0 3.5 
" style="stroke: #000000; stroke-width: 0.8"/>
      </defs>
      <g>
       <use xlink:href="#m50cca0b73b" x="68.220892" y="354.958125" style="stroke: #000000; stroke-width: 0.8"/>
      </g>
     </g>
     <g id="text_1">
      <!-- 0 -->
      <g transform="translate(65.039642 369.556562) scale(0.1 -0.1)">
       <defs>
        <path id="DejaVuSans-30" d="M 2034 4250 
Q 1547 4250 1301 3770 
Q 1056 3291 1056 2328 
Q 1056 1369 1301 889 
Q 1547 409 2034 409 
Q 2525 409 2770 889 
Q 3016 1369 3016 2328 
Q 3016 3291 2770 3770 
Q 2525 4250 2034 4250 
z
M 2034 4750 
Q 2819 4750 3233 4129 
Q 3647 3509 3647 2328 
Q 3647 1150 3233 529 
Q 2819 -91 2034 -91 
Q 1250 -91 836 529 
Q 422 1150 422 2328 
Q 422 3509 836 4129 
Q 1250 4750 2034 4750 
z
" transform="scale(0.015625)"/>
       </defs>
       <use xlink:href="#DejaVuSans-30"/>
      </g>
     </g>
    </g>
    <g id="xtick_2">
     <g id="line2d_2">
      <g>
       <use xlink:href="#m50cca0b73b" x="145.220396" y="354.958125" style="stroke: #000000; stroke-width: 0.8"/>
      </g>
     </g>
     <g id="text_2">
      <!-- 1000 -->
      <g transform="translate(132.495396 369.556562) scale(0.1 -0.1)">
       <defs>
        <path id="DejaVuSans-31" d="M 794 531 
L 1825 531 
L 1825 4091 
L 703 3866 
L 703 4441 
L 1819 4666 
L 2450 4666 
L 2450 531 
L 3481 531 
L 3481 0 
L 794 0 
L 794 531 
z
" transform="scale(0.015625)"/>
       </defs>
       <use xlink:href="#DejaVuSans-31"/>
       <use xlink:href="#DejaVuSans-30" x="63.623047"/>
       <use xlink:href="#DejaVuSans-30" x="127.246094"/>
       <use xlink:href="#DejaVuSans-30" x="190.869141"/>
      </g>
     </g>
    </g>
    <g id="xtick_3">
     <g id="line2d_3">
      <g>
       <use xlink:href="#m50cca0b73b" x="222.219899" y="354.958125" style="stroke: #000000; stroke-width: 0.8"/>
      </g>
     </g>
     <g id="text_3">
      <!-- 2000 -->
      <g transform="translate(209.494899 369.556562) scale(0.1 -0.1)">
       <defs>
        <path id="DejaVuSans-32" d="M 1228 531 
L 3431 531 
L 3431 0 
L 469 0 
L 469 531 
Q 828 903 1448 1529 
Q 2069 2156 2228 2338 
Q 2531 2678 2651 2914 
Q 2772 3150 2772 3378 
Q 2772 3750 2511 3984 
Q 2250 4219 1831 4219 
Q 1534 4219 1204 4116 
Q 875 4013 500 3803 
L 500 4441 
Q 881 4594 1212 4672 
Q 1544 4750 1819 4750 
Q 2544 4750 2975 4387 
Q 3406 4025 3406 3419 
Q 3406 3131 3298 2873 
Q 3191 2616 2906 2266 
Q 2828 2175 2409 1742 
Q 1991 1309 1228 531 
z
" transform="scale(0.015625)"/>
       </defs>
       <use xlink:href="#DejaVuSans-32"/>
       <use xlink:href="#DejaVuSans-30" x="63.623047"/>
       <use xlink:href="#DejaVuSans-30" x="127.246094"/>
       <use xlink:href="#DejaVuSans-30" x="190.869141"/>
      </g>
     </g>
    </g>
    <g id="xtick_4">
     <g id="line2d_4">
      <g>
       <use xlink:href="#m50cca0b73b" x="299.219402" y="354.958125" style="stroke: #000000; stroke-width: 0.8"/>
      </g>
     </g>
     <g id="text_4">
      <!-- 3000 -->
      <g transform="translate(286.494402 369.556562) scale(0.1 -0.1)">
       <defs>
        <path id="DejaVuSans-33" d="M 2597 2516 
Q 3050 2419 3304 2112 
Q 3559 1806 3559 1356 
Q 3559 666 3084 287 
Q 2609 -91 1734 -91 
Q 1441 -91 1130 -33 
Q 819 25 488 141 
L 488 750 
Q 750 597 1062 519 
Q 1375 441 1716 441 
Q 2309 441 2620 675 
Q 2931 909 2931 1356 
Q 2931 1769 2642 2001 
Q 2353 2234 1838 2234 
L 1294 2234 
L 1294 2753 
L 1863 2753 
Q 2328 2753 2575 2939 
Q 2822 3125 2822 3475 
Q 2822 3834 2567 4026 
Q 2313 4219 1838 4219 
Q 1578 4219 1281 4162 
Q 984 4106 628 3988 
L 628 4550 
Q 988 4650 1302 4700 
Q 1616 4750 1894 4750 
Q 2613 4750 3031 4423 
Q 3450 4097 3450 3541 
Q 3450 3153 3228 2886 
Q 3006 2619 2597 2516 
z
" transform="scale(0.015625)"/>
       </defs>
       <use xlink:href="#DejaVuSans-33"/>
       <use xlink:href="#DejaVuSans-30" x="63.623047"/>
       <use xlink:href="#DejaVuSans-30" x="127.246094"/>
       <use xlink:href="#DejaVuSans-30" x="190.869141"/>
      </g>
     </g>
    </g>
    <g id="xtick_5">
     <g id="line2d_5">
      <g>
       <use xlink:href="#m50cca0b73b" x="376.218905" y="354.958125" style="stroke: #000000; stroke-width: 0.8"/>
      </g>
     </g>
     <g id="text_5">
      <!-- 4000 -->
      <g transform="translate(363.493905 369.556562) scale(0.1 -0.1)">
       <defs>
        <path id="DejaVuSans-34" d="M 2419 4116 
L 825 1625 
L 2419 1625 
L 2419 4116 
z
M 2253 4666 
L 3047 4666 
L 3047 1625 
L 3713 1625 
L 3713 1100 
L 3047 1100 
L 3047 0 
L 2419 0 
L 2419 1100 
L 313 1100 
L 313 1709 
L 2253 4666 
z
" transform="scale(0.015625)"/>
       </defs>
       <use xlink:href="#DejaVuSans-34"/>
       <use xlink:href="#DejaVuSans-30" x="63.623047"/>
       <use xlink:href="#DejaVuSans-30" x="127.246094"/>
       <use xlink:href="#DejaVuSans-30" x="190.869141"/>
      </g>
     </g>
    </g>
    <g id="xtick_6">
     <g id="line2d_6">
      <g>
       <use xlink:href="#m50cca0b73b" x="453.218408" y="354.958125" style="stroke: #000000; stroke-width: 0.8"/>
      </g>
     </g>
     <g id="text_6">
      <!-- 5000 -->
      <g transform="translate(440.493408 369.556562) scale(0.1 -0.1)">
       <defs>
        <path id="DejaVuSans-35" d="M 691 4666 
L 3169 4666 
L 3169 4134 
L 1269 4134 
L 1269 2991 
Q 1406 3038 1543 3061 
Q 1681 3084 1819 3084 
Q 2600 3084 3056 2656 
Q 3513 2228 3513 1497 
Q 3513 744 3044 326 
Q 2575 -91 1722 -91 
Q 1428 -91 1123 -41 
Q 819 9 494 109 
L 494 744 
Q 775 591 1075 516 
Q 1375 441 1709 441 
Q 2250 441 2565 725 
Q 2881 1009 2881 1497 
Q 2881 1984 2565 2268 
Q 2250 2553 1709 2553 
Q 1456 2553 1204 2497 
Q 953 2441 691 2322 
L 691 4666 
z
" transform="scale(0.015625)"/>
       </defs>
       <use xlink:href="#DejaVuSans-35"/>
       <use xlink:href="#DejaVuSans-30" x="63.623047"/>
       <use xlink:href="#DejaVuSans-30" x="127.246094"/>
       <use xlink:href="#DejaVuSans-30" x="190.869141"/>
      </g>
     </g>
    </g>
    <g id="xtick_7">
     <g id="line2d_7">
      <g>
       <use xlink:href="#m50cca0b73b" x="530.217912" y="354.958125" style="stroke: #000000; stroke-width: 0.8"/>
      </g>
     </g>
     <g id="text_7">
      <!-- 6000 -->
      <g transform="translate(517.492912 369.556562) scale(0.1 -0.1)">
       <defs>
        <path id="DejaVuSans-36" d="M 2113 2584 
Q 1688 2584 1439 2293 
Q 1191 2003 1191 1497 
Q 1191 994 1439 701 
Q 1688 409 2113 409 
Q 2538 409 2786 701 
Q 3034 994 3034 1497 
Q 3034 2003 2786 2293 
Q 2538 2584 2113 2584 
z
M 3366 4563 
L 3366 3988 
Q 3128 4100 2886 4159 
Q 2644 4219 2406 4219 
Q 1781 4219 1451 3797 
Q 1122 3375 1075 2522 
Q 1259 2794 1537 2939 
Q 1816 3084 2150 3084 
Q 2853 3084 3261 2657 
Q 3669 2231 3669 1497 
Q 3669 778 3244 343 
Q 2819 -91 2113 -91 
Q 1303 -91 875 529 
Q 447 1150 447 2328 
Q 447 3434 972 4092 
Q 1497 4750 2381 4750 
Q 2619 4750 2861 4703 
Q 3103 4656 3366 4563 
z
" transform="scale(0.015625)"/>
       </defs>
       <use xlink:href="#DejaVuSans-36"/>
       <use xlink:href="#DejaVuSans-30" x="63.623047"/>
       <use xlink:href="#DejaVuSans-30" x="127.246094"/>
       <use xlink:href="#DejaVuSans-30" x="190.869141"/>
      </g>
     </g>
    </g>
    <g id="text_8">
     <!-- Time in Days -->
     <g transform="translate(290.333594 383.234687) scale(0.1 -0.1)">
      <defs>
       <path id="DejaVuSans-54" d="M -19 4666 
L 3928 4666 
L 3928 4134 
L 2272 4134 
L 2272 0 
L 1638 0 
L 1638 4134 
L -19 4134 
L -19 4666 
z
" transform="scale(0.015625)"/>
       <path id="DejaVuSans-69" d="M 603 3500 
L 1178 3500 
L 1178 0 
L 603 0 
L 603 3500 
z
M 603 4863 
L 1178 4863 
L 1178 4134 
L 603 4134 
L 603 4863 
z
" transform="scale(0.015625)"/>
       <path id="DejaVuSans-6d" d="M 3328 2828 
Q 3544 3216 3844 3400 
Q 4144 3584 4550 3584 
Q 5097 3584 5394 3201 
Q 5691 2819 5691 2113 
L 5691 0 
L 5113 0 
L 5113 2094 
Q 5113 2597 4934 2840 
Q 4756 3084 4391 3084 
Q 3944 3084 3684 2787 
Q 3425 2491 3425 1978 
L 3425 0 
L 2847 0 
L 2847 2094 
Q 2847 2600 2669 2842 
Q 2491 3084 2119 3084 
Q 1678 3084 1418 2786 
Q 1159 2488 1159 1978 
L 1159 0 
L 581 0 
L 581 3500 
L 1159 3500 
L 1159 2956 
Q 1356 3278 1631 3431 
Q 1906 3584 2284 3584 
Q 2666 3584 2933 3390 
Q 3200 3197 3328 2828 
z
" transform="scale(0.015625)"/>
       <path id="DejaVuSans-65" d="M 3597 1894 
L 3597 1613 
L 953 1613 
Q 991 1019 1311 708 
Q 1631 397 2203 397 
Q 2534 397 2845 478 
Q 3156 559 3463 722 
L 3463 178 
Q 3153 47 2828 -22 
Q 2503 -91 2169 -91 
Q 1331 -91 842 396 
Q 353 884 353 1716 
Q 353 2575 817 3079 
Q 1281 3584 2069 3584 
Q 2775 3584 3186 3129 
Q 3597 2675 3597 1894 
z
M 3022 2063 
Q 3016 2534 2758 2815 
Q 2500 3097 2075 3097 
Q 1594 3097 1305 2825 
Q 1016 2553 972 2059 
L 3022 2063 
z
" transform="scale(0.015625)"/>
       <path id="DejaVuSans-20" transform="scale(0.015625)"/>
       <path id="DejaVuSans-6e" d="M 3513 2113 
L 3513 0 
L 2938 0 
L 2938 2094 
Q 2938 2591 2744 2837 
Q 2550 3084 2163 3084 
Q 1697 3084 1428 2787 
Q 1159 2491 1159 1978 
L 1159 0 
L 581 0 
L 581 3500 
L 1159 3500 
L 1159 2956 
Q 1366 3272 1645 3428 
Q 1925 3584 2291 3584 
Q 2894 3584 3203 3211 
Q 3513 2838 3513 2113 
z
" transform="scale(0.015625)"/>
       <path id="DejaVuSans-44" d="M 1259 4147 
L 1259 519 
L 2022 519 
Q 2988 519 3436 956 
Q 3884 1394 3884 2338 
Q 3884 3275 3436 3711 
Q 2988 4147 2022 4147 
L 1259 4147 
z
M 628 4666 
L 1925 4666 
Q 3281 4666 3915 4102 
Q 4550 3538 4550 2338 
Q 4550 1131 3912 565 
Q 3275 0 1925 0 
L 628 0 
L 628 4666 
z
" transform="scale(0.015625)"/>
       <path id="DejaVuSans-61" d="M 2194 1759 
Q 1497 1759 1228 1600 
Q 959 1441 959 1056 
Q 959 750 1161 570 
Q 1363 391 1709 391 
Q 2188 391 2477 730 
Q 2766 1069 2766 1631 
L 2766 1759 
L 2194 1759 
z
M 3341 1997 
L 3341 0 
L 2766 0 
L 2766 531 
Q 2569 213 2275 61 
Q 1981 -91 1556 -91 
Q 1019 -91 701 211 
Q 384 513 384 1019 
Q 384 1609 779 1909 
Q 1175 2209 1959 2209 
L 2766 2209 
L 2766 2266 
Q 2766 2663 2505 2880 
Q 2244 3097 1772 3097 
Q 1472 3097 1187 3025 
Q 903 2953 641 2809 
L 641 3341 
Q 956 3463 1253 3523 
Q 1550 3584 1831 3584 
Q 2591 3584 2966 3190 
Q 3341 2797 3341 1997 
z
" transform="scale(0.015625)"/>
       <path id="DejaVuSans-79" d="M 2059 -325 
Q 1816 -950 1584 -1140 
Q 1353 -1331 966 -1331 
L 506 -1331 
L 506 -850 
L 844 -850 
Q 1081 -850 1212 -737 
Q 1344 -625 1503 -206 
L 1606 56 
L 191 3500 
L 800 3500 
L 1894 763 
L 2988 3500 
L 3597 3500 
L 2059 -325 
z
" transform="scale(0.015625)"/>
       <path id="DejaVuSans-73" d="M 2834 3397 
L 2834 2853 
Q 2591 2978 2328 3040 
Q 2066 3103 1784 3103 
Q 1356 3103 1142 2972 
Q 928 2841 928 2578 
Q 928 2378 1081 2264 
Q 1234 2150 1697 2047 
L 1894 2003 
Q 2506 1872 2764 1633 
Q 3022 1394 3022 966 
Q 3022 478 2636 193 
Q 2250 -91 1575 -91 
Q 1294 -91 989 -36 
Q 684 19 347 128 
L 347 722 
Q 666 556 975 473 
Q 1284 391 1588 391 
Q 1994 391 2212 530 
Q 2431 669 2431 922 
Q 2431 1156 2273 1281 
Q 2116 1406 1581 1522 
L 1381 1569 
Q 847 1681 609 1914 
Q 372 2147 372 2553 
Q 372 3047 722 3315 
Q 1072 3584 1716 3584 
Q 2034 3584 2315 3537 
Q 2597 3491 2834 3397 
z
" transform="scale(0.015625)"/>
      </defs>
      <use xlink:href="#DejaVuSans-54"/>
      <use xlink:href="#DejaVuSans-69" x="57.958984"/>
      <use xlink:href="#DejaVuSans-6d" x="85.742188"/>
      <use xlink:href="#DejaVuSans-65" x="183.154297"/>
      <use xlink:href="#DejaVuSans-20" x="244.677734"/>
      <use xlink:href="#DejaVuSans-69" x="276.464844"/>
      <use xlink:href="#DejaVuSans-6e" x="304.248047"/>
      <use xlink:href="#DejaVuSans-20" x="367.626953"/>
      <use xlink:href="#DejaVuSans-44" x="399.414062"/>
      <use xlink:href="#DejaVuSans-61" x="476.416016"/>
      <use xlink:href="#DejaVuSans-79" x="537.695312"/>
      <use xlink:href="#DejaVuSans-73" x="596.875"/>
     </g>
    </g>
   </g>
   <g id="matplotlib.axis_2">
    <g id="ytick_1">
     <g id="line2d_8">
      <defs>
       <path id="m8d92ed80b8" d="M 0 0 
L -3.5 0 
" style="stroke: #000000; stroke-width: 0.8"/>
      </defs>
      <g>
       <use xlink:href="#m8d92ed80b8" x="43.78125" y="349.592964" style="stroke: #000000; stroke-width: 0.8"/>
      </g>
     </g>
     <g id="text_9">
      <!-- 0.4 -->
      <g transform="translate(20.878125 353.392182) scale(0.1 -0.1)">
       <defs>
        <path id="DejaVuSans-2e" d="M 684 794 
L 1344 794 
L 1344 0 
L 684 0 
L 684 794 
z
" transform="scale(0.015625)"/>
       </defs>
       <use xlink:href="#DejaVuSans-30"/>
       <use xlink:href="#DejaVuSans-2e" x="63.623047"/>
       <use xlink:href="#DejaVuSans-34" x="95.410156"/>
      </g>
     </g>
    </g>
    <g id="ytick_2">
     <g id="line2d_9">
      <g>
       <use xlink:href="#m8d92ed80b8" x="43.78125" y="295.941351" style="stroke: #000000; stroke-width: 0.8"/>
      </g>
     </g>
     <g id="text_10">
      <!-- 0.5 -->
      <g transform="translate(20.878125 299.74057) scale(0.1 -0.1)">
       <use xlink:href="#DejaVuSans-30"/>
       <use xlink:href="#DejaVuSans-2e" x="63.623047"/>
       <use xlink:href="#DejaVuSans-35" x="95.410156"/>
      </g>
     </g>
    </g>
    <g id="ytick_3">
     <g id="line2d_10">
      <g>
       <use xlink:href="#m8d92ed80b8" x="43.78125" y="242.289738" style="stroke: #000000; stroke-width: 0.8"/>
      </g>
     </g>
     <g id="text_11">
      <!-- 0.6 -->
      <g transform="translate(20.878125 246.088957) scale(0.1 -0.1)">
       <use xlink:href="#DejaVuSans-30"/>
       <use xlink:href="#DejaVuSans-2e" x="63.623047"/>
       <use xlink:href="#DejaVuSans-36" x="95.410156"/>
      </g>
     </g>
    </g>
    <g id="ytick_4">
     <g id="line2d_11">
      <g>
       <use xlink:href="#m8d92ed80b8" x="43.78125" y="188.638125" style="stroke: #000000; stroke-width: 0.8"/>
      </g>
     </g>
     <g id="text_12">
      <!-- 0.7 -->
      <g transform="translate(20.878125 192.437344) scale(0.1 -0.1)">
       <defs>
        <path id="DejaVuSans-37" d="M 525 4666 
L 3525 4666 
L 3525 4397 
L 1831 0 
L 1172 0 
L 2766 4134 
L 525 4134 
L 525 4666 
z
" transform="scale(0.015625)"/>
       </defs>
       <use xlink:href="#DejaVuSans-30"/>
       <use xlink:href="#DejaVuSans-2e" x="63.623047"/>
       <use xlink:href="#DejaVuSans-37" x="95.410156"/>
      </g>
     </g>
    </g>
    <g id="ytick_5">
     <g id="line2d_12">
      <g>
       <use xlink:href="#m8d92ed80b8" x="43.78125" y="134.986512" style="stroke: #000000; stroke-width: 0.8"/>
      </g>
     </g>
     <g id="text_13">
      <!-- 0.8 -->
      <g transform="translate(20.878125 138.785731) scale(0.1 -0.1)">
       <defs>
        <path id="DejaVuSans-38" d="M 2034 2216 
Q 1584 2216 1326 1975 
Q 1069 1734 1069 1313 
Q 1069 891 1326 650 
Q 1584 409 2034 409 
Q 2484 409 2743 651 
Q 3003 894 3003 1313 
Q 3003 1734 2745 1975 
Q 2488 2216 2034 2216 
z
M 1403 2484 
Q 997 2584 770 2862 
Q 544 3141 544 3541 
Q 544 4100 942 4425 
Q 1341 4750 2034 4750 
Q 2731 4750 3128 4425 
Q 3525 4100 3525 3541 
Q 3525 3141 3298 2862 
Q 3072 2584 2669 2484 
Q 3125 2378 3379 2068 
Q 3634 1759 3634 1313 
Q 3634 634 3220 271 
Q 2806 -91 2034 -91 
Q 1263 -91 848 271 
Q 434 634 434 1313 
Q 434 1759 690 2068 
Q 947 2378 1403 2484 
z
M 1172 3481 
Q 1172 3119 1398 2916 
Q 1625 2713 2034 2713 
Q 2441 2713 2670 2916 
Q 2900 3119 2900 3481 
Q 2900 3844 2670 4047 
Q 2441 4250 2034 4250 
Q 1625 4250 1398 4047 
Q 1172 3844 1172 3481 
z
" transform="scale(0.015625)"/>
       </defs>
       <use xlink:href="#DejaVuSans-30"/>
       <use xlink:href="#DejaVuSans-2e" x="63.623047"/>
       <use xlink:href="#DejaVuSans-38" x="95.410156"/>
      </g>
     </g>
    </g>
    <g id="ytick_6">
     <g id="line2d_13">
      <g>
       <use xlink:href="#m8d92ed80b8" x="43.78125" y="81.334899" style="stroke: #000000; stroke-width: 0.8"/>
      </g>
     </g>
     <g id="text_14">
      <!-- 0.9 -->
      <g transform="translate(20.878125 85.134118) scale(0.1 -0.1)">
       <defs>
        <path id="DejaVuSans-39" d="M 703 97 
L 703 672 
Q 941 559 1184 500 
Q 1428 441 1663 441 
Q 2288 441 2617 861 
Q 2947 1281 2994 2138 
Q 2813 1869 2534 1725 
Q 2256 1581 1919 1581 
Q 1219 1581 811 2004 
Q 403 2428 403 3163 
Q 403 3881 828 4315 
Q 1253 4750 1959 4750 
Q 2769 4750 3195 4129 
Q 3622 3509 3622 2328 
Q 3622 1225 3098 567 
Q 2575 -91 1691 -91 
Q 1453 -91 1209 -44 
Q 966 3 703 97 
z
M 1959 2075 
Q 2384 2075 2632 2365 
Q 2881 2656 2881 3163 
Q 2881 3666 2632 3958 
Q 2384 4250 1959 4250 
Q 1534 4250 1286 3958 
Q 1038 3666 1038 3163 
Q 1038 2656 1286 2365 
Q 1534 2075 1959 2075 
z
" transform="scale(0.015625)"/>
       </defs>
       <use xlink:href="#DejaVuSans-30"/>
       <use xlink:href="#DejaVuSans-2e" x="63.623047"/>
       <use xlink:href="#DejaVuSans-39" x="95.410156"/>
      </g>
     </g>
    </g>
    <g id="ytick_7">
     <g id="line2d_14">
      <g>
       <use xlink:href="#m8d92ed80b8" x="43.78125" y="27.683286" style="stroke: #000000; stroke-width: 0.8"/>
      </g>
     </g>
     <g id="text_15">
      <!-- 1.0 -->
      <g transform="translate(20.878125 31.482505) scale(0.1 -0.1)">
       <use xlink:href="#DejaVuSans-31"/>
       <use xlink:href="#DejaVuSans-2e" x="63.623047"/>
       <use xlink:href="#DejaVuSans-30" x="95.410156"/>
      </g>
     </g>
    </g>
    <g id="text_16">
     <!-- Survival Probability -->
     <g transform="translate(14.798438 236.815469) rotate(-90) scale(0.1 -0.1)">
      <defs>
       <path id="DejaVuSans-53" d="M 3425 4513 
L 3425 3897 
Q 3066 4069 2747 4153 
Q 2428 4238 2131 4238 
Q 1616 4238 1336 4038 
Q 1056 3838 1056 3469 
Q 1056 3159 1242 3001 
Q 1428 2844 1947 2747 
L 2328 2669 
Q 3034 2534 3370 2195 
Q 3706 1856 3706 1288 
Q 3706 609 3251 259 
Q 2797 -91 1919 -91 
Q 1588 -91 1214 -16 
Q 841 59 441 206 
L 441 856 
Q 825 641 1194 531 
Q 1563 422 1919 422 
Q 2459 422 2753 634 
Q 3047 847 3047 1241 
Q 3047 1584 2836 1778 
Q 2625 1972 2144 2069 
L 1759 2144 
Q 1053 2284 737 2584 
Q 422 2884 422 3419 
Q 422 4038 858 4394 
Q 1294 4750 2059 4750 
Q 2388 4750 2728 4690 
Q 3069 4631 3425 4513 
z
" transform="scale(0.015625)"/>
       <path id="DejaVuSans-75" d="M 544 1381 
L 544 3500 
L 1119 3500 
L 1119 1403 
Q 1119 906 1312 657 
Q 1506 409 1894 409 
Q 2359 409 2629 706 
Q 2900 1003 2900 1516 
L 2900 3500 
L 3475 3500 
L 3475 0 
L 2900 0 
L 2900 538 
Q 2691 219 2414 64 
Q 2138 -91 1772 -91 
Q 1169 -91 856 284 
Q 544 659 544 1381 
z
M 1991 3584 
L 1991 3584 
z
" transform="scale(0.015625)"/>
       <path id="DejaVuSans-72" d="M 2631 2963 
Q 2534 3019 2420 3045 
Q 2306 3072 2169 3072 
Q 1681 3072 1420 2755 
Q 1159 2438 1159 1844 
L 1159 0 
L 581 0 
L 581 3500 
L 1159 3500 
L 1159 2956 
Q 1341 3275 1631 3429 
Q 1922 3584 2338 3584 
Q 2397 3584 2469 3576 
Q 2541 3569 2628 3553 
L 2631 2963 
z
" transform="scale(0.015625)"/>
       <path id="DejaVuSans-76" d="M 191 3500 
L 800 3500 
L 1894 563 
L 2988 3500 
L 3597 3500 
L 2284 0 
L 1503 0 
L 191 3500 
z
" transform="scale(0.015625)"/>
       <path id="DejaVuSans-6c" d="M 603 4863 
L 1178 4863 
L 1178 0 
L 603 0 
L 603 4863 
z
" transform="scale(0.015625)"/>
       <path id="DejaVuSans-50" d="M 1259 4147 
L 1259 2394 
L 2053 2394 
Q 2494 2394 2734 2622 
Q 2975 2850 2975 3272 
Q 2975 3691 2734 3919 
Q 2494 4147 2053 4147 
L 1259 4147 
z
M 628 4666 
L 2053 4666 
Q 2838 4666 3239 4311 
Q 3641 3956 3641 3272 
Q 3641 2581 3239 2228 
Q 2838 1875 2053 1875 
L 1259 1875 
L 1259 0 
L 628 0 
L 628 4666 
z
" transform="scale(0.015625)"/>
       <path id="DejaVuSans-6f" d="M 1959 3097 
Q 1497 3097 1228 2736 
Q 959 2375 959 1747 
Q 959 1119 1226 758 
Q 1494 397 1959 397 
Q 2419 397 2687 759 
Q 2956 1122 2956 1747 
Q 2956 2369 2687 2733 
Q 2419 3097 1959 3097 
z
M 1959 3584 
Q 2709 3584 3137 3096 
Q 3566 2609 3566 1747 
Q 3566 888 3137 398 
Q 2709 -91 1959 -91 
Q 1206 -91 779 398 
Q 353 888 353 1747 
Q 353 2609 779 3096 
Q 1206 3584 1959 3584 
z
" transform="scale(0.015625)"/>
       <path id="DejaVuSans-62" d="M 3116 1747 
Q 3116 2381 2855 2742 
Q 2594 3103 2138 3103 
Q 1681 3103 1420 2742 
Q 1159 2381 1159 1747 
Q 1159 1113 1420 752 
Q 1681 391 2138 391 
Q 2594 391 2855 752 
Q 3116 1113 3116 1747 
z
M 1159 2969 
Q 1341 3281 1617 3432 
Q 1894 3584 2278 3584 
Q 2916 3584 3314 3078 
Q 3713 2572 3713 1747 
Q 3713 922 3314 415 
Q 2916 -91 2278 -91 
Q 1894 -91 1617 61 
Q 1341 213 1159 525 
L 1159 0 
L 581 0 
L 581 4863 
L 1159 4863 
L 1159 2969 
z
" transform="scale(0.015625)"/>
       <path id="DejaVuSans-74" d="M 1172 4494 
L 1172 3500 
L 2356 3500 
L 2356 3053 
L 1172 3053 
L 1172 1153 
Q 1172 725 1289 603 
Q 1406 481 1766 481 
L 2356 481 
L 2356 0 
L 1766 0 
Q 1100 0 847 248 
Q 594 497 594 1153 
L 594 3053 
L 172 3053 
L 172 3500 
L 594 3500 
L 594 4494 
L 1172 4494 
z
" transform="scale(0.015625)"/>
      </defs>
      <use xlink:href="#DejaVuSans-53"/>
      <use xlink:href="#DejaVuSans-75" x="63.476562"/>
      <use xlink:href="#DejaVuSans-72" x="126.855469"/>
      <use xlink:href="#DejaVuSans-76" x="167.96875"/>
      <use xlink:href="#DejaVuSans-69" x="227.148438"/>
      <use xlink:href="#DejaVuSans-76" x="254.931641"/>
      <use xlink:href="#DejaVuSans-61" x="314.111328"/>
      <use xlink:href="#DejaVuSans-6c" x="375.390625"/>
      <use xlink:href="#DejaVuSans-20" x="403.173828"/>
      <use xlink:href="#DejaVuSans-50" x="434.960938"/>
      <use xlink:href="#DejaVuSans-72" x="493.513672"/>
      <use xlink:href="#DejaVuSans-6f" x="532.376953"/>
      <use xlink:href="#DejaVuSans-62" x="593.558594"/>
      <use xlink:href="#DejaVuSans-61" x="657.035156"/>
      <use xlink:href="#DejaVuSans-62" x="718.314453"/>
      <use xlink:href="#DejaVuSans-69" x="781.791016"/>
      <use xlink:href="#DejaVuSans-6c" x="809.574219"/>
      <use xlink:href="#DejaVuSans-69" x="837.357422"/>
      <use xlink:href="#DejaVuSans-74" x="865.140625"/>
      <use xlink:href="#DejaVuSans-79" x="904.349609"/>
     </g>
    </g>
   </g>
   <g id="line2d_15">
    <path d="M 69.144886 30.3961 
L 73.30286 30.3961 
L 73.30286 33.117303 
L 75.150848 33.117303 
L 75.150848 35.83255 
L 76.151841 35.83255 
L 76.151841 38.546382 
L 81.079809 38.546382 
L 81.079809 41.282448 
L 83.620793 41.282448 
L 83.620793 44.026133 
L 83.851791 44.026133 
L 83.851791 46.760568 
L 84.159789 46.760568 
L 84.159789 49.505767 
L 84.313788 49.505767 
L 84.313788 54.976511 
L 85.006784 54.976511 
L 85.006784 57.703301 
L 85.160783 57.703301 
L 85.160783 60.439582 
L 86.623774 60.439582 
L 86.623774 63.189816 
L 88.394762 63.189816 
L 88.394762 65.935816 
L 88.933759 65.935816 
L 88.933759 68.68831 
L 93.630728 68.68831 
L 93.630728 71.44601 
L 94.785721 71.44601 
L 94.785721 74.203521 
L 95.940713 74.203521 
L 95.940713 79.707439 
L 96.248712 79.707439 
L 96.248712 85.181768 
L 97.095706 85.181768 
L 97.095706 87.913004 
L 97.480704 87.913004 
L 97.480704 90.633624 
L 98.327698 90.633624 
L 98.327698 93.351362 
L 99.328692 93.351362 
L 99.328692 96.06454 
L 99.944688 96.06454 
L 99.944688 98.795922 
L 100.021687 98.795922 
L 100.175686 98.795922 
L 100.252686 104.253514 
L 100.483684 104.253514 
L 100.483684 106.979704 
L 100.945681 106.979704 
L 100.945681 109.694866 
L 102.177673 109.694866 
L 102.177673 112.39856 
L 103.178667 112.39856 
L 103.178667 117.772398 
L 103.871662 117.772398 
L 103.871662 120.457873 
L 104.17966 120.457873 
L 104.17966 123.149062 
L 104.872656 123.149062 
L 104.872656 125.834203 
L 105.026655 125.834203 
L 105.103654 131.200377 
L 105.71965 131.200377 
L 105.71965 133.8713 
L 106.335646 133.8713 
L 106.335646 136.545066 
L 106.566645 136.545066 
L 106.643644 141.894135 
L 107.490639 141.894135 
L 107.490639 144.561561 
L 108.414633 144.561561 
L 108.414633 147.217566 
L 108.722631 147.217566 
L 108.722631 149.866721 
L 109.723625 149.866721 
L 109.723625 152.506712 
L 109.877624 152.506712 
L 109.877624 155.14121 
L 110.955617 155.14121 
L 110.955617 157.761391 
L 113.804598 157.761391 
L 113.881598 163.002122 
L 114.497594 163.002122 
L 114.574593 168.204898 
L 116.422581 168.204898 
L 116.422581 170.820011 
L 119.271563 170.820011 
L 119.271563 173.449494 
L 122.967539 173.449494 
L 122.967539 176.081998 
L 123.660535 176.081998 
L 123.660535 178.721191 
L 124.199531 178.721191 
L 124.199531 181.359534 
L 124.815527 181.359534 
L 124.815527 183.981284 
L 126.971513 183.981284 
L 126.971513 186.605277 
L 127.202512 186.605277 
L 127.202512 189.216877 
L 128.588503 189.216877 
L 128.588503 191.821064 
L 128.665502 191.821064 
L 129.666496 191.821064 
L 129.666496 194.41859 
L 133.131474 194.41859 
L 133.131474 197.080276 
L 133.362472 197.080276 
L 133.362472 202.368269 
L 135.21046 202.368269 
L 135.21046 205.005957 
L 136.673451 205.005957 
L 136.673451 207.654227 
L 136.904449 207.654227 
L 136.904449 210.304127 
L 137.443446 210.304127 
L 137.443446 212.940439 
L 139.676431 212.940439 
L 139.676431 215.565083 
L 146.298389 215.565083 
L 146.298389 218.230938 
L 148.993371 218.230938 
L 148.993371 220.900532 
L 149.686367 220.900532 
L 149.686367 223.578085 
L 149.763366 223.578085 
L 150.071364 223.578085 
L 150.071364 226.251101 
L 150.841359 226.251101 
L 150.841359 228.917946 
L 151.457355 228.917946 
L 151.457355 231.574326 
L 154.306337 231.574326 
L 154.306337 234.262598 
L 154.460336 234.262598 
L 154.460336 236.940594 
L 154.691334 236.940594 
L 154.691334 239.601928 
L 156.92432 239.601928 
L 156.92432 242.256831 
L 158.618309 242.256831 
L 158.618309 244.892967 
L 159.619303 244.892967 
L 159.619303 247.518923 
L 159.927301 247.518923 
L 159.927301 250.128317 
L 162.853282 250.128317 
L 162.853282 252.767793 
L 163.315279 252.767793 
L 163.315279 255.390525 
L 167.78125 255.390525 
L 167.78125 258.039724 
L 167.85825 258.039724 
L 171.477226 258.039724 
L 171.477226 260.710319 
L 173.094216 260.710319 
L 173.094216 263.363675 
L 174.095209 263.363675 
L 174.095209 266.003817 
L 175.789198 266.003817 
L 175.789198 268.652646 
L 176.097196 268.652646 
L 176.097196 271.28092 
L 179.485174 271.28092 
L 179.485174 273.976298 
L 180.17817 273.976298 
L 180.17817 276.655517 
L 186.800127 276.655517 
L 186.800127 279.391152 
L 195.65507 279.391152 
L 195.65507 282.257946 
L 198.73505 282.257946 
L 198.73505 285.137734 
L 204.741012 285.137734 
L 204.741012 288.108512 
L 208.359988 288.108512 
L 208.359988 291.145837 
L 222.989894 291.145837 
L 222.989894 294.39903 
L 232.383833 294.39903 
L 232.383833 297.925006 
L 232.460833 297.925006 
L 247.167738 297.925006 
L 247.167738 301.794542 
L 253.789695 301.794542 
L 253.789695 305.740908 
L 284.435497 305.740908 
L 284.435497 310.986404 
L 286.591483 310.986404 
L 286.591483 316.339652 
L 361.512 316.339652 
L 361.512 328.324431 
L 576.417614 328.324431 
L 576.417614 328.324431 
" clip-path="url(#p0fad62adec)" style="fill: none; stroke: #2a5acb; stroke-width: 1.5; stroke-linecap: square"/>
   </g>
   <g id="line2d_16">
    <path d="M 69.144886 28.934417 
L 73.30286 28.934417 
L 73.30286 30.192867 
L 75.150848 30.192867 
L 75.150848 31.452034 
L 76.151841 31.452034 
L 76.151841 32.714038 
L 81.079809 32.714038 
L 81.079809 33.989944 
L 83.620793 33.989944 
L 83.620793 35.273025 
L 83.851791 35.273025 
L 83.851791 36.555418 
L 84.159789 36.555418 
L 84.159789 37.846541 
L 84.313788 37.846541 
L 84.313788 40.430668 
L 85.006784 40.430668 
L 85.006784 41.724271 
L 85.160783 41.724271 
L 85.160783 43.026158 
L 86.623774 43.026158 
L 86.623774 44.338534 
L 88.394762 44.338534 
L 88.394762 45.652773 
L 88.933759 45.652773 
L 88.933759 46.974046 
L 93.630728 46.974046 
L 93.630728 48.301795 
L 94.785721 48.301795 
L 94.785721 49.633467 
L 95.940713 49.633467 
L 95.940713 52.303589 
L 96.248712 52.303589 
L 96.248712 54.975637 
L 97.095706 54.975637 
L 97.095706 56.314928 
L 97.480704 56.314928 
L 97.480704 57.653138 
L 98.327698 57.653138 
L 98.327698 58.994078 
L 99.328692 58.994078 
L 99.328692 60.336939 
L 99.944688 60.336939 
L 99.944688 61.693058 
L 100.021687 61.693058 
L 100.175686 61.693058 
L 100.252686 64.415645 
L 100.483684 64.415645 
L 100.483684 65.782168 
L 100.945681 65.782168 
L 100.945681 67.147537 
L 102.177673 67.147537 
L 102.177673 68.511519 
L 103.178667 68.511519 
L 103.178667 71.235691 
L 103.871662 71.235691 
L 103.871662 72.603675 
L 104.17966 72.603675 
L 104.17966 73.979058 
L 104.872656 73.979058 
L 104.872656 75.355868 
L 105.026655 75.355868 
L 105.103654 78.121079 
L 105.71965 78.121079 
L 105.71965 79.504309 
L 106.335646 79.504309 
L 106.335646 80.893657 
L 106.566645 80.893657 
L 106.643644 83.687284 
L 107.490639 83.687284 
L 107.490639 85.08752 
L 108.414633 85.08752 
L 108.414633 86.486539 
L 108.722631 86.486539 
L 108.722631 87.886746 
L 109.723625 87.886746 
L 109.723625 89.286923 
L 109.877624 89.286923 
L 109.877624 90.689022 
L 110.955617 90.689022 
L 110.955617 92.088342 
L 113.804598 92.088342 
L 113.881598 94.901854 
L 114.497594 94.901854 
L 114.574593 97.714669 
L 116.422581 97.714669 
L 116.422581 99.136027 
L 119.271563 99.136027 
L 119.271563 100.570343 
L 122.967539 100.570343 
L 122.967539 102.011533 
L 123.660535 102.011533 
L 123.660535 103.461687 
L 124.199531 103.461687 
L 124.199531 104.916738 
L 124.815527 104.916738 
L 124.815527 106.368006 
L 126.971513 106.368006 
L 126.971513 107.825931 
L 127.202512 107.825931 
L 127.202512 109.282407 
L 128.588503 109.282407 
L 128.588503 110.740207 
L 128.665502 110.740207 
L 129.666496 110.740207 
L 129.666496 112.199768 
L 133.131474 112.199768 
L 133.131474 113.701129 
L 133.362472 113.701129 
L 133.362472 116.701415 
L 135.21046 116.701415 
L 135.21046 118.206823 
L 136.673451 118.206823 
L 136.673451 119.724281 
L 136.904449 119.724281 
L 136.904449 121.248771 
L 137.443446 121.248771 
L 137.443446 122.771567 
L 139.676431 122.771567 
L 139.676431 124.293759 
L 146.298389 124.293759 
L 146.298389 125.846194 
L 148.993371 125.846194 
L 148.993371 127.407287 
L 149.686367 127.407287 
L 149.686367 128.979625 
L 149.763366 128.979625 
L 150.071364 128.979625 
L 150.071364 130.555963 
L 150.841359 130.555963 
L 150.841359 132.135379 
L 151.457355 132.135379 
L 151.457355 133.715349 
L 154.306337 133.715349 
L 154.306337 135.321233 
L 154.460336 135.321233 
L 154.460336 136.928011 
L 154.691334 136.928011 
L 154.691334 138.531835 
L 156.92432 138.531835 
L 156.92432 140.138866 
L 158.618309 140.138866 
L 158.618309 141.741626 
L 159.619303 141.741626 
L 159.619303 143.345309 
L 159.927301 143.345309 
L 159.927301 144.946 
L 162.853282 144.946 
L 162.853282 146.572459 
L 163.315279 146.572459 
L 163.315279 148.195982 
L 167.78125 148.195982 
L 167.78125 149.843458 
L 167.85825 149.843458 
L 171.477226 149.843458 
L 171.477226 151.512041 
L 173.094216 151.512041 
L 173.094216 153.177717 
L 174.095209 153.177717 
L 174.095209 154.842981 
L 175.789198 154.842981 
L 175.789198 156.521737 
L 176.097196 156.521737 
L 176.097196 158.195507 
L 179.485174 158.195507 
L 179.485174 159.920446 
L 180.17817 159.920446 
L 180.17817 161.64363 
L 186.800127 161.64363 
L 186.800127 163.41206 
L 195.65507 163.41206 
L 195.65507 165.275136 
L 198.73505 165.275136 
L 198.73505 167.156974 
L 204.741012 167.156974 
L 204.741012 169.109282 
L 208.359988 169.109282 
L 208.359988 171.117073 
L 222.989894 171.117073 
L 222.989894 173.28097 
L 232.383833 173.28097 
L 232.383833 175.642267 
L 232.460833 175.642267 
L 247.167738 175.642267 
L 247.167738 178.253137 
L 253.789695 178.253137 
L 253.789695 180.937327 
L 284.435497 180.937327 
L 284.435497 184.539599 
L 286.591483 184.539599 
L 286.591483 188.257619 
L 361.512 188.257619 
L 361.512 196.741688 
L 576.417614 196.741688 
L 576.417614 196.741688 
" clip-path="url(#p0fad62adec)" style="fill: none; stroke: #3256aa; stroke-width: 1.5; stroke-linecap: square"/>
   </g>
   <g id="line2d_17">
    <path d="M 69.144886 28.502241 
L 73.30286 28.502241 
L 73.30286 29.326655 
L 75.150848 29.326655 
L 75.150848 30.152212 
L 76.151841 30.152212 
L 76.151841 30.980305 
L 81.079809 30.980305 
L 81.079809 31.818212 
L 83.620793 31.818212 
L 83.620793 32.661533 
L 83.851791 32.661533 
L 83.851791 33.50511 
L 84.159789 33.50511 
L 84.159789 34.355145 
L 84.313788 34.355145 
L 84.313788 36.058623 
L 85.006784 36.058623 
L 85.006784 36.912468 
L 85.160783 36.912468 
L 85.160783 37.772519 
L 86.623774 37.772519 
L 86.623774 38.640251 
L 88.394762 38.640251 
L 88.394762 39.509974 
L 88.933759 39.509974 
L 88.933759 40.385121 
L 93.630728 40.385121 
L 93.630728 41.265335 
L 94.785721 41.265335 
L 94.785721 42.148938 
L 95.940713 42.148938 
L 95.940713 43.923025 
L 96.248712 43.923025 
L 96.248712 45.701598 
L 97.095706 45.701598 
L 97.095706 46.594272 
L 97.480704 46.594272 
L 97.480704 47.487039 
L 98.327698 47.487039 
L 98.327698 48.382445 
L 99.328692 48.382445 
L 99.328692 49.279958 
L 99.944688 49.279958 
L 99.944688 50.187172 
L 100.021687 50.187172 
L 100.175686 50.187172 
L 100.252686 52.011082 
L 100.483684 52.011082 
L 100.483684 52.927834 
L 100.945681 52.927834 
L 100.945681 53.844681 
L 102.177673 53.844681 
L 102.177673 54.761466 
L 103.178667 54.761466 
L 103.178667 56.595102 
L 103.871662 56.595102 
L 103.871662 57.517211 
L 104.17966 57.517211 
L 104.17966 58.445201 
L 104.872656 58.445201 
L 104.872656 59.375057 
L 105.026655 59.375057 
L 105.103654 61.245336 
L 105.71965 61.245336 
L 105.71965 62.182277 
L 106.335646 62.182277 
L 106.335646 63.124294 
L 106.566645 63.124294 
L 106.643644 65.02129 
L 107.490639 65.02129 
L 107.490639 65.973545 
L 108.414633 65.973545 
L 108.414633 66.925935 
L 108.722631 66.925935 
L 108.722631 67.880099 
L 109.723625 67.880099 
L 109.723625 68.835212 
L 109.877624 68.835212 
L 109.877624 69.792614 
L 110.955617 69.792614 
L 110.955617 70.749094 
L 113.804598 70.749094 
L 113.881598 72.675193 
L 114.497594 72.675193 
L 114.574593 74.604809 
L 116.422581 74.604809 
L 116.422581 75.581403 
L 119.271563 75.581403 
L 119.271563 76.567946 
L 122.967539 76.567946 
L 122.967539 77.560281 
L 123.660535 77.560281 
L 123.660535 78.559868 
L 124.199531 78.559868 
L 124.199531 79.563924 
L 124.815527 79.563924 
L 124.815527 80.566466 
L 126.971513 80.566466 
L 126.971513 81.574713 
L 127.202512 81.574713 
L 127.202512 82.58307 
L 128.588503 82.58307 
L 128.588503 83.593463 
L 128.665502 83.593463 
L 129.666496 83.593463 
L 129.666496 84.606201 
L 133.131474 84.606201 
L 133.131474 85.649124 
L 133.362472 85.649124 
L 133.362472 87.736883 
L 135.21046 87.736883 
L 135.21046 88.786248 
L 136.673451 88.786248 
L 136.673451 89.845254 
L 136.904449 89.845254 
L 136.904449 90.910426 
L 137.443446 90.910426 
L 137.443446 91.975681 
L 139.676431 91.975681 
L 139.676431 93.041784 
L 146.298389 93.041784 
L 146.298389 94.130382 
L 148.993371 94.130382 
L 148.993371 95.226395 
L 149.686367 95.226395 
L 149.686367 96.331674 
L 149.763366 96.331674 
L 150.071364 96.331674 
L 150.071364 97.441151 
L 150.841359 97.441151 
L 150.841359 98.554194 
L 151.457355 98.554194 
L 151.457355 99.669035 
L 154.306337 99.669035 
L 154.306337 100.803611 
L 154.460336 100.803611 
L 154.460336 101.940291 
L 154.691334 101.940291 
L 154.691334 103.076354 
L 156.92432 103.076354 
L 156.92432 104.216175 
L 158.618309 104.216175 
L 158.618309 105.354454 
L 159.619303 105.354454 
L 159.619303 106.494885 
L 159.927301 106.494885 
L 159.927301 107.634686 
L 162.853282 107.634686 
L 162.853282 108.794378 
L 163.315279 108.794378 
L 163.315279 109.953535 
L 167.78125 109.953535 
L 167.78125 111.131394 
L 167.85825 111.131394 
L 171.477226 111.131394 
L 171.477226 112.325994 
L 173.094216 112.325994 
L 173.094216 113.520179 
L 174.095209 113.520179 
L 174.095209 114.715743 
L 175.789198 114.715743 
L 175.789198 115.922696 
L 176.097196 115.922696 
L 176.097196 117.127776 
L 179.485174 117.127776 
L 179.485174 118.371496 
L 180.17817 118.371496 
L 180.17817 119.615782 
L 186.800127 119.615782 
L 186.800127 120.894656 
L 195.65507 120.894656 
L 195.65507 122.244087 
L 198.73505 122.244087 
L 198.73505 123.609321 
L 204.741012 123.609321 
L 204.741012 125.028045 
L 208.359988 125.028045 
L 208.359988 126.489619 
L 222.989894 126.489619 
L 222.989894 128.067723 
L 232.383833 128.067723 
L 232.460833 129.793238 
L 232.460833 129.793238 
L 247.167738 129.793238 
L 247.167738 131.705354 
L 253.789695 131.705354 
L 253.789695 133.675835 
L 284.435497 133.675835 
L 284.435497 136.3278 
L 286.591483 136.3278 
L 286.591483 139.074116 
L 361.512 139.074116 
L 361.512 145.376296 
L 576.417614 145.376296 
L 576.417614 145.376296 
" clip-path="url(#p0fad62adec)" style="fill: none; stroke: #3a528a; stroke-width: 1.5; stroke-linecap: square"/>
   </g>
   <g id="line2d_18">
    <path d="M 69.144886 28.245856 
L 73.30286 28.245856 
L 73.30286 28.812448 
L 75.150848 28.812448 
L 75.150848 29.3801 
L 76.151841 29.3801 
L 76.151841 29.949772 
L 81.079809 29.949772 
L 81.079809 30.526477 
L 83.620793 30.526477 
L 83.620793 31.107196 
L 83.851791 31.107196 
L 83.851791 31.688379 
L 84.159789 31.688379 
L 84.159789 32.274306 
L 84.313788 32.274306 
L 84.313788 33.449393 
L 85.006784 33.449393 
L 85.006784 34.038836 
L 85.160783 34.038836 
L 85.160783 34.632866 
L 86.623774 34.632866 
L 86.623774 35.232509 
L 88.394762 35.232509 
L 88.394762 35.83384 
L 88.933759 35.83384 
L 88.933759 36.439235 
L 93.630728 36.439235 
L 93.630728 37.048456 
L 94.785721 37.048456 
L 94.785721 37.660345 
L 95.940713 37.660345 
L 95.940713 38.889869 
L 96.248712 38.889869 
L 96.248712 40.123821 
L 97.095706 40.123821 
L 97.095706 40.743647 
L 97.480704 40.743647 
L 97.480704 41.363873 
L 98.327698 41.363873 
L 98.327698 41.986269 
L 99.328692 41.986269 
L 99.328692 42.610469 
L 99.944688 42.610469 
L 99.944688 43.241762 
L 100.021687 43.241762 
L 100.175686 43.241762 
L 100.252686 44.512005 
L 100.483684 44.512005 
L 100.483684 45.151002 
L 100.945681 45.151002 
L 100.945681 45.790424 
L 102.177673 45.790424 
L 102.177673 46.430163 
L 103.178667 46.430163 
L 103.178667 47.71077 
L 103.871662 47.71077 
L 103.871662 48.355316 
L 104.17966 48.355316 
L 104.17966 49.004344 
L 104.872656 49.004344 
L 104.872656 49.655051 
L 105.026655 49.655051 
L 105.103654 50.964999 
L 105.71965 50.964999 
L 105.71965 51.621808 
L 106.335646 51.621808 
L 106.335646 52.282562 
L 106.566645 52.282562 
L 106.643644 53.614345 
L 107.490639 53.614345 
L 107.490639 54.283472 
L 108.414633 54.283472 
L 108.414633 54.953094 
L 108.722631 54.953094 
L 108.722631 55.624366 
L 109.723625 55.624366 
L 109.723625 56.296712 
L 109.877624 56.296712 
L 109.877624 56.971075 
L 110.955617 56.971075 
L 110.955617 57.645199 
L 113.804598 57.645199 
L 113.881598 59.003949 
L 114.497594 59.003949 
L 114.574593 60.366853 
L 116.422581 60.366853 
L 116.422581 61.057271 
L 119.271563 61.057271 
L 119.271563 61.755162 
L 122.967539 61.755162 
L 122.967539 62.457596 
L 123.660535 62.457596 
L 123.660535 63.165617 
L 124.199531 63.165617 
L 124.199531 63.877264 
L 124.815527 63.877264 
L 124.815527 64.588298 
L 126.971513 64.588298 
L 126.971513 65.303844 
L 127.202512 65.303844 
L 127.202512 66.019937 
L 128.588503 66.019937 
L 128.588503 66.737946 
L 128.665502 66.737946 
L 129.666496 66.737946 
L 129.666496 67.458098 
L 133.131474 67.458098 
L 133.131474 68.20021 
L 133.362472 68.20021 
L 133.362472 69.687322 
L 135.21046 69.687322 
L 135.21046 70.435556 
L 136.673451 70.435556 
L 136.673451 71.191188 
L 136.904449 71.191188 
L 136.904449 71.951754 
L 137.443446 71.951754 
L 137.443446 72.712915 
L 139.676431 72.712915 
L 139.676431 73.475221 
L 146.298389 73.475221 
L 146.298389 74.254169 
L 148.993371 74.254169 
L 148.993371 75.038995 
L 149.686367 75.038995 
L 149.686367 75.831037 
L 149.763366 75.831037 
L 150.071364 75.831037 
L 150.071364 76.626677 
L 150.841359 76.626677 
L 150.841359 77.42547 
L 151.457355 77.42547 
L 151.457355 78.226154 
L 154.306337 78.226154 
L 154.306337 79.041629 
L 154.460336 79.041629 
L 154.460336 79.859243 
L 154.691334 79.859243 
L 154.691334 80.677044 
L 156.92432 80.677044 
L 156.92432 81.498184 
L 158.618309 81.498184 
L 158.618309 82.31885 
L 159.619303 82.31885 
L 159.619303 83.141706 
L 159.927301 83.141706 
L 159.927301 83.964751 
L 162.853282 83.964751 
L 162.853282 84.802819 
L 163.315279 84.802819 
L 163.315279 85.641169 
L 167.78125 85.641169 
L 167.78125 86.493731 
L 167.85825 86.493731 
L 171.477226 86.493731 
L 171.477226 87.359121 
L 173.094216 87.359121 
L 173.094216 88.224926 
L 174.095209 88.224926 
L 174.095209 89.092452 
L 175.789198 89.092452 
L 175.789198 89.968975 
L 176.097196 89.968975 
L 176.097196 90.844875 
L 179.485174 90.844875 
L 179.485174 91.749636 
L 180.17817 91.749636 
L 180.17817 92.655601 
L 186.800127 92.655601 
L 186.800127 93.587577 
L 195.65507 93.587577 
L 195.65507 94.571886 
L 198.73505 94.571886 
L 198.73505 95.568679 
L 204.741012 95.568679 
L 204.741012 96.605553 
L 208.359988 96.605553 
L 208.359988 97.674841 
L 222.989894 97.674841 
L 222.989894 98.830639 
L 232.383833 98.830639 
L 232.383833 100.095901 
L 232.460833 100.095901 
L 247.167738 100.095901 
L 247.167738 101.499832 
L 253.789695 101.499832 
L 253.789695 102.948651 
L 284.435497 102.948651 
L 284.435497 104.901822 
L 286.591483 104.901822 
L 286.591483 106.928485 
L 361.512 106.928485 
L 361.512 111.594797 
L 576.417614 111.594797 
L 576.417614 111.594797 
" clip-path="url(#p0fad62adec)" style="fill: none; stroke: #424e69; stroke-width: 1.5; stroke-linecap: square"/>
   </g>
   <g id="line2d_19">
    <path d="M 69.144886 27.983581 
L 73.30286 27.983581 
L 73.30286 28.286171 
L 75.150848 28.286171 
L 75.150848 28.589476 
L 76.151841 28.589476 
L 76.151841 28.894012 
L 81.079809 28.894012 
L 81.079809 29.202463 
L 83.620793 29.202463 
L 83.620793 29.513217 
L 83.851791 29.513217 
L 83.851791 29.824378 
L 84.159789 29.824378 
L 84.159789 30.138238 
L 84.313788 30.138238 
L 84.313788 30.768178 
L 85.006784 30.768178 
L 85.006784 31.084411 
L 85.160783 31.084411 
L 85.160783 31.403271 
L 86.623774 31.403271 
L 86.623774 31.725313 
L 88.394762 31.725313 
L 88.394762 32.048432 
L 88.933759 32.048432 
L 88.933759 32.373909 
L 93.630728 32.373909 
L 93.630728 32.701618 
L 94.785721 32.701618 
L 94.785721 33.030941 
L 95.940713 33.030941 
L 95.940713 33.693218 
L 96.248712 33.693218 
L 96.248712 34.358608 
L 97.095706 34.358608 
L 97.095706 34.693115 
L 97.480704 34.693115 
L 97.480704 35.028023 
L 98.327698 35.028023 
L 98.327698 35.364289 
L 99.328692 35.364289 
L 99.328692 35.701718 
L 99.944688 35.701718 
L 99.944688 36.043173 
L 100.021687 36.043173 
L 100.175686 36.043173 
L 100.252686 36.730808 
L 100.483684 36.730808 
L 100.483684 37.07702 
L 100.945681 37.07702 
L 100.945681 37.423662 
L 102.177673 37.423662 
L 102.177673 37.770675 
L 103.178667 37.770675 
L 103.178667 38.465914 
L 103.871662 38.465914 
L 103.871662 38.816141 
L 104.17966 38.816141 
L 104.17966 39.16901 
L 104.872656 39.16901 
L 104.872656 39.523 
L 105.026655 39.523 
L 105.103654 40.236256 
L 105.71965 40.236256 
L 105.71965 40.594202 
L 106.335646 40.594202 
L 106.335646 40.954515 
L 106.566645 40.954515 
L 106.643644 41.681403 
L 107.490639 41.681403 
L 107.490639 42.046946 
L 108.414633 42.046946 
L 108.414633 42.412984 
L 108.722631 42.412984 
L 108.722631 42.780149 
L 109.723625 42.780149 
L 109.723625 43.148128 
L 109.877624 43.148128 
L 109.877624 43.51744 
L 110.955617 43.51744 
L 110.955617 43.886849 
L 113.804598 43.886849 
L 113.881598 44.63212 
L 114.497594 44.63212 
L 114.574593 45.38061 
L 116.422581 45.38061 
L 116.422581 45.760139 
L 119.271563 45.760139 
L 119.271563 46.144023 
L 122.967539 46.144023 
L 122.967539 46.530656 
L 123.660535 46.530656 
L 123.660535 46.920621 
L 124.199531 46.920621 
L 124.199531 47.312842 
L 124.815527 47.312842 
L 124.815527 47.704985 
L 126.971513 47.704985 
L 126.971513 48.099879 
L 127.202512 48.099879 
L 127.202512 48.49534 
L 128.588503 48.49534 
L 128.588503 48.892125 
L 128.665502 48.892125 
L 129.666496 48.892125 
L 129.666496 49.290362 
L 133.131474 49.290362 
L 133.131474 49.701026 
L 133.362472 49.701026 
L 133.362472 50.524813 
L 135.21046 50.524813 
L 135.21046 50.939735 
L 136.673451 50.939735 
L 136.673451 51.359057 
L 136.904449 51.359057 
L 136.904449 51.78142 
L 137.443446 51.78142 
L 137.443446 52.204418 
L 139.676431 52.204418 
L 139.676431 52.628359 
L 146.298389 52.628359 
L 146.298389 53.061872 
L 148.993371 53.061872 
L 148.993371 53.498982 
L 149.686367 53.498982 
L 149.686367 53.940442 
L 149.763366 53.940442 
L 150.071364 53.940442 
L 150.071364 54.384245 
L 150.841359 54.384245 
L 150.841359 54.830145 
L 151.457355 54.830145 
L 151.457355 55.277444 
L 154.306337 55.277444 
L 154.306337 55.733359 
L 154.460336 55.733359 
L 154.460336 56.190829 
L 154.691334 56.190829 
L 154.691334 56.648764 
L 156.92432 56.648764 
L 156.92432 57.108932 
L 158.618309 57.108932 
L 158.618309 57.5692 
L 159.619303 57.5692 
L 159.619303 58.031063 
L 159.927301 58.031063 
L 159.927301 58.4934 
L 162.853282 58.4934 
L 162.853282 58.964557 
L 163.315279 58.964557 
L 163.315279 59.436256 
L 167.78125 59.436256 
L 167.78125 59.916348 
L 167.85825 59.916348 
L 171.477226 59.916348 
L 171.477226 60.404071 
L 173.094216 60.404071 
L 173.094216 60.892443 
L 174.095209 60.892443 
L 174.095209 61.3822 
L 175.789198 61.3822 
L 175.789198 61.87746 
L 176.097196 61.87746 
L 176.097196 62.372795 
L 179.485174 62.372795 
L 179.485174 62.8849 
L 180.17817 62.8849 
L 180.17817 63.398146 
L 186.800127 63.398146 
L 186.800127 63.926607 
L 195.65507 63.926607 
L 195.65507 64.485272 
L 198.73505 64.485272 
L 198.73505 65.05158 
L 204.741012 65.05158 
L 204.741012 65.641256 
L 208.359988 65.641256 
L 208.359988 66.250005 
L 222.989894 66.250005 
L 222.989894 66.908736 
L 232.383833 66.908736 
L 232.383833 67.63073 
L 232.460833 67.63073 
L 247.167738 67.63073 
L 247.167738 68.432927 
L 253.789695 68.432927 
L 253.789695 69.261965 
L 284.435497 69.261965 
L 284.435497 70.381526 
L 286.591483 70.381526 
L 286.591483 71.545561 
L 361.512 71.545561 
L 361.512 74.23489 
L 576.417614 74.23489 
L 576.417614 74.23489 
" clip-path="url(#p0fad62adec)" style="fill: none; stroke: #4a4a4a; stroke-width: 1.5; stroke-linecap: square"/>
   </g>
   <g id="patch_3">
    <path d="M 43.78125 354.958125 
L 43.78125 22.318125 
" style="fill: none; stroke: #000000; stroke-width: 0.8; stroke-linejoin: miter; stroke-linecap: square"/>
   </g>
   <g id="patch_4">
    <path d="M 601.78125 354.958125 
L 601.78125 22.318125 
" style="fill: none; stroke: #000000; stroke-width: 0.8; stroke-linejoin: miter; stroke-linecap: square"/>
   </g>
   <g id="patch_5">
    <path d="M 43.78125 354.958125 
L 601.78125 354.958125 
" style="fill: none; stroke: #000000; stroke-width: 0.8; stroke-linejoin: miter; stroke-linecap: square"/>
   </g>
   <g id="patch_6">
    <path d="M 43.78125 22.318125 
L 601.78125 22.318125 
" style="fill: none; stroke: #000000; stroke-width: 0.8; stroke-linejoin: miter; stroke-linecap: square"/>
   </g>
   <g id="text_17">
    <!-- p-value: 1.15e-12 -->
    <g transform="translate(502.313438 36.569362) scale(0.1 -0.1)">
     <defs>
      <path id="DejaVuSans-70" d="M 1159 525 
L 1159 -1331 
L 581 -1331 
L 581 3500 
L 1159 3500 
L 1159 2969 
Q 1341 3281 1617 3432 
Q 1894 3584 2278 3584 
Q 2916 3584 3314 3078 
Q 3713 2572 3713 1747 
Q 3713 922 3314 415 
Q 2916 -91 2278 -91 
Q 1894 -91 1617 61 
Q 1341 213 1159 525 
z
M 3116 1747 
Q 3116 2381 2855 2742 
Q 2594 3103 2138 3103 
Q 1681 3103 1420 2742 
Q 1159 2381 1159 1747 
Q 1159 1113 1420 752 
Q 1681 391 2138 391 
Q 2594 391 2855 752 
Q 3116 1113 3116 1747 
z
" transform="scale(0.015625)"/>
      <path id="DejaVuSans-2d" d="M 313 2009 
L 1997 2009 
L 1997 1497 
L 313 1497 
L 313 2009 
z
" transform="scale(0.015625)"/>
      <path id="DejaVuSans-3a" d="M 750 794 
L 1409 794 
L 1409 0 
L 750 0 
L 750 794 
z
M 750 3309 
L 1409 3309 
L 1409 2516 
L 750 2516 
L 750 3309 
z
" transform="scale(0.015625)"/>
     </defs>
     <use xlink:href="#DejaVuSans-70"/>
     <use xlink:href="#DejaVuSans-2d" x="63.476562"/>
     <use xlink:href="#DejaVuSans-76" x="96.935547"/>
     <use xlink:href="#DejaVuSans-61" x="156.115234"/>
     <use xlink:href="#DejaVuSans-6c" x="217.394531"/>
     <use xlink:href="#DejaVuSans-75" x="245.177734"/>
     <use xlink:href="#DejaVuSans-65" x="308.556641"/>
     <use xlink:href="#DejaVuSans-3a" x="370.080078"/>
     <use xlink:href="#DejaVuSans-20" x="403.771484"/>
     <use xlink:href="#DejaVuSans-31" x="435.558594"/>
     <use xlink:href="#DejaVuSans-2e" x="499.181641"/>
     <use xlink:href="#DejaVuSans-31" x="530.96875"/>
     <use xlink:href="#DejaVuSans-35" x="594.591797"/>
     <use xlink:href="#DejaVuSans-65" x="658.214844"/>
     <use xlink:href="#DejaVuSans-2d" x="719.738281"/>
     <use xlink:href="#DejaVuSans-31" x="755.822266"/>
     <use xlink:href="#DejaVuSans-32" x="819.445312"/>
    </g>
   </g>
   <g id="text_18">
    <!-- Adjusted Partial Effects of Continuous TCR Scores on Survival -->
    <g transform="translate(138.996563 16.318125) scale(0.12 -0.12)">
     <defs>
      <path id="DejaVuSans-41" d="M 2188 4044 
L 1331 1722 
L 3047 1722 
L 2188 4044 
z
M 1831 4666 
L 2547 4666 
L 4325 0 
L 3669 0 
L 3244 1197 
L 1141 1197 
L 716 0 
L 50 0 
L 1831 4666 
z
" transform="scale(0.015625)"/>
      <path id="DejaVuSans-64" d="M 2906 2969 
L 2906 4863 
L 3481 4863 
L 3481 0 
L 2906 0 
L 2906 525 
Q 2725 213 2448 61 
Q 2172 -91 1784 -91 
Q 1150 -91 751 415 
Q 353 922 353 1747 
Q 353 2572 751 3078 
Q 1150 3584 1784 3584 
Q 2172 3584 2448 3432 
Q 2725 3281 2906 2969 
z
M 947 1747 
Q 947 1113 1208 752 
Q 1469 391 1925 391 
Q 2381 391 2643 752 
Q 2906 1113 2906 1747 
Q 2906 2381 2643 2742 
Q 2381 3103 1925 3103 
Q 1469 3103 1208 2742 
Q 947 2381 947 1747 
z
" transform="scale(0.015625)"/>
      <path id="DejaVuSans-6a" d="M 603 3500 
L 1178 3500 
L 1178 -63 
Q 1178 -731 923 -1031 
Q 669 -1331 103 -1331 
L -116 -1331 
L -116 -844 
L 38 -844 
Q 366 -844 484 -692 
Q 603 -541 603 -63 
L 603 3500 
z
M 603 4863 
L 1178 4863 
L 1178 4134 
L 603 4134 
L 603 4863 
z
" transform="scale(0.015625)"/>
      <path id="DejaVuSans-45" d="M 628 4666 
L 3578 4666 
L 3578 4134 
L 1259 4134 
L 1259 2753 
L 3481 2753 
L 3481 2222 
L 1259 2222 
L 1259 531 
L 3634 531 
L 3634 0 
L 628 0 
L 628 4666 
z
" transform="scale(0.015625)"/>
      <path id="DejaVuSans-66" d="M 2375 4863 
L 2375 4384 
L 1825 4384 
Q 1516 4384 1395 4259 
Q 1275 4134 1275 3809 
L 1275 3500 
L 2222 3500 
L 2222 3053 
L 1275 3053 
L 1275 0 
L 697 0 
L 697 3053 
L 147 3053 
L 147 3500 
L 697 3500 
L 697 3744 
Q 697 4328 969 4595 
Q 1241 4863 1831 4863 
L 2375 4863 
z
" transform="scale(0.015625)"/>
      <path id="DejaVuSans-63" d="M 3122 3366 
L 3122 2828 
Q 2878 2963 2633 3030 
Q 2388 3097 2138 3097 
Q 1578 3097 1268 2742 
Q 959 2388 959 1747 
Q 959 1106 1268 751 
Q 1578 397 2138 397 
Q 2388 397 2633 464 
Q 2878 531 3122 666 
L 3122 134 
Q 2881 22 2623 -34 
Q 2366 -91 2075 -91 
Q 1284 -91 818 406 
Q 353 903 353 1747 
Q 353 2603 823 3093 
Q 1294 3584 2113 3584 
Q 2378 3584 2631 3529 
Q 2884 3475 3122 3366 
z
" transform="scale(0.015625)"/>
      <path id="DejaVuSans-43" d="M 4122 4306 
L 4122 3641 
Q 3803 3938 3442 4084 
Q 3081 4231 2675 4231 
Q 1875 4231 1450 3742 
Q 1025 3253 1025 2328 
Q 1025 1406 1450 917 
Q 1875 428 2675 428 
Q 3081 428 3442 575 
Q 3803 722 4122 1019 
L 4122 359 
Q 3791 134 3420 21 
Q 3050 -91 2638 -91 
Q 1578 -91 968 557 
Q 359 1206 359 2328 
Q 359 3453 968 4101 
Q 1578 4750 2638 4750 
Q 3056 4750 3426 4639 
Q 3797 4528 4122 4306 
z
" transform="scale(0.015625)"/>
      <path id="DejaVuSans-52" d="M 2841 2188 
Q 3044 2119 3236 1894 
Q 3428 1669 3622 1275 
L 4263 0 
L 3584 0 
L 2988 1197 
Q 2756 1666 2539 1819 
Q 2322 1972 1947 1972 
L 1259 1972 
L 1259 0 
L 628 0 
L 628 4666 
L 2053 4666 
Q 2853 4666 3247 4331 
Q 3641 3997 3641 3322 
Q 3641 2881 3436 2590 
Q 3231 2300 2841 2188 
z
M 1259 4147 
L 1259 2491 
L 2053 2491 
Q 2509 2491 2742 2702 
Q 2975 2913 2975 3322 
Q 2975 3731 2742 3939 
Q 2509 4147 2053 4147 
L 1259 4147 
z
" transform="scale(0.015625)"/>
     </defs>
     <use xlink:href="#DejaVuSans-41"/>
     <use xlink:href="#DejaVuSans-64" x="66.658203"/>
     <use xlink:href="#DejaVuSans-6a" x="130.134766"/>
     <use xlink:href="#DejaVuSans-75" x="157.917969"/>
     <use xlink:href="#DejaVuSans-73" x="221.296875"/>
     <use xlink:href="#DejaVuSans-74" x="273.396484"/>
     <use xlink:href="#DejaVuSans-65" x="312.605469"/>
     <use xlink:href="#DejaVuSans-64" x="374.128906"/>
     <use xlink:href="#DejaVuSans-20" x="437.605469"/>
     <use xlink:href="#DejaVuSans-50" x="469.392578"/>
     <use xlink:href="#DejaVuSans-61" x="525.195312"/>
     <use xlink:href="#DejaVuSans-72" x="586.474609"/>
     <use xlink:href="#DejaVuSans-74" x="627.587891"/>
     <use xlink:href="#DejaVuSans-69" x="666.796875"/>
     <use xlink:href="#DejaVuSans-61" x="694.580078"/>
     <use xlink:href="#DejaVuSans-6c" x="755.859375"/>
     <use xlink:href="#DejaVuSans-20" x="783.642578"/>
     <use xlink:href="#DejaVuSans-45" x="815.429688"/>
     <use xlink:href="#DejaVuSans-66" x="878.613281"/>
     <use xlink:href="#DejaVuSans-66" x="913.818359"/>
     <use xlink:href="#DejaVuSans-65" x="949.023438"/>
     <use xlink:href="#DejaVuSans-63" x="1010.546875"/>
     <use xlink:href="#DejaVuSans-74" x="1065.527344"/>
     <use xlink:href="#DejaVuSans-73" x="1104.736328"/>
     <use xlink:href="#DejaVuSans-20" x="1156.835938"/>
     <use xlink:href="#DejaVuSans-6f" x="1188.623047"/>
     <use xlink:href="#DejaVuSans-66" x="1249.804688"/>
     <use xlink:href="#DejaVuSans-20" x="1285.009766"/>
     <use xlink:href="#DejaVuSans-43" x="1316.796875"/>
     <use xlink:href="#DejaVuSans-6f" x="1386.621094"/>
     <use xlink:href="#DejaVuSans-6e" x="1447.802734"/>
     <use xlink:href="#DejaVuSans-74" x="1511.181641"/>
     <use xlink:href="#DejaVuSans-69" x="1550.390625"/>
     <use xlink:href="#DejaVuSans-6e" x="1578.173828"/>
     <use xlink:href="#DejaVuSans-75" x="1641.552734"/>
     <use xlink:href="#DejaVuSans-6f" x="1704.931641"/>
     <use xlink:href="#DejaVuSans-75" x="1766.113281"/>
     <use xlink:href="#DejaVuSans-73" x="1829.492188"/>
     <use xlink:href="#DejaVuSans-20" x="1881.591797"/>
     <use xlink:href="#DejaVuSans-54" x="1913.378906"/>
     <use xlink:href="#DejaVuSans-43" x="1968.587891"/>
     <use xlink:href="#DejaVuSans-52" x="2038.412109"/>
     <use xlink:href="#DejaVuSans-20" x="2107.894531"/>
     <use xlink:href="#DejaVuSans-53" x="2139.681641"/>
     <use xlink:href="#DejaVuSans-63" x="2203.158203"/>
     <use xlink:href="#DejaVuSans-6f" x="2258.138672"/>
     <use xlink:href="#DejaVuSans-72" x="2319.320312"/>
     <use xlink:href="#DejaVuSans-65" x="2358.183594"/>
     <use xlink:href="#DejaVuSans-73" x="2419.707031"/>
     <use xlink:href="#DejaVuSans-20" x="2471.806641"/>
     <use xlink:href="#DejaVuSans-6f" x="2503.59375"/>
     <use xlink:href="#DejaVuSans-6e" x="2564.775391"/>
     <use xlink:href="#DejaVuSans-20" x="2628.154297"/>
     <use xlink:href="#DejaVuSans-53" x="2659.941406"/>
     <use xlink:href="#DejaVuSans-75" x="2723.417969"/>
     <use xlink:href="#DejaVuSans-72" x="2786.796875"/>
     <use xlink:href="#DejaVuSans-76" x="2827.910156"/>
     <use xlink:href="#DejaVuSans-69" x="2887.089844"/>
     <use xlink:href="#DejaVuSans-76" x="2914.873047"/>
     <use xlink:href="#DejaVuSans-61" x="2974.052734"/>
     <use xlink:href="#DejaVuSans-6c" x="3035.332031"/>
    </g>
   </g>
  </g>
 </g>
 <defs>
  <clipPath id="p0fad62adec">
   <rect x="43.78125" y="22.318125" width="558" height="332.64"/>
  </clipPath>
 </defs>
</svg>
